<svg xmlns="http://www.w3.org/2000/svg" xmlns:xlink="http://www.w3.org/1999/xlink" width="375.269" height="377.011" viewBox="0 0 375.269 377.011">
  <defs>
    <clipPath id="clip-path">
      <rect id="Rectangle_404340" data-name="Rectangle 404340" width="373.181" height="377.011" fill="none"/>
    </clipPath>
    <clipPath id="clip-path-2">
      <path id="Path_875263" data-name="Path 875263" d="M642.084,373.126c-.121,0-.242.009-.362.013a13.138,13.138,0,0,0-2.384.943c-.076,3.9.76,7.929,3.541,10.848a7.835,7.835,0,0,0,3.977,2.327,2.534,2.534,0,0,0,1.57.21c-.212-.814-.423-1.607-.706-2.4-.946-2.652-.47-6.479-.441-9.3-1.439-1.379-3.005-2.64-5.1-2.64h-.1" transform="translate(-639.332 -373.125)" fill="none"/>
    </clipPath>
    <linearGradient id="linear-gradient" x1="-7.544" y1="17.841" x2="-7.532" y2="17.841" gradientUnits="objectBoundingBox">
      <stop offset="0" stop-color="#ec4d4d"/>
      <stop offset="1" stop-color="#f67e5a"/>
    </linearGradient>
    <clipPath id="clip-path-4">
      <path id="Path_875284" data-name="Path 875284" d="M1348.534,1372.571l.108.027.093.005-.315-.173c.063.078.091.119.114.141m-30.766-17.971c-1.451,5.6-3.853,13.076-4.557,18.626,2.337.79,6.1.6,8.645.876a70.244,70.244,0,0,1,10,1.89,55.953,55.953,0,0,1,9.635,3.324c1.112.517,4.78,2.7,5.57,2.882a1.46,1.46,0,0,0-.12-.242,11.4,11.4,0,0,0-2.07-1.519,40.423,40.423,0,0,0-16.942-7.315c3.741-.6,17.406-1.485,20.573-.42.056.019.11.04.166.06l.225-.141c-.067-.009-.119-.015-.161-.018l.062.034-.155-.039c-.06,0-.082,0-.108-.027-12.2-3.075-18.178-1.561-30.178-.025a149.851,149.851,0,0,1,15.39-8.451c1.876-.935,3.649-1.971,5.552-2.856l.005-.168a22.019,22.019,0,0,0-3.778,1.293c-2.321.871-4.637,1.681-6.925,2.647-1.869.789-3.691,1.782-5.623,2.4a20.622,20.622,0,0,1-.878-3.85c-.437-2.017-2.4-11.663-3.488-12.526Z" transform="translate(-1313.21 -1351.036)" fill="none"/>
    </clipPath>
    <linearGradient id="linear-gradient-2" x1="-8.3" y1="3.157" x2="-8.294" y2="3.157" gradientUnits="objectBoundingBox">
      <stop offset="0" stop-color="#153639"/>
      <stop offset="1" stop-color="#325b5e"/>
    </linearGradient>
  </defs>
  <g id="Group_1099822" data-name="Group 1099822" transform="translate(-1019.285 -15341.989)">
    <g id="Group_1099812" data-name="Group 1099812" transform="translate(1021.373 15341.989)">
      <g id="Group_1099813" data-name="Group 1099813">
        <g id="Group_1099812-2" data-name="Group 1099812" clip-path="url(#clip-path)">
          <path id="Path_875230" data-name="Path 875230" d="M995.757,678.632c1.045.216,2.418.38,3.1,1.3.716.961.3,2.334.019,3.387-.05.188-.113.373-.179.556-.954-1.764-2.011-3.465-2.945-5.244" transform="translate(-799.682 -545.002)" fill="#dddfdf"/>
          <path id="Path_875231" data-name="Path 875231" d="M1532.871,762.614a7.168,7.168,0,0,1,4.708,2.981,4.4,4.4,0,0,1,.208.4,4.383,4.383,0,0,1,.29.845q.051.218.079.44a4.319,4.319,0,0,1,.034.446,4.411,4.411,0,0,1-.011.447q-.017.223-.057.443a4.321,4.321,0,0,1-.1.436c-.513,1.847-1.843,2.917-3.259,4.067,2.492,1.529,4.709,3.273,5.526,6.238.021.077.037.156.055.233-5.466-1.375-8.918-1.816-14.4.205a1.087,1.087,0,0,1-.446.1c.665-3.327,3.744-5.309,6.348-7.06-1.631-.9-3.06-1.744-3.657-3.644a4.737,4.737,0,0,1,.473-3.8,6.421,6.421,0,0,1,4.207-2.781" transform="translate(-1225.113 -612.447)" fill="#375963"/>
          <path id="Path_875232" data-name="Path 875232" d="M1426.825,844.339a1.091,1.091,0,0,0,.446-.1c5.478-2.021,8.931-1.58,14.4-.205a45.467,45.467,0,0,0,.424,5.145,142.009,142.009,0,0,1,27.63,7.59c1.641-1.16,3.28-2.052,5.376-1.663a4.664,4.664,0,0,1,.89.254,4.626,4.626,0,0,1,.421.192q.206.107.4.234a4.628,4.628,0,0,1,.375.272q.18.146.346.308a4.587,4.587,0,0,1,.313.341,4.537,4.537,0,0,1,.278.371,5.051,5.051,0,0,1,.709,3.934c-.445,1.786-1.506,2.664-2.842,3.808.141,2.663,1.229,5.218,2.052,7.738,1.66,5.085,3.619,10.147,5.081,15.286l-.125,1.174q-2.968-8.619-5.8-17.285a51.378,51.378,0,0,1-1.778-4.938,1.754,1.754,0,0,1,.086-.818c.03-.145.045-.293.069-.44l.059-.336-.235-.285-.257.128a19.671,19.671,0,0,0-.125,3.954q-.056,5.582-.022,11.164l-.038,35.553c.007,2.928.466,9.334-.1,11.875l-.2-.172-.246.369a49.014,49.014,0,0,1-7.167.091q-7.381-.071-14.763.039l-.526.014c1.146-3.757,2.662-7.408,3.885-11.144,5.649-17.262,11.629-34.611,16.847-51.99a12.238,12.238,0,0,1-1.751-.907c-1.449-.99-1.87-2.522-2.2-4.14-3.48-.916-6.886-2.342-10.326-3.42a157.624,157.624,0,0,0-16.855-4.177,6.078,6.078,0,0,1-2.709,3.764,3.529,3.529,0,0,1-2.627.43l-.431,1.189-3.464-.354L1432.07,856a5.136,5.136,0,0,1-3.771-2.255c-.318-.5-.581-1.052-.851-1.578-6.356.854-17.888,3.4-23.9,5.781a14.522,14.522,0,0,0-.914-3.12c2.686-.576,6.13-2.169,8.937-3.006a106.914,106.914,0,0,1,15.04-2.982,42.7,42.7,0,0,1,.218-4.5" transform="translate(-1126.438 -676.891)" fill="#ececec"/>
          <path id="Path_875233" data-name="Path 875233" d="M1426.825,844.339a1.091,1.091,0,0,0,.446-.1c5.478-2.021,8.931-1.58,14.4-.205a45.467,45.467,0,0,0,.424,5.145,142.009,142.009,0,0,1,27.63,7.59c1.641-1.16,3.28-2.052,5.376-1.663a4.664,4.664,0,0,1,.89.254,4.626,4.626,0,0,1,.421.192q.206.107.4.234a4.628,4.628,0,0,1,.375.272q.18.146.346.308a4.587,4.587,0,0,1,.313.341,4.537,4.537,0,0,1,.278.371,5.051,5.051,0,0,1,.709,3.934c-.445,1.786-1.506,2.664-2.842,3.808.141,2.663,1.229,5.218,2.052,7.738,1.66,5.085,3.619,10.147,5.081,15.286l-.125,1.174q-2.968-8.619-5.8-17.285a51.378,51.378,0,0,1-1.778-4.938,1.754,1.754,0,0,1,.086-.818c.03-.145.045-.293.069-.44l.059-.336-.235-.285-.257.128a19.671,19.671,0,0,0-.125,3.954q-.056,5.582-.022,11.164l-.038,35.553c.007,2.928.466,9.334-.1,11.875l-.2-.172-.246.369c.169-3.3.02-6.67.011-9.977l-.052-19.717-.01-24.2c-.012-2.254.21-4.58.126-6.817a4.693,4.693,0,0,0-.382-1.789,1.132,1.132,0,0,0-.922-.436l.315.734a4.152,4.152,0,0,0-.847,1.186c-.547,1.339-.733,3-1.181,4.4-1.373,4.318-2.921,8.586-4.323,12.9-4.76,14.64-9.385,29.385-14.665,43.844l-.526.014c1.146-3.757,2.662-7.408,3.885-11.144,5.649-17.262,11.629-34.611,16.847-51.99a12.238,12.238,0,0,1-1.751-.907c-1.449-.99-1.87-2.522-2.2-4.14-3.48-.916-6.886-2.342-10.326-3.42a157.624,157.624,0,0,0-16.855-4.177,6.078,6.078,0,0,1-2.709,3.764,3.529,3.529,0,0,1-2.627.43l-.431,1.189-3.464-.354L1432.07,856a5.136,5.136,0,0,1-3.771-2.255c-.318-.5-.581-1.052-.851-1.578-6.356.854-17.888,3.4-23.9,5.781a14.522,14.522,0,0,0-.914-3.12c2.686-.576,6.13-2.169,8.937-3.006a106.914,106.914,0,0,1,15.04-2.982,42.7,42.7,0,0,1,.218-4.5" transform="translate(-1126.438 -676.891)" fill="#31978f"/>
          <path id="Path_875234" data-name="Path 875234" d="M1552.138,909.263c1.167-.093,3.091-.206,4.154.349l-.432,1.189-3.464-.354Z" transform="translate(-1246.506 -730.158)" fill="#375963"/>
          <path id="Path_875235" data-name="Path 875235" d="M1661.012,1017.531c.57-2.542.111-8.947.1-11.875l.038-35.552q-.033-5.582.022-11.164a19.671,19.671,0,0,1,.124-3.954l.257-.128.235.285-.059.336c-.024.146-.039.294-.07.44a1.753,1.753,0,0,0-.085.818,51.378,51.378,0,0,0,1.778,4.938q2.828,8.666,5.8,17.285l.125-1.174,7.723,23.634q1.811,5.379,3.523,10.789a56.254,56.254,0,0,1,1.7,5.584l3.546.035a8.13,8.13,0,0,1-.312,3.172,1.836,1.836,0,0,1-1.269.277c-1.239,3.872-5.842,7.219-9.315,9-.9.463-1.854.912-2.8,1.286-5.3,1.978-12.214,2.092-17.731,1.124-7.663-1.345-14.19-5.072-18.665-11.479-.273-.094-.533-.218-.8-.334a8.07,8.07,0,0,1-.451-2.959l3.681-.037.526-.014q7.381-.11,14.762-.039a49.013,49.013,0,0,0,7.167-.091l.246-.369Z" transform="translate(-1312.595 -766.836)" fill="#fefefe"/>
          <path id="Path_875236" data-name="Path 875236" d="M1669.277,1071.293l7.723,23.634q1.811,5.379,3.523,10.789a56.263,56.263,0,0,1,1.7,5.584l3.547.035a8.138,8.138,0,0,1-.312,3.172,1.835,1.835,0,0,1-1.269.276c-3.938-.625-9.172-.221-13.3-.218-11.712.008-23.52.545-35.214.146-.274-.094-.534-.218-.8-.335a8.075,8.075,0,0,1-.452-2.959l3.682-.037.526-.014q7.381-.11,14.763-.039a48.976,48.976,0,0,0,7.167-.091l.246-.369.2.172c.689.531,18.59.231,20.707.233-1.71-6.475-4.114-12.837-6.225-19.193-2.166-6.521-4.07-13.125-6.34-19.613Z" transform="translate(-1312.594 -860.344)" fill="#375963"/>
          <path id="Path_875237" data-name="Path 875237" d="M1640.777,1290.661c11.694.4,23.5-.137,35.214-.146,4.124,0,9.358-.408,13.3.218-1.24,3.872-5.842,7.219-9.315,9-.9.463-1.854.912-2.8,1.286-5.3,1.978-12.214,2.092-17.731,1.124-7.663-1.345-14.191-5.072-18.665-11.478" transform="translate(-1317.691 -1036.294)" fill="#31978f"/>
          <path id="Path_875238" data-name="Path 875238" d="M587.7,498.948c1.938,5.978,6.369,12.18,10.923,16.5.737.7,2.9,2.206,3.287,2.952a1.824,1.824,0,0,1,.068,1.162l-2,14.637c-4.963,1.655-10.98,8.172-13.257,12.813-.046.094-.082.192-.124.289a20.059,20.059,0,0,1-2.49.973c-7.017,1.411-13.509,5.023-20.4,6.867l-.708.031a3.46,3.46,0,0,1-1.385.451c-2.709-6.573-3.979-13.067-1.453-19.94,3.1-8.433,10.742-13.211,18.523-16.778a19.681,19.681,0,0,1-1.957-7.485c-.087-3.2,1.072-7.2,3.4-9.5.294-.29.343-.4.77-.388.278,1.382-1.5,3.546-2,4.933a14,14,0,0,0,.648,10.75,1.367,1.367,0,0,0,.952.813c.935-.5.638-1.226.558-2.16a16.226,16.226,0,0,1-.106-3.762c.68-4.578,4.3-9.312,6.75-13.152" transform="translate(-448.762 -400.7)" fill="#192e35"/>
          <path id="Path_875239" data-name="Path 875239" d="M568.793,663.248c-2.742-6.34-3.94-12.907-1.336-19.532a22.822,22.822,0,0,1,8.309-10.186c-5.239,5.271-9.022,11.356-8.992,19.026.02,5.122,1.236,6.184,2.727,10.661Z" transform="translate(-454.558 -508.781)" fill="#fefefe"/>
          <path id="Path_875240" data-name="Path 875240" d="M670.92,1.834c7.757-2.892,15.021-2.174,22.693.827C705.4,7.273,716.073,16.5,721.14,28.229c6.075,14.063,4.708,25.749-.8,39.582-.2.241-1.455.38-1.814.5a9.049,9.049,0,0,0-3.844,2.384c.006-3.1,0-6.982-1.712-9.7-2.18-3.463-9.287-7.247-12.828-9.549-9.517-6.186-18.6-13.71-24.407-23.61a26.422,26.422,0,0,1-3.276-7.429c-2.245-.151-10.057,6.323-11.934,7.963-.944.825-1.861,1.723-2.856,2.483l-.131.135c-1.353,1.378-2.9,2.554-4.275,3.912-10.736,10.613-20.456,21.419-20.64,37.42-2.143-2.111-4.369-3.914-7.524-4.083a8.34,8.34,0,0,1-.66-1.424c-4.547-12.56-5.227-27.365.586-39.579,5.4-11.339,16.515-20.817,28.286-24.952,5.613-1.971,12.036-3.116,17.61-.447" transform="translate(-498.596 0)" fill="#375963"/>
          <path id="Path_875241" data-name="Path 875241" d="M807.257,39.3l-.145-.448a2.112,2.112,0,0,1,.2-.632c.7-1.573,2.374-3.013,3.416-4.408q1.513-2.059,2.827-4.249t2.419-4.494a44.449,44.449,0,0,0,2.225-5.49c.617-1.947,1.573-7.858,2.522-9.058.442.939.152,6.273.231,7.7q.118,2.1.443,4.169c.235,1.5,1.437,4.983,1.113,6.3l-.457.165c-2.246-.151-10.057,6.323-11.934,7.963-.944.825-1.862,1.723-2.856,2.483" transform="translate(-648.183 -8.449)" fill="#192e35"/>
          <path id="Path_875242" data-name="Path 875242" d="M1233.677,233.55a2.734,2.734,0,0,1,.228.191c.344.357.234,1.553.239,2.058a20.1,20.1,0,0,0,13.756,5.048c4.715-.042,10.346-1.576,13.745-5.013a25.521,25.521,0,0,1,.98-3.084,71.333,71.333,0,0,1,.226,8.7,19.429,19.429,0,0,0,7.455,4.459,22.461,22.461,0,0,0,16.246-1.424c3.268-1.7,3.239-1.917,4.279-5.244.385,7.938.125,16,.123,23.95l-.017,42.87c-.013,4.136.1,8.287-.057,12.42-8.548.344-17.171.13-25.728.118q-15.782.076-31.563-.1c-.443-5.715-.1-11.67-.091-17.4l.015-32.133,0-23.576c0-3.723-.367-8.207.167-11.842" transform="translate(-990.5 -186.919)" fill="#31978f"/>
          <path id="Path_875243" data-name="Path 875243" d="M1383.031,636.169c9.177-.111,18.374.018,27.553.02l-.024,5.8c-9.136.306-18.386.015-27.533.016Z" transform="translate(-1110.694 -510.865)" fill="#ececec"/>
          <path id="Path_875244" data-name="Path 875244" d="M1239.919,635.957l25.084.054-.027,5.87-3.315-.005h-24.822c-.119-1.959-.092-3.928-.1-5.89Z" transform="translate(-993.211 -510.73)" fill="#ececec"/>
          <path id="Path_875245" data-name="Path 875245" d="M1383.085,279.958c3.049,3.222,7.8,4.908,12.147,5.194a21.217,21.217,0,0,0,15.267-4.842c.426,9.448.144,18.987.14,28.448-.006,13.6.125,27.211-.076,40.807q-3.754.016-7.507-.007l-.406-.015c-3.913.1-7.851.017-11.766.021l-.047-4.053-.243,4.044-7.521-.008Z" transform="translate(-1110.731 -224.831)" fill="#ececec"/>
          <path id="Path_875246" data-name="Path 875246" d="M1482.493,397.529c.213-4.868.026-9.787.063-14.663.111-14.385-.029-28.773.181-43.156a49.486,49.486,0,0,1,.112,5.408q.085,6.7.071,13.408.1,19.509-.02,39.018Z" transform="translate(-1190.575 -272.818)" fill="#dddfdf"/>
          <path id="Path_875247" data-name="Path 875247" d="M1264.724,248.376a50.422,50.422,0,0,1,.132,6.959l.051,13.736-.125,55.113-5.454.014c-.131-8.465.214-16.984-.184-25.436l-.243-.306.119-.328q-.09,13.024-.014,26.048l-4.594,0-7.807,0q0-1.8-.094-3.588a27.176,27.176,0,0,0-.167,3.577l-9.819.018.031-47.178c-.008-9.345-.189-18.71,0-28.052a21.443,21.443,0,0,0,13.723,4.843,20.3,20.3,0,0,0,14.439-5.419" transform="translate(-992.998 -199.468)" fill="#ececec"/>
          <path id="Path_875248" data-name="Path 875248" d="M658.221,114.062c.995-.76,1.912-1.658,2.856-2.483,1.877-1.64,9.688-8.114,11.934-7.963a26.422,26.422,0,0,0,3.276,7.429c5.807,9.9,14.89,17.424,24.407,23.61,3.541,2.3,10.648,6.086,12.828,9.55,1.708,2.714,1.718,6.6,1.712,9.7a9.051,9.051,0,0,1,3.844-2.384c.36-.115,1.615-.254,1.814-.5l.238.21c2.428,2.123,3.678,2.575,3.977,6.221a15.988,15.988,0,0,1-3.921,11.47,6.519,6.519,0,0,1-1.259,1.132c.191.44.045.286.357.488a8.054,8.054,0,0,1,2.27,2.025,5.629,5.629,0,0,1,.482,4.521,6.59,6.59,0,0,1-3.292,4,6.436,6.436,0,0,1-5.005.124,5.615,5.615,0,0,1-1.892-1.141,11.994,11.994,0,0,1-1.672-2.321,60.583,60.583,0,0,1-11.6,18.83c-1.759,1.893-3.727,3.583-5.487,5.464,0,2.664.07,5.347-.011,8.009l.083,1.349c.286,1.837.6,3.629,1.059,5.433.934,1.778,1.991,3.479,2.945,5.244-1.918,7.752-13.513,21.929-19.117,27.768-1.829,1.856-3.485,3.862-5.165,5.851a41.966,41.966,0,0,1-4.893-5.41c-7.59-8.464-15.327-17.445-19.69-28.092a28.218,28.218,0,0,0,1.062-5.5l2-14.637a1.824,1.824,0,0,0-.068-1.162c-.387-.746-2.55-2.254-3.287-2.952-4.554-4.315-8.985-10.518-10.923-16.5a2.17,2.17,0,0,0-.7-1.565c-.192.369-.388.74-.614,1.089a6.4,6.4,0,0,1-4.47,2.85,7.646,7.646,0,0,1-4.971-3.273,4.87,4.87,0,0,1-.233-.453,4.971,4.971,0,0,1-.184-.475,4.8,4.8,0,0,1-.133-.492,4.852,4.852,0,0,1,0-2.024,4.811,4.811,0,0,1,.132-.492,5.778,5.778,0,0,1,3.109-3.331,15.943,15.943,0,0,1-8.117-17.3c.575-2.291,1.8-3.416,3.751-4.544,3.155.169,5.381,1.972,7.524,4.083.184-16,9.9-26.806,20.639-37.419,1.375-1.359,2.923-2.534,4.275-3.912Z" transform="translate(-499.147 -83.211)" fill="#fe9d76"/>
          <path id="Path_875249" data-name="Path 875249" d="M1093.4,428.252a9.347,9.347,0,0,1,2.208.07,1.96,1.96,0,0,0-.27.7,2.133,2.133,0,0,1-.3,1.029l-.34.011a7.316,7.316,0,0,1-1.308-.94Z" transform="translate(-878.088 -343.9)" fill="#fe4f5a"/>
          <path id="Path_875250" data-name="Path 875250" d="M873.54,373.957q.028-1.264.135-2.524l.269-.159c-.057,6.352,1.274,12.208,2.941,18.285-.469.972-.83,1.873-1.893,2.291a4.518,4.518,0,0,1-1.018.226,14.037,14.037,0,0,1-6.917-1.189l-.048-.258a19.147,19.147,0,0,1,3.14.7,13.4,13.4,0,0,0,3.415.148,3.149,3.149,0,0,0,1.687-.794,1.756,1.756,0,0,0,.49-1.088c.079-2.247-.98-5.007-1.381-7.251a60.378,60.378,0,0,1-.822-8.388" transform="translate(-696.287 -298.166)" fill="#bc333d"/>
          <path id="Path_875251" data-name="Path 875251" d="M784.748,687.211c1.849,1.495,5.516,8.813,7.478,11.37A122.009,122.009,0,0,0,802.55,709.81a17.39,17.39,0,0,1-4.23-3.184c-6.747-6.016-9.866-11.287-13.572-19.415" transform="translate(-630.223 -551.892)" fill="#bc333d"/>
          <path id="Path_875252" data-name="Path 875252" d="M753.949,373.689c1.137-.788,3.364-3.035,4.7-3.4.412,1.448,2.3-1.1,3.667-.328a3.839,3.839,0,0,0,3.065.328c1.011-.305,3.137,3.758,3.833,2.971.958.228,2.245,2.579,2.08,4.269-.069.648-1.7.25-1.065.51a25.386,25.386,0,0,1-9.547,1.4c-1.136-.189-2.282-.4-3.4-.688-1.736-.441-4.1-1.712-5.036-3.3" transform="translate(-604.767 -300.958)" fill="#fefefe"/>
          <path id="Path_875312" data-name="Path 875312" d="M769.6,373.69c-1.137-.788-3.364-3.035-4.7-3.4-.412,1.448-2.3-1.1-3.667-.328a3.839,3.839,0,0,1-3.065.328c-1.012-.305-3.858,3.185-4.555,2.4-.958.228-1.979,2.045-1.814,3.734.069.648,2.151,1.357,1.521,1.617a25.386,25.386,0,0,0,9.547,1.4c1.136-.189,2.282-.4,3.4-.688,1.736-.441,4.1-1.712,5.036-3.3" transform="translate(-566.218 -300.958)" fill="#fefefe"/>
          <path id="Path_875254" data-name="Path 875254" d="M942.657,287.01a18.258,18.258,0,0,1,10.5,1.861c1.644.82,5.433,3.08,6.016,4.846l-.313-.329.075.163a18.481,18.481,0,0,0-6.493-3.643,25.489,25.489,0,0,0-12.383.253,19.508,19.508,0,0,1-5.094,1.067,1.732,1.732,0,0,1-1.329-.569c-.069-.464-.141-.624.208-1,1.463-1.592,6.712-2.421,8.818-2.647" transform="translate(-749.743 -230.352)" fill="#192e35"/>
          <path id="Path_875255" data-name="Path 875255" d="M656.858,460.618a15.435,15.435,0,0,0,5.233,2.142,13.629,13.629,0,0,1,.439,3.143,6.468,6.468,0,0,1-1.913,2.775,3.632,3.632,0,0,1-2.886.807,4.816,4.816,0,0,1-3-1.983,4.407,4.407,0,0,1-.777-3.473c.379-1.707,1.507-2.549,2.91-3.412" transform="translate(-525.105 -369.917)" fill="#ececec"/>
          <path id="Path_875256" data-name="Path 875256" d="M722.256,286.517q1.294-.079,2.59-.037t2.582.2q1.287.163,2.552.446t2.5.682a4.079,4.079,0,0,1,2.531,1.929c.14.328.051.357-.067.656-1.348.885-8.827-1-11.032-1.074a33.414,33.414,0,0,0-7.249.691,27.01,27.01,0,0,0-10.11,5.8q.636-.846,1.31-1.664a20.839,20.839,0,0,1,14.394-7.63" transform="translate(-567.424 -230.057)" fill="#192e35"/>
          <path id="Path_875257" data-name="Path 875257" d="M1087.768,447.06a7.8,7.8,0,0,1,2.423,2.244,6.221,6.221,0,0,1-.9,5.094,7.264,7.264,0,0,1-2.417,2c-1.954.086-3.288.157-4.959-.99a7.849,7.849,0,0,1-1.843-3.464,3.341,3.341,0,0,1,.3-1.207c.928-1.672,3.937-2.009,5.618-2.59a12.263,12.263,0,0,0,1.78-1.087" transform="translate(-867.396 -359.029)" fill="#ececec"/>
          <path id="Path_875258" data-name="Path 875258" d="M746.793,353.349a1.281,1.281,0,0,1-.979-.1l.046-.363a18.141,18.141,0,0,1,4.728-4.536,11.026,11.026,0,0,1,8.189-1,11.571,11.571,0,0,1,6.392,5.726,3.4,3.4,0,0,1,.283.846c-1.768-2.289-3.717-4.542-6.645-5.278a9.085,9.085,0,0,1,1.724,2.33,22.111,22.111,0,0,1-1.244,3.529,5.277,5.277,0,0,1-2.492,1.648,3.838,3.838,0,0,1-3.064-.328,4.991,4.991,0,0,1-2.3-3.384,10.053,10.053,0,0,1,.107-1.831c.1-.33.352-.317.353-.729l-.412-.089-.045.338-.2-.265a19.817,19.817,0,0,0-4.436,3.489" transform="translate(-598.955 -278.645)" fill="#192e35"/>
          <path id="Path_875259" data-name="Path 875259" d="M797.246,356.416c.584.226,1.341.48,1.628,1.069-.216.626-.516.7-1.056,1.063a3.244,3.244,0,0,1-.753-.179,1.086,1.086,0,0,1-.727-.86c.145-.564.469-.759.908-1.093" transform="translate(-639.531 -286.234)" fill="#fefefe"/>
          <path id="Path_875260" data-name="Path 875260" d="M947.157,347.4a16.162,16.162,0,0,1,5.218.164,11.6,11.6,0,0,1,7.019,4.868c.242.387.277.384.167.846l-.29.038a15.414,15.414,0,0,0-5.031-.328,4.73,4.73,0,0,1-2.393,2.88,4.007,4.007,0,0,1-3.07.078,5.077,5.077,0,0,1-2.487-2.36,8.039,8.039,0,0,1-.632-2.173c-.1-1.2.579-1.935,1.338-2.765-2.758.823-4.15,2.894-6.26,4.6a4.905,4.905,0,0,1,.327-.9,11.612,11.612,0,0,1,6.1-4.949" transform="translate(-755.494 -278.877)" fill="#192e35"/>
          <path id="Path_875261" data-name="Path 875261" d="M988.76,355.05a1.881,1.881,0,0,1,1.488.73,2.35,2.35,0,0,1-.291,1.6,2.064,2.064,0,0,1-.472.007,1.331,1.331,0,0,1-.946-.575,2.693,2.693,0,0,1,.221-1.759" transform="translate(-793.83 -285.137)" fill="#fefefe"/>
          <path id="Path_875262" data-name="Path 875262" d="M1007.183,357.163c2.079.628,3.924,2.644,5.452,4.107a15.409,15.409,0,0,0-5.031-.328,4.948,4.948,0,0,0-.421-3.779" transform="translate(-808.858 -286.834)" fill="#fefefe"/>
        </g>
      </g>
      <g id="Group_1099815" data-name="Group 1099815" transform="translate(125.891 73.472)">
        <g id="Group_1099814" data-name="Group 1099814" clip-path="url(#clip-path-2)">
          <rect id="Rectangle_404341" data-name="Rectangle 404341" width="16.21" height="17.086" transform="translate(-7.147 5.606) rotate(-38.387)" fill="url(#linear-gradient)"/>
        </g>
      </g>
      <g id="Group_1099817" data-name="Group 1099817">
        <g id="Group_1099816" data-name="Group 1099816" clip-path="url(#clip-path)">
          <path id="Path_875264" data-name="Path 875264" d="M807.7,516.2a35,35,0,0,0,3.908,1.453,54.261,54.261,0,0,0,25.845-.349,26.222,26.222,0,0,0,2.562-.918l-1.993,2.067c-.095.117-.193.233-.3.343-3.437,3.672-8.136,6.706-13.3,6.771-7.043.089-12.033-4.741-16.724-9.368" transform="translate(-648.652 -414.552)" fill="#fe4f5a"/>
          <path id="Path_875265" data-name="Path 875265" d="M831.53,527.966c.1.016.2.031.3.048,1.614.281,3.19,1.18,4.811,1.563,5.854,1.384,13.095.944,18.546-1.722l.142.272c-3.109,1.065-5.908,2.465-9.219,2.895-3.624.47-11.639-.769-14.577-3.055" transform="translate(-667.793 -423.915)" fill="#bc333d"/>
          <path id="Path_875266" data-name="Path 875266" d="M779.948,600.822l.152-.468c1.564.674,3.078,2.239,4.585,3.138,7.023,4.189,16.192,8.05,24.313,4.837,4.458-1.763,8.2-4.581,12.117-7.262-.016,2.416-.415,5.59.186,7.919l.083,1.349a12.189,12.189,0,0,0-1.767,1.241c-.079,2.58.267,11.465-.79,13.316a96.554,96.554,0,0,1-.653-12.544q-.239.153-.483.3c-5.474,3.27-12.116,4.885-18.392,3.307-6.827-1.716-11.425-6.475-16.032-11.443a24.59,24.59,0,0,1-3.319-3.688" transform="translate(-626.368 -482.138)" fill="#fe4f5a"/>
          <path id="Path_875268" data-name="Path 875268" d="M1561.054,1540.792c10.584.005,21.2-.131,31.777.068.764.514,5.97.228,7.243.221l-.065,2.446q-12.335.1-24.669.006c-4.171,0-9.126-.42-13.2.5a32.463,32.463,0,0,0-1.081-3.241" transform="translate(-1253.666 -1237.361)" fill="#fefefe"/>
          <path id="Path_875269" data-name="Path 875269" d="M850.122,1803.827c3.41-.013,6.981-.256,10.372.005-.048,1.955-.136,3.917-.135,5.871l-.031.184.011,8.163c-6.986-.365-14.114.007-21.112.093l-.057-6.617-.062-1.406c-.072-1.32-.053-2.657-.074-3.979a88.164,88.164,0,0,0,10.426,1.79c.3-1.341.456-2.743.663-4.1" transform="translate(-673.819 -1448.542)" fill="#fe4f5a"/>
          <path id="Path_875270" data-name="Path 875270" d="M993.525,1702.308a71.734,71.734,0,0,0,11.225,1.342,21.5,21.5,0,0,1,4.193.316.779.779,0,0,1,.354.227.6.6,0,0,1,.059.1l.945,3.636c1.4,5.661,2.993,11.277,4.417,16.933.528,2.1,1.168,4.222,1.569,6.341.432,1.79.8,3.631,1.323,5.395-14.226.336-28.532.055-42.764,0-9.2-.038-18.466.245-27.659.018l-.011-8.163.031-.184c0-1.955.087-3.917.135-5.871a85.459,85.459,0,0,0,10.5.211c5.756-.007,11.542.051,17.291-.263,3.4-1.22,6.318-4.3,8.474-7.075l1.372-2.013q1.257-1.838,2.481-3.7l1.575-2.475a33.555,33.555,0,0,1,4.491-4.776" transform="translate(-760.667 -1367.106)" fill="#375963"/>
          <path id="Path_875271" data-name="Path 875271" d="M1157.819,1702.308a71.734,71.734,0,0,0,11.225,1.342,21.5,21.5,0,0,1,4.193.316.779.779,0,0,1,.354.227.609.609,0,0,1,.059.1l.945,3.636c-3.965,1.551-17.929,1.6-22.842,1.628l1.575-2.475a33.558,33.558,0,0,1,4.491-4.776" transform="translate(-924.961 -1367.106)" fill="#192e35"/>
          <path id="Path_875272" data-name="Path 875272" d="M114.311,640.488a16.214,16.214,0,0,1-3.448.4c-3.454-.069-8.008-1.308-10.4-3.95a4.334,4.334,0,0,1-1.227-3.234c.316-4.13,3.657-11.057,5.16-15.241q3.734-10.642,7.36-21.322c1.377-4.038,2.878-8.087,4.072-12.182,1.026-3.521,1.735-7.529,3.2-10.878a5.807,5.807,0,0,1,1.589-2.175,8.08,8.08,0,0,1,6.11-1.515c3.272.4,5.336,2.381,7.279,4.841,1.885-.49,3.74-1.119,5.6-1.7.934,3.777,2.48,7.579,3.721,11.274l7.231,21.8c1.493,4.495,3.17,9.007,4.318,13.6,4.17-1.668,8.423-3.081,12.684-4.492,2.269-.751,6.02-1.593,7.918-2.779a3.455,3.455,0,0,0,1.385-.451l.708-.031c6.893-1.844,13.384-5.456,20.4-6.867a20.062,20.062,0,0,0,2.49-.973c.041-.1.078-.2.124-.289,2.277-4.641,8.294-11.158,13.257-12.813a28.217,28.217,0,0,1-1.061,5.5c4.363,10.647,12.1,19.628,19.69,28.092a41.956,41.956,0,0,0,4.893,5.41c1.68-1.989,3.336-3.995,5.165-5.851,8.105,2.285,10.436,3.666,17.419,8.438,1.32.9,2.508,2.157,3.885,2.946,2.123,1.555,8.878,7.578,10.968,7.7a1.971,1.971,0,0,0,1.09-.991c1.152-2.093,1.119-5.349,1.281-7.7.6-8.736.939-21.332-1.241-29.726a30.531,30.531,0,0,0,2.825,1.484l26.182,8.659c8.038,2.612,19.691,6.1,26.96,10.041,1.759.954,3.561,2.075,4.487,3.914,1.038,2.063,1.537,4.4,2.434,6.523a14.533,14.533,0,0,1,.913,3.119c6.016-2.377,17.547-4.927,23.9-5.781.27.527.533,1.078.851,1.578a5.136,5.136,0,0,0,3.771,2.255l.258,1.183,3.464.354.111,69.179.062,21.889c.01,3.693-.177,7.516.066,11.192,3.96.019,10.717.622,13.664,3.635.89.91.768,1.84.727,3.016q-.012.282-.019.564c3.975-.146,7.989-.426,11.113,2.6a4.865,4.865,0,0,1,1.627,3.714,5.783,5.783,0,0,1-.735,2.826q5.094.079,10.188.063l.026,4.16c-2.325,0-4.7-.095-7.02.021-10.582-.2-21.193-.063-31.777-.068a32.425,32.425,0,0,1,1.081,3.241c2.321,6.622,4.145,12.361.969,19.073q-.216.454-.455.9t-.5.873q-.26.431-.542.848t-.583.82q-.3.4-.623.79t-.661.758q-.34.371-.7.724t-.733.689q-.375.335-.766.651t-.8.613q-.406.3-.827.572t-.855.53q-.434.254-.88.487t-.9.443q-.457.21-.924.4t-.942.351c-8.3,2.939-20.222,2.448-29.069,2.22-4.013-.1-8.093-.244-12.089-.624-2.274-.217-4.9-.865-7.154-.782a1.828,1.828,0,0,0-.748.187.6.6,0,0,0-.059-.1.777.777,0,0,0-.354-.226,21.481,21.481,0,0,0-4.193-.316,71.733,71.733,0,0,1-11.225-1.342,33.565,33.565,0,0,0-4.49,4.776l-1.575,2.475q-1.224,1.859-2.481,3.7l-1.372,2.013c-2.156,2.778-5.078,5.855-8.474,7.075-5.749.314-11.535.257-17.291.263a85.471,85.471,0,0,1-10.5-.211c-3.391-.261-6.962-.019-10.372-.005-.206,1.361-.359,2.763-.662,4.1a88.165,88.165,0,0,1-10.426-1.79c.021,1.322,0,2.659.074,3.979l.062,1.406.057,6.617-77.148-.029,1-2.873c-2.632-.082-14.812.338-16.234-.082a2.433,2.433,0,0,1-.538-.333c-.248-7.753-.054-15.564-.054-23.324l-5.132-.917c.035,8.2-.037,16.453.207,24.654-4.52-.006-49.738.319-50.64-.193l-.134-83.214q.3-37.947.04-75.895a4.974,4.974,0,0,1-1.416-3.566,3.459,3.459,0,0,1,.938-2.642,2.819,2.819,0,0,1,2.019-.746c4.394-.476,11.281-.092,15.97-.09l32.117.039q3.139-9.114,6.043-18.306c1.3-4.006,2.5-8.1,4.144-11.972-3.5-10.549-7.122-21.133-10.384-31.758-2.414,8.81-5.237,17.517-7.926,26.246-1.591,5.165-2.88,10.723-5.029,15.672a5.81,5.81,0,0,1-1.571,2.2" transform="translate(-62.631 -458.015)" fill="#375963"/>
          <path id="Path_875273" data-name="Path 875273" d="M356.181,1450.819c4.861.638,13.662,4.051,16.768,8.1a1.234,1.234,0,0,1,.289.808c-3.263-1.669-5.992-4.379-9.266-6.116-2.41-1.278-5.547-1.4-7.791-2.79" transform="translate(-286.045 -1165.137)" fill="#192e35"/>
          <path id="Path_875274" data-name="Path 875274" d="M362.28,590.638l.246.01c.966.57,2.068,4.946,2.473,6.141q-3.03,1.232-6.1,2.352-1.267.524-2.522,1.077c1.173-2.953,1.936-5.211,1.122-8.412,1.608-.272,3.205-.759,4.785-1.167" transform="translate(-286.199 -474.335)" fill="#ececec"/>
          <path id="Path_875275" data-name="Path 875275" d="M466.1,1382.783c.931,4.563,2.067,9.014,3.315,13.5l-.365.464a63.83,63.83,0,0,0-7.09,4.015c-1.128.556-2.2,1.217-3.272,1.866Z" transform="translate(-368.371 -1110.499)" fill="#ececec"/>
          <path id="Path_875276" data-name="Path 875276" d="M290.647,572.939a9.97,9.97,0,0,1,3.377.076,7.992,7.992,0,0,1,5.132,3.549c1.351,2.154,1.146,4.178.6,6.521-.971-.512-2.021-.907-3.031-1.338q-5.771-2.047-11.646-3.767a13.2,13.2,0,0,1,1.221-2.791c1.062-1.624,2.583-1.9,4.35-2.25" transform="translate(-228.942 -460.035)" fill="#ececec"/>
          <path id="Path_875277" data-name="Path 875277" d="M277.55,600.536a49.689,49.689,0,0,0,5.1,1.685,96.228,96.228,0,0,1,9.323,3.377,48.592,48.592,0,0,0-1.8,5.593c-2.231.3-12.04-3.647-14.473-4.636.681-1.976,1.2-4.027,1.856-6.019" transform="translate(-221.407 -482.284)" fill="#ececec"/>
          <path id="Path_875278" data-name="Path 875278" d="M393.142,797.69l.379,0c.978.949,1.415,3.863,1.769,5.255-3.29,1.244-10.741,3.331-13.222,5.255a10.544,10.544,0,0,0-1.676,1.947c-.977-2.448-1.77-4.971-2.608-7.469,5.167-1.472,10.23-3.37,15.357-4.985" transform="translate(-303.395 -640.613)" fill="#ececec"/>
          <path id="Path_875279" data-name="Path 875279" d="M1445.395,1062.514c-1.234-2.162-2.86-10.857-3.579-13.763-2.941-11.889-5.682-23.866-9.1-35.625-.153-.527-.789-2.531-.59-2.888,3.33,9.514,6.294,19.137,9.389,28.73,1.978,6.129,4.171,12.179,5.987,18.36q.837,2.557,1.587,5.141Z" transform="translate(-1150.096 -811.312)" fill="#fefefe"/>
          <path id="Path_875280" data-name="Path 875280" d="M381.25,762l.47.036c.948.986,1.835,5.016,2.279,6.46-5.133,1.508-10.172,3.429-15.271,5.064l-.31.075c-.831-.692-2.042-5.666-2.436-6.928,5.188-1.166,10.182-3.16,15.268-4.706" transform="translate(-293.916 -611.953)" fill="#ececec"/>
          <path id="Path_875281" data-name="Path 875281" d="M855.53,1641.173l2.625.5c2.953.687,5.943,1.232,8.919,1.81-.2.88-.369,1.778-.6,2.648L865,1655.042c-3.6-1.767-7.353-3.118-11-4.75l.04-.165c.644-2.932,1.006-5.987,1.487-8.954" transform="translate(-685.841 -1318.009)" fill="#ececec"/>
          <path id="Path_875282" data-name="Path 875282" d="M189.736,860.333c.332.082.65.161.973.275,1.473.521,14.426,5.515,14.571,5.659a1.084,1.084,0,0,1,.153.308c-.917,2.109-.726,4.788-2.917,6.175-2.039,1.291-5.018.65-7.222.138l-.1-.025c-2.339-.69-5.452-1.8-6.668-4.071-1.2-2.243.081-4.971.786-7.187,2.19.77,4.33,1.677,6.518,2.458-1.526-1.1-5.585-1.857-6.333-3.169Z" transform="translate(-151.008 -690.924)" fill="#fefefe"/>
          <path id="Path_875283" data-name="Path 875283" d="M1263.182,948.8c1.776-3.836,2.36-9.361,3.3-13.568l6.7-29.818,4.089-17.977c.769-3.3,1.944-6.93,2.282-10.285l.032-.359.5-.2-.2-.011c.046,1.052-4.239,21.393-4.844,23.069a37.847,37.847,0,0,0-1.3,6.455q-.87,5.233-1.814,10.454c-2.073,11.287-4.625,22.539-6.341,33.883a91.053,91.053,0,0,1,8.023-16.3,19.288,19.288,0,0,1,2.845-4c0,.033-3.46,7.2-3.767,7.894a40.669,40.669,0,0,0-2.6,5.456c-2.176,4.869-4.307,9.863-6.023,14.914-.647,1.906-.844,5.184-1.963,6.72-.625-.134-1.228-.282-1.838-.474l-.706-.49.017-.052.555-.252c1.011-3.85,3.35-11.288,3.048-15.053" transform="translate(-1011.541 -703.971)" fill="#192e35"/>
        </g>
      </g>
      <g id="Group_1099819" data-name="Group 1099819" transform="translate(258.585 266.033)">
        <g id="Group_1099818" data-name="Group 1099818" clip-path="url(#clip-path-4)">
          <rect id="Rectangle_404343" data-name="Rectangle 404343" width="31.412" height="35.905" transform="translate(-0.22 31.16) rotate(-89.596)" fill="url(#linear-gradient-2)"/>
        </g>
      </g>
      <g id="Group_1099821" data-name="Group 1099821">
        <g id="Group_1099820" data-name="Group 1099820" clip-path="url(#clip-path)">
          <path id="Path_875285" data-name="Path 875285" d="M960.257,1275.729a20.1,20.1,0,0,1,4.327-1.521,83.066,83.066,0,0,1-1.657,9.766c-1.665,8.482-3.9,16.923-5.188,25.469-2.315-.338-4.685-.261-7.01-.58a3.054,3.054,0,0,1-.739-.085,2.392,2.392,0,0,1,.082-1.462c.733-4.364,2.233-8.614,2.914-13,1.733-5.536,2.886-11.335,4.122-17a11.5,11.5,0,0,1,3.15-1.583" transform="translate(-762.852 -1023.303)" fill="#bc333d"/>
          <path id="Path_875286" data-name="Path 875286" d="M957.107,1283.513a11.5,11.5,0,0,1,3.15-1.583c.154.4.2.356.085.794-1.107,4.1-1.677,8.42-2.6,12.579-1.407,6.326-3.837,13.207-4.1,19.648a27.7,27.7,0,0,0-2.915.113,3.066,3.066,0,0,1-.739-.085,2.394,2.394,0,0,1,.083-1.462c.733-4.364,2.233-8.614,2.914-13,1.733-5.536,2.886-11.335,4.121-17" transform="translate(-762.851 -1029.504)" fill="#fe4f5a"/>
          <path id="Path_875287" data-name="Path 875287" d="M81.421,1019.7c5.476-.364,11.147-.064,16.643-.064l32.5.014-1.754,5.412c-.325.283-.274.233-.673.272-1.966.2-4.078.043-6.064.037l-12.052-.023-18.065.044c-3.084,0-6.24.145-9.314-.029a2.166,2.166,0,0,1-2.517-2.708,3.654,3.654,0,0,1,1.3-2.957" transform="translate(-64.335 -818.768)" fill="#ececec"/>
          <path id="Path_875288" data-name="Path 875288" d="M836.168,1687.483c3.649,1.632,7.4,2.983,11,4.75-1.011,6.057-2.145,12.155-2.86,18.252-.206,1.361-.359,2.763-.663,4.1a88.163,88.163,0,0,1-10.426-1.79l-1.425-.3c1.6-8.322,2.883-16.675,4.373-25.013" transform="translate(-668.006 -1355.2)" fill="#fefefe"/>
          <path id="Path_875289" data-name="Path 875289" d="M349.625,624.113a.517.517,0,0,1,.114.041,1.859,1.859,0,0,1,.634,1.194c-.148.69-.2.655-.783,1.078.123.243.578-.057.976.121,1.358,2.468,2.1,5.765,2.983,8.442l5.224,15.727c-3.86,1.21-7.691,2.527-11.531,3.8-1.428.417-2.883.763-4.324,1.136-1.732-5.7-3.906-11.25-5.493-17,1.048-3.679,2.342-7.314,3.448-10.981,2.869-1.3,5.867-2.292,8.752-3.561" transform="translate(-270.982 -501.219)" fill="#ececec"/>
          <path id="Path_875290" data-name="Path 875290" d="M369.534,1742.337q4.823.986,9.634,2.034c1.663,2.183,7.066,9.336,9.106,10.4-2.943-3.343-5.934-6.735-8.635-10.276a125.152,125.152,0,0,1,14.285,2.194q-1.89,4.2-3.642,8.451c-.281.48-.683.506-.672.988.055,2.381-2.354,6.986-3.309,9.3-5.544,0-11.177-.214-16.709.064.188-2.98.073-6.044.062-9.032q0-7.061-.121-14.122" transform="translate(-296.769 -1399.253)" fill="#ececec"/>
          <path id="Path_875291" data-name="Path 875291" d="M88.287,1455.785c7.677.068,15.356-.092,23.033,0-1.493,5.72-2.9,11.379-3.958,17.2l-.649,4.337-18.462.076Z" transform="translate(-70.873 -1169.104)" fill="#ececec"/>
          <path id="Path_875292" data-name="Path 875292" d="M212.5,632.929c1.547.176,5.55,2.089,7.357,2.71,1.95.67,3.988,1.146,5.909,1.885a3.374,3.374,0,0,1,1.273.719l-.4.153-.139-.523.278.138-.375.418a33.111,33.111,0,0,1-8.065-.443c2.32,1.148,5.734.816,8.3.813-1.607,3.865-2.518,8.182-3.724,12.192-2.73,9.08-5.38,18.2-8.336,27.213l-1.509,5.078c-5.249-2.109-10.728-3.69-15.872-6.075,2.015-4.406,3.544-8.989,5.134-13.56l6.667-19.529c.728-2.128,2.507-8.373,3.454-9.78l.552.261.171-.063a7.877,7.877,0,0,1-.629-1.439Z" transform="translate(-158.376 -508.299)" fill="#fefefe"/>
          <path id="Path_875293" data-name="Path 875293" d="M88.313,1051.758c15.548.281,31.159-.016,46.714-.034L130.4,1066.7l-1.541,4.762c-13.5.209-27.022,0-40.527.087Z" transform="translate(-70.923 -844.628)" fill="#ececec"/>
          <path id="Path_875294" data-name="Path 875294" d="M900.277,1652.887q6.518,1.613,13.055,3.15c2,.464,4.127.771,6.085,1.369,3.991.667,7.953,1.5,11.941,2.178,5.8.992,11.669,1.8,17.5,2.574a11.655,11.655,0,0,1,3.042.46,33.564,33.564,0,0,0-4.49,4.776l-1.575,2.475q-1.224,1.86-2.481,3.7l-1.372,2.013c-2.156,2.778-5.078,5.855-8.473,7.075-5.749.314-11.535.256-17.291.263a85.48,85.48,0,0,1-10.5-.211c-3.391-.261-6.962-.019-10.372-.005.715-6.1,1.849-12.194,2.86-18.252l1.468-8.914c.234-.87.4-1.769.6-2.648" transform="translate(-719.044 -1327.416)" fill="#fe9d76"/>
          <path id="Path_875295" data-name="Path 875295" d="M1068.071,1760.376c2.493-.585,5.112-.725,7.634-1.186,2.11-.386,4.232-1.111,6.362-1.285l-1.372,2.013c-4.333.578-8.26,1.1-12.625.458" transform="translate(-857.757 -1411.755)" fill="#fe4f5a"/>
          <path id="Path_875296" data-name="Path 875296" d="M917.928,1652.887q6.518,1.613,13.055,3.15c2,.464,4.127.771,6.085,1.369-1.537,1.11-16.63-1.443-19.742-1.871.234-.87.4-1.769.6-2.648" transform="translate(-736.694 -1327.416)" fill="#fe4f5a"/>
          <path id="Path_875297" data-name="Path 875297" d="M1040.676,1699.972a11.652,11.652,0,0,1,3.042.46,33.558,33.558,0,0,0-4.491,4.776c-8.344.207-16.634,1.143-24.987.639a41.084,41.084,0,0,1-4.489-.32l-.076-.2a72.324,72.324,0,0,1,7.318.162c6.655.016,13.039-.689,19.274-3.15a14.94,14.94,0,0,0,4.252-2.225c.053-.045.1-.092.156-.138" transform="translate(-810.86 -1365.23)" fill="#fe4f5a"/>
          <path id="Path_875298" data-name="Path 875298" d="M89.019,1153.8c13.013-.436,26.26.032,39.309-.109-1.866,6.938-4.492,13.654-6.418,20.577-1.806-1.709-3.263-3.751-5.052-5.473l-.076.184c1.61,1.911,3.313,3.748,4.972,5.616-.925,4.265-2.266,8.439-3.539,12.61a67.024,67.024,0,0,1-5.329-6.122l-11.953-14.18c-1.61-1.9-3.262-4.369-5.33-5.743l17.094,20.2c1.824,2.113,3.527,4.318,5.426,6.366q-1.845,6.223-3.613,12.469a122.479,122.479,0,0,1-8.636-9.941c-3.48-4.3-6.973-8.905-10.843-12.842l.042.052-.244-.014c2.864,3.57,5.907,7.023,8.819,10.56a160.133,160.133,0,0,0,10.819,12.525c-.62,2.081-1.282,4.16-1.837,6.259-.414,1.566-.68,3.2-1.164,4.747-.143.456-.2.816-.624,1.046-1.354-.432-9.833-10.785-11.248-12.519-1.513-1.853-3.006-4.152-4.86-5.657,4.674,6.331,10.11,12.064,15.028,18.207q-10.909.075-21.817.025l.02-46.579c0-1.779-.252-10.905,0-11.781a1.522,1.522,0,0,1,.273-.392Z" transform="translate(-70.556 -926.448)" fill="#ececec"/>
          <path id="Path_875299" data-name="Path 875299" d="M1407.27,895.891c6.016-2.377,17.547-4.927,23.9-5.781.27.527.534,1.078.851,1.578a5.136,5.136,0,0,0,3.771,2.255l.258,1.183,3.464.354.111,69.179.062,21.889c.01,3.693-.177,7.516.066,11.192-1.2.087-2.411.031-3.611.014-1.137-.047-2.291-.012-3.43-.014-.936-1.742-5.773-24.264-5.592-25.234,1.215-.959,1.991-2.263,3.163-3.254.438.01.873.008,1.312,0,.653-.658.652-2.339.761-3.271l-2.451.021c-.563-2.009-1.274-3.993-1.921-5.978a41.348,41.348,0,0,0-1.763-5.551c-1.2-3.488-2.456-6.963-3.572-10.479-5.09-16.046-10.495-32-15.383-48.1" transform="translate(-1130.164 -714.838)" fill="#ececec"/>
          <path id="Path_875300" data-name="Path 875300" d="M1553.448,915.587l3.464.354.111,69.179.062,21.889c.01,3.693-.177,7.515.066,11.192-1.2.087-2.411.031-3.612.014Z" transform="translate(-1247.558 -735.298)" fill="#31978f"/>
          <path id="Path_875301" data-name="Path 875301" d="M996.573,1274.208c3.3.2,6.451,1.337,9.685,1.592,9.027,1.686,18.009,3.9,26.981,5.888,3.365.745,6.923,1.873,10.328,2.29.61.193,1.213.34,1.838.474l5.59,1.286c1.975.47,6.53.895,7.594,2.806a2.714,2.714,0,0,1,.237.792l-.844,3.563c-1.451,5.6-3.853,13.076-4.558,18.626-1.74-.152-3.466-.211-5.212-.247-7.641-.011-15.2-.423-22.823-.717q-17.824-.8-35.662-1.118c1.286-8.546,3.523-16.986,5.188-25.469a83.065,83.065,0,0,0,1.657-9.766" transform="translate(-794.84 -1023.303)" fill="#fe4f5a"/>
          <path id="Path_875302" data-name="Path 875302" d="M88.209,1567.624c6.044.055,12.145-.26,18.18.021-.486,4.378-.91,9.025-.166,13.385.3,1.74,1.283,3.643,1.367,5.317l-.539-.381-.077.032c1.479,2.109,3.38,3.6,5.021,5.519.4.467.633,1.1,1.028,1.546a.871.871,0,0,0,.85.361l-.033-.161a6.191,6.191,0,0,1-.8-.889c.838.073,5.655,2.85,6.948,3.329a170.092,170.092,0,0,0,17.689,5.119l.015,20.444.017,3.783-49.573-.024v-38.72l-.024-11.747a63.858,63.858,0,0,1,.093-6.934" transform="translate(-70.726 -1258.864)" fill="#ececec"/>
          <path id="Path_875303" data-name="Path 875303" d="M950.819,748.117a30.458,30.458,0,0,0,2.826,1.484c2.659,5.61,5.021,11.4,7.381,17.14q5.736,13.7,10.818,27.653c1.894,5.147,3.6,10.355,5.548,15.483l-.961,1.467c-2.8,3.434-5.2,7.272-7.665,10.95-5.033,7.5-9.891,15.108-14.846,22.659-1.572,2.4-3.045,4.884-4.68,7.234l0,.306-.3.809c-3.234-.255-6.383-1.393-9.685-1.592a20.1,20.1,0,0,0-4.327,1.521,11.5,11.5,0,0,0-3.15,1.583c-.061-.023-.123-.043-.183-.068a1.433,1.433,0,0,1-.961-1.066c.173,3.653-2.523,9.816-2.738,13.7-1.481,5.548-2.622,11.194-3.8,16.813-.119.714-.245,1.426-.334,2.144-1.792,0-3.6.054-5.389-.032a62.547,62.547,0,0,1,1.052-11.466c.84-5.842,1.845-11.64,2.855-17.454q6.008-36.607,14.972-72.6c.536-1.968.846-4.013,1.47-5.953,2.123,1.555,8.878,7.578,10.968,7.7a1.971,1.971,0,0,0,1.09-.991c1.152-2.093,1.119-5.349,1.281-7.7.6-8.736.94-21.332-1.241-29.726" transform="translate(-737.515 -600.805)" fill="#fe4f5a"/>
          <path id="Path_875304" data-name="Path 875304" d="M986.25,1263.754c4.351.422,8.787,1.648,13.073,2.535l0,.306-.3.809c-3.234-.255-6.383-1.393-9.685-1.592a20.1,20.1,0,0,0-4.327,1.521,11.5,11.5,0,0,0-3.15,1.583c-.061-.023-.122-.042-.183-.068a1.433,1.433,0,0,1-.961-1.066c.027-.082.05-.167.082-.248.716-1.781,3.807-3.031,5.459-3.78" transform="translate(-787.597 -1014.908)" fill="#192e35"/>
          <path id="Path_875305" data-name="Path 875305" d="M507.105,677.946a28.221,28.221,0,0,1-1.061,5.5c4.363,10.647,12.1,19.627,19.69,28.092a41.969,41.969,0,0,0,4.893,5.41c1.68-1.989,3.336-3.995,5.165-5.851,8.105,2.285,10.436,3.665,17.419,8.437,1.32.9,2.508,2.157,3.885,2.947-.624,1.94-.935,3.985-1.47,5.953q-8.965,36-14.973,72.6c-1.01,5.814-2.014,11.611-2.854,17.454a62.56,62.56,0,0,0-1.053,11.466,2.891,2.891,0,0,0-1.513,0c-1.164,3.923-1.57,8.318-2.248,12.369l-3.916,22.408a104.075,104.075,0,0,1-10.547-2.286q.4-1.554.76-3.116-1.987.029-3.974-.021t-3.97-.182q-1.983-.131-3.96-.342t-3.942-.5q-1.967-.29-3.919-.66t-3.889-.818q-1.936-.448-3.853-.974t-3.811-1.128c-5.757-1.839-11.32-4.176-17.288-5.306a31.525,31.525,0,0,0-5.621-1.112c-5.887-.9-16-1.576-20.61-5.311-.085-.06-.174-.114-.254-.18a3.261,3.261,0,0,1-1.039-2.645l.013-.525.089-.036.115-.554a2.789,2.789,0,0,1,1.623-.261l.635-.164.089-.772c.138-.425.33-.842.5-1.256,1.077-.649,2.144-1.309,3.272-1.866a63.843,63.843,0,0,1,7.09-4.015l.365-.464,2.8-1.98a53.608,53.608,0,0,1,11.31-6.76c12.854-5.3,22.431-1.361,34.338,3.636,1.656.83,3.3,1.694,5.021,2.388a76.739,76.739,0,0,0-4.63-8.253l-10.716-18.4c-2.129-3.733-4.133-7.534-6.289-11.252-2.756-4.752-5.669-9.42-8.34-14.22-3.964-7.124-7.607-14.587-12.134-21.368a11.667,11.667,0,0,1-.621-1.13c-.112-1.678,19.543-52.336,21.868-57.7a17.179,17.179,0,0,1,1.688-3.178,20.071,20.071,0,0,0,2.49-.973c.041-.1.078-.195.124-.289,2.277-4.641,8.294-11.158,13.257-12.813" transform="translate(-355.889 -544.451)" fill="#fe4f5a"/>
          <path id="Path_875306" data-name="Path 875306" d="M701.162,677.946a28.227,28.227,0,0,1-1.061,5.5c4.363,10.647,12.1,19.627,19.69,28.092-3.134,1.412-6.127,3.19-9.175,4.781-3.779,1.973-7.663,3.82-11.33,5.995-4.583,2.233-8.963,4.721-13.352,7.307-.331-3.129-.776-6.238-.977-9.38a98.493,98.493,0,0,1,2.825-29.189c.041-.1.078-.195.124-.289,2.277-4.641,8.294-11.158,13.257-12.813" transform="translate(-549.945 -544.451)" fill="#fefefe"/>
          <path id="Path_875307" data-name="Path 875307" d="M459.741,1403.42a53.61,53.61,0,0,1,11.31-6.76c12.854-5.3,22.43-1.361,34.337,3.636,1.656.83,3.3,1.694,5.021,2.389,2.894,2.455,11.329,1.664,13.118,3.3a62.16,62.16,0,0,0-1.749,7.369c-1.42,6.5-2.505,13.13-4.267,19.542-11.189-.122-22-2.31-32.7-5.441-4.094-1.2-8.108-2.861-12.278-3.763-8-1.732-16.438-1.77-24.122-4.778l-.365-.457c7.876-.141,15.6-1.089,23.577-.774,3.347.132,10.556,1.578,12.894,1.155l-.123-.232c-7.128-2.686-19.564-1.8-27.3-1.451a90.037,90.037,0,0,0-11.526.888l-1.117.1c-.085-.06-.174-.114-.254-.18a3.261,3.261,0,0,1-1.039-2.645l.013-.525.089-.036.115-.554a2.789,2.789,0,0,1,1.623-.261l.635-.164.089-.772c.138-.425.33-.842.5-1.256,1.077-.649,2.144-1.309,3.272-1.865a63.8,63.8,0,0,1,7.09-4.015l.365-.464Z" transform="translate(-355.889 -1119.617)" fill="#fe9d76"/>
          <path id="Path_875308" data-name="Path 875308" d="M544.711,1428.768c1.333-.163,4.584-.633,5.708.155l-.4-.08-.266.225c-.6.041-1.182.078-1.779.07-6.982.875-13.035,1.517-19.706,4.059l-.381-.229c5.278-2.219,11.035-4.131,16.825-4.2" transform="translate(-423.94 -1147.198)" fill="#fe4f5a"/>
          <path id="Path_875309" data-name="Path 875309" d="M453.124,1471.259c11.131-2.91,25.372-6.368,36.9-5.363l.33.251a1.68,1.68,0,0,1-1.236.454c-2.927.341-5.987.195-8.95.463a156.55,156.55,0,0,0-19.442,3.226c-2.249.493-4.606.883-6.807,1.545l-1.432-.412Z" transform="translate(-363.389 -1177.103)" fill="#fe4f5a"/>
          <path id="Path_875310" data-name="Path 875310" d="M783.811,852.13c1.68-1.989,3.337-3.995,5.165-5.85,8.105,2.285,10.436,3.665,17.418,8.437,1.32.9,2.508,2.157,3.885,2.946-.624,1.939-.935,3.985-1.47,5.953q-8.965,36-14.972,72.6c-1.01,5.814-2.014,11.612-2.855,17.454a62.537,62.537,0,0,0-1.052,11.466,2.893,2.893,0,0,0-1.513,0c-1.164,3.923-1.57,8.318-2.248,12.369l-3.916,22.408a104.083,104.083,0,0,1-10.547-2.286q.4-1.554.76-3.116c.989-4.519,1.58-9.171,2.3-13.743l2.45-14.756.343-2.19c1.247.128,2.524.143,3.778.2-1.025-6.532-2.4-13.017-3.7-19.5q-4.909-24.367-10.613-48.562c-2.666-11.523-5.484-22.936-7.728-34.558l-.872-3.91c3.666-2.175,7.551-4.021,11.33-5.994,3.048-1.591,6.042-3.369,9.176-4.781a41.954,41.954,0,0,0,4.893,5.41" transform="translate(-609.074 -679.639)" fill="#fefefe"/>
          <path id="Path_875311" data-name="Path 875311" d="M783.811,852.13c1.68-1.989,3.337-3.995,5.165-5.85,8.105,2.285,10.436,3.665,17.418,8.437,1.32.9,2.508,2.157,3.885,2.946-.624,1.939-.935,3.985-1.47,5.953-1.873-.589-3.893-2.124-5.653-3.071-5.662-3.045-11.615-6.374-17.814-8.142-.07,4.659.223,9.376.32,14.04q.374,18.43,1.076,36.849c.376,11.106.252,22.221.562,33.332.113,4.053,1.433,26.055.622,28.209l-.327.118a1.787,1.787,0,0,1-.486-.362,2.492,2.492,0,0,1-.477-1.448c-.311-4.969-.123-10.052-.31-15.042q-1.017-23.969-1.5-47.955l-.927-30.792c-.163-5.723-.412-11.449-.332-17.175-5.81,1.987-11.5,4.437-17.216,6.678-2.29.9-4.887,1.468-7.065,2.551l-.872-3.91c3.666-2.175,7.551-4.021,11.33-5.994,3.048-1.591,6.042-3.369,9.176-4.781a41.954,41.954,0,0,0,4.893,5.41" transform="translate(-609.074 -679.639)" fill="#ececec"/>
        </g>
      </g>
    </g>
    <path id="Path_875313" data-name="Path 875313" d="M10271,15719h353.1" transform="translate(-9251.715 -8)" fill="none" stroke="#34394b" stroke-width="1"/>
  </g>
</svg>
