<svg xmlns="http://www.w3.org/2000/svg" xmlns:xlink="http://www.w3.org/1999/xlink" width="108" height="108" viewBox="0 0 108 108">
  <defs>
    <filter id="Path_875159" x="0" y="0" width="108" height="108" filterUnits="userSpaceOnUse">
      <feOffset dy="3" input="SourceAlpha"/>
      <feGaussianBlur stdDeviation="3" result="blur"/>
      <feFlood flood-opacity="0.161"/>
      <feComposite operator="in" in2="blur"/>
      <feComposite in="SourceGraphic"/>
    </filter>
  </defs>
  <g id="Group_1099794" data-name="Group 1099794" transform="translate(-611 -10773)">
    <g transform="matrix(1, 0, 0, 1, 611, 10773)" filter="url(#Path_875159)">
      <g id="Path_875159-2" data-name="Path 875159" transform="translate(9 6)" fill="#dbe7fc">
        <path d="M 45 89 C 39.05960083007812 89 33.29741287231445 87.83678436279297 27.87352561950684 85.54267120361328 C 22.6341495513916 83.32659912109375 17.92851257324219 80.15390014648438 13.88729953765869 76.11270141601562 C 9.846099853515625 72.07148742675781 6.673399925231934 67.36585235595703 4.457324981689453 62.1264762878418 C 2.163212537765503 56.70258712768555 1 50.94039916992188 1 45 C 1 39.05960083007812 2.163212537765503 33.29741287231445 4.457324981689453 27.87352561950684 C 6.673399925231934 22.6341495513916 9.846099853515625 17.92851257324219 13.88729953765869 13.88729953765869 C 17.92851257324219 9.846099853515625 22.6341495513916 6.673399925231934 27.87352561950684 4.457324981689453 C 33.29741287231445 2.163212537765503 39.05960083007812 1 45 1 C 50.94039916992188 1 56.70258712768555 2.163212537765503 62.1264762878418 4.457324981689453 C 67.36585235595703 6.673399925231934 72.07148742675781 9.846099853515625 76.11270141601562 13.88729953765869 C 80.15390014648438 17.92851257324219 83.32659912109375 22.6341495513916 85.54267120361328 27.87352561950684 C 87.83678436279297 33.29741287231445 89 39.05960083007812 89 45 C 89 50.94039916992188 87.83678436279297 56.70258712768555 85.54267120361328 62.1264762878418 C 83.32659912109375 67.36585235595703 80.15390014648438 72.07148742675781 76.11270141601562 76.11270141601562 C 72.07148742675781 80.15390014648438 67.36585235595703 83.32659912109375 62.1264762878418 85.54267120361328 C 56.70258712768555 87.83678436279297 50.94039916992188 89 45 89 Z" stroke="none"/>
        <path d="M 45 2 C 39.19416046142578 2 33.56304168701172 3.136642456054688 28.26308059692383 5.378334045410156 C 23.14290618896484 7.543983459472656 18.54409027099609 10.64472198486328 14.59441375732422 14.59441375732422 C 10.64472198486328 18.54409027099609 7.543983459472656 23.14290618896484 5.378334045410156 28.26308059692383 C 3.136642456054688 33.56304168701172 2 39.19416046142578 2 45 C 2 50.80583953857422 3.136642456054688 56.43695831298828 5.378334045410156 61.73691940307617 C 7.543983459472656 66.85709381103516 10.64472198486328 71.45590209960938 14.59441375732422 75.40558624267578 C 18.54409027099609 79.35527801513672 23.14290618896484 82.45601654052734 28.26308059692383 84.62166595458984 C 33.56304168701172 86.86335754394531 39.19416046142578 88 45 88 C 50.80583953857422 88 56.43695831298828 86.86335754394531 61.73691940307617 84.62166595458984 C 66.85709381103516 82.45601654052734 71.45590209960938 79.35527801513672 75.40558624267578 75.40558624267578 C 79.35527801513672 71.45590209960938 82.45601654052734 66.85709381103516 84.62166595458984 61.73691940307617 C 86.86335754394531 56.43695831298828 88 50.80583953857422 88 45 C 88 39.19416046142578 86.86335754394531 33.56304168701172 84.62166595458984 28.26308059692383 C 82.45601654052734 23.14290618896484 79.35527801513672 18.54409027099609 75.40558624267578 14.59441375732422 C 71.45590209960938 10.64472198486328 66.85709381103516 7.543983459472656 61.73691940307617 5.378334045410156 C 56.43695831298828 3.136642456054688 50.80583953857422 2 45 2 M 45 0 C 69.85281372070312 0 90 20.14718627929688 90 45 C 90 69.85281372070312 69.85281372070312 90 45 90 C 20.14718627929688 90 0 69.85281372070312 0 45 C 0 20.14718627929688 20.14718627929688 0 45 0 Z" stroke="none" fill="#0d5d91"/>
      </g>
    </g>
    <g id="ley" transform="translate(620.373 10788)">
      <path id="Path_875159-3" data-name="Path 875159" d="M388.953,414.5H384.5v8.906l8.906-4.453A4.453,4.453,0,0,0,388.953,414.5Z" transform="translate(-327.426 -352.973)" fill="#894d40"/>
      <path id="Path_875160" data-name="Path 875160" d="M152.93,414.5H117.018a4.453,4.453,0,0,0-4.453,4.453v2.227h44.818v-2.227A4.453,4.453,0,0,0,152.93,414.5Z" transform="translate(-95.856 -352.973)" fill="#995e49"/>
      <path id="Path_875161" data-name="Path 875161" d="M234.5,157.5h13.359v11.43H234.5Z" transform="translate(-199.691 -134.121)" fill="#995e49"/>
      <path id="Path_875162" data-name="Path 875162" d="M196.18,142.5a2.227,2.227,0,0,0-2.227,2.227l-4.453,5.715,4.453,5.715a2.227,2.227,0,0,0,4.453,0v-11.43A2.227,2.227,0,0,0,196.18,142.5Z" transform="translate(-161.371 -121.348)" fill="#b88567"/>
      <path id="Path_875163" data-name="Path 875163" d="M168.406,155.042l-4.453-.428-4.453,6.143,4.453,6.143,4.453-.428Z" transform="translate(-135.824 -131.663)" fill="#aa6f51"/>
      <path id="Path_875164" data-name="Path 875164" d="M16.2,142.537c-.251-.023-.5-.037-.761-.037a7.941,7.941,0,0,0,0,15.883c.257,0,.51-.013.761-.037l18.313-1.761V144.3Z" transform="translate(-6.387 -121.348)" fill="#b88567"/>
      <path id="Path_875165" data-name="Path 875165" d="M414.5,112.5h8.906v24.789H414.5Z" transform="translate(-352.973 -95.801)" fill="#ffbb6e"/>
      <path id="Path_875166" data-name="Path 875166" d="M279.5,112.5h24.492v24.789H279.5Z" transform="translate(-238.012 -95.801)" fill="#ffd478"/>
      <path id="Path_875167" data-name="Path 875167" d="M414.5,279.5h8.906v8.906H414.5Z" transform="translate(-352.973 -238.012)" fill="#894d40"/>
      <path id="Path_875168" data-name="Path 875168" d="M279.5,279.5h24.492v8.906H279.5Z" transform="translate(-238.012 -238.012)" fill="#995e49"/>
      <path id="Path_875169" data-name="Path 875169" d="M414.5,52.5h8.906v8.906H414.5Z" transform="translate(-352.973 -44.707)" fill="#894d40"/>
      <path id="Path_875170" data-name="Path 875170" d="M279.5,52.5h24.492v8.906H279.5Z" transform="translate(-238.012 -44.707)" fill="#995e49"/>
      <path id="Path_875171" data-name="Path 875171" d="M448.953,97.5H444.5v4.453h4.453a2.227,2.227,0,0,0,0-4.453Z" transform="translate(-378.52 -83.027)" fill="#995e49"/>
      <path id="Path_875172" data-name="Path 875172" d="M293.445,99.727a2.227,2.227,0,0,0-2.227-2.227H266.727a2.227,2.227,0,0,0,0,4.453h24.492A2.227,2.227,0,0,0,293.445,99.727Z" transform="translate(-225.238 -83.027)" fill="#aa6f51"/>
      <path id="Path_875173" data-name="Path 875173" d="M448.953,264.5H444.5v4.453h4.453a2.227,2.227,0,0,0,0-4.453Z" transform="translate(-378.52 -225.238)" fill="#995e49"/>
      <path id="Path_875174" data-name="Path 875174" d="M293.445,266.727a2.227,2.227,0,0,0-2.227-2.227H266.727a2.227,2.227,0,0,0,0,4.453h24.492A2.227,2.227,0,0,0,293.445,266.727Z" transform="translate(-225.238 -225.238)" fill="#aa6f51"/>
      <path id="Path_875175" data-name="Path 875175" d="M418.953,444.5H414.5l8.906,8.906h4.453A8.906,8.906,0,0,0,418.953,444.5Z" transform="translate(-352.973 -378.52)" fill="#995e49"/>
      <path id="Path_875176" data-name="Path 875176" d="M106.29,444.5H61.471a8.906,8.906,0,0,0-8.906,8.906H115.2A8.906,8.906,0,0,0,106.29,444.5Z" transform="translate(-44.762 -378.52)" fill="#aa6f51"/>
      <path id="Path_875177" data-name="Path 875177" d="M448.953,324.5H444.5v8.906h4.453a4.453,4.453,0,1,0,0-8.906Z" transform="translate(-378.52 -276.332)" fill="#aa6f51"/>
      <path id="Path_875178" data-name="Path 875178" d="M282.9,328.953a4.453,4.453,0,0,0-4.453-4.453H253.953a4.453,4.453,0,1,0,0,8.906h24.492A4.453,4.453,0,0,0,282.9,328.953Z" transform="translate(-212.465 -276.332)" fill="#b88567"/>
      <path id="Path_875179" data-name="Path 875179" d="M448.953,7.5H444.5v8.906h4.453a4.453,4.453,0,1,0,0-8.906Z" transform="translate(-378.52 -6.387)" fill="#aa6f51"/>
      <path id="Path_875180" data-name="Path 875180" d="M282.9,11.953A4.453,4.453,0,0,0,278.445,7.5H253.953a4.453,4.453,0,1,0,0,8.906h24.492A4.453,4.453,0,0,0,282.9,11.953Z" transform="translate(-212.465 -6.387)" fill="#b88567"/>
      <path id="Path_875181" data-name="Path 875181" d="M105.366,411.5A5.575,5.575,0,0,0,99.9,407H59.537a5.575,5.575,0,0,0-5.464,4.5,10.033,10.033,0,0,0-9.009,9.969,1.113,1.113,0,0,0,1.113,1.113h67.084a1.113,1.113,0,0,0,1.113-1.113A10.033,10.033,0,0,0,105.366,411.5Zm-45.829-2.277H99.9a3.345,3.345,0,0,1,3.148,2.227H56.388A3.345,3.345,0,0,1,59.537,409.227ZM47.37,420.359a7.805,7.805,0,0,1,7.714-6.68h49.272a7.805,7.805,0,0,1,7.714,6.68Z" transform="translate(-38.375 -346.586)"/>
      <path id="Path_875182" data-name="Path 875182" d="M71.547,47.167v-2.53a3.339,3.339,0,0,0,0-6.3V19.848a3.339,3.339,0,0,0,0-6.3v-2.53A5.567,5.567,0,0,0,70.434,0H41.488a5.567,5.567,0,0,0-1.113,11.021v2.53a3.339,3.339,0,0,0,0,6.3v2.418H37.957a3.339,3.339,0,0,0-6.263-.091L9.919,20.08c-.3-.027-.586-.041-.864-.041a9.055,9.055,0,0,0,0,18.109c.28,0,.572-.014.866-.042l21.773-2.094a3.339,3.339,0,0,0,6.263-.091h2.418V38.34a3.34,3.34,0,0,0,0,6.3v2.529a5.567,5.567,0,0,0,1.113,11.021H70.434a5.567,5.567,0,0,0,1.113-11.021ZM31.469,33.8,9.714,35.889c-.228.022-.449.033-.66.033a6.828,6.828,0,0,1,0-13.656c.21,0,.431.011.654.031l21.76,2.093Zm4.453,1.011a1.113,1.113,0,0,1-2.227,0V23.379a1.113,1.113,0,0,1,2.227,0ZM38.148,5.566a3.344,3.344,0,0,1,3.34-3.34H70.434a3.34,3.34,0,1,1,0,6.68H41.488A3.344,3.344,0,0,1,38.148,5.566ZM69.32,11.133v2.227H42.6V11.133ZM41.488,15.586H70.434a1.113,1.113,0,1,1,0,2.227H41.488a1.113,1.113,0,1,1,0-2.227ZM69.32,20.039V38.148H42.6V20.039ZM38.148,33.7v-9.2h2.227v9.2Zm3.34,6.68H70.434a1.113,1.113,0,0,1,0,2.227H45.941a1.113,1.113,0,1,0,0,2.227H69.32v2.227H42.6v-3.34A1.113,1.113,0,0,0,41.488,42.6a1.113,1.113,0,0,1,0-2.227ZM70.434,55.961H41.488a3.34,3.34,0,0,1,0-6.68H70.434a3.34,3.34,0,0,1,0,6.68Z"/>
    </g>
  </g>
</svg>
