<svg xmlns="http://www.w3.org/2000/svg" xmlns:xlink="http://www.w3.org/1999/xlink" width="86" height="86" viewBox="0 0 86 86">
  <defs>
    <filter id="Ellipse_11506" x="0" y="0" width="86" height="86" filterUnits="userSpaceOnUse">
      <feOffset dy="3" input="SourceAlpha"/>
      <feGaussianBlur stdDeviation="3" result="blur"/>
      <feFlood flood-opacity="0.161"/>
      <feComposite operator="in" in2="blur"/>
      <feComposite in="SourceGraphic"/>
    </filter>
  </defs>
  <g id="Group_1099789" data-name="Group 1099789" transform="translate(-817 -9578)">
    <g transform="matrix(1, 0, 0, 1, 817, 9578)" filter="url(#Ellipse_11506)">
      <g id="Ellipse_11506-2" data-name="Ellipse 11506" transform="translate(9 6)" fill="#f5e9a1" stroke="#bcac89" stroke-width="2">
        <circle cx="34" cy="34" r="34" stroke="none"/>
        <circle cx="34" cy="34" r="33" fill="none"/>
      </g>
    </g>
    <g id="law_4801970" transform="translate(832 9584)">
      <g id="Group_1099786" data-name="Group 1099786">
        <g id="Group_1099771" data-name="Group 1099771">
          <path id="Path_875141" data-name="Path 875141" d="M7,49.281v6a2.006,2.006,0,0,0-2-2H4a3,3,0,0,0-3,3v-1c0-14.62,12.19-15.85,14-16l4,4,4-4a17.045,17.045,0,0,1,7.68,2.57c3.27,2.16,6.32,6.12,6.32,13.43v1a3,3,0,0,0-3-3H33a2.006,2.006,0,0,0-2,2v-6H29v-4H24.61a6.768,6.768,0,0,0-5.61,3,6.746,6.746,0,0,0-5.61-3H9v4Z" fill="#e5782d"/>
        </g>
        <g id="Group_1099772" data-name="Group 1099772">
          <path id="Path_875142" data-name="Path 875142" d="M21,51.281H17a6.835,6.835,0,0,0-4.83-2H9v-4h4.39a6.746,6.746,0,0,1,5.61,3,6.768,6.768,0,0,1,5.61-3H29v4H25.83A6.835,6.835,0,0,0,21,51.281Z" fill="#e6e9ed"/>
        </g>
        <g id="Group_1099773" data-name="Group 1099773">
          <path id="Path_875143" data-name="Path 875143" d="M31,57.281v2H25.83a6.835,6.835,0,0,0-4.83,2v-10a6.835,6.835,0,0,1,4.83-2H31v8Z" fill="#ccd1d9"/>
        </g>
        <g id="Group_1099774" data-name="Group 1099774">
          <path id="Path_875144" data-name="Path 875144" d="M17,51.281v10a6.835,6.835,0,0,0-4.83-2H7v-10h5.17A6.835,6.835,0,0,1,17,51.281Z" fill="#ccd1d9"/>
        </g>
        <g id="Group_1099775" data-name="Group 1099775">
          <path id="Path_875145" data-name="Path 875145" d="M17,51.281h4v10H17Z" fill="#cf9e76"/>
        </g>
        <g id="Group_1099776" data-name="Group 1099776">
          <path id="Path_875146" data-name="Path 875146" d="M53,14.281l3,8H48l3-8Z" fill="#ccd1d9"/>
        </g>
        <g id="Group_1099777" data-name="Group 1099777">
          <path id="Path_875147" data-name="Path 875147" d="M60.68,20.681,58,7.281l-2.75-.61A27.58,27.58,0,0,1,44,1.281a27.009,27.009,0,0,1-5.32,3.34,27.38,27.38,0,0,1-5.93,2.05L30,7.281l-3.12.68c.04.1.08.21.12.32,0,0,.79,0,1.53-.02a4.41,4.41,0,0,1,2.56.75l.05.03a4.452,4.452,0,0,1,1.96,4.07l-.01.06a3.242,3.242,0,0,0,.53,2.03c.23.36.51.77.75,1.13a3.774,3.774,0,0,1,.63,2.09v.03a3.68,3.68,0,0,1-1.47,2.94l-1.18.89H40a4,4,0,0,1-7.06,2.58A2.986,2.986,0,0,1,30,27.281H29a9.832,9.832,0,0,1-.6,3.29,16.474,16.474,0,0,0,5.35,6.66l6.64,4.87a6.112,6.112,0,0,0,7.22,0l6.64-4.87a16.508,16.508,0,0,0,6.43-16.55Z" fill="#ccd1d9"/>
        </g>
        <g id="Group_1099778" data-name="Group 1099778">
          <path id="Path_875148" data-name="Path 875148" d="M48,22.281h8a4,4,0,1,1-8,0Z" fill="#b27946"/>
        </g>
        <g id="Group_1099779" data-name="Group 1099779">
          <path id="Path_875149" data-name="Path 875149" d="M32.35,22.281H40a4,4,0,0,1-7.06,2.58,2.784,2.784,0,0,0,.06-.58,3.291,3.291,0,0,0-.72-1.95l.06-.05Z" fill="#b27946"/>
        </g>
        <g id="Group_1099780" data-name="Group 1099780">
          <path id="Path_875150" data-name="Path 875150" d="M20.64,16.081a7.923,7.923,0,0,1-6.37,3.2H9v2H8a3,3,0,0,0-1.16.23A11.077,11.077,0,0,1,5,15.391,10.11,10.11,0,0,1,15.11,5.281h7.73a4.327,4.327,0,0,1,2.56.83,4.421,4.421,0,0,1,1.48,1.85c.04.1.08.21.12.32,0,0,.79,0,1.53-.02a4.41,4.41,0,0,1,2.56.75l.05.03a4.452,4.452,0,0,1,1.96,4.07l-.01.06a3.242,3.242,0,0,0,.53,2.03c.23.36.51.77.75,1.13a3.774,3.774,0,0,1,.63,2.09v.03a3.68,3.68,0,0,1-1.47,2.94l-1.18.89h-.01l-.06.05c-.05-.06-.11-.12-.16-.17a2.993,2.993,0,0,0-2.12-.88H29l-1.21-.24a10.624,10.624,0,0,1-6.21-3.78Z" fill="#656d78"/>
        </g>
        <g id="Group_1099781" data-name="Group 1099781">
          <path id="Path_875151" data-name="Path 875151" d="M7,57.281v2a2.006,2.006,0,0,1-2,2H4a3,3,0,0,1-3-3v-2a3,3,0,0,1,3-3H5a2.006,2.006,0,0,1,2,2Z" fill="#f0d0b4"/>
        </g>
        <g id="Group_1099782" data-name="Group 1099782">
          <path id="Path_875152" data-name="Path 875152" d="M37,57.281v1a3,3,0,0,1-3,3H33a2.006,2.006,0,0,1-2-2v-4a2.006,2.006,0,0,1,2-2h1a3,3,0,0,1,3,3Z" fill="#f0d0b4"/>
        </g>
        <g id="Group_1099783" data-name="Group 1099783">
          <path id="Path_875153" data-name="Path 875153" d="M33,24.281a2.784,2.784,0,0,1-.06.58A2.986,2.986,0,0,1,30,27.281H29v-6h1a2.993,2.993,0,0,1,2.12.88c.05.05.11.11.16.17A3.291,3.291,0,0,1,33,24.281Z" fill="#f0d0b4"/>
        </g>
        <g id="Group_1099784" data-name="Group 1099784">
          <path id="Path_875154" data-name="Path 875154" d="M9.61,19.281h4.66a7.923,7.923,0,0,0,6.37-3.2l.94,1.18a10.624,10.624,0,0,0,6.21,3.78l1.21.24v6A9.858,9.858,0,0,1,23.55,36a1,1,0,0,0-.55.9v2.38l-4,4-4-4V36.9a1,1,0,0,0-.55-.9A9.861,9.861,0,0,1,9,27.281v-8Z" fill="#f0d0b4"/>
        </g>
        <g id="Group_1099785" data-name="Group 1099785">
          <path id="Path_875155" data-name="Path 875155" d="M9,27.191v.09H8a3,3,0,1,1,0-6H9Z" fill="#f0d0b4"/>
        </g>
      </g>
      <g id="Group_1099787" data-name="Group 1099787">
        <circle id="Ellipse_11533" data-name="Ellipse 11533" cx="1" cy="1" r="1" transform="translate(23 22.281)"/>
        <circle id="Ellipse_11534" data-name="Ellipse 11534" cx="1" cy="1" r="1" transform="translate(13 22.281)"/>
        <path id="Path_875156" data-name="Path 875156" d="M18.447,29.175l1.1-.553a2,2,0,0,0,.9-2.684L20,25.045V23.281H18v2a1,1,0,0,0,.1.447l.553,1.1-1.1.553Z"/>
        <path id="Path_875157" data-name="Path 875157" d="M19,32.281a3,3,0,0,1-2.905-2.25l-1.938.5a5,5,0,0,0,9.686,0l-1.938-.5A3,3,0,0,1,19,32.281Z"/>
        <path id="Path_875158" data-name="Path 875158" d="M61.66,20.481,58.853,6.446l-3.385-.752A26.745,26.745,0,0,1,44.625.5L44,0l-.625.5A26.746,26.746,0,0,1,32.532,5.694L27.4,6.821a5.372,5.372,0,0,0-4.561-2.54H15.109A11.112,11.112,0,0,0,4,15.391a12.052,12.052,0,0,0,1.487,5.8A3.983,3.983,0,0,0,8,28.281h.076A10.77,10.77,0,0,0,14,36.9v1.494c-3.748.532-14,3.238-14,16.888v3a4,4,0,0,0,4,4H5a3,3,0,0,0,2.816-2h4.356a5.868,5.868,0,0,1,4.121,1.707l.293.293h4.828l.293-.293a5.868,5.868,0,0,1,4.121-1.707h4.356a3,3,0,0,0,2.816,2h1a4,4,0,0,0,4-4v-3c0-13.649-10.251-16.355-14-16.888V36.9a10.819,10.819,0,0,0,4.435-4.085,17.531,17.531,0,0,0,4.719,5.221L39.8,42.9a7.113,7.113,0,0,0,8.41,0l6.641-4.87A17.511,17.511,0,0,0,61.66,20.481ZM6,15.391a9.111,9.111,0,0,1,9.11-9.11h7.729A3.385,3.385,0,0,1,26.053,8.6l.228.684H27s.8,0,1.558-.017a3.544,3.544,0,0,1,2.023.606A3.473,3.473,0,0,1,32.1,13.088a4.192,4.192,0,0,0,.686,2.669l.756,1.132A2.782,2.782,0,0,1,34,18.455a2.679,2.679,0,0,1-1.072,2.138l-.6.448A3.962,3.962,0,0,0,30,20.281v-.838a5.38,5.38,0,0,0-3.684-5.111l-.633,1.9A3.384,3.384,0,0,1,28,19.443v.618l-.01,0a9.645,9.645,0,0,1-5.627-3.424l-.48-.6a9.015,9.015,0,0,0,.878-1.876l.188-.561-1.9-.634-.188.562a6.941,6.941,0,0,1-5.524,4.67,8.943,8.943,0,0,0,2.59-3.543l-1.857-.743A6.9,6.9,0,0,1,10,18.253v-.809a3.382,3.382,0,0,1,2.316-3.213l-.633-1.9A5.374,5.374,0,0,0,8,17.443v2.838a3.958,3.958,0,0,0-.667.067A10.031,10.031,0,0,1,6,15.391Zm30.307-.11,2.25,6H35.035a4.744,4.744,0,0,0,.166-5.5l-.332-.5h1.438ZM30,26.281v-4a2,2,0,0,1,0,4Zm3.857-3h4.956a2.964,2.964,0,0,1-4.834,1.195c0-.066.02-.128.02-.195a3.926,3.926,0,0,0-.142-1ZM6,24.281a2,2,0,0,1,2-2v4A2,2,0,0,1,6,24.281Zm-1,36H4a2,2,0,0,1-2-2v-2a2,2,0,0,1,2-2H5a1,1,0,0,1,1,1v1H4v2H6v1A1,1,0,0,1,5,60.281Zm3-2v-8h4.172A5.867,5.867,0,0,1,16,51.723v7.571a7.868,7.868,0,0,0-3.828-1.013Zm20-10H25.828a7.9,7.9,0,0,0-5.226,2H17.4a7.9,7.9,0,0,0-5.226-2H10v-2h3.4a5.723,5.723,0,0,1,4.773,2.555L19,50.083l.832-1.248A5.724,5.724,0,0,1,24.6,46.28H28Zm-10,4h2v8H18Zm4,7.013V51.723a5.867,5.867,0,0,1,3.828-1.442H30v8H25.828A7.868,7.868,0,0,0,22,59.294Zm14-1.013a2,2,0,0,1-2,2H33a1,1,0,0,1-1-1v-1h2v-2H32v-1a1,1,0,0,1,1-1h1a2,2,0,0,1,2,2v2Zm-.142-5.521A3.947,3.947,0,0,0,34,52.281H33a2.966,2.966,0,0,0-1,.184V48.281H30v-4H24.6a7.717,7.717,0,0,0-5.6,2.4,7.719,7.719,0,0,0-5.6-2.4H8v4H6v4.184a2.966,2.966,0,0,0-1-.184H4a3.947,3.947,0,0,0-1.858.479C3.3,42.612,11.39,40.686,14.627,40.327L19,44.694l4.373-4.367c3.237.359,11.33,2.285,12.485,12.433ZM23.106,35.11A1.981,1.981,0,0,0,22,36.9V38.87l-3,3-3-3V36.9a1.993,1.993,0,0,0-1.1-1.786A8.806,8.806,0,0,1,10,27.193V20.281h4.267a8.939,8.939,0,0,0,6.344-2.635l.192.239a11.636,11.636,0,0,0,6.8,4.135l.4.081v5.09a8.808,8.808,0,0,1-4.9,7.919Zm30.556,1.311-6.641,4.87a5.185,5.185,0,0,1-6.043,0l-6.641-4.87A15.519,15.519,0,0,1,29.474,30.5a10.827,10.827,0,0,0,.451-2.215H30A4,4,0,0,0,33.325,26.5,4.994,4.994,0,0,0,41,22.28V22.1l-2.557-6.819H43v21H39v2H49v-2H45v-21h4.557L47,22.1v.181a5,5,0,0,0,10,0V22.1l-2.557-6.819H56v-2H34.094c0-.029,0-.057,0-.086a5.463,5.463,0,0,0-2.447-5.017c-.1-.066-.207-.114-.31-.174l1.628-.358A28.781,28.781,0,0,0,44,2.547a28.781,28.781,0,0,0,11.034,5.1l2.113.47L59.7,20.874a15.508,15.508,0,0,1-6.037,15.547Zm-1.355-21.14,2.25,6H49.443l2.25-6Zm2.507,8a2.98,2.98,0,0,1-5.628,0Z"/>
      </g>
    </g>
  </g>
</svg>
