<svg id="Group_1099529" data-name="Group 1099529" xmlns="http://www.w3.org/2000/svg" width="90" height="90" viewBox="0 0 90 90">
  <circle id="Fondo" cx="45" cy="45" r="45" fill="#e6d567"/>
  <g id="documento-legal" transform="translate(19.379 15.341)">
    <g id="Group_1099803" data-name="Group 1099803" transform="translate(0.868 0.912)">
      <path id="Path_875183" data-name="Path 875183" d="M387.6,346.831l9.218,7.327c2.058,1.544,1.891,3.574.321,5.148s-3.594,1.741-5.135-.322l-7.556-9.631Z" transform="translate(-340.831 -307.573)" fill="#c7865b"/>
      <path id="Path_875184" data-name="Path 875184" d="M390.344,349.015l-3.453,3.452-2.441-3.112,3.151-2.52Z" transform="translate(-340.834 -307.576)" fill="#bf7d51"/>
      <path id="Path_875185" data-name="Path 875185" d="M7.5,12.169a4.653,4.653,0,0,1,4.68-4.626H32.674A3.532,3.532,0,0,1,35.16,8.562L48.476,21.75A3.45,3.45,0,0,1,49.5,24.2V53.076l-1.157.443,1.157.491v4.331a4.655,4.655,0,0,1-4.718,4.625l-20.4-.143H12.18A4.653,4.653,0,0,1,7.5,58.2Z" transform="translate(-7.5 -7.543)" fill="#e1ebf0"/>
      <path id="Path_875186" data-name="Path 875186" d="M9.814,12.17V58.2a4.653,4.653,0,0,0,4.68,4.626H12.18A4.653,4.653,0,0,1,7.5,58.2V12.17a4.653,4.653,0,0,1,4.68-4.626h2.314a4.653,4.653,0,0,0-4.68,4.626Z" transform="translate(-7.5 -7.544)" fill="#d2e4e7"/>
      <path id="Path_875187" data-name="Path 875187" d="M174.2,485.434c-.13.01-.261.015-.393.014l-20.4-.143h2.314Z" transform="translate(-136.518 -430.023)" fill="#b4d2d7"/>
      <path id="Path_875188" data-name="Path 875188" d="M252.716,25.164H240.825a3.15,3.15,0,0,1-3.165-3.135V10.254a3.473,3.473,0,0,1,1.029.7L252,24.148A3.439,3.439,0,0,1,252.716,25.164Z" transform="translate(-211.029 -9.94)" fill="#d2e4e7"/>
      <g id="Group_1099799" data-name="Group 1099799" transform="translate(7.03 14.447)">
        <path id="Path_875189" data-name="Path 875189" d="M82.446,134.14H69.129a.868.868,0,1,1,0-1.736H82.446a.868.868,0,1,1,0,1.736Z" transform="translate(-68.261 -132.404)" fill="#b4d2d7"/>
      </g>
      <g id="Group_1099800" data-name="Group 1099800" transform="translate(7.03 35.275)">
        <path id="Path_875190" data-name="Path 875190" d="M83.6,314.14H69.129a.868.868,0,1,1,0-1.736H83.6a.868.868,0,1,1,0,1.736Z" transform="translate(-68.261 -312.404)" fill="#b4d2d7"/>
      </g>
      <g id="Group_1099801" data-name="Group 1099801" transform="translate(6.796 28.332)">
        <path id="Path_875191" data-name="Path 875191" d="M87.466,254.14H67.106a.868.868,0,0,1,0-1.736h20.36a.868.868,0,1,1,0,1.736Z" transform="translate(-66.238 -252.404)" fill="#b4d2d7"/>
      </g>
      <g id="Group_1099802" data-name="Group 1099802" transform="translate(6.796 42.217)">
        <path id="Path_875192" data-name="Path 875192" d="M83.995,374.14H67.106a.868.868,0,1,1,0-1.736H83.995a.868.868,0,1,1,0,1.736Z" transform="translate(-66.238 -372.404)" fill="#b4d2d7"/>
      </g>
      <path id="Path_875193" data-name="Path 875193" d="M310.53,261.434l-8.862,8.857-5.029-3.87L292.97,261.6l8.886-8.882,5.7,4.563Z" transform="translate(-259.939 -224.346)" fill="#f5de46"/>
      <path id="Path_875194" data-name="Path 875194" d="M0,0H2.455V12.3H0Z" transform="translate(33.024 37.249) rotate(-45)" fill="#f3d332"/>
      <path id="Path_875195" data-name="Path 875195" d="M273.608,337.078h0a2.026,2.026,0,0,1-2.807.314l-8.864-8.863a2.019,2.019,0,0,1,.312-2.8h0a2.023,2.023,0,0,1,2.806-.314l.084.084,8.7,8.7.082.082A2.02,2.02,0,0,1,273.608,337.078Z" transform="translate(-232.109 -288.245)" fill="#c7865b"/>
      <path id="Path_875196" data-name="Path 875196" d="M274.265,336.716a2.583,2.583,0,0,1-.657,1.078h0a2.026,2.026,0,0,1-2.807.314l-8.864-8.863a2.019,2.019,0,0,1,.312-2.8h0a2.592,2.592,0,0,1,1.078-.656,1.7,1.7,0,0,0,.344,1.726l8.864,8.863A1.705,1.705,0,0,0,274.265,336.716Z" transform="translate(-232.109 -288.961)" fill="#bf7d51"/>
      <path id="Path_875197" data-name="Path 875197" d="M377.24,233.181h0a2.008,2.008,0,0,1-2.8.312l-.068-.068-8.673-8.72-.1-.1a2.036,2.036,0,0,1,.312-2.814h0a2.007,2.007,0,0,1,2.8-.314l8.84,8.887A2.034,2.034,0,0,1,377.24,233.181Z" transform="translate(-323.782 -196.339)" fill="#c7865b"/>
      <path id="Path_875198" data-name="Path 875198" d="M377.894,232.807a2.6,2.6,0,0,1-.654,1.075h0a2.008,2.008,0,0,1-2.8.312l-.068-.068-8.673-8.72-.1-.1a2.036,2.036,0,0,1,.312-2.814h0a2.587,2.587,0,0,1,1.082-.661,1.715,1.715,0,0,0,.34,1.739l.1.1,8.673,8.72.068.068A1.686,1.686,0,0,0,377.894,232.807Z" transform="translate(-323.782 -197.039)" fill="#bf7d51"/>
      <path id="Path_875199" data-name="Path 875199" d="M153.154,442.752v-2.083a2.314,2.314,0,0,1,2.314-2.314h10.685a2.314,2.314,0,0,1,2.314,2.314v2.083Z" transform="translate(-136.301 -388.507)" fill="#c7865b"/>
      <path id="Path_875200" data-name="Path 875200" d="M168.452,440.425h-12.7a.232.232,0,0,1-.226-.286,2.316,2.316,0,0,1,2.253-1.785h-2.314a2.315,2.315,0,0,0-2.3,2.071h0v0s0,.009,0,.013c-.007.075-.011.15-.011.227v2.083h15.314v-2.083A2.4,2.4,0,0,0,168.452,440.425Z" transform="translate(-136.298 -388.506)" fill="#bf7d51"/>
      <path id="Path_875201" data-name="Path 875201" d="M152.25,475.1H133.385a.579.579,0,0,1-.579-.578v-.949a2.314,2.314,0,0,1,2.314-2.314h15.394a2.314,2.314,0,0,1,2.314,2.314v.949A.578.578,0,0,1,152.25,475.1Z" transform="translate(-118.307 -417.6)" fill="#c7865b"/>
      <path id="Path_875202" data-name="Path 875202" d="M137.438,468.6a2.316,2.316,0,0,0-2.314,2.314v.949a.578.578,0,0,0,.579.579h-2.314a.578.578,0,0,1-.579-.579v-.949a2.314,2.314,0,0,1,2.314-2.314h.039l1.061-.347Z" transform="translate(-118.311 -414.946)" fill="#bf7d51"/>
    </g>
    <g id="Group_1099804" data-name="Group 1099804" transform="translate(0 0.044)">
      <path id="Path_875203" data-name="Path 875203" d="M69.129,134.14H82.446a.868.868,0,0,0,0-1.736H69.129a.868.868,0,0,0,0,1.736Z" transform="translate(-60.363 -117.089)"/>
      <path id="Path_875204" data-name="Path 875204" d="M69.129,312.4a.868.868,0,1,0,0,1.736H83.6a.868.868,0,1,0,0-1.736Z" transform="translate(-60.363 -276.262)"/>
      <path id="Path_875205" data-name="Path 875205" d="M220.886,194.14a.868.868,0,1,0,0-1.736h-9.518a.868.868,0,0,0,0,1.736Z" transform="translate(-186.144 -170.147)"/>
      <path id="Path_875206" data-name="Path 875206" d="M67.106,194.14H79.748a.868.868,0,0,0,0-1.736H67.106a.868.868,0,0,0,0,1.736Z" transform="translate(-58.574 -170.147)"/>
      <path id="Path_875207" data-name="Path 875207" d="M67.106,254.14h20.36a.868.868,0,1,0,0-1.736H67.106a.868.868,0,0,0,0,1.736Z" transform="translate(-58.574 -223.204)"/>
      <path id="Path_875208" data-name="Path 875208" d="M67.106,374.14H83.995a.868.868,0,1,0,0-1.736H67.106a.868.868,0,1,0,0,1.736Z" transform="translate(-58.574 -329.319)"/>
      <path id="Path_875209" data-name="Path 875209" d="M59.233,49.865a4.18,4.18,0,0,0-1.851-3.056l-7.544-5.964,1.715-1.714a2.517,2.517,0,0,0,1.088.243h0a3.3,3.3,0,0,0,2.3-1.008l.006-.006a2.9,2.9,0,0,0,.308-4.032l-8.839-8.886a2.676,2.676,0,0,0-3.141-.34V17.57A4.289,4.289,0,0,0,41.991,14.5L28.676,1.314a4.371,4.371,0,0,0-3.1-1.27H5.548A5.527,5.527,0,0,0,0,5.538V8.755a.868.868,0,0,0,1.736,0V5.538A3.79,3.79,0,0,1,5.548,1.779l20.62.069V13A4.022,4.022,0,0,0,30.2,17H41.474l.065,10.131a2.76,2.76,0,0,0,.106,2.059l-7.836,7.832a3.054,3.054,0,0,0-3.409.746,2.886,2.886,0,0,0-.319,4.04l8.865,8.863a2.58,2.58,0,0,0,2.593.555,3.912,3.912,0,0,1-1.106,3.128A3.8,3.8,0,0,1,37.7,55.468l-1.777-.013A3.2,3.2,0,0,0,33.9,53.809v-.735a3.185,3.185,0,0,0-3.182-3.182H20.035a3.185,3.185,0,0,0-3.182,3.182v.735a3.2,3.2,0,0,0-1.946,1.516H5.548a3.79,3.79,0,0,1-3.813-3.758V12.8A.868.868,0,0,0,0,12.8V51.566A5.527,5.527,0,0,0,5.548,57.06H14.5v.769a1.448,1.448,0,0,0,1.446,1.446H19.9a.868.868,0,0,0,0-1.736H16.234v-.66a1.448,1.448,0,0,1,1.446-1.446H33.075a1.448,1.448,0,0,1,1.446,1.446v.66H23.951a.868.868,0,0,0,0,1.736H34.81a1.448,1.448,0,0,0,1.446-1.446v-.637l1.468.01a5.54,5.54,0,0,0,3.931-1.616,5.428,5.428,0,0,0,1.619-3.877V50.024a2.952,2.952,0,0,0,.458-3.076L45.4,45.283l5.952,7.567c2.134,2.593,4.306,2.333,6.438.407a4.419,4.419,0,0,0,1.445-3.392Zm-39.2,1.763H30.72a1.448,1.448,0,0,1,1.446,1.446V53.7H18.589v-.625A1.448,1.448,0,0,1,20.035,51.628ZM43.616,26.979c.454-.418,1.057-.713,1.568-.313l8.839,8.886c.338.34.192,1.083-.312,1.59-.467.44-1.153.746-1.638.243L48.8,34.094a.868.868,0,1,0-1.23,1.224L50.233,38c-2.3,2.294-5.34,5.337-7.636,7.633l-7.47-7.468,7.657-7.653,1.905,1.915a.868.868,0,0,0,1.23-1.224L43.4,28.667c-.461-.363-.326-1.126.217-1.688ZM27.9,13V2.993L40.3,15.267H30.2A2.284,2.284,0,0,1,27.9,13ZM40.173,49.445l-8.865-8.863c-.4-.512-.107-1.117.308-1.573.551-.54,1.312-.682,1.669-.234l8.78,8.778c.4.513.1,1.124-.313,1.578-.5.5-1.242.65-1.579.314Zm16.386,2.586c-1.314,1.314-2.735,1.278-3.838-.246l-6.086-7.738L48.6,42.081l7.711,6.1C57.836,49.284,57.871,50.714,56.559,52.032Z" transform="translate(0 -0.044)"/>
    </g>
  </g>
</svg>
