<svg xmlns="http://www.w3.org/2000/svg" width="73.252" height="77.837" viewBox="0 0 73.252 77.837">
  <g id="obediente" transform="translate(-15.078)">
    <g id="Group_1099498" data-name="Group 1099498" transform="translate(30.469 1.14)">
      <path id="Path_874220" data-name="Path 874220" d="M165.488,7.5H117.075a.76.76,0,0,0-.76.76V29.335H121.3a3.725,3.725,0,0,1,.26,7.442V41.4h0a1.519,1.519,0,0,1,1.289,1.5v9.437a1.519,1.519,0,0,1-1.289,1.5h0v4.622a3.725,3.725,0,0,1-.26,7.442h-4.985v6.239h10.491a1.52,1.52,0,0,1,1.52,1.52v3.025s0,0,0,0h1.158a1.52,1.52,0,0,1,1.52,1.52v4.849h35.243V8.26A.76.76,0,0,0,165.488,7.5Z" transform="translate(-116.315 -7.5)" fill="#fff3de"/>
    </g>
    <g id="Group_1099499" data-name="Group 1099499" transform="translate(30.469 1.14)">
      <path id="Path_874221" data-name="Path 874221" d="M121.3,29.335c.045,0,.09,0,.136,0V8.26a.76.76,0,0,1,.76-.76h-5.121a.76.76,0,0,0-.76.76V29.335Z" transform="translate(-116.315 -7.5)" fill="#ffe5c2"/>
      <path id="Path_874222" data-name="Path 874222" d="M121.3,391.63h-4.985v6.239h5.121v-6.242C121.391,391.629,121.346,391.63,121.3,391.63Z" transform="translate(-116.315 -333.23)" fill="#ffe5c2"/>
    </g>
    <g id="Group_1099517" data-name="Group 1099517" transform="translate(16.218 22.975)">
      <g id="Group_1099500" data-name="Group 1099500" transform="translate(20.785 15.683)">
        <path id="Path_874223" data-name="Path 874223" d="M159.3,254.29h7.037v5.2H159.3Z" transform="translate(-159.296 -254.29)" fill="#883f2e"/>
        <path id="Path_874224" data-name="Path 874224" d="M237.5,254.29h10.051v5.2H237.5Z" transform="translate(-225.613 -254.29)" fill="#883f2e"/>
      </g>
      <g id="Group_1099501" data-name="Group 1099501" transform="translate(20.785 18.376)">
        <path id="Path_874225" data-name="Path 874225" d="M159.3,272h7.037v2.506H159.3Z" transform="translate(-159.296 -272)" fill="#6d3326"/>
        <path id="Path_874226" data-name="Path 874226" d="M237.5,272h10.051v2.506H237.5Z" transform="translate(-225.613 -272)" fill="#6d3326"/>
      </g>
      <g id="Group_1099502" data-name="Group 1099502" transform="translate(42.725 14.47)">
        <path id="Path_874227" data-name="Path 874227" d="M331.863,250.123a3.813,3.813,0,0,1-3.812,3.812H304.483a.867.867,0,0,1-.867-.867v-5.892a.867.867,0,0,1,.867-.867h23.568A3.813,3.813,0,0,1,331.863,250.123Z" transform="translate(-303.616 -246.31)" fill="#ca6e59"/>
      </g>
      <g id="Group_1099503" data-name="Group 1099503" transform="translate(42.725 14.47)">
        <path id="Path_874228" data-name="Path 874228" d="M308.8,250.672a.866.866,0,0,1-.866-.867v-3.5h-3.449a.867.867,0,0,0-.867.867v5.892a.866.866,0,0,0,.867.867h23.568a3.813,3.813,0,0,0,3.773-3.263Z" transform="translate(-303.616 -246.31)" fill="#bb5d4c"/>
      </g>
      <g id="Group_1099504" data-name="Group 1099504" transform="translate(27.822 14.47)">
        <path id="Path_874229" data-name="Path 874229" d="M210.437,247.071v6.1a.76.76,0,0,1-.76.76h-3.332a.76.76,0,0,1-.76-.76v-6.1a.76.76,0,0,1,.76-.76h3.332A.76.76,0,0,1,210.437,247.071Z" transform="translate(-205.585 -246.311)" fill="#ca6e59"/>
      </g>
      <g id="Group_1099505" data-name="Group 1099505" transform="translate(27.822 14.47)">
        <path id="Path_874230" data-name="Path 874230" d="M207.789,253.176v-6.1a.76.76,0,0,1,.76-.76h-2.2a.76.76,0,0,0-.76.76v6.1a.76.76,0,0,0,.76.76h2.2A.76.76,0,0,1,207.789,253.176Z" transform="translate(-205.585 -246.311)" fill="#bb5d4c"/>
      </g>
      <g id="Group_1099506" data-name="Group 1099506" transform="translate(9.445 7.442)">
        <path id="Path_874231" data-name="Path 874231" d="M94.523,312.316H84.934a1.526,1.526,0,0,1-.231-.019v4.622c.086-.006.172-.01.26-.01h9.531c.087,0,.174,0,.26.01V312.3A1.507,1.507,0,0,1,94.523,312.316Z" transform="translate(-84.703 -295.237)" fill="#883f2e"/>
        <path id="Path_874232" data-name="Path 874232" d="M84.934,312.316a1.526,1.526,0,0,1-.231-.019v4.622c.086-.006.172-.01.26-.01h3.568v-4.592h-3.6Z" transform="translate(-84.703 -295.237)" fill="#6d3326"/>
        <path id="Path_874233" data-name="Path 874233" d="M84.934,204.681h9.588a1.53,1.53,0,0,1,.231.019v-4.622c-.086.006-.173.01-.26.01H84.963c-.087,0-.174,0-.26-.01V204.7A1.53,1.53,0,0,1,84.934,204.681Z" transform="translate(-84.703 -200.079)" fill="#883f2e"/>
        <path id="Path_874234" data-name="Path 874234" d="M84.934,204.68h3.6v-4.592H84.963c-.087,0-.174,0-.26-.01V204.7A1.546,1.546,0,0,1,84.934,204.68Z" transform="translate(-84.703 -200.078)" fill="#6d3326"/>
      </g>
      <g id="Group_1099507" data-name="Group 1099507" transform="translate(8.156 12.044)">
        <path id="Path_874235" data-name="Path 874235" d="M88.854,231.872v9.437a1.52,1.52,0,0,1-1.52,1.52H77.745a1.52,1.52,0,0,1-1.52-1.52v-9.437a1.52,1.52,0,0,1,1.52-1.52h9.588A1.52,1.52,0,0,1,88.854,231.872Z" transform="translate(-76.225 -230.352)" fill="#ca6e59"/>
      </g>
      <g id="Group_1099508" data-name="Group 1099508" transform="translate(8.156 12.044)">
        <path id="Path_874236" data-name="Path 874236" d="M81.36,241.309v-9.437a1.52,1.52,0,0,1,1.52-1.52H77.745a1.52,1.52,0,0,0-1.52,1.52v9.437a1.52,1.52,0,0,0,1.52,1.52H82.88A1.52,1.52,0,0,1,81.36,241.309Z" transform="translate(-76.225 -230.352)" fill="#bb5d4c"/>
      </g>
      <g id="Group_1099511" data-name="Group 1099511" transform="translate(0 42.804)">
        <path id="Path_874237" data-name="Path 874237" d="M63.771,437.386a1.557,1.557,0,0,0,.008-.156v-3.025a1.52,1.52,0,0,0-1.52-1.52H41.715a1.52,1.52,0,0,0-1.52,1.52v3.025a1.557,1.557,0,0,0,.008.156Z" transform="translate(-37.517 -432.685)" fill="#ca6e59"/>
        <path id="Path_874238" data-name="Path 874238" d="M45.342,437.386a1.556,1.556,0,0,1-.008-.156v-3.025a1.52,1.52,0,0,1,1.52-1.52H41.715a1.52,1.52,0,0,0-1.52,1.52v3.025a1.555,1.555,0,0,0,.008.156Z" transform="translate(-37.517 -432.685)" fill="#bb5d4c"/>
        <g id="Group_1099509" data-name="Group 1099509" transform="translate(0 4.549)">
          <path id="Path_874239" data-name="Path 874239" d="M51.518,468.977H23.338a.76.76,0,0,1-.76-.76v-4.088a1.52,1.52,0,0,1,1.52-1.52H50a1.52,1.52,0,0,1,1.52,1.52Z" transform="translate(-22.578 -462.608)" fill="#883f2e"/>
        </g>
        <g id="Group_1099510" data-name="Group 1099510" transform="translate(0 4.549)">
          <path id="Path_874240" data-name="Path 874240" d="M27.659,468.216v-4.088a1.52,1.52,0,0,1,1.52-1.52H24.1a1.52,1.52,0,0,0-1.52,1.52v4.088a.76.76,0,0,0,.76.76h5.081A.76.76,0,0,1,27.659,468.216Z" transform="translate(-22.578 -462.608)" fill="#6d3326"/>
        </g>
      </g>
      <g id="Group_1099516" data-name="Group 1099516" transform="translate(5.979)">
        <g id="Group_1099512" data-name="Group 1099512" transform="translate(0 29.114)">
          <path id="Path_874241" data-name="Path 874241" d="M78.888,346.359a3.726,3.726,0,0,1-3.726,3.726H65.631a3.726,3.726,0,1,1,0-7.452h9.531A3.726,3.726,0,0,1,78.888,346.359Z" transform="translate(-61.905 -342.633)" fill="#ca6e59"/>
        </g>
        <g id="Group_1099513" data-name="Group 1099513" transform="translate(0 29.114)">
          <path id="Path_874242" data-name="Path 874242" d="M66.98,346.359a3.726,3.726,0,0,1,3.726-3.726H65.631a3.726,3.726,0,1,0,0,7.452h5.075A3.726,3.726,0,0,1,66.98,346.359Z" transform="translate(-61.905 -342.633)" fill="#bb5d4c"/>
        </g>
        <g id="Group_1099514" data-name="Group 1099514" transform="translate(0)">
          <path id="Path_874243" data-name="Path 874243" d="M78.888,154.854a3.726,3.726,0,0,1-3.726,3.726H65.631a3.726,3.726,0,0,1,0-7.452h9.531A3.726,3.726,0,0,1,78.888,154.854Z" transform="translate(-61.905 -151.128)" fill="#ca6e59"/>
        </g>
        <g id="Group_1099515" data-name="Group 1099515">
          <path id="Path_874244" data-name="Path 874244" d="M66.98,154.854a3.726,3.726,0,0,1,3.726-3.726H65.631a3.726,3.726,0,0,0,0,7.452h5.075A3.726,3.726,0,0,1,66.98,154.854Z" transform="translate(-61.905 -151.128)" fill="#bb5d4c"/>
        </g>
      </g>
    </g>
    <g id="Group_1099520" data-name="Group 1099520" transform="translate(44.768 8.226)">
      <g id="Group_1099518" data-name="Group 1099518">
        <circle id="Ellipse_11499" data-name="Ellipse 11499" cx="10.667" cy="10.667" r="10.667" fill="#4fc123"/>
      </g>
      <g id="Group_1099519" data-name="Group 1099519" transform="translate(0)">
        <path id="Path_874245" data-name="Path 874245" d="M215.484,64.774A10.67,10.67,0,0,1,223.6,54.417a10.667,10.667,0,1,0,0,20.714A10.67,10.67,0,0,1,215.484,64.774Z" transform="translate(-210.372 -54.107)" fill="#47a920"/>
      </g>
    </g>
    <g id="Group_1099521" data-name="Group 1099521" transform="translate(15.078 0)">
      <path id="Path_874246" data-name="Path 874246" d="M83.378,36.305H81.542V16.571a1.14,1.14,0,0,0-1.175-1.14,1.172,1.172,0,0,0-1.105,1.187V36.305H71.619a1.14,1.14,0,1,0,0,2.28H83.378a2.672,2.672,0,0,1,0,5.345H60.083V38.585H66.3a1.14,1.14,0,1,0,0-2.28H59.81a2.009,2.009,0,0,0-1.842,1.213H49.9a1.9,1.9,0,0,0-1.77-1.213H44.8a1.9,1.9,0,0,0-1.77,1.213H38.143v-.979a2.659,2.659,0,0,0-1.289-2.275v-2.9a4.866,4.866,0,0,0-1.4-9.526H31.609V2.28H79.261V11.25a1.14,1.14,0,0,0,1.175,1.14A1.172,1.172,0,0,0,81.542,11.2V1.9a1.9,1.9,0,0,0-1.9-1.9H31.229a1.9,1.9,0,0,0-1.9,1.9V21.835H25.923a4.866,4.866,0,0,0-1.4,9.526v2.9a2.659,2.659,0,0,0-1.289,2.275v9.437a2.659,2.659,0,0,0,1.289,2.275v2.9a4.866,4.866,0,0,0,1.4,9.526h3.406v3.958H20.417a2.664,2.664,0,0,0-2.66,2.66v1.889h-.018a2.664,2.664,0,0,0-2.66,2.66v4.088a1.9,1.9,0,0,0,1.9,1.9H79.641a1.9,1.9,0,0,0,1.9-1.9V46.211h1.836a4.953,4.953,0,0,0,0-9.905ZM50.032,39.8H57.8v2.918H50.032ZM45.18,38.586h2.572V43.93H45.18ZM38.143,39.8H42.9v2.918H38.143ZM23.337,26.7a2.589,2.589,0,0,1,2.586-2.586h9.531a2.586,2.586,0,0,1,0,5.171H25.923A2.588,2.588,0,0,1,23.337,26.7Zm2.557,19.655a.38.38,0,0,1-.38-.38V36.54a.38.38,0,0,1,.38-.38h9.588a.38.38,0,0,1,.38.38v9.437a.38.38,0,0,1-.38.38Zm8.679,2.28v2.312H26.8V48.637ZM26.8,33.879V31.567h7.771v2.312ZM25.923,58.4a2.586,2.586,0,0,1,0-5.171h9.531a2.586,2.586,0,0,1,0,5.171Zm18.1,17.156H17.358V71.848a.38.38,0,0,1,.38-.38H24.8a1.14,1.14,0,0,0,0-2.28H20.037V67.3a.38.38,0,0,1,.38-.38H40.96a.38.38,0,0,1,.38.38v1.889H30.117a1.14,1.14,0,0,0,0,2.28H43.638a.38.38,0,0,1,.38.38Zm35.243,0H46.3V71.848a2.664,2.664,0,0,0-2.66-2.66H43.62V67.3a2.664,2.664,0,0,0-2.66-2.66H31.609V60.68h3.845a4.866,4.866,0,0,0,1.4-9.526v-2.9a2.659,2.659,0,0,0,1.289-2.275V45H43.03A1.9,1.9,0,0,0,44.8,46.21h3.332A1.9,1.9,0,0,0,49.9,45h8.066A2.009,2.009,0,0,0,59.81,46.21H79.261V75.556Z" transform="translate(-15.078 0)"/>
      <path id="Path_874247" data-name="Path 874247" d="M202.872,58.415A11.808,11.808,0,1,0,214.68,46.607a11.821,11.821,0,0,0-11.808,11.808Zm21.335,0a9.527,9.527,0,1,1-9.527-9.527,9.538,9.538,0,0,1,9.527,9.527Z" transform="translate(-174.323 -39.522)"/>
      <path id="Path_874248" data-name="Path 874248" d="M248.29,103.422a1.14,1.14,0,0,0-1.613,1.612l3.507,3.507a1.14,1.14,0,0,0,1.613,0l5.436-5.436a1.14,1.14,0,0,0-1.613-1.612l-4.63,4.63Z" transform="translate(-211.185 -85.781)"/>
      <path id="Path_874249" data-name="Path 874249" d="M243.681,328.209a1.14,1.14,0,0,0,1.14,1.14H265.79a1.14,1.14,0,1,0,0-2.28H244.821A1.14,1.14,0,0,0,243.681,328.209Z" transform="translate(-208.928 -277.346)"/>
      <path id="Path_874250" data-name="Path 874250" d="M322.451,363.546H311.64a1.14,1.14,0,0,0,0,2.28h10.81a1.14,1.14,0,0,0,0-2.28Z" transform="translate(-265.588 -308.278)"/>
      <path id="Path_874251" data-name="Path 874251" d="M244.821,365.826h6.205a1.14,1.14,0,0,0,0-2.28h-6.205a1.14,1.14,0,1,0,0,2.28Z" transform="translate(-208.928 -308.278)"/>
      <path id="Path_874252" data-name="Path 874252" d="M265.789,400.023H244.82a1.14,1.14,0,0,0,0,2.28h20.969a1.14,1.14,0,0,0,0-2.28Z" transform="translate(-208.927 -339.21)"/>
      <path id="Path_874253" data-name="Path 874253" d="M352.13,436.5h-5.49a1.14,1.14,0,0,0,0,2.28h5.49a1.14,1.14,0,0,0,0-2.28Z" transform="translate(-295.268 -370.141)"/>
      <path id="Path_874254" data-name="Path 874254" d="M256.8,436.5H244.821a1.14,1.14,0,1,0,0,2.28H256.8a1.14,1.14,0,1,0,0-2.28Z" transform="translate(-208.928 -370.141)"/>
    </g>
  </g>
</svg>
