<svg xmlns="http://www.w3.org/2000/svg" xmlns:xlink="http://www.w3.org/1999/xlink" width="108" height="108" viewBox="0 0 108 108">
  <defs>
    <filter id="Ellipse_11503" x="0" y="0" width="108" height="108" filterUnits="userSpaceOnUse">
      <feOffset dy="3" input="SourceAlpha"/>
      <feGaussianBlur stdDeviation="3" result="blur"/>
      <feFlood flood-opacity="0.161"/>
      <feComposite operator="in" in2="blur"/>
      <feComposite in="SourceGraphic"/>
    </filter>
  </defs>
  <g id="Group_1099768" data-name="Group 1099768" transform="translate(-1290.873 -8846)">
    <g transform="matrix(1, 0, 0, 1, 1290.87, 8846)" filter="url(#Ellipse_11503)">
      <g id="Ellipse_11503-2" data-name="Ellipse 11503" transform="translate(9 6)" fill="#dbe7fc" stroke="#0d5d91" stroke-width="2">
        <circle cx="45" cy="45" r="45" stroke="none"/>
        <circle cx="45" cy="45" r="44" fill="none"/>
      </g>
    </g>
    <g id="auction_5270319" transform="translate(1313.857 8865)">
      <path id="Path_875097" data-name="Path 875097" d="M57,5V59a4.012,4.012,0,0,1-4,4H15a4.012,4.012,0,0,1-4-4V55.82L28.95,37.88a2,2,0,0,0,2.83,0l1.41-1.42,4.95,4.95.01.01-.71.7a2,2,0,1,0,2.82,2.83L51.58,33.64a2,2,0,1,0-2.83-2.83l-.7.71-.01-.01L43.53,27H49a4,4,0,0,0,4-4V10a4,4,0,0,0-4-4H19a4,4,0,0,0-4,4V23a4,4,0,0,0,4,4h.71a1.984,1.984,0,0,0,2.17-.44l.71-.7,4.95,4.95-1.42,1.41a2,2,0,0,0,0,2.83L11,50.18V5a4.012,4.012,0,0,1,4-4H53a4.012,4.012,0,0,1,4,4Z" fill="#e5e5e5"/>
      <path id="Path_875098" data-name="Path 875098" d="M57,5V59a4.012,4.012,0,0,1-4,4H15a4.012,4.012,0,0,1-4-4V57H36a6.018,6.018,0,0,0,6-6V43.21l9.58-9.57a2,2,0,1,0-2.83-2.83l-.7.71-.01-.01L43.53,27H49a4,4,0,0,0,4-4V10a4,4,0,0,0-4-4H42V1H53a4.012,4.012,0,0,1,4,4Z" fill="#c9c9c9"/>
      <path id="Path_875099" data-name="Path 875099" d="M53,10V23a4,4,0,0,1-4,4H43.53L32.49,15.96l.7-.71a2,2,0,0,0-2.83-2.83L19.05,23.74a1.98,1.98,0,0,0,0,2.82,1.78,1.78,0,0,0,.66.44H19a4,4,0,0,1-4-4V10a4,4,0,0,1,4-4H49A4,4,0,0,1,53,10Z" fill="#97bf6f"/>
      <path id="Path_875100" data-name="Path 875100" d="M53,10V23a4,4,0,0,1-4,4H43.53l-6-6H41a4,4,0,0,0,4-4V6h4A4,4,0,0,1,53,10Z" fill="#81ad4e"/>
      <path id="Path_875101" data-name="Path 875101" d="M51.58,30.81a2,2,0,0,1,0,2.83L40.26,44.95a2,2,0,1,1-2.82-2.83l.71-.7,9.9-9.9.7-.71a1.992,1.992,0,0,1,2.83,0Z" fill="#6a6b6b"/>
      <path id="Path_875102" data-name="Path 875102" d="M48.05,31.52l-9.9,9.9-.01-.01-4.95-4.95-5.65-5.65-4.95-4.95,9.9-9.9L43.53,27l4.51,4.51Z" fill="#f2bc79"/>
      <path id="Path_875103" data-name="Path 875103" d="M48.05,31.52l-9.9,9.9-4.96-4.96-5.65-5.65-4.95-4.95,2.5-2.5.45.45,5.65,5.65,2.132,2.132a4,4,0,0,0,5.657,0l4.572-4.572,4.49,4.49Z" fill="#eaa150"/>
      <path id="Path_875104" data-name="Path 875104" d="M33.19,12.42a1.992,1.992,0,0,1,0,2.83l-.7.71-9.9,9.9-.71.7a1.984,1.984,0,0,1-2.17.44,1.78,1.78,0,0,1-.66-.44,1.98,1.98,0,0,1,0-2.82L30.36,12.42a2,2,0,0,1,2.83,0Z" fill="#6a6b6b"/>
      <path id="Path_875105" data-name="Path 875105" d="M33.19,36.46l-1.41,1.42a2,2,0,0,1-2.83,0l-2.83-2.83a2,2,0,0,1,0-2.83l1.42-1.41Z" fill="#f29a2e"/>
      <path id="Path_875106" data-name="Path 875106" d="M28.95,37.88,11,55.82,8.44,58.38a1.974,1.974,0,0,1-2.82,0,1.98,1.98,0,0,1,0-2.82L11,50.18,26.12,35.05Z" fill="#8d8e8e"/>
      <g id="Group_1099767" data-name="Group 1099767">
        <path id="Path_875107" data-name="Path 875107" d="M9.151,59.092,10,58.243V59a5.006,5.006,0,0,0,5,5H53a5.006,5.006,0,0,0,5-5V5a5.006,5.006,0,0,0-5-5H15a5.006,5.006,0,0,0-5,5V49.757L4.909,54.848a3,3,0,0,0,4.242,4.244ZM12,5a3,3,0,0,1,3-3H53a3,3,0,0,1,3,3V59a3,3,0,0,1-3,3H15a3,3,0,0,1-3-3V56.243l17.08-17.08a2.967,2.967,0,0,0,3.406-.577l.707-.707,3.535,3.535a3,3,0,0,0,4.243,4.243L52.284,34.344A3,3,0,0,0,48.041,30.1l-2.1-2.1H49a5.006,5.006,0,0,0,5-5V10a5.006,5.006,0,0,0-5-5H19a5.006,5.006,0,0,0-5,5V23a5.006,5.006,0,0,0,5,5h.571a2.934,2.934,0,0,0,3.016-.728l3.535,3.535-.708.707a2.967,2.967,0,0,0-.578,3.407L12,47.757Zm5.508,20.587A2.988,2.988,0,0,1,16,23V10a3,3,0,0,1,3-3H49a3,3,0,0,1,3,3V23a3,3,0,0,1-3,3H43.941L33.9,15.958a3,3,0,0,0-4.243-4.242L18.343,23.029a2.987,2.987,0,0,0-.835,2.558Zm2.249-1.144L31.071,13.13a1,1,0,0,1,1.415,1.414L21.172,25.857a1,1,0,1,1-1.415-1.414Zm12.728-7.071L46.627,31.515,38.142,40,24,25.858ZM49.456,31.515a1,1,0,1,1,1.415,1.414L39.557,44.242a1,1,0,1,1-1.415-1.414ZM26.828,32.929l.708-.707,4.243,4.243-.707.707a1,1,0,0,1-1.415,0l-2.829-2.829a1,1,0,0,1,0-1.414ZM6.322,57.678a1,1,0,0,1,0-1.414l19.8-19.8,1.415,1.415-19.8,19.8a1,1,0,0,1-1.415,0Z"/>
        <path id="Path_875108" data-name="Path 875108" d="M32.707,20.293a1,1,0,0,0-1.414,0l-2,2a1,1,0,0,0,1.414,1.414L32,22.414l2.293,2.293a1,1,0,1,0,1.414-1.414Z"/>
        <path id="Path_875109" data-name="Path 875109" d="M26,46h8a1,1,0,0,0,0-2H26a1,1,0,0,0,0,2Z"/>
        <path id="Path_875110" data-name="Path 875110" d="M53,44H45a1,1,0,0,0,0,2h8a1,1,0,0,0,0-2Z"/>
        <path id="Path_875111" data-name="Path 875111" d="M22,50H45a1,1,0,0,0,0-2H22a1,1,0,0,0,0,2Z"/>
        <path id="Path_875112" data-name="Path 875112" d="M53,48H49a1,1,0,0,0,0,2h4a1,1,0,0,0,0-2Z"/>
        <path id="Path_875113" data-name="Path 875113" d="M22,52H18a1,1,0,0,0,0,2h4a1,1,0,0,0,0-2Z"/>
        <path id="Path_875114" data-name="Path 875114" d="M53,52H26a1,1,0,0,0,0,2H53a1,1,0,0,0,0-2Z"/>
        <path id="Path_875115" data-name="Path 875115" d="M20,13V11h4a1,1,0,0,0,0-2H19a1,1,0,0,0-1,1v3a1,1,0,0,0,2,0Z"/>
      </g>
    </g>
  </g>
</svg>
