<svg xmlns="http://www.w3.org/2000/svg" xmlns:xlink="http://www.w3.org/1999/xlink" width="108" height="108" viewBox="0 0 108 108">
  <defs>
    <filter id="Ellipse_11511" x="0" y="0" width="108" height="108" filterUnits="userSpaceOnUse">
      <feOffset dy="3" input="SourceAlpha"/>
      <feGaussianBlur stdDeviation="3" result="blur"/>
      <feFlood flood-opacity="0.161"/>
      <feComposite operator="in" in2="blur"/>
      <feComposite in="SourceGraphic"/>
    </filter>
  </defs>
  <g id="Group_1099757" data-name="Group 1099757" transform="translate(-206.5 -6422.326)">
    <g transform="matrix(1, 0, 0, 1, 206.5, 6422.33)" filter="url(#Ellipse_11511)">
      <g id="Ellipse_11511-2" data-name="Ellipse 11511" transform="translate(9 6)" fill="#dbe7fc" stroke="#0d5d91" stroke-width="2">
        <circle cx="45" cy="45" r="45" stroke="none"/>
        <circle cx="45" cy="45" r="44" fill="none"/>
      </g>
    </g>
    <g id="constitution_17621910" transform="translate(194.992 6397.564)">
      <g id="Group_1099756" data-name="Group 1099756" transform="translate(26.175 38.672)">
        <path id="Path_875057" data-name="Path 875057" d="M41.861,389.206A29.488,29.488,0,0,0,46.1,372.954C27.126,368.643,28.785,390.365,41.861,389.206Z" transform="translate(-31.942 -315.064)" fill="#d8aa8b" fill-rule="evenodd"/>
        <path id="Path_875058" data-name="Path 875058" d="M62.325,380.555a45.65,45.65,0,0,0,.689-7.273,16.46,16.46,0,0,0-10.573.926c2.611,1.045,3.959,4.178,2.141,6.422C56.834,380.584,59.768,379.931,62.325,380.555Z" transform="translate(-48.857 -315.39)" fill="#963" fill-rule="evenodd"/>
        <path id="Path_875059" data-name="Path 875059" d="M133.722,60.553l-.01,3.765c.386,12.947,1.9,30.324,3.484,48.7-.343,3.225-.619,4.692-11.208,5.029l-41.443.545c10.311-15.564-.981-56.58-.877-67.351a6.9,6.9,0,0,1,4.359-6.268,7.961,7.961,0,0,1,7.938,1.358,8.556,8.556,0,0,1,3.5,8.375,7.426,7.426,0,0,1-6.179,6Z" transform="translate(-74.625 -44.447)" fill="#d8aa8b" fill-rule="evenodd"/>
        <path id="Path_875060" data-name="Path 875060" d="M177.634,61.992l-.01,3.765c.372,12.432,1.383,28.183,2.86,45.615-14.428,2.19-28.952,2.115-42.726,1.4,6.481-11.367.645-31.3-.273-50.634ZM136.88,46.19a8.335,8.335,0,0,1,3,1.575,8.556,8.556,0,0,1,3.5,8.375,7.416,7.416,0,0,1-5.9,5.941C137.158,55.2,136.894,49.406,136.88,46.19Z" transform="translate(-118.537 -45.885)" fill="#e1c3af" fill-rule="evenodd"/>
        <path id="Path_875061" data-name="Path 875061" d="M112.634,92.007a7.453,7.453,0,0,0,6.308-7.719c-4,2.374-7.452,1.14-9.568-1.9a4.845,4.845,0,0,0-1.977,5.772A5.649,5.649,0,0,0,112.634,92.007Z" transform="translate(-93.975 -75.758)" fill="#963" fill-rule="evenodd"/>
        <path id="Path_875062" data-name="Path 875062" d="M128.609,61.227a7.549,7.549,0,0,0,6.273-8.081,8.99,8.99,0,0,0-7.443-8.056l48.048.108c6.441,4.494,6.209,12.328.129,15.861Z" transform="translate(-110.747 -44.978)" fill="#d8aa8b" fill-rule="evenodd"/>
        <path id="Path_875063" data-name="Path 875063" d="M134.13,91.653a7.549,7.549,0,0,0,6.273-8.081,8.357,8.357,0,0,0-.213-1.358l45.356-.253a9.089,9.089,0,0,1-4.41,9.523Z" transform="translate(-116.268 -75.403)" fill="#e1c3af" fill-rule="evenodd"/>
        <path id="Path_875064" data-name="Path 875064" d="M216.885,254.43H258.6a1.722,1.722,0,0,1,1.715,1.72V258.1a1.721,1.721,0,0,1-1.715,1.715H216.885a1.721,1.721,0,0,1-1.715-1.715V256.15A1.722,1.722,0,0,1,216.885,254.43Z" transform="translate(-183.142 -217.725)" fill="#8f4018" fill-rule="evenodd"/>
        <path id="Path_875065" data-name="Path 875065" d="M332.165,202.955V235.1H325.64V202.955a2.235,2.235,0,0,1,2.23-2.225h2.066A2.236,2.236,0,0,1,332.165,202.955Z" transform="translate(-274.302 -173.412)" fill="#8f4018" fill-rule="evenodd"/>
        <path id="Path_875066" data-name="Path 875066" d="M212.1,347.23a6.5,6.5,0,0,0,2.76,7.487,7.907,7.907,0,0,0,8.6,0,6.5,6.5,0,0,0,2.765-7.487Z" transform="translate(-180.346 -294.304)" fill="#fb8500" fill-rule="evenodd"/>
        <path id="Path_875067" data-name="Path 875067" d="M239.465,353.058a6.34,6.34,0,0,0,.991-5.828H229.03A6.675,6.675,0,0,0,232.1,352.4,7.923,7.923,0,0,0,239.465,353.058Z" transform="translate(-194.58 -294.304)" fill="#ffb703" fill-rule="evenodd"/>
        <path id="Path_875068" data-name="Path 875068" d="M397.831,347.23a6.5,6.5,0,0,0,2.76,7.487,7.907,7.907,0,0,0,8.6,0,6.5,6.5,0,0,0,2.765-7.487Z" transform="translate(-333.611 -294.304)" fill="#fb8500" fill-rule="evenodd"/>
        <path id="Path_875069" data-name="Path 875069" d="M427.075,353.949a6.406,6.406,0,0,0,1.788-6.719H418.006a6.641,6.641,0,0,0,3.082,5.628A7.927,7.927,0,0,0,427.075,353.949Z" transform="translate(-350.523 -294.304)" fill="#ffb703" fill-rule="evenodd"/>
        <path id="Path_875070" data-name="Path 875070" d="M306.1,397.35h8.983A2.661,2.661,0,0,1,317.734,400v2.655H303.45V400A2.658,2.658,0,0,1,306.1,397.35Z" transform="translate(-255.991 -335.663)" fill="#8ecae6" fill-rule="evenodd"/>
        <path id="Path_875071" data-name="Path 875071" d="M280.816,427.71h16.723a3.325,3.325,0,0,1,3.314,3.319v3.314H277.5v-3.314A3.327,3.327,0,0,1,280.816,427.71Z" transform="translate(-234.577 -360.717)" fill="#219ebc" fill-rule="evenodd"/>
        <path id="Path_875072" data-name="Path 875072" d="M318.024,237.98a5.566,5.566,0,1,1-5.564,5.564A5.567,5.567,0,0,1,318.024,237.98Z" transform="translate(-263.426 -204.151)" fill="#fb8500" fill-rule="evenodd"/>
      </g>
      <path id="Path_875073" data-name="Path 875073" d="M44.647,108.777a1.224,1.224,0,1,1,0-2.447h17.46a1.224,1.224,0,1,1,0,2.447Zm.365-46.5a1.224,1.224,0,1,1,0-2.447H55.2a1.224,1.224,0,1,1,0,2.447Zm14.727,8.091a1.224,1.224,0,1,1,0-2.447H70.471a1.224,1.224,0,0,1,0,2.447Zm-12.367,0a1.224,1.224,0,1,1,0-2.447h6.763a1.224,1.224,0,0,1,0,2.447ZM61.16,62.275a1.224,1.224,0,0,1,0-2.447H79.806a1.224,1.224,0,0,1,0,2.447ZM46.044,102.657a1.224,1.224,0,1,1,0-2.447H56.627a1.224,1.224,0,0,1,0,2.447Zm34.729-31.38a6.731,6.731,0,0,1,2.042.313V68.217a1.009,1.009,0,0,0-1.005-1H79.743a1.008,1.008,0,0,0-1.005,1V71.59A6.749,6.749,0,0,1,80.772,71.278ZM87.408,76.6a6.971,6.971,0,0,1,0,2.933h14.225a.5.5,0,0,0,.491-.491V77.095a.5.5,0,0,0-.491-.495ZM85.49,82.952c-.075.075-.154.143-.232.213V99.135a3.855,3.855,0,0,1,1.591.337Zm-2.676,1.594a6.9,6.9,0,0,1-4.078,0V99.133h4.078Zm-6.525-1.381a6.9,6.9,0,0,1-1.061-1.183H67.241l5.782,8.874a1.343,1.343,0,0,1,.189.362c1.734,5.261-2.582,10.365-8.221,10.365a8.6,8.6,0,0,1-8.135-5.41,7.475,7.475,0,0,1-.1-4.9,1.2,1.2,0,0,1,.208-.421l5.777-8.869H59.917a2.945,2.945,0,0,1-2.938-2.938V77.1a2.946,2.946,0,0,1,2.938-2.944h15.31a6.9,6.9,0,0,1,1.061-1.183V68.22a3.458,3.458,0,0,1,3.454-3.449h2.066a3.43,3.43,0,0,1,2.542,1.12q-.2-3.8-.308-7.308l.005-2.577L44.9,56.145h-.867a1.209,1.209,0,0,1-.551-.135,6.65,6.65,0,0,1-2.542-1.15c-3.765-2.765-3.83-8.25-.01-10.593h.005a1.216,1.216,0,0,1,1.631.343,5.338,5.338,0,0,0,7.284,1.9,7.388,7.388,0,0,0-.486-1.729A7.718,7.718,0,0,0,46.881,41.6a1.281,1.281,0,0,1-.138-.094c-2.86-2.344-7.17-2.174-9.28.862A5.777,5.777,0,0,0,36.437,45.5c-.024,2.844.794,7.986,1.779,14.241,1.715,10.822,3.94,24.9,3.335,36.721a1.163,1.163,0,0,1-.019.346,54.1,54.1,0,0,1-.827,7.051,29.129,29.129,0,0,1-2.482,7.71l29.654-.392v-2.2a4.552,4.552,0,0,1,4.534-4.543V103.01a3.882,3.882,0,0,1,3.881-3.875V83.165Zm-2.147-3.632a6.8,6.8,0,0,1,0-2.933H59.917a.5.5,0,0,0-.491.495v1.947a.5.5,0,0,0,.491.491Zm9.7-4.539a4.343,4.343,0,1,0,0,6.142A4.348,4.348,0,0,0,83.845,74.994Zm5.891,29.487a4.556,4.556,0,0,1,3.94,4.5V112.3a1.223,1.223,0,0,1-1.224,1.224H74.658l-38.51.507a9.921,9.921,0,0,1-9.955-5.1A9.536,9.536,0,0,1,27.076,98.2c2.209-2.571,6.163-4.118,12.11-3.106.372-11.257-1.744-24.631-3.379-34.972C34.836,53.971,33.93,48.2,34,45.434a8.113,8.113,0,0,1,5.129-7.373,8.788,8.788,0,0,1,4.667-.495l47.12.108a1.217,1.217,0,0,1,.724.238,12.928,12.928,0,0,1,3.825,4.073,9.87,9.87,0,0,1-3.811,13.828,1.219,1.219,0,0,1-.675.159l-4.494.019-.005,2.522c.075,2.463.194,5.123.343,7.962.135,2.412.292,4.98.475,7.675h14.335a2.949,2.949,0,0,1,2.938,2.944v1.947a2.948,2.948,0,0,1-2.938,2.938H99.7l5.782,8.874a1.343,1.343,0,0,1,.189.362c1.734,5.261-2.582,10.365-8.221,10.365a8.6,8.6,0,0,1-8.135-5.41,7.475,7.475,0,0,1-.1-4.9,1.2,1.2,0,0,1,.208-.421L95.2,81.982H87.862c.57,7.387,1.21,14.839,1.874,22.5Zm-.6,2.409H72.413a2.1,2.1,0,0,0-2.091,2.1v2.091h20.9v-2.091A2.1,2.1,0,0,0,89.136,106.889Zm-3.87-5.307H76.283a1.438,1.438,0,0,0-1.432,1.426v1.432H86.694v-1.432a1.435,1.435,0,0,0-1.428-1.426Zm6.085-8.761c-.521,3.459,2.507,6.312,6.1,6.312s6.62-2.854,6.1-6.312Zm1.294-2.447h9.617l-4.807-7.383ZM58.886,92.821c-.521,3.459,2.507,6.312,6.1,6.312s6.62-2.854,6.1-6.312Zm1.294-2.447H69.8L64.99,82.991ZM44.6,53.7h.135a6.332,6.332,0,0,0,3.311-1.68,6.154,6.154,0,0,0,1.655-2.8,7.5,7.5,0,0,1-8.3-2.18c-2.176,2.512.073,6.539,3.2,6.663Zm5.237-.016L90.7,53.539a8.461,8.461,0,0,0,2.458-2.3,7.338,7.338,0,0,0,.194-8.032,10.4,10.4,0,0,0-2.83-3.1l-41.715-.094c4.148,3.5,4.907,9.792,1.031,13.666ZM35.395,111.635a23.275,23.275,0,0,0,2.636-6.817,60.165,60.165,0,0,0-6.065.308,1.219,1.219,0,0,1-1.016-1.987c1.164-1.432.376-3.34-1.091-4.237-4.889,3.772-2.232,12.963,5.536,12.734Zm3.113-9.226c.257-1.545.435-3.176.554-4.861a14.25,14.25,0,0,0-6.814.143,5.4,5.4,0,0,1,1.61,4.861A24.542,24.542,0,0,1,38.508,102.409Z"/>
    </g>
  </g>
</svg>
