<svg xmlns="http://www.w3.org/2000/svg" width="14.52" height="14.526" viewBox="0 0 14.52 14.526">
  <path id="gavel-solid_1_" data-name="gavel-solid (1)" d="M14.348,5.607l-.641-.641a.678.678,0,0,0-.962,0l-.162.162L9.373,1.917l.162-.162a.678.678,0,0,0,0-.962L8.891.15a.678.678,0,0,0-.962,0L4.4,3.681a.678.678,0,0,0,0,.962l.641.641a.678.678,0,0,0,.962,0l.162-.162L7.286,6.245l-2.3,2.3-.162-.162a.909.909,0,0,0-1.285,0L.291,11.64a.909.909,0,0,0,0,1.285L1.576,14.21a.909.909,0,0,0,1.285,0l3.253-3.253a.909.909,0,0,0,0-1.285L5.952,9.51l2.3-2.3L9.373,8.336,9.211,8.5a.678.678,0,0,0,0,.962l.641.641a.678.678,0,0,0,.962,0l3.531-3.531a.678.678,0,0,0,0-.962Z" transform="translate(-0.025 0.05)" fill="#0b0a0a"/>
</svg>
