<svg xmlns="http://www.w3.org/2000/svg" xmlns:xlink="http://www.w3.org/1999/xlink" width="108" height="108" viewBox="0 0 108 108">
  <defs>
    <filter id="Ellipse_11502" x="0" y="0" width="108" height="108" filterUnits="userSpaceOnUse">
      <feOffset dy="3" input="SourceAlpha"/>
      <feGaussianBlur stdDeviation="3" result="blur"/>
      <feFlood flood-opacity="0.161"/>
      <feComposite operator="in" in2="blur"/>
      <feComposite in="SourceGraphic"/>
    </filter>
  </defs>
  <g id="Group_1099764" data-name="Group 1099764" transform="translate(-197 -8338.07)">
    <g transform="matrix(1, 0, 0, 1, 197, 8338.07)" filter="url(#Ellipse_11502)">
      <g id="Ellipse_11502-2" data-name="Ellipse 11502" transform="translate(9 6)" fill="#dbe7fc" stroke="#0d5d91" stroke-width="2">
        <circle cx="45" cy="45" r="45" stroke="none"/>
        <circle cx="45" cy="45" r="44" fill="none"/>
      </g>
    </g>
    <g id="review_16648533" transform="translate(186.089 8339.26)">
      <g id="Group_1099763" data-name="Group 1099763" transform="translate(39.881 16.011)">
        <path id="Path_875074" data-name="Path 875074" d="M55.923,19.573h4.34a4.36,4.36,0,0,1,8.572,0h4.339a.751.751,0,0,1,.751.751V21.3h8.127A5.539,5.539,0,0,1,87.5,25.983l.012,5.608a10.639,10.639,0,0,1,1.4,1.24h0l.015.018a10.589,10.589,0,0,1,.839,13.524L91.3,48a2.482,2.482,0,0,1,2.246.733l4.694,4.971h0l.015.018a2.48,2.48,0,0,1-.086,3.48h0l-1.273,1.2a2.48,2.48,0,0,1-3.5-.1l-4.71-4.988a2.468,2.468,0,0,1-.607-2.263l-.542-.536.025,21.34h0a5.528,5.528,0,0,1-5.51,5.513v0H64.085a2.146,2.146,0,0,1-1.318.929A2.331,2.331,0,0,1,60.6,81.574c-3.672,0-7.345-.023-11.017-.034v0a3.721,3.721,0,0,1-2.36-.837,1.558,1.558,0,0,1-1.156.513H41.443a1.557,1.557,0,0,1-1.1-.458l0,0a1.554,1.554,0,0,1-.46-1.1V69.543a1.564,1.564,0,0,1,1.562-1.562h.087V26.812A5.53,5.53,0,0,1,47.045,21.3h8.127v-.973a.751.751,0,0,1,.751-.751Z" transform="translate(-39.881 -16.011)" fill-rule="evenodd"/>
        <path id="Path_875075" data-name="Path 875075" d="M404.807,261.137l-1.371,1.316a.987.987,0,0,0,.078,1.248l4.71,4.988a.978.978,0,0,0,1.379.038l1.239-1.17h0a.978.978,0,0,0,.071-1.377h0l-.015-.018-4.71-4.988a.977.977,0,0,0-1.379-.038Z" transform="translate(-353.616 -227.424)" fill="#ffb761" fill-rule="evenodd"/>
        <path id="Path_875076" data-name="Path 875076" d="M289.109,65.7v1.833h8.127a2.185,2.185,0,0,1,2.181,2.181v3.149a10.536,10.536,0,0,1,1.788.708l-.005-4.5a4.027,4.027,0,0,0-3.963-3.372Z" transform="translate(-255.065 -58.911)" fill="#54b4e4" fill-rule="evenodd"/>
        <path id="Path_875077" data-name="Path 875077" d="M114.918,90.112v.965a.751.751,0,0,1-.751.751H96.917a.751.751,0,0,1-.751-.751v-.965H88.039a.683.683,0,0,0-.679.679v41.2a1.542,1.542,0,0,1,.269.078,6.529,6.529,0,0,1,1.279-1.1c1.184-.863,2.663-1.942,1.977-5.31,0-.017-.008-.035-.01-.052-.569-3.481,1.736-4.7,3.8-3.468a5.61,5.61,0,0,1,2.445,4.75l.121,4.349h6.922a2.373,2.373,0,0,1,1.755,3.956,2.442,2.442,0,0,1,.571,1.325h11.394v-4.691a2.185,2.185,0,0,1,2.181-2.181h3.662V114.568a10.572,10.572,0,0,1-9.171-3.2h0l-.015-.018a10.582,10.582,0,0,1,9.187-17.741V90.791a.683.683,0,0,0-.679-.679h-8.127ZM92.274,101.554a.751.751,0,0,1,0-1.5h8.255a.751.751,0,0,1,0,1.5Zm0-3.729a.751.751,0,0,1,0-1.5h8.255a.751.751,0,0,1,0,1.5Zm15.935,16.259-.028-.023-.617.75c.178.431.169.693.54,1l7.94,6.531c.552.454.856.132,1.791.482a3.277,3.277,0,1,1-3.954,4.805h0c-.514-.836-.276-1.219-.818-1.665l-7.94-6.531c-.37-.3-.636-.247-1.086-.337l-.476.579a1.217,1.217,0,0,1,.583.9,1.085,1.085,0,0,1-.243.8l-1.915,2.329a1.092,1.092,0,0,1-1.536.15l-8.5-6.99a1.092,1.092,0,0,1-.15-1.536l1.916-2.329a1.092,1.092,0,0,1,1.536-.15l.191.157,4.617-5.612-.409-.337h0a1.091,1.091,0,0,1-.1-1.488l1.915-2.329a1.092,1.092,0,0,1,1.536-.15l8.5,6.989a1.092,1.092,0,0,1,.15,1.536l-1.915,2.329a1.092,1.092,0,0,1-1.536.15Z" transform="translate(-80.875 -79.99)" fill="#e6e6e6" fill-rule="evenodd"/>
        <path id="Path_875078" data-name="Path 875078" d="M158.75,90.11v.965a.751.751,0,0,1-.751.751H140.748a.751.751,0,0,1-.751-.751V90.11h-1.68c-.125,1.353-.192,2.722-.192,4.108q0,1.058.051,2.1h6.183a.751.751,0,1,1,0,1.5h-6.086q.091,1.122.237,2.228h5.849a.751.751,0,1,1,0,1.5h-5.624a43.839,43.839,0,0,0,2.526,9.032l2.634-3.2-.409-.337h0a1.092,1.092,0,0,1-.1-1.488l1.915-2.329a1.092,1.092,0,0,1,1.536-.15l8.5,6.99a1.091,1.091,0,0,1,.15,1.536l-1.915,2.329a1.092,1.092,0,0,1-1.536.15l-.028-.023-.617.75c.178.431.169.693.541,1l7.94,6.531c.552.454.856.132,1.791.482a3.278,3.278,0,1,1-3.954,4.805h0c-.514-.836-.276-1.219-.818-1.665l-7.939-6.531c-.37-.3-.636-.247-1.086-.337l-.476.579a1.218,1.218,0,0,1,.583.9,1.086,1.086,0,0,1-.243.8l-.14.17a44.318,44.318,0,0,0,14.118,11.746v-1.457a2.185,2.185,0,0,1,2.181-2.181h3.662V114.566a10.572,10.572,0,0,1-9.171-3.2h0l-.015-.018a10.582,10.582,0,0,1,9.186-17.741V90.789a.683.683,0,0,0-.679-.679H158.75Z" transform="translate(-124.706 -79.988)" fill="#fff" fill-rule="evenodd"/>
        <path id="Path_875079" data-name="Path 875079" d="M75.085,67.531V65.7H66.958a4.028,4.028,0,0,0-4.014,4.014v41.169h1.833V69.712a2.185,2.185,0,0,1,2.181-2.181Z" transform="translate(-59.794 -58.911)" fill="#2ea0d9" fill-rule="evenodd"/>
        <path id="Path_875080" data-name="Path 875080" d="M142.23,67.531V65.7h-1.243c-.1.607-.2,1.218-.275,1.833h1.518Z" transform="translate(-126.939 -58.911)" fill="#54b4e4" fill-rule="evenodd"/>
        <path id="Path_875081" data-name="Path 875081" d="M167.083,30.557H162.82V35.83h15.749V30.557h-4.263v0a.748.748,0,0,1-.748-.739,2.868,2.868,0,0,0-4.874-2,2.819,2.819,0,0,0-.85,1.988A.751.751,0,0,1,167.083,30.557Z" transform="translate(-146.027 -25.494)" fill="#229ad6" fill-rule="evenodd"/>
        <path id="Path_875082" data-name="Path 875082" d="M218.434,287.83h17.579v0a4.026,4.026,0,0,0,4.008-4.017h0L240,261.506a10.5,10.5,0,0,1-1.81.72v16.149a.792.792,0,0,1-.047.263l-.168.263-5.629,6.821a.746.746,0,0,1-.578.273v0h-12.62a2.159,2.159,0,0,1-.953.9A2.509,2.509,0,0,1,218.434,287.83Z" transform="translate(-193.837 -227.972)" fill="#2ea0d9" fill-rule="evenodd"/>
        <path id="Path_875083" data-name="Path 875083" d="M343.472,284.813a4,4,0,0,0,.126-1h0l-.027-22.31a10.5,10.5,0,0,1-1.81.72v16.149a.793.793,0,0,1-.047.263l-.168.263-3.393,4.111a43.776,43.776,0,0,0,5.316,1.8Z" transform="translate(-297.413 -227.971)" fill="#54b4e4" fill-rule="evenodd"/>
        <path id="Path_875084" data-name="Path 875084" d="M325.3,390.5h-2.823a.683.683,0,0,0-.679.679v3.565l3.5-4.244Z" transform="translate(-283.287 -339.343)" fill="#666" fill-rule="evenodd"/>
        <path id="Path_875085" data-name="Path 875085" d="M325.3,390.5h-2.823a.683.683,0,0,0-.679.679v2.214q.4.192.8.376l2.7-3.269Z" transform="translate(-283.287 -339.343)" fill="gray" fill-rule="evenodd"/>
        <path id="Path_875086" data-name="Path 875086" d="M287.361,126.192a.768.768,0,0,1-.116-.027,9.085,9.085,0,0,0-8.633,15.082h0l.015.018a9.082,9.082,0,0,0,12.825.382h0l.018-.015a9.082,9.082,0,0,0,.382-12.825h0l-.015-.018a9.041,9.041,0,0,0-4.474-2.6Zm-2.57,1.211a7.653,7.653,0,1,1-.1.007.764.764,0,0,1,.1-.007Z" transform="translate(-243.873 -110.924)" fill="#ffb761" fill-rule="evenodd"/>
        <path id="Path_875087" data-name="Path 875087" d="M112.962,346.033a1.048,1.048,0,0,0-.023-.689.777.777,0,0,0-.771-.475h-2.394a.751.751,0,1,1,0-1.5h2.394a.852.852,0,0,0,0-1.7h-7.65a.749.749,0,0,1-.75-.793l-.139-5.017c-.082-2.937-2.236-4.235-2.965-3.6-.313.273-.5.96-.305,2.039.876,4.3-1.035,5.694-2.565,6.809-.626.456-1.161.847-1.161,1.35v8.931a1.826,1.826,0,0,0,1.955,1.568v0l11.02.034a.854.854,0,0,0,0-1.707h-1.042a.751.751,0,1,1,0-1.5h2.58a.852.852,0,0,0,0-1.7H109.19a.751.751,0,1,1,0-1.5h2.979a.772.772,0,0,0,.794-.54Z" transform="translate(-88.881 -288.919)" fill="#ffd6c3" fill-rule="evenodd"/>
        <path id="Path_875088" data-name="Path 875088" d="M389.644,247.689l1.222,1.208,1.055-1-1.138-1.219q-.135.138-.276.271h0l-.018.015a10.678,10.678,0,0,1-.846.72Z" transform="translate(-341.868 -215.173)" fill="#ffb761" fill-rule="evenodd"/>
        <path id="Path_875089" data-name="Path 875089" d="M55.563,407.467H50.934l-.06.06v10.115a.063.063,0,0,0,.017.043h0a.06.06,0,0,0,.042.018h4.628l.06-.06V407.527l-.06-.06Z" transform="translate(-49.372 -353.996)" fill="#229ad6" fill-rule="evenodd"/>
      </g>
      <path id="Path_875090" data-name="Path 875090" d="M0,0H7.267V7.517H0Z" transform="translate(55.594 49.965) rotate(-50.561)" fill="#704d29"/>
      <path id="Path_875091" data-name="Path 875091" d="M174.836,228.29l-5.805-4.775-3.132,3.807a44.017,44.017,0,0,0,2.854,5.374l1.466,1.206,4.617-5.612Z" transform="translate(-108.804 -179.159)" fill="#966f48" fill-rule="evenodd"/>
      <path id="Path_875092" data-name="Path 875092" d="M0,0H2.205V10.192H0Z" transform="translate(59.966 42.218) rotate(-50.561)" fill="#966f48"/>
      <path id="Path_875093" data-name="Path 875093" d="M0,0H2.205V10.192H0Z" transform="translate(52.209 51.972) rotate(-50.561)" fill="#704d29"/>
      <path id="Path_875094" data-name="Path 875094" d="M217.458,282.254a2.62,2.62,0,0,1,.944.508l7.94,6.531c.962.791.8,1.476,1.142,2.036h0a1.775,1.775,0,1,0,1.589-2.727,2.648,2.648,0,0,1-1.656-.619l-7.94-6.531a2.632,2.632,0,0,1-.68-.83Z" transform="translate(-153.321 -228.466)" fill="#966f48" fill-rule="evenodd"/>
      <path id="Path_875095" data-name="Path 875095" d="M303.512,147.541a6.136,6.136,0,1,0,4.445,1.516,6.116,6.116,0,0,0-4.445-1.516h0Z" transform="translate(-222.666 -113.552)" fill="#d7e9ff" fill-rule="evenodd"/>
    </g>
  </g>
</svg>
