<svg xmlns="http://www.w3.org/2000/svg" width="34.598" height="37.07" viewBox="0 0 34.598 37.07">
  <path id="_x31_" d="M38.6,34.127a3.711,3.711,0,0,1-3.707,3.707H31.071a1.851,1.851,0,0,1-1.74,1.236H13.267a1.851,1.851,0,0,1-1.74-1.236H7.707A3.711,3.711,0,0,1,4,34.127a13.147,13.147,0,0,1,3.888-9.086,11.9,11.9,0,0,1,8.637-3.874l.426-1.28a6.191,6.191,0,0,1-2.314-3.677H12.65A1.856,1.856,0,0,1,10.8,14.357V12.5a1.85,1.85,0,0,1,1.262-1.748,9.255,9.255,0,0,1,18.483,0A1.85,1.85,0,0,1,31.8,12.5v1.853a1.856,1.856,0,0,1-1.853,1.853H27.961a6.183,6.183,0,0,1-2.314,3.677l.426,1.28a11.9,11.9,0,0,1,8.637,3.874A13.147,13.147,0,0,1,38.6,34.127Zm-8.65-22.242H28.1v3.089h1.853a.619.619,0,0,0,.618-.618V12.5A.619.619,0,0,0,29.949,11.885ZM13.3,10.65h1.236a6.792,6.792,0,0,1,13.529,0H29.3a8.023,8.023,0,0,0-16,0Zm8-4.943a5.567,5.567,0,0,0-5.524,4.943h1.2A1.856,1.856,0,0,0,18.828,8.8a.618.618,0,1,1,1.236,0,1.856,1.856,0,0,0,1.853,1.853h4.906A5.567,5.567,0,0,0,21.3,5.707Zm-6.8,9.267V11.885H12.65a.619.619,0,0,0-.618.618v1.853a.619.619,0,0,0,.618.618Zm6.178,4.943h1.236a4.948,4.948,0,0,0,4.943-4.943V11.885H21.917a3.087,3.087,0,0,1-2.471-1.238,3.087,3.087,0,0,1-2.471,1.238H15.739v3.089A4.948,4.948,0,0,0,20.681,19.917Zm3.884.631a6.129,6.129,0,0,1-2.648.6H20.681a6.129,6.129,0,0,1-2.648-.6l-.313.937L21.3,23.53l3.578-2.045ZM5.7,31.016a3.681,3.681,0,0,1,2.009-.6h3.707V27.949A1.856,1.856,0,0,1,13.267,26.1H29.331a1.856,1.856,0,0,1,1.853,1.853V30.42h3.707a3.681,3.681,0,0,1,2.009.6,12.5,12.5,0,0,0-3.064-5.1,10.63,10.63,0,0,0-8.05-3.525l-4.181,2.389a.617.617,0,0,1-.613,0l-4.181-2.389a10.626,10.626,0,0,0-8.05,3.525,12.5,12.5,0,0,0-3.064,5.1ZM7.707,36.6h3.707V31.656H7.707a2.471,2.471,0,0,0,0,4.943Zm22.242.618V27.949a.619.619,0,0,0-.618-.618H13.267a.619.619,0,0,0-.618.618v9.267a.619.619,0,0,0,.618.618H29.331A.619.619,0,0,0,29.949,37.216Zm7.414-3.089a2.474,2.474,0,0,0-2.471-2.471H31.184V36.6h3.707A2.474,2.474,0,0,0,37.363,34.127ZM24.079,32.583A2.78,2.78,0,1,1,21.3,29.8,2.784,2.784,0,0,1,24.079,32.583Zm-1.236,0A1.545,1.545,0,1,0,21.3,34.127,1.547,1.547,0,0,0,22.844,32.583Z" transform="translate(-4 -2)" fill="#6a2c83"/>
</svg>
