<svg xmlns="http://www.w3.org/2000/svg" xmlns:xlink="http://www.w3.org/1999/xlink" width="432.232" height="273.864" viewBox="0 0 432.232 273.864">
  <defs>
    <clipPath id="clip-path">
      <rect id="top-view-little-kid-playing-with-rubics-cube-yellow-surface" width="432.232" height="273.864" rx="10" transform="translate(3379.95 2251)" fill="#0b0a0a" opacity="0.48"/>
    </clipPath>
    <clipPath id="clip-path-2">
      <path id="Path_905892" data-name="Path 905892" d="M127.6,153.535s-2.667-.706-2.275,1.647,2.823,1.568,2.823,1.568a6.094,6.094,0,0,0,5.1,5.1c4.549.706,7.058-2.687,7.058-4.206s-.313-7.087-2.118-9.44S127.124,145.458,127.6,153.535Z" transform="translate(-125.281 -146.726)" fill="none"/>
    </clipPath>
    <clipPath id="clip-path-3">
      <path id="Path_905935" data-name="Path 905935" d="M241.286,227.824s-.909,5.9-.9,7.671a5.339,5.339,0,0,0,4.769,5.461c3.737.388,6.318-1.311,6.93-4.979,0,0,2.581.068,3.057-1.971s-2.514-2.581-2.514-2.581a6.658,6.658,0,0,0-.747-4.823,5.839,5.839,0,0,0-5.689-2.581C244.343,224.291,241.613,225.58,241.286,227.824Z" transform="translate(-240.39 -223.963)" fill="none"/>
    </clipPath>
    <clipPath id="clip-path-4">
      <path id="Path_905952" data-name="Path 905952" d="M144.963,228.68c.142,1.918.358,8.916,0,9.716s-4.785,3.628-6.63,3.689-6.4-1.6-7.256-3.013a10.3,10.3,0,0,1-1.169-3.013s-2.767,1.107-3.013-1.475,2.029-2.952,3.136-1.6a9.157,9.157,0,0,1,.676-5.042,7.694,7.694,0,0,1,7.994-4.8A6.547,6.547,0,0,1,144.963,228.68Z" transform="translate(-126.877 -223.126)" fill="none"/>
    </clipPath>
  </defs>
  <g id="Mask_Group_1098701" data-name="Mask Group 1098701" transform="translate(-3379.95 -2251)" clip-path="url(#clip-path)">
    <g id="Group_1143974" data-name="Group 1143974">
      <rect id="top-view-little-kid-playing-with-rubics-cube-yellow-surface-2" data-name="top-view-little-kid-playing-with-rubics-cube-yellow-surface" width="432.232" height="273.864" rx="10" transform="translate(3379.95 2252.318)" fill="#f8ecfd"/>
      <g id="Group_1143973" data-name="Group 1143973" transform="translate(30.305 -359.915)">
        <g id="Group_1143972" data-name="Group 1143972" transform="translate(3402 2579)">
          <g id="BACKGROUND" transform="translate(0 0)">
            <g id="Group_1143924" data-name="Group 1143924">
              <circle id="Ellipse_11579" data-name="Ellipse 11579" cx="113.516" cy="113.516" r="113.516" transform="translate(42.969 160.536) rotate(-45)" fill="#b2ccbc"/>
              <circle id="Ellipse_11580" data-name="Ellipse 11580" cx="65.292" cy="65.292" r="65.292" transform="translate(0 118.302) rotate(-45)" fill="#b2ccbc"/>
              <circle id="Ellipse_11581" data-name="Ellipse 11581" cx="81.82" cy="81.82" r="81.82" transform="translate(35.157 158.953)" fill="#b2ccbc"/>
            </g>
            <circle id="Ellipse_11582" data-name="Ellipse 11582" cx="8.986" cy="8.986" r="8.986" transform="translate(126.383 42.118)" fill="#b2ccbc"/>
            <circle id="Ellipse_11583" data-name="Ellipse 11583" cx="5.715" cy="5.715" r="5.715" transform="translate(11.649 167.854)" fill="#b2ccbc"/>
          </g>
          <g id="OBJECTS" transform="translate(17.58 61.773)">
            <g id="Group_1143926" data-name="Group 1143926" transform="translate(0 16.278)">
              <rect id="Rectangle_405626" data-name="Rectangle 405626" width="226.151" height="153.247" rx="5.78" transform="translate(27.563)" fill="#fff"/>
              <g id="Group_1143925" data-name="Group 1143925" transform="translate(108.803 153.247)">
                <rect id="Rectangle_405627" data-name="Rectangle 405627" width="27.575" height="19.607" transform="translate(18.048)" fill="#fff"/>
                <path id="Path_905880" data-name="Path 905880" d="M254.614,352.48h-58.29a2.69,2.69,0,0,1-2.69-2.691h0a2.69,2.69,0,0,1,2.69-2.691h58.29a2.691,2.691,0,0,1,2.691,2.691h0A2.691,2.691,0,0,1,254.614,352.48Z" transform="translate(-193.634 -327.492)" fill="#fff"/>
              </g>
              <rect id="Rectangle_405628" data-name="Rectangle 405628" width="27.575" height="2.649" transform="translate(126.851 153.247)" fill="#041d3c"/>
              <path id="Path_905881" data-name="Path 905881" d="M298.75,372.994H39.619a8.806,8.806,0,0,1-8.806-8.806h0a8.806,8.806,0,0,1,8.806-8.806H298.75a8.806,8.806,0,0,1,8.806,8.806h0A8.806,8.806,0,0,1,298.75,372.994Z" transform="translate(-30.813 -176.993)" fill="#e9ca6f"/>
            </g>
            <rect id="Rectangle_405629" data-name="Rectangle 405629" width="211.032" height="138.531" rx="5.78" transform="translate(35.123 23.635)" fill="#4696b5"/>
            <g id="Group_1143960" data-name="Group 1143960" transform="translate(44.93 30.891)">
              <rect id="Rectangle_405630" data-name="Rectangle 405630" width="191.417" height="118.527" rx="2.18" fill="#fff"/>
              <path id="Rectangle_405631" data-name="Rectangle 405631" d="M2.078,0H189.339a2.078,2.078,0,0,1,2.078,2.078V7.116a0,0,0,0,1,0,0H0a0,0,0,0,1,0,0V2.078A2.078,2.078,0,0,1,2.078,0Z" fill="#a7c8dc"/>
              <rect id="Rectangle_405632" data-name="Rectangle 405632" width="55.15" height="40.927" rx="2.198" transform="translate(4.788 15.103)" fill="#53a8cd"/>
              <path id="Path_905882" data-name="Path 905882" d="M105.215,158.9a26.675,26.675,0,0,1,13.6-8.24c8.348-1.818,33.072,2.087,41.553-10.652v34.574a1.6,1.6,0,0,1-1.6,1.6l-51.943.067a1.6,1.6,0,0,1-1.606-1.6Z" transform="translate(-100.427 -120.154)" fill="#fff" opacity="0.2"/>
              <rect id="Rectangle_405633" data-name="Rectangle 405633" width="55.15" height="40.927" rx="2.198" transform="translate(4.788 67.99)" fill="#e3b194"/>
              <path id="Path_905883" data-name="Path 905883" d="M105.215,226.569v16.415s15.158,2.474,28.235-3.433,22.01-9.18,26.915-8.748v-8.177s-8.625-2.755-31.832,6.491C117.52,233.505,105.215,226.569,105.215,226.569Z" transform="translate(-100.427 -147.436)" fill="#fff" opacity="0.2"/>
              <rect id="Rectangle_405634" data-name="Rectangle 405634" width="55.15" height="40.927" rx="2.198" transform="translate(73.355 15.103)" fill="#e3b194"/>
              <rect id="Rectangle_405635" data-name="Rectangle 405635" width="55.15" height="40.927" rx="2.198" transform="translate(73.355 67.99)" fill="#53a8cd"/>
              <path id="Path_905884" data-name="Path 905884" d="M207.823,232.946s12.1.124,20.457-2.67,14.115-7.559,20.868-8.354,13.825,2.778,13.825,2.778V213.6a1.558,1.558,0,0,0-1.558-1.558H209.381a1.558,1.558,0,0,0-1.558,1.558Z" transform="translate(-134.468 -144.051)" fill="#fff" opacity="0.2"/>
              <path id="Rectangle_405636" data-name="Rectangle 405636" d="M1.829,0H52.016a0,0,0,0,1,0,0V93.814a0,0,0,0,1,0,0H1.829A1.829,1.829,0,0,1,0,91.985V1.829A1.829,1.829,0,0,1,1.829,0Z" transform="translate(139.401 15.103)" fill="#9edce8"/>
              <g id="Group_1143927" data-name="Group 1143927" transform="translate(2.245 2.468)">
                <circle id="Ellipse_11584" data-name="Ellipse 11584" cx="1.272" cy="1.272" r="1.272" fill="#cb4f52"/>
                <circle id="Ellipse_11585" data-name="Ellipse 11585" cx="1.272" cy="1.272" r="1.272" transform="translate(4.658)" fill="#e9ca6f"/>
                <path id="Path_905885" data-name="Path 905885" d="M117.892,115.262a1.272,1.272,0,1,1-1.272-1.272A1.272,1.272,0,0,1,117.892,115.262Z" transform="translate(-106.034 -113.99)" fill="#4696b5"/>
              </g>
              <g id="Group_1143934" data-name="Group 1143934" transform="translate(16.511 19.283)">
                <path id="Path_905886" data-name="Path 905886" d="M127.243,176.162s-3.406,1.383-3.506,2.522-.6,9.186-.6,9.186h23.29s-3.548-8.4-4.148-10-1.34-2.444-2.314-2.622S127.243,176.162,127.243,176.162Z" transform="translate(-122.884 -151.122)" fill="#5a6696"/>
                <g id="Group_1143928" data-name="Group 1143928" transform="translate(23.196 21.027)">
                  <path id="Path_905887" data-name="Path 905887" d="M163.827,170.981v3.592s-1.619.967-3.859-.871l.567-2.366A3.037,3.037,0,0,1,163.827,170.981Z" transform="translate(-158.299 -170.618)" fill="#d67e6d"/>
                  <path id="Path_905888" data-name="Path 905888" d="M158.41,174.743l5.359,1.094,2.21,11.871H157.47Z" transform="translate(-157.47 -171.987)" fill="#667ea7"/>
                </g>
                <path id="Path_905889" data-name="Path 905889" d="M127.6,153.535s-2.667-.706-2.275,1.647,2.823,1.568,2.823,1.568a6.094,6.094,0,0,0,5.1,5.1c4.549.706,7.058-2.687,7.058-4.206s-.313-7.087-2.118-9.44S127.124,145.458,127.6,153.535Z" transform="translate(-123.595 -141.665)" fill="#d67e6d"/>
                <g id="Group_1143931" data-name="Group 1143931" transform="translate(1.686 5.061)">
                  <g id="Group_1143930" data-name="Group 1143930" clip-path="url(#clip-path-2)">
                    <g id="Group_1143929" data-name="Group 1143929" transform="translate(3.315 7.281)">
                      <path id="Path_905890" data-name="Path 905890" d="M134.338,162.013a2.048,2.048,0,1,1-2.047-2.048A2.048,2.048,0,0,1,134.338,162.013Z" transform="translate(-130.242 -158.399)" fill="#cb4f52"/>
                      <path id="Path_905891" data-name="Path 905891" d="M147.416,159.669a2.048,2.048,0,1,1-2.048-2.048A2.048,2.048,0,0,1,147.416,159.669Z" transform="translate(-134.581 -157.621)" fill="#cb4f52"/>
                    </g>
                  </g>
                </g>
                <path id="Path_905893" data-name="Path 905893" d="M133.125,168.611a10.938,10.938,0,0,1,0,2.878c-.249.5-3.844,2.367-3.844,2.367s1.957,2.777,6.736,2.5S142,172.946,142,172.946s-4.575-.728-4.849-1.639a8.065,8.065,0,0,1-.172-2.317S136.241,167.69,133.125,168.611Z" transform="translate(-124.922 -148.816)" fill="#d67e6d"/>
                <path id="Path_905894" data-name="Path 905894" d="M140.11,155.416s.774,2.822.865,3.55a1.561,1.561,0,0,1-.432,1.229" transform="translate(-128.515 -144.548)" fill="none" stroke="#cb4f52" stroke-linecap="round" stroke-linejoin="round" stroke-width="0.261"/>
                <path id="Path_905895" data-name="Path 905895" d="M137.114,163.751a2.334,2.334,0,0,0,2.741.865" transform="translate(-127.521 -147.313)" fill="none" stroke="#cb4f52" stroke-linecap="round" stroke-linejoin="round" stroke-width="0.261"/>
                <g id="Group_1143932" data-name="Group 1143932" transform="translate(8.23 10.568)">
                  <path id="Path_905896" data-name="Path 905896" d="M137.145,156.752a.387.387,0,1,1-.387-.387A.387.387,0,0,1,137.145,156.752Z" transform="translate(-135.504 -155.431)" fill="#041d3c"/>
                  <path id="Path_905897" data-name="Path 905897" d="M135.074,155.9a1.457,1.457,0,0,1,1.371-.934" transform="translate(-135.074 -154.967)" fill="none" stroke="#041d3c" stroke-linecap="round" stroke-miterlimit="10" stroke-width="0.968"/>
                </g>
                <path id="Path_905898" data-name="Path 905898" d="M125.34,159.174s1.087-1.04,3,.166c0,0-1.443-.144-1.336,1.51" transform="translate(-123.615 -145.657)" fill="none" stroke="#cb4f52" stroke-linecap="round" stroke-linejoin="round" stroke-width="0.261"/>
                <path id="Path_905899" data-name="Path 905899" d="M151.633,160.2a8.235,8.235,0,0,0,3.848.809,8.883,8.883,0,0,0,4.2-1.049v8.346a11.257,11.257,0,0,1-4.023.75,7.758,7.758,0,0,1-4.023-1.218Z" transform="translate(-132.338 -146.057)" fill="#e3b194"/>
                <path id="Path_905900" data-name="Path 905900" d="M151.633,159.882s.1-.89,4.023-.89,4.023.65,4.023.65a8.651,8.651,0,0,1-4.2,1.049A8,8,0,0,1,151.633,159.882Z" transform="translate(-132.338 -145.735)" fill="#041d3c"/>
                <path id="Path_905901" data-name="Path 905901" d="M155.594,156.046s-2.323-.392-2.623-1.721,3.649-2.528,3.949-3.777a2.912,2.912,0,0,0-1.326-3s2.625,1.25,2.975,2.9a3.653,3.653,0,0,1-2.049,3.877c-1.2.421.85,1.721.85,1.721Z" transform="translate(-132.776 -141.938)" fill="#fff" opacity="0.5"/>
                <path id="Path_905902" data-name="Path 905902" d="M161.528,162.652s-3.7.933-4.248,1.133-.45,1.149,0,1.25l.45.1s-.65.7-.1,1.149a5.068,5.068,0,0,0,.8.574,1.076,1.076,0,0,0,.05,1.125c.4.5,2.6.4,3.6.3a1.237,1.237,0,0,0,1.1-1.425c0-.474.45-2.938.4-3.33s-2.1-1.992-2.1-1.992Z" transform="translate(-134.087 -146.578)" fill="#d67e6d"/>
                <g id="Group_1143933" data-name="Group 1143933" transform="translate(12.849 9.958)">
                  <path id="Path_905903" data-name="Path 905903" d="M142.3,155.9a.387.387,0,1,0,.223-.5A.387.387,0,0,0,142.3,155.9Z" transform="translate(-142.082 -154.491)" fill="#041d3c"/>
                  <path id="Path_905904" data-name="Path 905904" d="M143.6,154.513a1.457,1.457,0,0,0-1.614-.384" transform="translate(-141.986 -154.055)" fill="none" stroke="#041d3c" stroke-linecap="round" stroke-miterlimit="10" stroke-width="0.968"/>
                </g>
                <path id="Path_905905" data-name="Path 905905" d="M139.245,169.27a7.906,7.906,0,0,1-3.145-.144" transform="translate(-127.184 -149.097)" fill="none" stroke="#cb4f52" stroke-linecap="round" stroke-linejoin="round" stroke-width="0.261"/>
                <line id="Line_142" data-name="Line 142" y1="0.69" x2="3.934" transform="translate(23.644 17.866)" fill="none" stroke="#cb4f52" stroke-linecap="round" stroke-linejoin="round" stroke-width="0.261"/>
                <line id="Line_143" data-name="Line 143" y1="0.249" x2="3.235" transform="translate(24.343 20.03)" fill="none" stroke="#cb4f52" stroke-miterlimit="10" stroke-width="0.261"/>
                <path id="Path_905906" data-name="Path 905906" d="M139.07,142.553c-.863-.941-2.068-1.176-2.9.392a4.527,4.527,0,0,0-3.059-3.608c-2.823-1.019-5.1,2.51-5.1,2.51s-1.254-1.725-2.039-.863a1.356,1.356,0,0,0,.078,1.8s-2.509-1.255-2.823-.235a1.557,1.557,0,0,0,.706,1.661,4.327,4.327,0,0,0-1.177,3.045,2.937,2.937,0,0,0,1.686,2.666l.513,1.234a3.69,3.69,0,0,1,1.8-.136,1.061,1.061,0,0,0,.772-.8,2.688,2.688,0,0,0,1.737-.3,2.125,2.125,0,0,0,.942-2.588,3.307,3.307,0,0,0,2.352,1.568c1.647.235,2.667-.392,2.98-1.882,0,0,1.32,2.065,3.091,1.581S139.933,143.494,139.07,142.553Z" transform="translate(-122.758 -139.153)" fill="#041d3c"/>
                <line id="Line_144" data-name="Line 144" y2="3.326" transform="translate(5.26 33.422)" fill="none" stroke="#667ea7" stroke-linecap="round" stroke-miterlimit="10" stroke-width="0.261"/>
                <path id="Path_905907" data-name="Path 905907" d="M128.3,176.613s2.507,3.711,8.2,2.819,5.931-3.721,5.931-3.721" transform="translate(-124.596 -151.281)" fill="none" stroke="#667ea7" stroke-linecap="round" stroke-miterlimit="10" stroke-width="0.261" stroke-dasharray="1.042"/>
              </g>
              <path id="Path_905908" data-name="Path 905908" d="M207.823,136.59s5.105,6.243,16.022,8.119,16.548-.934,23.95-2.118,15.178,5.24,15.178,5.24V134.5a1.6,1.6,0,0,0-1.6-1.6H209.42a1.6,1.6,0,0,0-1.6,1.6Z" transform="translate(-134.468 -117.795)" fill="#fff" opacity="0.2"/>
              <g id="Group_1143939" data-name="Group 1143939" transform="translate(86.418 18.724)">
                <path id="Path_905909" data-name="Path 905909" d="M238.73,162.171l-.293,9.74s3.326,1.843,9.333,1.368,8.728-1.969,8.728-1.969-2.684-6.135-2.727-10.644Z" transform="translate(-231.043 -145.731)" fill="#041d3c"/>
                <path id="Path_905910" data-name="Path 905910" d="M236.392,175.424s-5.9,2.557-6.676,3.622-2.344,8.239-2.344,8.239h30.185s-.568-6.463-1.634-8.664-6.344-5.151-6.344-5.151Z" transform="translate(-227.372 -149.979)" fill="#53a8cd"/>
                <g id="Group_1143935" data-name="Group 1143935" transform="translate(5.82 32.335)">
                  <line id="Line_145" data-name="Line 145" x1="0.639" y1="4.972" transform="translate(17.334)" fill="none" stroke="#041d3c" stroke-linecap="round" stroke-miterlimit="10" stroke-width="0.261"/>
                  <line id="Line_146" data-name="Line 146" y1="4.972" x2="1.009" fill="none" stroke="#041d3c" stroke-linecap="round" stroke-miterlimit="10" stroke-width="0.261"/>
                </g>
                <path id="Path_905911" data-name="Path 905911" d="M238.571,150.816a43.651,43.651,0,0,0,0,6.818c.142.994.994,3.949,7.1,4a8.555,8.555,0,0,0,8.1-4.851,2.671,2.671,0,0,0,1.846-2.509c-.071-1.894-2.13-2.037-2.13-2.037l.071-1.42a12.907,12.907,0,0,0-7.315-1.847A19.1,19.1,0,0,0,238.571,150.816Z" transform="translate(-231.043 -141.848)" fill="#d67e6d"/>
                <path id="Path_905912" data-name="Path 905912" d="M263.045,156.915a1.557,1.557,0,0,0-2.216.253,1.85,1.85,0,0,1,.977,1.834" transform="translate(-238.472 -144.363)" fill="none" stroke="#cb4f52" stroke-linecap="round" stroke-linejoin="round" stroke-width="0.261"/>
                <path id="Path_905913" data-name="Path 905913" d="M237.736,144.906a12.581,12.581,0,0,1,3.288-4.582c2.523-2.344,10.552-3.2,14.314.568s3.407,10.592,3.265,11.83l-1.136.232a13.717,13.717,0,0,0-1.35-4.2c-.852-1.183-.756.213-2.113-.082s.053-2.464-2.574-3.239-10.227-.172-12.358.627S237.736,144.906,237.736,144.906Z" transform="translate(-230.762 -138.316)" fill="#cb4f52"/>
                <path id="Path_905914" data-name="Path 905914" d="M265.858,160.144a1.7,1.7,0,1,0,1.7-1.7A1.7,1.7,0,0,0,265.858,160.144Z" transform="translate(-240.14 -144.994)" fill="#fff"/>
                <path id="Path_905915" data-name="Path 905915" d="M246.355,154.525s-.458,3.012,0,3.806a.947.947,0,0,0,1.162.513" transform="translate(-233.602 -143.694)" fill="none" stroke="#cb4f52" stroke-linecap="round" stroke-linejoin="round" stroke-width="0.261"/>
                <path id="Path_905916" data-name="Path 905916" d="M246.655,162.934s2.918-.2,3.841-2.446" transform="translate(-233.769 -145.672)" fill="none" stroke="#cb4f52" stroke-linecap="round" stroke-linejoin="round" stroke-width="0.261"/>
                <circle id="Ellipse_11586" data-name="Ellipse 11586" cx="2.391" cy="2.391" r="2.391" transform="translate(17.425 12.015)" fill="#cb4f52"/>
                <path id="Path_905917" data-name="Path 905917" d="M244.4,167.358s.936,2.689.337,3.54-3.866,2.271-3.866,2.271a12.025,12.025,0,0,0,8.405.426c4.521-1.492,4.782-2.382,4.782-2.382s-2.746-.6-3.457-1.6a15.022,15.022,0,0,1-1.325-2.475S247.36,165.951,244.4,167.358Z" transform="translate(-231.85 -147.723)" fill="#d67e6d"/>
                <g id="Group_1143936" data-name="Group 1143936" transform="translate(6.608 6.001)">
                  <path id="Path_905918" data-name="Path 905918" d="M238.047,152.9s3.319-.324,6.521-4.033a6.77,6.77,0,0,0-6.521.837S236.279,151.621,238.047,152.9Z" transform="translate(-237.261 -147.659)" fill="#041d3c"/>
                  <path id="Path_905919" data-name="Path 905919" d="M251.293,148.388a8.407,8.407,0,0,0,1.984,2.592,6.575,6.575,0,0,0,3.267,1.207s-.852,3.835,1.491,4.4l-.213-5.966S256.948,148.291,251.293,148.388Z" transform="translate(-241.916 -147.658)" fill="#041d3c"/>
                  <path id="Path_905920" data-name="Path 905920" d="M249.792,147.3a5.1,5.1,0,0,0,3.319,4.236" transform="translate(-241.418 -147.297)" fill="none" stroke="#041d3c" stroke-linecap="round" stroke-miterlimit="10" stroke-width="0.521"/>
                </g>
                <path id="Path_905921" data-name="Path 905921" d="M236.869,147.551s-.855.18-.784,1.6-.072,2.142.39,2.06a16.736,16.736,0,0,1,8.132-2.486c5.194-.241,7.582,2.384,8.1,2.486s1.349.178,1.349-1.4-.071-1.514-1.492-2.257S245.537,144.174,236.869,147.551Z" transform="translate(-230.261 -140.823)" fill="#fff"/>
                <g id="Group_1143937" data-name="Group 1143937" transform="translate(15.341 10.366)">
                  <path id="Path_905922" data-name="Path 905922" d="M251.146,155.633a.409.409,0,1,1-.409-.408A.409.409,0,0,1,251.146,155.633Z" transform="translate(-250.329 -154.292)" fill="#041d3c"/>
                  <path id="Path_905923" data-name="Path 905923" d="M250.519,153.839a1,1,0,0,1,.956.378" transform="translate(-250.392 -153.829)" fill="none" stroke="#041d3c" stroke-linecap="round" stroke-miterlimit="10" stroke-width="0.521"/>
                </g>
                <g id="Group_1143938" data-name="Group 1143938" transform="translate(10.444 10.366)">
                  <path id="Path_905924" data-name="Path 905924" d="M243.4,155.633a.409.409,0,1,0,.409-.408A.409.409,0,0,0,243.4,155.633Z" transform="translate(-243.133 -154.292)" fill="#041d3c"/>
                  <path id="Path_905925" data-name="Path 905925" d="M243.958,153.839a1,1,0,0,0-.957.378" transform="translate(-243.001 -153.829)" fill="none" stroke="#041d3c" stroke-linecap="round" stroke-miterlimit="10" stroke-width="0.521"/>
                </g>
                <path id="Path_905926" data-name="Path 905926" d="M246.151,167.6a14.393,14.393,0,0,0,4.328-.2" transform="translate(-233.602 -147.964)" fill="none" stroke="#cb4f52" stroke-linecap="round" stroke-linejoin="round" stroke-width="0.261"/>
                <path id="Path_905927" data-name="Path 905927" d="M239.7,176.05s2.1,1.834,6.275,1.55a14.971,14.971,0,0,0,8.642-3.294" transform="translate(-231.461 -150.257)" fill="none" stroke="#041d3c" stroke-linecap="round" stroke-miterlimit="10" stroke-width="0.261" stroke-dasharray="1.042"/>
              </g>
              <g id="Group_1143944" data-name="Group 1143944" transform="translate(90.492 70.283)">
                <path id="Path_905928" data-name="Path 905928" d="M239.483,259.852a19.86,19.86,0,0,0-4.074,2.686c-.922,1.068-1.554,3.8-1.942,6.052h22.037s-.146-4.887-1.165-6.683-3.905-2.778-3.905-2.778Z" transform="translate(-233.468 -229.956)" fill="#5a6696"/>
                <path id="Path_905929" data-name="Path 905929" d="M245.849,248.978a20.639,20.639,0,0,1,.432,3.3c-.04,1-.642,2.086-3.811,3.931a4.234,4.234,0,0,0,2.928,1.524c2.247.4,6.579-.281,8.024-2.247,0,0-3.29-1.484-3.45-3.289s-.348-3.7-.348-3.7A3.408,3.408,0,0,0,245.849,248.978Z" transform="translate(-236.455 -226.312)" fill="#d67e6d"/>
                <g id="Group_1143943" data-name="Group 1143943" transform="translate(0.392)">
                  <path id="Path_905930" data-name="Path 905930" d="M234.055,218.141a.56.56,0,0,1,.535-.583.552.552,0,0,1,.583.534,2.729,2.729,0,0,0,.949,2.2,17.367,17.367,0,0,1-.448-3.426l-.055-.792a.559.559,0,0,1,.516-.6.548.548,0,0,1,.6.516l.056.8c.05.742.1,1.467.19,2.114a.915.915,0,0,0,.414-.244,2.842,2.842,0,0,0,.484-1.9.56.56,0,0,1,1.115-.093,3.913,3.913,0,0,1-.791,2.766,2.042,2.042,0,0,1-1,.564c.193.657.489,1.121.968,1.261a9.735,9.735,0,0,0,3.185.28.559.559,0,0,1,.111,1.113c-.032,0-.368.036-.874.036a10.065,10.065,0,0,1-2.735-.355,2.134,2.134,0,0,1-.916-.534C235.865,221.669,234.171,220.8,234.055,218.141Z" transform="translate(-234.054 -215.473)" fill="#e3b194"/>
                  <path id="Path_905931" data-name="Path 905931" d="M239.244,227.153a4.059,4.059,0,0,0-2.3,3.121c-.2,2.208,2.3,2.752,2.3,2.752s1.372,1.359,5.38,1.9a14.7,14.7,0,0,0,6.318-.271s3.25,1.075,4.614-.482.319-5.056-.313-6.126c0,0-.494-8.406-7.9-7.727C247.342,220.322,240.657,217.68,239.244,227.153Z" transform="translate(-235.01 -216.969)" fill="#041d3c"/>
                  <path id="Path_905932" data-name="Path 905932" d="M241.286,227.824s-.909,5.9-.9,7.671a5.339,5.339,0,0,0,4.769,5.461c3.737.388,6.318-1.311,6.93-4.979,0,0,2.581.068,3.057-1.971s-2.514-2.581-2.514-2.581a6.658,6.658,0,0,0-.747-4.823,5.839,5.839,0,0,0-5.689-2.581C244.343,224.291,241.613,225.58,241.286,227.824Z" transform="translate(-236.156 -218.289)" fill="#d67e6d"/>
                  <g id="Group_1143942" data-name="Group 1143942" transform="translate(4.234 5.674)">
                    <g id="Group_1143941" data-name="Group 1143941" clip-path="url(#clip-path-3)">
                      <g id="Group_1143940" data-name="Group 1143940" transform="translate(-1.87 6.579)">
                        <path id="Path_905933" data-name="Path 905933" d="M255.6,236.6a1.944,1.944,0,1,1-1.944-1.944A1.944,1.944,0,0,1,255.6,236.6Z" transform="translate(-242.277 -234.092)" fill="#cb4f52"/>
                        <path id="Path_905934" data-name="Path 905934" d="M241.479,235.753a1.944,1.944,0,1,1-1.944-1.944A1.944,1.944,0,0,1,241.479,235.753Z" transform="translate(-237.591 -233.809)" fill="#cb4f52"/>
                      </g>
                    </g>
                  </g>
                  <path id="Path_905936" data-name="Path 905936" d="M246.991,224s-3.424,3.812-6.739,3.842c0,0-.625.031,0-1.464s2.225-5.13,7.4-4.161,5.79,3.957,5.79,4.841-.328,3.906-.328,3.906l-.623-.17S246.584,228.889,246.991,224Z" transform="translate(-236.018 -217.655)" fill="#041d3c"/>
                  <path id="Path_905937" data-name="Path 905937" d="M264.968,218.141a.559.559,0,0,0-.534-.583.552.552,0,0,0-.583.534,2.733,2.733,0,0,1-.949,2.2,17.361,17.361,0,0,0,.448-3.426l.055-.792a.559.559,0,0,0-.516-.6.548.548,0,0,0-.6.516l-.056.8c-.051.742-.1,1.467-.19,2.114a.916.916,0,0,1-.414-.244,2.846,2.846,0,0,1-.484-1.9.559.559,0,0,0-1.115-.093,3.911,3.911,0,0,0,.79,2.766,2.047,2.047,0,0,0,1,.564c-.193.657-.489,1.121-.968,1.261a9.738,9.738,0,0,1-3.185.28.559.559,0,0,0-.11,1.113c.031,0,.367.036.873.036a10.07,10.07,0,0,0,2.736-.355,2.134,2.134,0,0,0,.915-.534C263.159,221.669,264.853,220.8,264.968,218.141Z" transform="translate(-241.686 -215.473)" fill="#e3b194"/>
                  <path id="Path_905938" data-name="Path 905938" d="M248.156,234.435a1.321,1.321,0,1,1-1.174-1.151A1.179,1.179,0,0,1,248.156,234.435Z" transform="translate(-237.882 -221.379)" fill="#cb4f52"/>
                  <path id="Path_905939" data-name="Path 905939" d="M245.174,232.3a.421.421,0,1,1-.422-.421A.421.421,0,0,1,245.174,232.3Z" transform="translate(-237.464 -220.915)" fill="#041d3c"/>
                  <path id="Path_905940" data-name="Path 905940" d="M245.9,241a3.278,3.278,0,0,0,3.59-2.166" transform="translate(-237.983 -223.224)" fill="none" stroke="#cb4f52" stroke-linecap="round" stroke-linejoin="round" stroke-width="0.261"/>
                  <path id="Path_905941" data-name="Path 905941" d="M260.206,236.718s-2.311.146-2.31,3.49c0,0,.952-2.1,2.783-1.29" transform="translate(-241.964 -222.521)" fill="none" stroke="#cb4f52" stroke-linecap="round" stroke-linejoin="round" stroke-width="0.261"/>
                  <path id="Path_905942" data-name="Path 905942" d="M251.927,232.927a.421.421,0,1,1-.421-.421A.422.422,0,0,1,251.927,232.927Z" transform="translate(-239.704 -221.124)" fill="#041d3c"/>
                  <path id="Path_905943" data-name="Path 905943" d="M251.469,231.472a.879.879,0,0,1,.964.688" transform="translate(-239.832 -220.778)" fill="none" stroke="#041d3c" stroke-linecap="round" stroke-miterlimit="10" stroke-width="0.521"/>
                  <path id="Path_905944" data-name="Path 905944" d="M244.89,230.989a.836.836,0,0,0-.821.4" transform="translate(-237.377 -220.619)" fill="none" stroke="#041d3c" stroke-linecap="round" stroke-miterlimit="10" stroke-width="0.521"/>
                </g>
                <path id="Path_905945" data-name="Path 905945" d="M247.526,249.361a10.239,10.239,0,0,0,2.378-.061" transform="translate(-238.132 -226.695)" fill="none" stroke="#cb4f52" stroke-linecap="round" stroke-linejoin="round" stroke-width="0.261"/>
                <path id="Path_905946" data-name="Path 905946" d="M241.275,260.458s1.222,2.428,5.8,2.329a8.906,8.906,0,0,0,6.8-3.129" transform="translate(-236.058 -230.131)" fill="none" stroke="#667ea7" stroke-linecap="round" stroke-miterlimit="10" stroke-width="0.261" stroke-dasharray="1.042"/>
                <line id="Line_147" data-name="Line 147" x2="0.326" y2="3.149" transform="translate(16.641 35.485)" fill="none" stroke="#667ea7" stroke-linecap="round" stroke-miterlimit="10" stroke-width="0.261"/>
                <line id="Line_148" data-name="Line 148" x1="0.468" y2="2.901" transform="translate(3.88 35.733)" fill="none" stroke="#667ea7" stroke-linecap="round" stroke-miterlimit="10" stroke-width="0.261"/>
              </g>
              <g id="Group_1143953" data-name="Group 1143953" transform="translate(13.026 69.698)">
                <path id="Path_905947" data-name="Path 905947" d="M131.277,258.595s-4.342,1.784-5.245,2.89-1.212,4.428-1.7,6.334h25.027s-.861-5.289-1.168-6.672-3.774-3.029-5.165-3.535S131.277,258.595,131.277,258.595Z" transform="translate(-119.795 -228.833)" fill="#4696b5"/>
                <ellipse id="Ellipse_11587" data-name="Ellipse 11587" cx="5.534" cy="5.364" rx="5.534" ry="5.364" transform="translate(21.234 1.132)" fill="#041d3c"/>
                <path id="Path_905948" data-name="Path 905948" d="M144.963,228.68c.142,1.918.358,8.916,0,9.716s-4.785,3.628-6.63,3.689-6.4-1.6-7.256-3.013a10.3,10.3,0,0,1-1.169-3.013s-2.767,1.107-3.013-1.475,2.029-2.952,3.136-1.6a9.157,9.157,0,0,1,.676-5.042,7.694,7.694,0,0,1,7.994-4.8A6.547,6.547,0,0,1,144.963,228.68Z" transform="translate(-120.64 -217.427)" fill="#d67e6d"/>
                <g id="Group_1143947" data-name="Group 1143947" transform="translate(6.237 5.7)">
                  <g id="Group_1143946" data-name="Group 1143946" clip-path="url(#clip-path-4)">
                    <g id="Group_1143945" data-name="Group 1143945" transform="translate(-0.392 8.803)">
                      <path id="Path_905949" data-name="Path 905949" d="M136.915,238.743a2.443,2.443,0,1,1-2.444-2.443A2.444,2.444,0,0,1,136.915,238.743Z" transform="translate(-128.194 -236.3)" fill="#cb4f52"/>
                      <path id="Path_905950" data-name="Path 905950" d="M154.692,238.921a2.444,2.444,0,1,1-2.259-2.614A2.444,2.444,0,0,1,154.692,238.921Z" transform="translate(-134.094 -236.3)" fill="#cb4f52"/>
                      <path id="Path_905951" data-name="Path 905951" d="M126.291,238.714a3.078,3.078,0,0,1,3.44.752s-1.72.857-1.523,2.251" transform="translate(-126.291 -237.022)" fill="none" stroke="#cb4f52" stroke-linecap="round" stroke-linejoin="round" stroke-width="0.261"/>
                    </g>
                  </g>
                </g>
                <path id="Path_905953" data-name="Path 905953" d="M138.049,250.5l.306,2.033a2.007,2.007,0,0,1-.553,1.353c-.553.492-3.075,2.275-3.075,2.275a9.235,9.235,0,0,0,6.334,2.091c4.243,0,5.411-3.075,5.411-3.075s-2.46-.738-2.767-1.415-1.314-3.073-1.314-3.073A6.058,6.058,0,0,0,138.049,250.5Z" transform="translate(-123.244 -226.394)" fill="#d67e6d"/>
                <path id="Path_905954" data-name="Path 905954" d="M139.171,223.04s-2.583,4.243-6.887,4.981c0,0,.43,3.566-2.091,4.12,0,0-1.134-1.275-2.289-.576a20.5,20.5,0,0,1-.54-3.544c0-1.292.492-6.7,9.347-7.379s9.637,4.82,8.469,8.14A14.729,14.729,0,0,1,139.171,223.04Z" transform="translate(-120.802 -216.583)" fill="#041d3c"/>
                <ellipse id="Ellipse_11588" data-name="Ellipse 11588" cx="5.534" cy="5.364" rx="5.534" ry="5.364" transform="translate(0 2.738)" fill="#041d3c"/>
                <g id="Group_1143948" data-name="Group 1143948" transform="translate(8.47 0.676)">
                  <path id="Path_905955" data-name="Path 905955" d="M132.116,220.426l-1.9-4.816h2.6Z" transform="translate(-130.218 -215.609)" fill="#cb4f52"/>
                  <path id="Path_905956" data-name="Path 905956" d="M133.058,220.853l2.714-3.956,1.107,1.547Z" transform="translate(-131.16 -216.037)" fill="#cb4f52"/>
                </g>
                <g id="Group_1143949" data-name="Group 1143949" transform="translate(19.354)">
                  <path id="Path_905957" data-name="Path 905957" d="M148.728,219.244l-.342-4.647-1.88.676Z" transform="translate(-146.506 -214.597)" fill="#cb4f52"/>
                  <path id="Path_905958" data-name="Path 905958" d="M149.831,219.58l3.349-3.971,1.44,1.647Z" transform="translate(-147.609 -214.933)" fill="#cb4f52"/>
                </g>
                <path id="Path_905959" data-name="Path 905959" d="M144.849,232.345c.184.438,1.353,4.128.615,4.62" transform="translate(-126.602 -220.485)" fill="none" stroke="#cb4f52" stroke-linecap="round" stroke-linejoin="round" stroke-width="0.261"/>
                <g id="Group_1143950" data-name="Group 1143950" transform="translate(15.173 11.559)">
                  <path id="Path_905960" data-name="Path 905960" d="M141.9,234.351a.352.352,0,1,1-.352-.352A.352.352,0,0,1,141.9,234.351Z" transform="translate(-140.564 -232.593)" fill="#041d3c"/>
                  <path id="Path_905961" data-name="Path 905961" d="M140.249,232.32a2.031,2.031,0,0,1,1.324-.424" transform="translate(-140.249 -231.895)" fill="none" stroke="#041d3c" stroke-linecap="round" stroke-miterlimit="10" stroke-width="0.521"/>
                </g>
                <path id="Path_905962" data-name="Path 905962" d="M162.062,253.532l-1.071,12.884h9.254l-3.586-12.167S165.6,252.686,162.062,253.532Z" transform="translate(-131.958 -227.431)" fill="#53a8cd"/>
                <g id="Group_1143951" data-name="Group 1143951" transform="translate(14.985 16.383)">
                  <path id="Path_905963" data-name="Path 905963" d="M146.075,240.671a5.9,5.9,0,0,1-5.7-1.5.189.189,0,0,0-.319.1c-.156.916-.338,3.436,2.185,4.205,2.54.775,3.71-1.646,4.051-2.55A.189.189,0,0,0,146.075,240.671Z" transform="translate(-139.971 -239.114)" fill="#041d3c"/>
                  <path id="Path_905964" data-name="Path 905964" d="M144.184,243.977a4.186,4.186,0,0,0-4.209-3.212,3.04,3.04,0,0,0,4.209,3.212Z" transform="translate(-139.968 -239.662)" fill="#cb4f52"/>
                </g>
                <g id="Group_1143952" data-name="Group 1143952" transform="translate(19.983 11.559)">
                  <path id="Path_905965" data-name="Path 905965" d="M147.447,234.351A.352.352,0,1,0,147.8,234,.352.352,0,0,0,147.447,234.351Z" transform="translate(-147.447 -232.593)" fill="#041d3c"/>
                  <path id="Path_905966" data-name="Path 905966" d="M148.792,232.32a2.029,2.029,0,0,0-1.324-.424" transform="translate(-147.454 -231.895)" fill="none" stroke="#041d3c" stroke-linecap="round" stroke-miterlimit="10" stroke-width="0.521"/>
                </g>
                <path id="Path_905967" data-name="Path 905967" d="M144.324,250.948a10.513,10.513,0,0,1-1.937.369,3.791,3.791,0,0,1-1.831-.369" transform="translate(-125.178 -226.657)" fill="none" stroke="#cb4f52" stroke-linecap="round" stroke-linejoin="round" stroke-width="0.261"/>
                <path id="Path_905968" data-name="Path 905968" d="M160.783,242.723a.684.684,0,0,1-1.061.39,4.761,4.761,0,0,0-.762-.452c-.777-.355-1.542-.587-1.921-.055s2.324,1.61,2.585,2.362a3.669,3.669,0,0,0,2.525,3c2.038.6,3.079.312,4.547-2.307a65.16,65.16,0,0,0,3.453-8.014c.287-.832-.28-1.666-1.026-.478s-1.661,3.461-2.169,3.945-.389-.611.271-2.037,1.58-4.283.835-4.454c-.612-.141-3.3,5.661-3.546,5.625s-.519-.376.361-2.689,1.718-4,1.322-4.248c-.534-.339-1.355.235-3.323,6.488,0,0-.875.521-.593-.991s.665-3.227.852-3.828-.855-1.133-1.246,1.14-.724,4.482-.872,5.479C160.961,241.973,160.872,242.372,160.783,242.723Z" transform="translate(-130.634 -220.779)" fill="#d67e6d"/>
                <path id="Path_905969" data-name="Path 905969" d="M139.17,228.953s3.286-1.538,3.918-4.694" transform="translate(-124.718 -217.802)" fill="none" stroke="#041d3c" stroke-linecap="round" stroke-miterlimit="10" stroke-width="0.521"/>
              </g>
              <g id="Group_1143959" data-name="Group 1143959" transform="translate(145.344 25.114)">
                <g id="Group_1143954" data-name="Group 1143954">
                  <path id="Path_905970" data-name="Path 905970" d="M323.778,151.991a4.113,4.113,0,1,1-4.113-4.112A4.113,4.113,0,0,1,323.778,151.991Z" transform="translate(-315.553 -147.879)" fill="#53a8cd"/>
                  <path id="Path_905971" data-name="Path 905971" d="M360.395,150.559h-28.25a.894.894,0,0,1-.894-.893h0a.894.894,0,0,1,.894-.894h28.25a.894.894,0,0,1,.894.894h0A.894.894,0,0,1,360.395,150.559Z" transform="translate(-320.761 -148.175)" fill="#fff"/>
                  <path id="Path_905972" data-name="Path 905972" d="M351.076,155.045H332.145a.894.894,0,0,1-.894-.894h0a.894.894,0,0,1,.894-.894h18.931a.894.894,0,0,1,.894.894h0A.894.894,0,0,1,351.076,155.045Z" transform="translate(-320.761 -149.663)" fill="#fff"/>
                </g>
                <g id="Group_1143955" data-name="Group 1143955" transform="translate(0 16.805)">
                  <path id="Path_905973" data-name="Path 905973" d="M323.778,177.139a4.113,4.113,0,1,1-4.113-4.112A4.113,4.113,0,0,1,323.778,177.139Z" transform="translate(-315.553 -173.027)" fill="#53a8cd"/>
                  <path id="Path_905974" data-name="Path 905974" d="M360.395,175.707h-28.25a.894.894,0,0,1-.894-.893h0a.894.894,0,0,1,.894-.894h28.25a.894.894,0,0,1,.894.894h0A.894.894,0,0,1,360.395,175.707Z" transform="translate(-320.761 -173.323)" fill="#fff"/>
                  <path id="Path_905975" data-name="Path 905975" d="M351.076,180.193H332.145a.894.894,0,0,1-.894-.894h0a.894.894,0,0,1,.894-.894h18.931a.894.894,0,0,1,.894.894h0A.894.894,0,0,1,351.076,180.193Z" transform="translate(-320.761 -174.811)" fill="#fff"/>
                </g>
                <g id="Group_1143956" data-name="Group 1143956" transform="translate(0 33.61)">
                  <path id="Path_905976" data-name="Path 905976" d="M323.778,202.287a4.113,4.113,0,1,1-4.113-4.112A4.113,4.113,0,0,1,323.778,202.287Z" transform="translate(-315.553 -198.175)" fill="#53a8cd"/>
                  <path id="Path_905977" data-name="Path 905977" d="M360.395,200.855h-28.25a.894.894,0,0,1-.894-.894h0a.894.894,0,0,1,.894-.893h28.25a.894.894,0,0,1,.894.893h0A.894.894,0,0,1,360.395,200.855Z" transform="translate(-320.761 -198.471)" fill="#fff"/>
                  <path id="Path_905978" data-name="Path 905978" d="M351.076,205.341H332.145a.893.893,0,0,1-.894-.893h0a.894.894,0,0,1,.894-.894h18.931a.894.894,0,0,1,.894.894h0A.893.893,0,0,1,351.076,205.341Z" transform="translate(-320.761 -199.959)" fill="#fff"/>
                </g>
                <g id="Group_1143957" data-name="Group 1143957" transform="translate(0 50.415)">
                  <path id="Path_905979" data-name="Path 905979" d="M323.778,227.435a4.113,4.113,0,1,1-4.113-4.112A4.113,4.113,0,0,1,323.778,227.435Z" transform="translate(-315.553 -223.323)" fill="#53a8cd"/>
                  <path id="Path_905980" data-name="Path 905980" d="M360.395,226h-28.25a.894.894,0,0,1-.894-.894h0a.893.893,0,0,1,.894-.893h28.25a.893.893,0,0,1,.894.893h0A.894.894,0,0,1,360.395,226Z" transform="translate(-320.761 -223.619)" fill="#fff"/>
                  <path id="Path_905981" data-name="Path 905981" d="M351.076,230.489H332.145a.894.894,0,0,1-.894-.893h0a.894.894,0,0,1,.894-.894h18.931a.894.894,0,0,1,.894.894h0A.894.894,0,0,1,351.076,230.489Z" transform="translate(-320.761 -225.107)" fill="#fff"/>
                </g>
                <g id="Group_1143958" data-name="Group 1143958" transform="translate(0 67.219)">
                  <path id="Path_905982" data-name="Path 905982" d="M323.778,252.583a4.113,4.113,0,1,1-4.113-4.112A4.113,4.113,0,0,1,323.778,252.583Z" transform="translate(-315.553 -248.471)" fill="#53a8cd"/>
                  <path id="Path_905983" data-name="Path 905983" d="M360.395,251.15h-28.25a.894.894,0,0,1-.894-.894h0a.894.894,0,0,1,.894-.894h28.25a.894.894,0,0,1,.894.894h0A.894.894,0,0,1,360.395,251.15Z" transform="translate(-320.761 -248.767)" fill="#fff"/>
                  <path id="Path_905984" data-name="Path 905984" d="M351.076,255.637H332.145a.894.894,0,0,1-.894-.894h0a.894.894,0,0,1,.894-.893h18.931a.894.894,0,0,1,.894.893h0A.894.894,0,0,1,351.076,255.637Z" transform="translate(-320.761 -250.255)" fill="#fff"/>
                </g>
              </g>
            </g>
            <g id="Group_1143963" data-name="Group 1143963" transform="translate(1.326 69.344)">
              <path id="Path_905985" data-name="Path 905985" d="M83.23,256.8c.532-2.118,6.73-4.841,6.455-12.255S75.133,234.256,77.4,227.879s5.75-15.259,3.716-19.761-8.028-6.24-9.314-8.223-2.421-1.951-1.513-10.113-4.69-10.3-8.624-10.368c-3.934.072-9.532,2.207-8.624,10.368s-.227,8.13-1.513,10.113-7.281,3.719-9.315,8.223,1.447,13.384,3.717,19.761-12.007,9.252-12.282,16.666S39.573,254.682,40.1,256.8s-8.192,6.052-7.234,11.5,15.785,11.8,28.8,12.1c13.012-.3,27.839-6.657,28.8-12.1S82.7,258.918,83.23,256.8Z" transform="translate(-32.797 -171.68)" fill="#54cc8d"/>
              <g id="Group_1143961" data-name="Group 1143961" transform="translate(4.178 8.193)" opacity="0.8">
                <path id="Path_905986" data-name="Path 905986" d="M70.565,180.1s6.889,8.749,6.036,19.178-7.544,15.777-7.957,28.828,8.338,17.427,6.138,52.524" transform="translate(-48.862 -180.102)" fill="none" stroke="#fff" stroke-linecap="round" stroke-miterlimit="10" stroke-width="2"/>
                <path id="Path_905987" data-name="Path 905987" d="M57.961,212.491s3.954,2.666,4.65,6.6,4.854,7.964,4.854,7.964" transform="translate(-45.323 -190.847)" fill="none" stroke="#fff" stroke-linecap="round" stroke-miterlimit="10" stroke-width="2"/>
                <path id="Path_905988" data-name="Path 905988" d="M68.97,247.341s7.879-1.735,10.648-6.725,9.168-15.5,13.98-15.784" transform="translate(-48.976 -194.941)" fill="none" stroke="#fff" stroke-linecap="round" stroke-miterlimit="10" stroke-width="2"/>
                <path id="Path_905989" data-name="Path 905989" d="M39.049,268.191s8.874-1.4,12.638,6.114,5.991,18,13.581,20.969" transform="translate(-39.049 -209.292)" fill="none" stroke="#fff" stroke-linecap="round" stroke-miterlimit="10" stroke-width="2"/>
                <path id="Path_905990" data-name="Path 905990" d="M78.284,316.351a19.387,19.387,0,0,1,10.985-6.728c7.284-1.582,13.133-7.219,13.133-7.219" transform="translate(-52.066 -220.677)" fill="none" stroke="#fff" stroke-linecap="round" stroke-miterlimit="10" stroke-width="2"/>
              </g>
              <rect id="Rectangle_405637" data-name="Rectangle 405637" width="41.464" height="6.951" transform="translate(8.138 103.867)" fill="#b3d4ed"/>
              <path id="Path_905991" data-name="Path 905991" d="M47.733,333.677,51.3,348.415H82.676l2.837-14.738Z" transform="translate(-37.752 -222.859)" fill="#b3d4ed"/>
              <path id="Path_905992" data-name="Path 905992" d="M68.911,169.259l-.315,3.2-2.927,1.8a1.57,1.57,0,0,0,.61,2.894l2.4.326.311,3.859a1.57,1.57,0,0,0,3.005.5l.378-.869h0a1.57,1.57,0,0,0,2.87-1.117l-.635-3.617,2.249-1.426a1.57,1.57,0,0,0-.9-2.9l-2.624.092-1.427-3.23A1.57,1.57,0,0,0,68.911,169.259Z" transform="translate(-43.454 -167.841)" fill="#e9ca6f"/>
              <g id="Group_1143962" data-name="Group 1143962" transform="translate(8.503 20.906)">
                <path id="Path_905993" data-name="Path 905993" d="M64.823,207.584a3.854,3.854,0,1,1-3.854-3.854A3.854,3.854,0,0,1,64.823,207.584Z" transform="translate(-49.368 -200.654)" fill="#cb4f52"/>
                <circle id="Ellipse_11589" data-name="Ellipse 11589" cx="4.996" cy="4.996" r="4.996" transform="translate(10.075 56.113) rotate(-22.392)" fill="#cb4f52"/>
                <path id="Path_905994" data-name="Path 905994" d="M100.295,246.287a4.361,4.361,0,1,1-4.361-4.361A4.361,4.361,0,0,1,100.295,246.287Z" transform="translate(-60.8 -213.326)" fill="#cb4f52"/>
                <g id="Ellipse_11590" data-name="Ellipse 11590" transform="translate(0 40.419) rotate(-77.181)" fill="none" stroke="#cb4f52" stroke-linecap="round" stroke-miterlimit="10" stroke-width="3.534">
                  <circle cx="7.505" cy="7.505" r="7.505" stroke="none"/>
                  <circle cx="7.505" cy="7.505" r="5.738" fill="none"/>
                </g>
                <g id="Ellipse_11591" data-name="Ellipse 11591" transform="translate(28.939 77.875) rotate(-80.749)" fill="none" stroke="#cb4f52" stroke-linecap="round" stroke-miterlimit="10" stroke-width="3.534">
                  <circle cx="7.693" cy="7.693" r="7.693" stroke="none"/>
                  <circle cx="7.693" cy="7.693" r="5.926" fill="none"/>
                </g>
                <g id="Ellipse_11592" data-name="Ellipse 11592" transform="translate(22.218 11.043) rotate(-76.363)" fill="none" stroke="#cb4f52" stroke-linecap="round" stroke-miterlimit="10" stroke-width="3.534">
                  <circle cx="5.682" cy="5.682" r="5.682" stroke="none"/>
                  <circle cx="5.682" cy="5.682" r="3.915" fill="none"/>
                </g>
              </g>
              <path id="Path_905995" data-name="Path 905995" d="M85.273,334.924l-37.32-.219-.219-1.028H85.512Z" transform="translate(-37.752 -222.859)" fill="#041d3c"/>
            </g>
            <g id="Group_1143967" data-name="Group 1143967" transform="translate(160.237 78.549)">
              <path id="Path_905996" data-name="Path 905996" d="M312.19,220.1s-1.344,5.848-3.137,11.593-12.1,32.628-4.48,42.261,20.835,15.906,33.829,7.393l4.7-64.841S327.424,203.879,312.19,220.1Z" transform="translate(-280.953 -191.636)" fill="#d67e6d"/>
              <path id="Path_905997" data-name="Path 905997" d="M301.387,266.339l-3.149-3.586,8.737-17.154Z" transform="translate(-279.771 -202.842)" fill="#cb4f52"/>
              <path id="Path_905998" data-name="Path 905998" d="M301.994,283.1s6.191,4.358,13.3-2.492" transform="translate(-281.017 -214.458)" fill="none" stroke="#cb4f52" stroke-linecap="round" stroke-linejoin="round" stroke-width="1"/>
              <path id="Path_905999" data-name="Path 905999" d="M318.75,254.2a1.354,1.354,0,1,1-1.353-1.353A1.353,1.353,0,0,1,318.75,254.2Z" transform="translate(-285.678 -205.246)" fill="#041d3c"/>
              <path id="Path_906000" data-name="Path 906000" d="M317.906,243.97s3.818.548,4.852,5.4" transform="translate(-286.296 -202.302)" fill="none" stroke="#041d3c" stroke-linecap="round" stroke-miterlimit="10" stroke-width="3"/>
              <circle id="Ellipse_11593" data-name="Ellipse 11593" cx="10.81" cy="10.81" r="10.81" transform="translate(31.227 66.153) rotate(-45)" fill="#cb4f52"/>
              <path id="Path_906001" data-name="Path 906001" d="M353.33,312.317s4.354,14.2,4.7,18.719-.042,9.623-11.236,15.907c0,0,15.353,3.2,37.511,0s23.96-6.481,23.96-6.481-22.389-6.088-25.334-13.747S376.65,305.7,376.65,305.7,362.807,302.435,353.33,312.317Z" transform="translate(-295.882 -222.61)" fill="#d67e6d"/>
              <path id="Path_906002" data-name="Path 906002" d="M331.286,364.457s-24.548,12.962-27.3,19.442-4.124,59.212-3.928,68.982H426.535s-7.266-47.379-10.408-64.268-8.248-22.192-11.391-24.156-11.979-6.481-11.979-6.481Z" transform="translate(-280.37 -240.125)" fill="#cb4f52"/>
              <path id="Path_906003" data-name="Path 906003" d="M314.938,463.119s4.215-47.533,7.26-57.431,3.807-13.2,15.736-13.706,67-4.315,83.5-2.792,15.482,8.629,15.228,17-5.186,56.924-5.186,56.924Z" transform="translate(-285.312 -250.362)" fill="#e3b194"/>
              <path id="Path_906004" data-name="Path 906004" d="M332.707,465.692s5.793-42.2,7.062-49.564,2.3-15.736,8.762-16.243,32.1-2.284,52.658-2.792,36.286-1.147,40.224.949c0,0,1.782,1.6,1.146,10.726s-5.186,56.924-5.186,56.924Z" transform="translate(-291.207 -252.935)" fill="#fff" opacity="0.2"/>
              <g id="Group_1143964" data-name="Group 1143964" transform="translate(26.252)">
                <path id="Path_906005" data-name="Path 906005" d="M370.585,187.032c-5.845-4.63-25.478-7.959-39.866,0s-20.832,12.288-20.832,12.288.9,10.026,8.093,16.486l10.791-7.284-6.594,12.864s3.147,3.129,6.444,3.879c0,0-.15,44.361-6.744,76.283,0,0,6.144,8.842,21.281,11.54a45.023,45.023,0,0,0,27.426-4.2l-1.049-17.684,6.144,16.485s32.072,0,41.214-32.821c0,0-17.835-13.488-19.333-36.569s-7.793-36.744-16.336-43.775S370.585,187.032,370.585,187.032Z" transform="translate(-309.888 -181.819)" fill="#041d3c"/>
                <path id="Path_906006" data-name="Path 906006" d="M400.72,186.827s9.929-6.947,16.2-4.8S400.72,186.827,400.72,186.827Z" transform="translate(-340.023 -181.615)" fill="#041d3c"/>
              </g>
              <path id="Path_906007" data-name="Path 906007" d="M444.951,253.849s4.336,30.886,20.13,39.419" transform="translate(-328.445 -205.58)" fill="none" stroke="#fff" stroke-linecap="round" stroke-miterlimit="10" stroke-width="2"/>
              <path id="Path_906008" data-name="Path 906008" d="M442.079,238.538s-1.282-9.552-3.292-14.22" transform="translate(-326.4 -195.782)" fill="none" stroke="#fff" stroke-linecap="round" stroke-miterlimit="10" stroke-width="2"/>
              <path id="Path_906009" data-name="Path 906009" d="M464.808,257.811a4.53,4.53,0,1,1-4.529-4.53A4.529,4.529,0,0,1,464.808,257.811Z" transform="translate(-332.027 -205.391)" fill="none" stroke="#fff" stroke-linecap="round" stroke-miterlimit="10" stroke-width="2"/>
              <g id="Group_1143965" data-name="Group 1143965" transform="translate(107.63 11.606)">
                <line id="Line_149" data-name="Line 149" y2="6.957" transform="translate(3.478)" fill="none" stroke="#fff" stroke-linecap="round" stroke-miterlimit="10" stroke-width="2"/>
                <line id="Line_150" data-name="Line 150" x1="6.957" transform="translate(0 3.478)" fill="none" stroke="#fff" stroke-linecap="round" stroke-miterlimit="10" stroke-width="2"/>
              </g>
              <line id="Line_151" data-name="Line 151" x1="1.8" y2="11.516" transform="translate(36.679 95.231)" fill="none" stroke="#fff" stroke-linecap="round" stroke-miterlimit="10" stroke-width="2"/>
              <line id="Line_152" data-name="Line 152" x1="0.464" y2="4.693" transform="translate(35.727 109.553)" fill="none" stroke="#fff" stroke-linecap="round" stroke-miterlimit="10" stroke-width="2"/>
              <path id="Path_906010" data-name="Path 906010" d="M316.178,342.762a1.4,1.4,0,1,1-1.4-1.4A1.4,1.4,0,0,1,316.178,342.762Z" transform="translate(-284.792 -234.612)" fill="#fff"/>
              <path id="Path_906011" data-name="Path 906011" d="M451.976,235.156a1.389,1.389,0,1,1-1.389-1.389A1.389,1.389,0,0,1,451.976,235.156Z" transform="translate(-329.854 -198.917)" fill="#fff"/>
              <path id="Path_906012" data-name="Path 906012" d="M293.869,425.426s-.636,19.348-1.229,30.2" transform="translate(-277.914 -262.502)" fill="none" stroke="#b2ccbc" stroke-linecap="round" stroke-miterlimit="10" stroke-width="2"/>
              <path id="Path_906013" data-name="Path 906013" d="M292.375,478.342s-.16,5.626,0,9.339" transform="translate(-277.802 -280.058)" fill="none" stroke="#b2ccbc" stroke-linecap="round" stroke-miterlimit="10" stroke-width="2"/>
              <circle id="Ellipse_11594" data-name="Ellipse 11594" cx="3.624" cy="3.624" r="3.624" transform="translate(0 197.04)" fill="none" stroke="#b2ccbc" stroke-linecap="round" stroke-miterlimit="10" stroke-width="2"/>
              <g id="Group_1143966" data-name="Group 1143966" transform="translate(3.769 182.272)">
                <line id="Line_153" data-name="Line 153" y2="6.957" transform="translate(3.478)" fill="none" stroke="#b2ccbc" stroke-linecap="round" stroke-miterlimit="10" stroke-width="2"/>
                <line id="Line_154" data-name="Line 154" x1="6.957" transform="translate(0 3.478)" fill="none" stroke="#b2ccbc" stroke-linecap="round" stroke-miterlimit="10" stroke-width="2"/>
              </g>
              <path id="Path_906014" data-name="Path 906014" d="M296.351,400.3a3.717,3.717,0,1,1-3.717-3.717A3.717,3.717,0,0,1,296.351,400.3Z" transform="translate(-276.679 -252.935)" fill="#b2ccbc"/>
              <path id="Path_906015" data-name="Path 906015" d="M455.749,357.976s9.432,3.8,10.878,10.134" transform="translate(-332.027 -240.125)" fill="none" stroke="#b2ccbc" stroke-linecap="round" stroke-miterlimit="10" stroke-width="2"/>
              <path id="Path_906016" data-name="Path 906016" d="M485.57,376.933a3.793,3.793,0,1,1-3.792-3.792A3.793,3.793,0,0,1,485.57,376.933Z" transform="translate(-339.404 -245.156)" fill="none" stroke="#b2ccbc" stroke-linecap="round" stroke-miterlimit="10" stroke-width="2"/>
            </g>
            <path id="Path_906017" data-name="Path 906017" d="M72.159,460.765H65.011L85.94,381.738h7.147Z" transform="translate(-42.159 -169.46)" fill="#e9ca6f"/>
            <line id="Line_155" data-name="Line 155" x2="36.311" transform="translate(38.907 11.617)" fill="none" stroke="#fff" stroke-linecap="round" stroke-miterlimit="10" stroke-width="2"/>
            <line id="Line_156" data-name="Line 156" x2="7.457" transform="translate(79.532 11.617)" fill="none" stroke="#fff" stroke-linecap="round" stroke-miterlimit="10" stroke-width="2"/>
            <g id="Group_1143968" data-name="Group 1143968" transform="translate(75.165)">
              <line id="Line_157" data-name="Line 157" y2="6.957" transform="translate(3.478)" fill="none" stroke="#fff" stroke-linecap="round" stroke-miterlimit="10" stroke-width="2"/>
              <line id="Line_158" data-name="Line 158" x1="6.957" transform="translate(0 3.478)" fill="none" stroke="#fff" stroke-linecap="round" stroke-miterlimit="10" stroke-width="2"/>
            </g>
            <path id="Path_906018" data-name="Path 906018" d="M165.239,73.886a1.669,1.669,0,1,1-1.669-1.669A1.669,1.669,0,0,1,165.239,73.886Z" transform="translate(-74.303 -66.772)" fill="#fff"/>
            <path id="Path_906019" data-name="Path 906019" d="M47.7,211.822s-6.538,2.531-5.779,9.655" transform="translate(-34.477 -113.088)" fill="none" stroke="#b2ccbc" stroke-linecap="round" stroke-miterlimit="10" stroke-width="2"/>
            <path id="Path_906020" data-name="Path 906020" d="M42.418,230.245a27.426,27.426,0,0,0,1.454,5.4" transform="translate(-34.663 -119.2)" fill="none" stroke="#b2ccbc" stroke-linecap="round" stroke-miterlimit="10" stroke-width="2"/>
            <g id="Group_1143969" data-name="Group 1143969" transform="translate(3.344 116.447)">
              <line id="Line_159" data-name="Line 159" y2="6.957" transform="translate(3.478)" fill="none" stroke="#b2ccbc" stroke-linecap="round" stroke-miterlimit="10" stroke-width="2"/>
              <line id="Line_160" data-name="Line 160" x1="6.957" transform="translate(0 3.478)" fill="none" stroke="#b2ccbc" stroke-linecap="round" stroke-miterlimit="10" stroke-width="2"/>
            </g>
            <line id="Line_161" data-name="Line 161" x2="0.927" y2="3.046" transform="translate(9.757 181.939)" fill="none" stroke="#b2ccbc" stroke-linecap="round" stroke-miterlimit="10" stroke-width="2"/>
            <line id="Line_162" data-name="Line 162" x2="1.761" y2="5.894" transform="translate(11.307 186.972)" fill="none" stroke="#b2ccbc" stroke-linecap="round" stroke-miterlimit="10" stroke-width="2"/>
            <g id="Group_1143970" data-name="Group 1143970" transform="translate(2.577 178.362)">
              <line id="Line_163" data-name="Line 163" y2="4.399" transform="translate(2.2 0)" fill="none" stroke="#b2ccbc" stroke-linecap="round" stroke-miterlimit="10" stroke-width="2"/>
              <line id="Line_164" data-name="Line 164" x1="4.399" transform="translate(0 2.2)" fill="none" stroke="#b2ccbc" stroke-linecap="round" stroke-miterlimit="10" stroke-width="2"/>
            </g>
            <line id="Line_165" data-name="Line 165" x2="13.532" transform="translate(106.209 173.211)" fill="none" stroke="#fff" stroke-linecap="round" stroke-miterlimit="10" stroke-width="2"/>
            <line id="Line_166" data-name="Line 166" x1="4.402" transform="translate(97.823 173.211)" fill="none" stroke="#fff" stroke-linecap="round" stroke-miterlimit="10" stroke-width="2"/>
            <g id="Group_1143971" data-name="Group 1143971" transform="translate(90.936 173.208)">
              <line id="Line_167" data-name="Line 167" y2="6.957" transform="translate(3.478 0)" fill="none" stroke="#fff" stroke-linecap="round" stroke-miterlimit="10" stroke-width="2"/>
              <line id="Line_168" data-name="Line 168" x1="6.957" transform="translate(0 3.478)" fill="none" stroke="#fff" stroke-linecap="round" stroke-miterlimit="10" stroke-width="2"/>
            </g>
            <path id="Path_906021" data-name="Path 906021" d="M180.07,336.043a1.434,1.434,0,1,1-1.433-1.433A1.433,1.433,0,0,1,180.07,336.043Z" transform="translate(-79.38 -153.824)" fill="#fff"/>
            <line id="Line_169" data-name="Line 169" x2="35.031" transform="translate(211.123 11.617)" fill="none" stroke="#fff" stroke-linecap="round" stroke-miterlimit="10" stroke-width="2"/>
            <path id="Path_906022" data-name="Path 906022" d="M345.476,73.008a2.239,2.239,0,1,1-2.239-2.239A2.238,2.238,0,0,1,345.476,73.008Z" transform="translate(-133.721 -66.292)" fill="none" stroke="#fff" stroke-linecap="round" stroke-miterlimit="10" stroke-width="2"/>
            <path id="Path_906023" data-name="Path 906023" d="M169.067,344.534a4.038,4.038,0,1,1-4.038-4.038A4.038,4.038,0,0,1,169.067,344.534Z" transform="translate(-74.001 -155.777)" fill="none" stroke="#fff" stroke-linecap="round" stroke-miterlimit="10" stroke-width="2"/>
          </g>
        </g>
      </g>
    </g>
  </g>
</svg>
