<svg xmlns="http://www.w3.org/2000/svg" xmlns:xlink="http://www.w3.org/1999/xlink" width="108" height="108" viewBox="0 0 108 108">
  <defs>
    <filter id="Ellipse_11495" x="0" y="0" width="108" height="108" filterUnits="userSpaceOnUse">
      <feOffset dy="3" input="SourceAlpha"/>
      <feGaussianBlur stdDeviation="3" result="blur"/>
      <feFlood flood-opacity="0.161"/>
      <feComposite operator="in" in2="blur"/>
      <feComposite in="SourceGraphic"/>
    </filter>
  </defs>
  <g id="Group_1143745" data-name="Group 1143745" transform="translate(-197 -4324.5)">
    <g transform="matrix(1, 0, 0, 1, 197, 4324.5)" filter="url(#Ellipse_11495)">
      <g id="Ellipse_11495-2" data-name="Ellipse 11495" transform="translate(9 6)" fill="#ecf4fa" stroke="#7b277e" stroke-width="3">
        <circle cx="45" cy="45" r="45" stroke="none"/>
        <circle cx="45" cy="45" r="43.5" fill="none"/>
      </g>
    </g>
    <g id="perezoso" transform="translate(208.315 4330.5)">
      <path id="Path_905404" data-name="Path 905404" d="M289.27,94.435l-5.717,5.717,9.994,9.994-2.285,2.285.048.035,6.336,6.336,4.928-5.816a4.042,4.042,0,0,0-.226-5.471Z" transform="translate(-236.275 -78.689)" fill="#ffbd86"/>
      <path id="Path_905405" data-name="Path 905405" d="M122.882,94.435l5.717,5.717-9.994,9.994,2.285,2.285-.048.035-6.336,6.336-4.928-5.816a4.042,4.042,0,0,1,.226-5.471Z" transform="translate(-90.509 -78.689)" fill="#fed2a4"/>
      <path id="Path_905406" data-name="Path 905406" d="M181.3,208.734,174.96,202.4l-.048-.035-3.329,3.329H153.634l-3.329-3.329-.048.035-6.336,6.336,6.336,7.478v14.3h24.7v-14.3Z" transform="translate(-119.924 -168.622)" fill="#62dbfb"/>
      <path id="Path_905407" data-name="Path 905407" d="M181.016,237.163a7.384,7.384,0,0,0-2.238-.346H146.439a7.384,7.384,0,0,0-2.238.346l-.28.28,6.336,7.478v14.3h24.7v-14.3l6.336-7.478Z" transform="translate(-119.924 -197.331)" fill="#01d0fb"/>
      <path id="Path_905408" data-name="Path 905408" d="M239.54,198.873a3.294,3.294,0,0,1-3.294-3.294v-5.352h6.588v5.352A3.294,3.294,0,0,1,239.54,198.873Z" transform="translate(-196.856 -158.51)" fill="#f6a96c"/>
      <path id="Path_905409" data-name="Path 905409" d="M204.145,84.048V95.164a8.646,8.646,0,0,0,17.292,0V84.048Z" transform="translate(-170.107 -70.034)" fill="#fed2a4"/>
      <path id="Path_905410" data-name="Path 905410" d="M243.039,84.048V95.164a8.647,8.647,0,0,1-5.558,8.076,8.646,8.646,0,0,0,11.734-8.076V84.048Z" transform="translate(-197.885 -70.034)" fill="#ffbd86"/>
      <path id="Path_905411" data-name="Path 905411" d="M184.391,27.674h3.294V24.38s9.833-.109,13.311-4.117a6.243,6.243,0,0,0,3.981,4.117v3.294h3.294V19.44a11.94,11.94,0,1,0-23.879,0Z" transform="translate(-153.647 -6.249)" fill="#528fd8"/>
      <path id="Path_905412" data-name="Path 905412" d="M242.626,7.5a11.973,11.973,0,0,0-2.676.3,11.942,11.942,0,0,1,9.264,11.635v3.8a5.649,5.649,0,0,0,2.059,1.141v3.294h3.294V19.44A11.94,11.94,0,0,0,242.626,7.5Z" transform="translate(-199.942 -6.249)" fill="#0573ce"/>
      <path id="Path_905413" data-name="Path 905413" d="M309.913,115.327h-2.059V108.74h2.059a3.294,3.294,0,0,1,0,6.588Z" transform="translate(-256.525 -90.609)" fill="#f6a96c"/>
      <path id="Path_905414" data-name="Path 905414" d="M175.339,115.327H177.4V108.74h-2.059a3.294,3.294,0,0,0,0,6.588Z" transform="translate(-143.359 -90.609)" fill="#f6a96c"/>
      <path id="Path_905415" data-name="Path 905415" d="M181.936,290.7H144.882V269.48a2.358,2.358,0,0,1,2.358-2.358h32.338a2.358,2.358,0,0,1,2.358,2.358V290.7Z" transform="translate(-120.725 -222.584)" fill="#c5d3dd"/>
      <path id="Path_905416" data-name="Path 905416" d="M327.724,267.122h-5.053a2.358,2.358,0,0,1,2.358,2.358V290.7h5.053V269.48A2.358,2.358,0,0,0,327.724,267.122Z" transform="translate(-268.871 -222.584)" fill="#b6c4cf"/>
      <path id="Path_905417" data-name="Path 905417" d="M173.856,413.6H136.128a1.347,1.347,0,0,1-1.347-1.347v-2.358a1.347,1.347,0,0,1,1.347-1.347h37.728a1.347,1.347,0,0,1,1.347,1.347v2.358A1.347,1.347,0,0,1,173.856,413.6Z" transform="translate(-112.308 -340.426)" fill="#9facba"/>
      <path id="Path_905418" data-name="Path 905418" d="M343.886,408.544h-5.053a1.347,1.347,0,0,1,1.347,1.347v2.358a1.347,1.347,0,0,1-1.347,1.347h5.053a1.347,1.347,0,0,0,1.347-1.347v-2.358A1.347,1.347,0,0,0,343.886,408.544Z" transform="translate(-282.338 -340.426)" fill="#8d9ca8"/>
      <path id="Path_905419" data-name="Path 905419" d="M7.5,438.849H90.367V443.9H7.5Z" transform="translate(-6.25 -365.678)" fill="#dc8758"/>
      <path id="Path_905420" data-name="Path 905420" d="M474.2,438.849h5.053V443.9H474.2Z" transform="translate(-395.13 -365.678)" fill="#c86d36"/>
      <path id="Path_905421" data-name="Path 905421" d="M18.612,469.154H97.774v5.893H18.612Z" transform="translate(-15.509 -390.93)" fill="#ac5e2e"/>
      <g id="Group_1143744" data-name="Group 1143744" transform="translate(0 0)">
        <path id="Path_905422" data-name="Path 905422" d="M84.117,71.921H64.141c0-.033.005-.064.005-.1V69.466a2.6,2.6,0,0,0-1.684-2.429V57.273a1.251,1.251,0,1,0-2.5,0v9.595H25.407V46.9a1.108,1.108,0,0,1,1.107-1.107h32.34A1.108,1.108,0,0,1,59.961,46.9v4.542a1.251,1.251,0,0,0,2.5,0V46.9a3.614,3.614,0,0,0-2.339-3.377L67.254,35.1a5.325,5.325,0,0,0-.3-7.165L55.874,16.856V13.19a13.22,13.22,0,0,0-1.53-6.17,1.251,1.251,0,0,0-2.21,1.171,10.561,10.561,0,0,1,1.239,5v3.69H51.533a4.974,4.974,0,0,1-2.974-3.18,1.251,1.251,0,0,0-2.155-.506c-1.229,1.417-3.72,2.5-7.2,3.144a34.673,34.673,0,0,1-5.172.542H31.994V13.19A10.691,10.691,0,0,1,48.67,4.333a1.25,1.25,0,0,0,1.4-2.071A13.19,13.19,0,0,0,29.494,13.19v3.666L18.41,27.94a5.325,5.325,0,0,0-.3,7.165l7.13,8.414A3.614,3.614,0,0,0,22.906,46.9V67.037a2.6,2.6,0,0,0-1.684,2.429v2.358c0,.033,0,.065,0,.1H12.954a1.251,1.251,0,1,0,0,2.5H82.867v2.551H2.5V74.422H7.118a1.251,1.251,0,1,0,0-2.5H1.25A1.251,1.251,0,0,0,0,73.172v5.052A1.251,1.251,0,0,0,1.25,79.474h.6v4.644a1.251,1.251,0,1,0,2.5,0V79.474H81.014v4.644a1.251,1.251,0,0,0,2.5,0V79.474h.6a1.25,1.25,0,0,0,1.251-1.251V73.172a1.25,1.25,0,0,0-1.251-1.251ZM61.548,69.369a.1.1,0,0,1,.1.1v2.358a.1.1,0,0,1-.1.1H23.82a.1.1,0,0,1-.1-.1V69.466a.1.1,0,0,1,.1-.1ZM33.237,28.083a9.944,9.944,0,0,0,4.9,5.834v1.9H34.228l-2.963-2.963-.006-.005-1.395-1.395Zm22.194-6.658a2.045,2.045,0,0,1-2.043,2.043h-.808V19.381h.808A2.046,2.046,0,0,1,55.432,21.425Zm-3.3,6.658L55.5,31.456,54.11,32.85l-.007.006L51.14,35.82H47.228v-1.9a9.945,9.945,0,0,0,4.9-5.834Zm-11.49,6.731a9.894,9.894,0,0,0,4.086,0V37.07a2.043,2.043,0,1,1-4.086,0ZM30.374,35.5l2.452,2.452a1.25,1.25,0,0,0,.884.366h4.606a4.543,4.543,0,0,0,8.736,0h4.606a1.251,1.251,0,0,0,.884-.366L54.994,35.5l4.679,4.679-2.633,3.106H28.327l-2.633-3.106Zm34.971-2.014L61.3,38.267l-4.533-4.533,1.393-1.393a1.25,1.25,0,0,0,0-1.768L53.55,25.965a4.552,4.552,0,0,0,4.287-3.609l7.353,7.353a2.809,2.809,0,0,1,.156,3.78ZM46.91,16.078a7.22,7.22,0,0,0,3.17,2.909V25.13a7.4,7.4,0,0,1-14.791,0v-5.8c2.5-.156,8.173-.777,11.621-3.252Zm-14.122,7.39h-.808a2.043,2.043,0,1,1,0-4.086h.808Zm-12.609,6.24,7.353-7.353a4.552,4.552,0,0,0,4.287,3.609l-4.606,4.608a1.251,1.251,0,0,0,0,1.768l1.393,1.393-4.533,4.533-4.049-4.779a2.81,2.81,0,0,1,.156-3.78Z" transform="translate(0 0)"/>
        <path id="Path_905423" data-name="Path 905423" d="M369.871,65.876a1.251,1.251,0,0,0,1.1.655h4.178a1.251,1.251,0,1,0,0-2.5h-1.871L376.1,59.7a1.25,1.25,0,0,0-1.048-1.933H371.1a1.251,1.251,0,0,0,0,2.5h1.645l-2.821,4.33A1.251,1.251,0,0,0,369.871,65.876Z" transform="translate(-308.075 -48.135)"/>
        <path id="Path_905424" data-name="Path 905424" d="M426.429,11.135a1.251,1.251,0,0,0,1.1.655h6.2a1.251,1.251,0,1,0,0-2.5h-3.889l4.793-7.355A1.25,1.25,0,0,0,433.581,0h-5.862a1.251,1.251,0,1,0,0,2.5h3.554l-4.793,7.355A1.25,1.25,0,0,0,426.429,11.135Z" transform="translate(-355.203 0)"/>
      </g>
    </g>
  </g>
</svg>
