<svg xmlns="http://www.w3.org/2000/svg" xmlns:xlink="http://www.w3.org/1999/xlink" width="108" height="108" viewBox="0 0 108 108">
  <defs>
    <filter id="Ellipse_11495" x="0" y="0" width="108" height="108" filterUnits="userSpaceOnUse">
      <feOffset dy="3" input="SourceAlpha"/>
      <feGaussianBlur stdDeviation="3" result="blur"/>
      <feFlood flood-opacity="0.161"/>
      <feComposite operator="in" in2="blur"/>
      <feComposite in="SourceGraphic"/>
    </filter>
  </defs>
  <g id="Group_1143706" data-name="Group 1143706" transform="translate(-200.619 -7145.539)">
    <g id="Group_1143625" data-name="Group 1143625" transform="translate(2.518 -3630.461)">
      <g transform="matrix(1, 0, 0, 1, 198.1, 10776)" filter="url(#Ellipse_11495)">
        <g id="Ellipse_11495-2" data-name="Ellipse 11495" transform="translate(9 6)" fill="#ecf4fa" stroke="#7b277e" stroke-width="3">
          <circle cx="45" cy="45" r="45" stroke="none"/>
          <circle cx="45" cy="45" r="43.5" fill="none"/>
        </g>
      </g>
    </g>
    <g id="color" transform="translate(215.208 7157.128)">
      <path id="Path_905337" data-name="Path 905337" d="M22.717,39H15.235l-2.767,3.32A14.964,14.964,0,0,0,9,51.9V66.435H32.694l-.827-14.059a14.964,14.964,0,0,0-6.235-11.3Z" transform="translate(1.729 9.14)" fill="#706ecf"/>
      <path id="Path_905338" data-name="Path 905338" d="M14,33h7.482v9.976a2.494,2.494,0,0,1-2.494,2.494h0A4.988,4.988,0,0,1,14,40.482Z" transform="translate(2.964 7.658)" fill="#f9b995"/>
      <path id="Path_905339" data-name="Path 905339" d="M25.09,41.927,22.2,42.978a4.988,4.988,0,0,1-5.135-1.065L15.251,40.2,8.43,21.452l18.749-6.824,3.094,12.145,2.878,4.26-3.089,2.452-.052,1.649a7.482,7.482,0,0,1-4.92,6.794Z" transform="translate(1.588 3.12)" fill="#ffd3b6"/>
      <path id="Path_905340" data-name="Path 905340" d="M29.8,5.74,26.772,8.932a4.978,4.978,0,0,1-1.917,1.26L12.072,14.625a14.951,14.951,0,0,0-6.784,4.79l-1.195,1.5A4.988,4.988,0,0,0,3,24.022v.61A4.988,4.988,0,0,0,3.711,27.2l3.03,5.054,9.852,10.142.526-1.505a14.951,14.951,0,0,0,.845-4.947V31.005l2.888-6.084,8.521-5.756,2.045-3.133a4.988,4.988,0,0,0,.51-4.432Z" transform="translate(0.247 0.924)" fill="#ffa31d"/>
      <path id="Path_905341" data-name="Path 905341" d="M2.494,0H9.976V9.976H2.494A2.494,2.494,0,0,1,0,7.482V2.494A2.494,2.494,0,0,1,2.494,0Z" transform="matrix(0.94, -0.342, 0.342, 0.94, 20.247, 23.501)" fill="#1db4d8"/>
      <rect id="Rectangle_405569" data-name="Rectangle 405569" width="7.482" height="9.976" rx="2" transform="matrix(0.94, -0.342, 0.342, 0.94, 24.935, 21.795)" fill="#47cbf4"/>
      <path id="Path_905342" data-name="Path 905342" d="M22.218,25.807,7.772,31.215a2.494,2.494,0,0,1-3.293-1.731l-.026-.1a2.494,2.494,0,0,1,1.561-2.947l14.5-5.312Z" transform="translate(0.587 4.724)" fill="#1db4d8"/>
      <path id="Path_905343" data-name="Path 905343" d="M42.741,50.47h0l4.212-1.054a9.774,9.774,0,0,0,1.51-.509l6.623-2.84A2.255,2.255,0,0,0,56.459,44h0A2.253,2.253,0,0,0,54.2,41.741H45.235L43.277,38.8a1.808,1.808,0,0,0-1.5-.8h0A1.8,1.8,0,0,0,40,39.508l-1,5.975Z" transform="translate(9.14 8.893)" fill="#ffd3b6"/>
      <path id="Path_905344" data-name="Path 905344" d="M44.865,44,34.478,51.27a8.062,8.062,0,0,1-4.628,1.459h0a8.075,8.075,0,0,1-4.478-1.356l-4.739-3.16a3.459,3.459,0,0,0-5.324,2.31h0A3.458,3.458,0,0,0,16.8,53.976l6.4,4.266a11.761,11.761,0,0,0,6.525,1.969h0a11.762,11.762,0,0,0,7.057-2.352l11.828-8.871Z" transform="translate(3.276 10.376)" fill="#5252c1"/>
      <ellipse id="Ellipse_11571" data-name="Ellipse 11571" cx="16.5" cy="16" rx="16.5" ry="16" transform="translate(40.628 11.194)" fill="#47cbf4"/>
      <rect id="Rectangle_405570" data-name="Rectangle 405570" width="5.291" height="5.291" transform="translate(71.834 3.248) rotate(45)" fill="#00c383"/>
      <rect id="Rectangle_405571" data-name="Rectangle 405571" width="5.291" height="5.291" transform="translate(41.905 43.153) rotate(45)" fill="#00c383"/>
      <rect id="Rectangle_405572" data-name="Rectangle 405572" width="5.291" height="5.291" transform="translate(71.835 40.659) rotate(45)" fill="#00c383"/>
      <rect id="Rectangle_405573" data-name="Rectangle 405573" width="5.291" height="5.291" transform="translate(41.905 5.742) rotate(45)" fill="#00c383"/>
      <path id="Path_905345" data-name="Path 905345" d="M34.423,73.651H11.976V60.363a13.744,13.744,0,0,1,3.179-8.785l1.195-1.434a6.225,6.225,0,0,0,5.6,3.554,3.741,3.741,0,0,0,3.741-3.741v-.071l.937.668a13.679,13.679,0,0,1,5.46,8.381,1.247,1.247,0,0,0,1.221,1,1.277,1.277,0,0,0,.249-.026,1.247,1.247,0,0,0,.968-1.473,16.162,16.162,0,0,0-6.452-9.908l-2.382-1.7v-.768l1.412-.514a8.684,8.684,0,0,0,5.736-7.927l.035-1.071,2.635-2.093a1.247,1.247,0,0,0,.259-1.674l-2-2.965a3.71,3.71,0,0,0,1.927-4.648l-1.707-4.688a3.717,3.717,0,0,0-2.147-2.185l.873-1.331a6.265,6.265,0,0,0,.638-5.541L31.214,5.562a1.247,1.247,0,0,0-2.076-.43L26.113,8.324a3.741,3.741,0,0,1-1.419.937L11.91,13.693a16.192,16.192,0,0,0-7.349,5.19l-1.19,1.494A6.253,6.253,0,0,0,2,24.268v.61a6.245,6.245,0,0,0,.887,3.207l1.54,2.565a3.846,3.846,0,0,0-.574,3.177,3.741,3.741,0,0,0,4.942,2.6l.2-.075,6.723,6.922v3.741L13.24,49.986A16.248,16.248,0,0,0,9.482,60.363V74.9a1.247,1.247,0,0,0,1.247,1.247H34.423a1.247,1.247,0,1,0,0-2.494ZM21.953,51.2a3.741,3.741,0,0,1-3.741-3.741V45.585a6.174,6.174,0,0,0,3.858,1.388,6.29,6.29,0,0,0,1.13-.107v3.091A1.247,1.247,0,0,1,21.953,51.2Zm8.923-16.256a1.247,1.247,0,0,0-.471.937l-.05,1.6H28.188a1.247,1.247,0,0,0,0,2.494h1.57A6.2,6.2,0,0,1,26.252,43.2l-2.889,1.052a3.721,3.721,0,0,1-3.852-.8L18.288,42.29l.261-.748a16.2,16.2,0,0,0,.91-5.362V32.437l2.816-1.052a3.755,3.755,0,0,0,2.878,1.363,3.717,3.717,0,0,0,1.276-.226l4.944-1.8,1.687,2.494ZM24.4,22.638a3.716,3.716,0,0,0,.213,1.247l1.706,4.689a3.747,3.747,0,0,0,.64,1.094l-1.385.5a1.247,1.247,0,0,1-1.6-.748l-1.707-4.688a1.247,1.247,0,0,1,.748-1.6Zm8.951,3.376a1.247,1.247,0,0,1-.748,1.6h0l-2.344.853a1.247,1.247,0,0,1-1.6-.748l-1.7-4.684a1.247,1.247,0,0,1,.741-1.595l2.348-.855a1.247,1.247,0,0,1,1.6.748ZM4.494,24.268a3.755,3.755,0,0,1,.819-2.337l1.2-1.5a13.685,13.685,0,0,1,6.215-4.385l12.8-4.439a6.251,6.251,0,0,0,2.4-1.573L29.56,8.306,31,12.269a3.76,3.76,0,0,1-.383,3.323L28.8,18.382,22.163,20.8a3.694,3.694,0,0,0-2.455,3.548L6.464,29.2,5.028,26.807a3.741,3.741,0,0,1-.534-1.925ZM6.9,34.025a1.3,1.3,0,0,1-.656-.905,1.247,1.247,0,0,1,.782-1.473l13.326-4.885.855,2.352L7.921,34.092A1.231,1.231,0,0,1,6.9,34.028Zm10.061-.653v2.817a13.676,13.676,0,0,1-.637,4.131L11.546,35.4Z" transform="translate(0 0.678)"/>
      <path id="Path_905346" data-name="Path 905346" d="M60.38,40.741h-8.3L50.49,38.359a3.05,3.05,0,0,0-5.548,1.191l-.909,5.457-9.955,6.971a6.93,6.93,0,0,1-7.7.087L20.93,48.433a1.247,1.247,0,1,0-1.384,2.075L25,54.141a9.461,9.461,0,0,0,10.513-.125l9.4-6.578,2.266,3.03L36.341,58.59a10.515,10.515,0,0,1-12.142.338l-8.259-5.507A1.247,1.247,0,1,0,14.555,55.5L22.815,61a13.008,13.008,0,0,0,15.022-.418l11.627-8.719,3.968-1a10.962,10.962,0,0,0,1.7-.572l6.631-2.835a3.5,3.5,0,0,0-1.382-6.72Zm.4,4.428L54.147,48.01a8.835,8.835,0,0,1-1.321.445l-3.409.852-2.923-3.9.908-5.448a.58.58,0,0,1,1.016-.216l1.958,2.938a1.247,1.247,0,0,0,1.035.554H60.38a1.008,1.008,0,0,1,.4,1.934Z" transform="translate(2.964 8.646)"/>
      <path id="Path_905347" data-name="Path 905347" d="M32,25.459A17.459,17.459,0,1,0,49.459,8,17.459,17.459,0,0,0,32,25.459Zm32.359-1.247H56.917a40.359,40.359,0,0,0-.489-5.2,17.384,17.384,0,0,0,4.636-2.978,14.88,14.88,0,0,1,3.295,8.182ZM61.065,34.887a17.384,17.384,0,0,0-4.636-2.978,40.359,40.359,0,0,0,.489-5.2h7.442a14.88,14.88,0,0,1-3.295,8.182ZM34.558,26.706H42a40.356,40.356,0,0,0,.489,5.2,17.384,17.384,0,0,0-4.636,2.978A14.88,14.88,0,0,1,34.558,26.706Zm19.864,0a37.469,37.469,0,0,1-.374,4.365,17.227,17.227,0,0,0-9.186,0,37.469,37.469,0,0,1-.374-4.365ZM44.5,24.212a37.467,37.467,0,0,1,.374-4.365,17.227,17.227,0,0,0,9.186,0,37.464,37.464,0,0,1,.374,4.365ZM43,34.419a19.681,19.681,0,0,0,2.043,5.337,14.932,14.932,0,0,1-5.452-3.074A14.965,14.965,0,0,1,43,34.419Zm2.326-.9a14.972,14.972,0,0,1,8.27,0c-1.019,4.387-2.756,6.9-4.136,6.9s-3.118-2.513-4.135-6.9Zm10.6.9a14.964,14.964,0,0,1,3.4,2.263,14.932,14.932,0,0,1-5.451,3.078,19.681,19.681,0,0,0,2.043-5.341Zm0-17.92a19.681,19.681,0,0,0-2.043-5.337,14.932,14.932,0,0,1,5.446,3.074A14.964,14.964,0,0,1,55.919,16.5Zm-2.326.9a14.972,14.972,0,0,1-8.27,0c1.013-4.387,2.75-6.9,4.13-6.9s3.118,2.513,4.135,6.9ZM43,16.5a14.964,14.964,0,0,1-3.409-2.263,14.932,14.932,0,0,1,5.451-3.078A19.681,19.681,0,0,0,43,16.5Zm-.509,2.509a40.355,40.355,0,0,0-.49,5.2H34.558a14.88,14.88,0,0,1,3.295-8.182,17.384,17.384,0,0,0,4.636,2.978Z" transform="translate(7.411 1.482)"/>
      <path id="Path_905348" data-name="Path 905348" d="M58.106,11.611a1.247,1.247,0,0,0,1.763,0L63.611,7.87a1.247,1.247,0,0,0,0-1.763L59.87,2.365a1.247,1.247,0,0,0-1.763,0L54.365,6.106a1.247,1.247,0,0,0,0,1.763Zm.882-6.6,1.978,1.978L58.988,8.966,57.01,6.988Z" transform="translate(12.846)"/>
      <path id="Path_905349" data-name="Path 905349" d="M34.106,43.611a1.247,1.247,0,0,0,1.763,0l3.741-3.741a1.247,1.247,0,0,0,0-1.763L35.87,34.365a1.247,1.247,0,0,0-1.763,0l-3.741,3.741a1.247,1.247,0,0,0,0,1.763Zm.882-6.6,1.978,1.978-1.978,1.978L33.01,38.988Z" transform="translate(6.917 7.905)"/>
      <path id="Path_905350" data-name="Path 905350" d="M59.87,32.365a1.247,1.247,0,0,0-1.763,0l-3.741,3.741a1.247,1.247,0,0,0,0,1.763l3.741,3.741a1.247,1.247,0,0,0,1.763,0l3.741-3.741a1.247,1.247,0,0,0,0-1.763Zm-.882,6.6L57.01,36.988l1.978-1.978,1.978,1.978Z" transform="translate(12.846 7.411)"/>
      <path id="Path_905351" data-name="Path 905351" d="M34.106,13.611a1.247,1.247,0,0,0,1.763,0L39.611,9.87a1.247,1.247,0,0,0,0-1.763L35.87,4.365a1.247,1.247,0,0,0-1.763,0L30.365,8.106a1.247,1.247,0,0,0,0,1.763Zm.882-6.6,1.978,1.978-1.978,1.978L33.01,8.988Z" transform="translate(6.917 0.494)"/>
    </g>
  </g>
</svg>
