<svg xmlns="http://www.w3.org/2000/svg" xmlns:xlink="http://www.w3.org/1999/xlink" width="108" height="108" viewBox="0 0 108 108">
  <defs>
    <filter id="Path_904820" x="0" y="0" width="108" height="108" filterUnits="userSpaceOnUse">
      <feOffset dy="3" input="SourceAlpha"/>
      <feGaussianBlur stdDeviation="3" result="blur"/>
      <feFlood flood-opacity="0.161"/>
      <feComposite operator="in" in2="blur"/>
      <feComposite in="SourceGraphic"/>
    </filter>
  </defs>
  <g id="Group_1143758" data-name="Group 1143758" transform="translate(-197.101 -1110.007)">
    <g id="Group_1143647" data-name="Group 1143647" transform="translate(-418 -3889.993)">
      <g transform="matrix(1, 0, 0, 1, 615.1, 5000)" filter="url(#Path_904820)">
        <g id="Path_904820-2" data-name="Path 904820" transform="translate(9 6)" fill="#ecf4fa">
          <path d="M 45 88.5 C 39.12687683105469 88.5 33.43022537231445 87.35007476806641 28.06830024719238 85.08217620849609 C 22.88852500915527 82.89131164550781 18.23629951477051 79.75458526611328 14.2408504486084 75.75914764404297 C 10.24541282653809 71.76370239257812 7.108687400817871 67.11147308349609 4.917825222015381 61.93170166015625 C 2.649924993515015 56.56977462768555 1.5 50.87312316894531 1.5 45 C 1.5 39.12687683105469 2.649924993515015 33.43022537231445 4.917825222015381 28.06830024719238 C 7.108687400817871 22.88852500915527 10.24541282653809 18.23629951477051 14.2408504486084 14.2408504486084 C 18.23629951477051 10.24541282653809 22.88852500915527 7.108687400817871 28.06830024719238 4.917825222015381 C 33.43022537231445 2.649924993515015 39.12687683105469 1.5 45 1.5 C 50.87312316894531 1.5 56.56977462768555 2.649924993515015 61.93170166015625 4.917825222015381 C 67.11147308349609 7.108687400817871 71.76370239257812 10.24541282653809 75.75914764404297 14.2408504486084 C 79.75458526611328 18.23629951477051 82.89131164550781 22.88852500915527 85.08217620849609 28.06830024719238 C 87.35007476806641 33.43022537231445 88.5 39.12687683105469 88.5 45 C 88.5 50.87312316894531 87.35007476806641 56.56977462768555 85.08217620849609 61.93170166015625 C 82.89131164550781 67.11147308349609 79.75458526611328 71.76370239257812 75.75914764404297 75.75914764404297 C 71.76370239257812 79.75458526611328 67.11147308349609 82.89131164550781 61.93170166015625 85.08217620849609 C 56.56977462768555 87.35007476806641 50.87312316894531 88.5 45 88.5 Z" stroke="none"/>
          <path d="M 45 3 C 39.32871246337891 3 33.82865524291992 4.110054016113281 28.65262985229492 6.299339294433594 C 23.65165710449219 8.414573669433594 19.15968322753906 11.44334411621094 15.301513671875 15.301513671875 C 11.44334411621094 19.15968322753906 8.414573669433594 23.65165710449219 6.299339294433594 28.65262985229492 C 4.110054016113281 33.82865524291992 3 39.32871246337891 3 45 C 3 50.67128753662109 4.110054016113281 56.17134475708008 6.299339294433594 61.34737396240234 C 8.414573669433594 66.34834289550781 11.44334411621094 70.84031677246094 15.301513671875 74.698486328125 C 19.15968322753906 78.55665588378906 23.65165710449219 81.58542633056641 28.65262985229492 83.70066070556641 C 33.82865524291992 85.88994598388672 39.32871246337891 87 45 87 C 50.67128753662109 87 56.17134475708008 85.88994598388672 61.34737396240234 83.70066070556641 C 66.34834289550781 81.58542633056641 70.84031677246094 78.55665588378906 74.698486328125 74.698486328125 C 78.55665588378906 70.84031677246094 81.58542633056641 66.34834289550781 83.70066070556641 61.34737396240234 C 85.88994598388672 56.17134475708008 87 50.67128753662109 87 45 C 87 39.32871246337891 85.88994598388672 33.82865524291992 83.70066070556641 28.65262985229492 C 81.58542633056641 23.65165710449219 78.55665588378906 19.15968322753906 74.698486328125 15.301513671875 C 70.84031677246094 11.44334411621094 66.34834289550781 8.414573669433594 61.34737396240234 6.299339294433594 C 56.17134475708008 4.110054016113281 50.67128753662109 3 45 3 M 45 0 C 69.85281372070312 0 90 20.14718627929688 90 45 C 90 69.85281372070312 69.85281372070312 90 45 90 C 20.14718627929688 90 0 69.85281372070312 0 45 C 0 20.14718627929688 20.14718627929688 0 45 0 Z" stroke="none" fill="#586577"/>
        </g>
      </g>
    </g>
    <g id="Layer_58" data-name="Layer 58" transform="translate(215.454 1129.866)">
      <path id="Path_905234" data-name="Path 905234" d="M106.25,70.494v.01H53.311v-.01a3.5,3.5,0,0,1,3.591-3.4h45.756A3.5,3.5,0,0,1,106.25,70.494Z" transform="translate(-45.89 -57.753)" fill="#a7a9ac"/>
      <path id="Path_905235" data-name="Path 905235" d="M101.921,66.171H47.311v-.835a4.342,4.342,0,0,1,4.426-4.247H97.493a4.341,4.341,0,0,1,4.428,4.237ZM49.127,64.5H100.1a2.754,2.754,0,0,0-2.611-1.741H51.738A2.754,2.754,0,0,0,49.127,64.5Z" transform="translate(-40.725 -52.586)"/>
      <path id="Path_905236" data-name="Path 905236" d="M106.253,307.4v2.554a3.5,3.5,0,0,1-3.591,3.4H56.906a3.5,3.5,0,0,1-3.591-3.4V307.4Z" transform="translate(-45.894 -264.612)" fill="#a7a9ac"/>
      <path id="Path_905237" data-name="Path 905237" d="M97.5,309.029H51.74a4.34,4.34,0,0,1-4.426-4.239V301.4h54.609v3.389A4.341,4.341,0,0,1,97.5,309.029ZM48.984,303.07v1.719a2.67,2.67,0,0,0,2.756,2.568H97.5a2.67,2.67,0,0,0,2.756-2.568V303.07Z" transform="translate(-40.728 -259.448)"/>
      <path id="Path_905238" data-name="Path 905238" d="M53.311,91.6H106.25v30.038H53.311Z" transform="translate(-45.89 -78.853)" fill="#a7ddee"/>
      <path id="Path_905239" data-name="Path 905239" d="M101.922,117.308H47.312V85.6h54.61Zm-52.939-1.67h51.269V87.27H48.982Z" transform="translate(-40.726 -73.685)"/>
      <path id="Path_905240" data-name="Path 905240" d="M91.422,55.948V22.534A2.334,2.334,0,0,1,93.756,20.2h35.749a2.334,2.334,0,0,1,2.335,2.334V55.948" transform="translate(-78.696 -17.388)" fill="#d1d3d4"/>
      <path id="Path_905241" data-name="Path 905241" d="M127.51,50.784h-1.67V17.369a1.5,1.5,0,0,0-1.5-1.5H88.591a1.5,1.5,0,0,0-1.5,1.5V50.784h-1.67V17.369a3.174,3.174,0,0,1,3.17-3.169h35.749a3.174,3.174,0,0,1,3.17,3.169Z" transform="translate(-73.531 -12.223)"/>
      <path id="Path_905242" data-name="Path 905242" d="M116.428,83.689h1.67V102.25h-1.67Z" transform="translate(-100.222 -72.04)"/>
      <path id="Path_905243" data-name="Path 905243" d="M116.428,54.659h1.67V56.39h-1.67Z" transform="translate(-100.222 -47.051)"/>
      <path id="Path_905244" data-name="Path 905244" d="M318.7,48.659h3.439v1.67H318.7Z" transform="translate(-274.336 -41.886)"/>
      <path id="Path_905245" data-name="Path 905245" d="M280.878,48.659h3.439v1.67h-3.439Z" transform="translate(-241.782 -41.886)"/>
      <path id="Path_905246" data-name="Path 905246" d="M244.57,48.659h3.439v1.67H244.57Z" transform="translate(-210.527 -41.886)"/>
      <circle id="Ellipse_11561" data-name="Ellipse 11561" cx="11.255" cy="11.255" r="11.255" transform="translate(24.119 11.827)" fill="#3d5ca9"/>
      <path id="Path_905247" data-name="Path 905247" d="M179.363,103.148a12.09,12.09,0,1,1,12.09-12.09A12.09,12.09,0,0,1,179.363,103.148Zm0-22.51a10.42,10.42,0,1,0,10.42,10.42,10.42,10.42,0,0,0-10.42-10.42Z" transform="translate(-143.99 -67.976)"/>
      <path id="Path_905248" data-name="Path 905248" d="M216.245,103.618c-3.689,0-6.577-5.311-6.577-12.09s2.889-12.09,6.577-12.09v1.67c-2.37,0-4.907,4.187-4.907,10.42s2.537,10.42,4.907,10.42Z" transform="translate(-180.483 -68.381)"/>
      <path id="Path_905249" data-name="Path 905249" d="M254.873,103.618v-1.67c2.37,0,4.907-4.187,4.907-10.42s-2.537-10.42-4.907-10.42v-1.67c3.689,0,6.577,5.31,6.577,12.09s-2.889,12.09-6.577,12.09Z" transform="translate(-219.396 -68.381)"/>
      <path id="Path_905250" data-name="Path 905250" d="M195.378,115.718c-3.886,0-7.544-1-9.786-2.663l1-1.34c1.964,1.461,5.25,2.333,8.789,2.333a15.923,15.923,0,0,0,8.532-2.15l.938,1.382A17.368,17.368,0,0,1,195.378,115.718Z" transform="translate(-159.759 -96.165)"/>
      <path id="Path_905251" data-name="Path 905251" d="M188.186,199.119l-.954-1.371a17.217,17.217,0,0,1,9.558-2.5,18.441,18.441,0,0,1,8.765,2l-.821,1.454a16.745,16.745,0,0,0-7.943-1.786A15.778,15.778,0,0,0,188.186,199.119Z" transform="translate(-161.17 -168.072)"/>
      <path id="Path_905252" data-name="Path 905252" d="M248.617,84.515h1.67v22.731h-1.67Z" transform="translate(-214.011 -72.751)"/>
      <path id="Path_905253" data-name="Path 905253" d="M173.275,159.827h22.51v1.67h-22.51Z" transform="translate(-149.156 -137.58)"/>
      <path id="Path_905254" data-name="Path 905254" d="M83.056,318.048v13.684a24.889,24.889,0,0,0,26.143-.438V318.048Z" transform="translate(-71.495 -273.778)" fill="#414042"/>
      <path id="Path_905255" data-name="Path 905255" d="M90.61,330.9a25.67,25.67,0,0,1-13.146-3.612.835.835,0,0,1-.407-.717V312.883a.835.835,0,0,1,.835-.835h26.142a.835.835,0,0,1,.835.835v13.246a.835.835,0,0,1-.384.7A25.611,25.611,0,0,1,90.61,330.9Zm-11.883-4.809a24.058,24.058,0,0,0,24.472-.419v-11.95H78.727Z" transform="translate(-66.331 -268.613)"/>
      <path id="Path_905256" data-name="Path 905256" d="M47.964,258.7l20.407-9.235-20.407-9.235-20.407,9.235Z" transform="translate(-23.721 -206.793)" fill="#231f20"/>
      <path id="Path_905257" data-name="Path 905257" d="M42.8,254.372a.834.834,0,0,1-.344-.074l-20.407-9.235a.835.835,0,0,1,0-1.522l20.407-9.235a.835.835,0,0,1,.689,0l20.407,9.235a.835.835,0,0,1,0,1.522L43.143,254.3A.835.835,0,0,1,42.8,254.372ZM24.417,244.3,42.8,252.62,61.18,244.3,42.8,235.983Z" transform="translate(-18.555 -201.628)"/>
      <path id="Path_905258" data-name="Path 905258" d="M6,381.176l1.865-4.623a2.3,2.3,0,1,1,2.272,0L12,381.176Z" transform="translate(-5.164 -320.447)" fill="#fdc00f"/>
      <path id="Path_905259" data-name="Path 905259" d="M6.837,376.837h-6a.835.835,0,0,1-.774-1.148l1.625-4.03a3.131,3.131,0,1,1,4.3,0l1.625,4.03a.835.835,0,0,1-.775,1.148Zm-4.764-1.67H5.6l-1.4-3.475a.835.835,0,0,1,.361-1.038,1.461,1.461,0,1,0-1.444,0,.835.835,0,0,1,.361,1.038Z" transform="translate(0 -315.272)"/>
      <path id="Path_905260" data-name="Path 905260" d="M21.557,306.581h1.67v9.65h-1.67Z" transform="translate(-18.556 -263.907)"/>
      <path id="Path_905261" data-name="Path 905261" d="M0,0H1.67V8.2H0Z" transform="translate(14.423 38.455) rotate(-63.076)"/>
      <circle id="Ellipse_11562" data-name="Ellipse 11562" cx="1.899" cy="1.899" r="1.899" transform="translate(21.803 40.542)" fill="#414042"/>
      <path id="Path_905262" data-name="Path 905262" d="M153.373,290.735A2.735,2.735,0,1,1,156.107,288,2.735,2.735,0,0,1,153.373,290.735Zm0-3.8A1.064,1.064,0,1,0,154.437,288,1.064,1.064,0,0,0,153.373,286.936Z" transform="translate(-129.67 -245.559)"/>
      <path id="Path_905263" data-name="Path 905263" d="M329.223,305.136H345.5a1.471,1.471,0,0,0,1.5-1.445V293.131a1.429,1.429,0,0,0-1.453-1.4H335.2v-6.24a2.452,2.452,0,0,0-4.9,0V299.6l-3.556-3.211a2.194,2.194,0,0,0-2.974.049l-.395.381a2.02,2.02,0,0,0,.035,2.958Z" transform="translate(-277.827 -243.711)" fill="#efcdb1"/>
      <path id="Path_905264" data-name="Path 905264" d="M340.34,300.806H323.732l-6.049-5.584a2.855,2.855,0,0,1-.049-4.173l.395-.381a3.022,3.022,0,0,1,4.115-.068l2.16,1.951V280.323a3.287,3.287,0,0,1,6.571,0v5.4h9.508a2.266,2.266,0,0,1,2.288,2.239v10.559a2.308,2.308,0,0,1-2.33,2.281Zm-15.955-1.67H340.34a.637.637,0,0,0,.66-.61V287.966a.6.6,0,0,0-.617-.569H329.2v-7.075a1.618,1.618,0,0,0-3.231,0v15.988l-4.951-4.471a1.364,1.364,0,0,0-1.834.029l-.395.382a1.185,1.185,0,0,0,.021,1.744Z" transform="translate(-272.662 -238.546)"/>
      <path id="Path_905265" data-name="Path 905265" d="M463.235,344.811a.835.835,0,0,1-.835-.835v-2.341a.835.835,0,1,1,1.67,0v2.341a.835.835,0,0,1-.835.835Z" transform="translate(-398.037 -293.363)"/>
      <path id="Path_905266" data-name="Path 905266" d="M435.248,344.811a.835.835,0,0,1-.835-.835v-2.341a.835.835,0,1,1,1.67,0v2.341a.835.835,0,0,1-.835.835Z" transform="translate(-373.946 -293.363)"/>
      <path id="Path_905267" data-name="Path 905267" d="M407.266,346.105a.835.835,0,0,1-.835-.835v-1.841a.835.835,0,0,1,1.67,0v1.841A.835.835,0,0,1,407.266,346.105Z" transform="translate(-349.859 -294.908)"/>
      <path id="Path_905268" data-name="Path 905268" d="M447.027,10.254a.835.835,0,0,1-.835-.835,7.832,7.832,0,0,0-7.9-7.749.835.835,0,1,1,0-1.67,9.5,9.5,0,0,1,9.567,9.419A.835.835,0,0,1,447.027,10.254Z" transform="translate(-376.569)"/>
      <path id="Path_905269" data-name="Path 905269" d="M444.82,34.12a.835.835,0,0,1-.835-.835,3.575,3.575,0,0,0-3.608-3.533.835.835,0,1,1,0-1.67,5.247,5.247,0,0,1,5.278,5.2A.835.835,0,0,1,444.82,34.12Z" transform="translate(-378.361 -24.173)"/>
      <path id="Path_905270" data-name="Path 905270" d="M436.111,54.328a.835.835,0,0,1-.835-.835.812.812,0,0,0-.811-.811.835.835,0,0,1,0-1.67,2.484,2.484,0,0,1,2.481,2.481.835.835,0,0,1-.835.835Z" transform="translate(-373.272 -43.912)"/>
    </g>
  </g>
</svg>
