<svg xmlns="http://www.w3.org/2000/svg" xmlns:xlink="http://www.w3.org/1999/xlink" width="86" height="86" viewBox="0 0 86 86">
  <defs>
    <filter id="Ellipse_11513" x="0" y="0" width="86" height="86" filterUnits="userSpaceOnUse">
      <feOffset dy="3" input="SourceAlpha"/>
      <feGaussianBlur stdDeviation="3" result="blur"/>
      <feFlood flood-opacity="0.161"/>
      <feComposite operator="in" in2="blur"/>
      <feComposite in="SourceGraphic"/>
    </filter>
  </defs>
  <g id="Group_1143700" data-name="Group 1143700" transform="translate(-187 -450)">
    <g id="Group_1143465" data-name="Group 1143465" transform="translate(0 -707)">
      <g transform="matrix(1, 0, 0, 1, 187, 1157)" filter="url(#Ellipse_11513)">
        <g id="Ellipse_11513-2" data-name="Ellipse 11513" transform="translate(9 6)" fill="#f8ecfd" stroke="#391847" stroke-width="3">
          <circle cx="34" cy="34" r="34" stroke="none"/>
          <circle cx="34" cy="34" r="32.5" fill="none"/>
        </g>
      </g>
    </g>
    <g id="smartphone-message-mobilephone-man-woman" transform="translate(202.492 462.492)">
      <rect id="Rectangle_405565" data-name="Rectangle 405565" width="31.09" height="49.378" rx="4" transform="translate(12.059 2.914)" fill="#d1d3d4"/>
      <path id="Path_905289" data-name="Path 905289" d="M40.107,7H35.713a1.7,1.7,0,0,0-1.2.493l-.719.714a1.7,1.7,0,0,1-1.2.493H27.21a1.7,1.7,0,0,1-1.2-.493l-.719-.714A1.7,1.7,0,0,0,24.095,7H19.7A1.706,1.706,0,0,0,18,8.7V47.813a1.706,1.706,0,0,0,1.7,1.7H40.107a1.7,1.7,0,0,0,1.7-1.7V8.7a1.706,1.706,0,0,0-1.7-1.7Z" transform="translate(-2.396 -0.749)" fill="#2488ff"/>
      <path id="Path_905290" data-name="Path 905290" d="M40.107,7h-1.7V29.107A17.005,17.005,0,0,1,21.4,46.112H18v1.7a1.706,1.706,0,0,0,1.7,1.7H40.107a1.7,1.7,0,0,0,1.7-1.7V8.7a1.706,1.706,0,0,0-1.7-1.7Z" transform="translate(-2.396 -0.749)" fill="#006df0"/>
      <rect id="Rectangle_405566" data-name="Rectangle 405566" width="21.946" height="20.117" rx="2" transform="translate(2.914 12.973)" fill="#ffcd00"/>
      <rect id="Rectangle_405567" data-name="Rectangle 405567" width="21.946" height="20.117" rx="2" transform="translate(30.347 16.631)" fill="#ffcd00"/>
      <path id="Path_905291" data-name="Path 905291" d="M19.754,43.232v-5.1H22.3a5.1,5.1,0,0,0-3.836-4.937,4.245,4.245,0,0,1-7.632,0A5.1,5.1,0,0,0,7,38.131h5.952l3.4,2.551Z" transform="translate(-0.749 -4.671)" fill="#ed1c24"/>
      <path id="Path_905292" data-name="Path 905292" d="M15.4,29.652a3.4,3.4,0,0,0,3.4-3.4V23.7a2.751,2.751,0,0,1-2.461-1.521l-.09-.18-1.923,1.275a2.551,2.551,0,0,1-1.41.425H12v2.551A3.4,3.4,0,0,0,15.4,29.652Z" transform="translate(-1.497 -2.995)" fill="#ffbcab"/>
      <path id="Path_905293" data-name="Path 905293" d="M17.029,31.767V30.445a3.3,3.3,0,0,1-3.4,0v1.322a.85.85,0,0,1-.85.85,5.089,5.089,0,0,0-1.265.165,4.245,4.245,0,0,0,7.632,0,5.089,5.089,0,0,0-1.265-.165A.85.85,0,0,1,17.029,31.767Z" transform="translate(-1.424 -4.259)" fill="#ff9478"/>
      <path id="Path_905294" data-name="Path 905294" d="M20.2,20.4a2.551,2.551,0,0,0-2.551-2.551H16.8a.85.85,0,0,0-.85.85,1.7,1.7,0,0,0-1.7-1.7H13.4A3.4,3.4,0,0,0,10,20.4v3.4h1.7v-.85h.918a2.551,2.551,0,0,0,1.41-.425l1.924-1.276.09.179A2.751,2.751,0,0,0,18.5,22.952v.843l1.7.008Z" transform="translate(-1.198 -2.246)" fill="#58595b"/>
      <path id="Path_905295" data-name="Path 905295" d="M52.6,38.336h0a5.074,5.074,0,0,0-2.136-1.142,4.245,4.245,0,0,1-7.632,0A5.074,5.074,0,0,0,40.7,38.336h0A5.081,5.081,0,0,0,39,42.131h2.551v5.1l3.4-2.551,3.4-2.551H54.3A5.081,5.081,0,0,0,52.6,38.336Z" transform="translate(-5.54 -5.27)" fill="#7ed63e"/>
      <path id="Path_905296" data-name="Path 905296" d="M47.4,33.652a3.4,3.4,0,0,0,3.4-3.4V27.7h-.124a2.551,2.551,0,0,1-2.281-1.41L48.251,26l-.471.467A4.251,4.251,0,0,1,44.787,27.7H44v2.551A3.4,3.4,0,0,0,47.4,33.652Z" transform="translate(-6.289 -3.594)" fill="#ffbcab"/>
      <path id="Path_905297" data-name="Path 905297" d="M49.029,35.767V34.445a3.3,3.3,0,0,1-3.4,0v1.322a.85.85,0,0,1-.85.85,5.089,5.089,0,0,0-1.265.165,4.245,4.245,0,0,0,7.632,0,5.089,5.089,0,0,0-1.265-.165A.85.85,0,0,1,49.029,35.767Z" transform="translate(-6.216 -4.858)" fill="#ff9478"/>
      <path id="Path_905298" data-name="Path 905298" d="M52.406,31.7a1.7,1.7,0,0,0,.5-1.2V26.1A5.1,5.1,0,0,0,47.8,21H46.1A5.1,5.1,0,0,0,41,26.1v3.642a2.579,2.579,0,0,0,.273,1.155,2.588,2.588,0,0,1,0,2.311h0A2.577,2.577,0,0,0,41,34.364v1.547a5.074,5.074,0,0,1,2.136-1.142h0A5.089,5.089,0,0,1,44.4,34.6a.85.85,0,0,0,.85-.85V32.432a3.386,3.386,0,0,1-1.7-2.929V26.952h.786a4.251,4.251,0,0,0,2.993-1.233l.472-.467.145.291a2.551,2.551,0,0,0,2.281,1.41h.124V29.5a3.386,3.386,0,0,1-1.7,2.929v1.322a.85.85,0,0,0,.85.85,5.089,5.089,0,0,1,1.265.165h0A5.074,5.074,0,0,1,52.9,35.911v-.6a1.7,1.7,0,0,0-.5-1.2A1.7,1.7,0,0,1,52.406,31.7Z" transform="translate(-5.839 -2.845)" fill="#58595b"/>
      <path id="Path_905299" data-name="Path 905299" d="M32.551,6.7h-1.7a.85.85,0,1,1,0-1.7h1.7a.85.85,0,1,1,0,1.7Z" transform="translate(-4.192 -0.449)" fill="#231f20"/>
      <path id="Path_905300" data-name="Path 905300" d="M25.251,53.1h-3.4a.85.85,0,0,1-.85-.85v-3.4a.85.85,0,1,1,1.7,0V51.4h2.551a.85.85,0,1,1,0,1.7Z" transform="translate(-2.845 -6.888)" fill="#231f20"/>
      <path id="Path_905301" data-name="Path 905301" d="M41.251,15.1a.85.85,0,0,1-.85-.85V11.7H37.85a.85.85,0,1,1,0-1.7h3.4a.85.85,0,0,1,.85.85v3.4A.85.85,0,0,1,41.251,15.1Z" transform="translate(-5.241 -1.198)" fill="#231f20"/>
      <path id="Path_905302" data-name="Path 905302" d="M50.465,15.6h-6.8V6.251A4.251,4.251,0,0,0,39.412,2H15.6a4.251,4.251,0,0,0-4.251,4.251V12.2h-6.8A2.558,2.558,0,0,0,2,14.754V31.759A2.558,2.558,0,0,0,4.551,34.31h6.8V48.765A4.251,4.251,0,0,0,15.6,53.016H39.412a4.251,4.251,0,0,0,4.251-4.251V37.711h6.8a2.558,2.558,0,0,0,2.551-2.551V18.155A2.558,2.558,0,0,0,50.465,15.6ZM13.054,6.251A2.558,2.558,0,0,1,15.6,3.7H39.412a2.558,2.558,0,0,1,2.551,2.551V15.6h-1.7V7.952A2.558,2.558,0,0,0,37.711,5.4h-4.4a2.585,2.585,0,0,0-1.8.74l-.706.706a.865.865,0,0,1-.6.255H24.813a.858.858,0,0,1-.6-.247l-.723-.723A2.579,2.579,0,0,0,21.7,5.4H17.3a2.558,2.558,0,0,0-2.551,2.551V12.2h-1.7ZM45.5,31.207a5.7,5.7,0,0,0-1.837-.3v-.876a4.211,4.211,0,0,0,1.7-3.376V24.107a.85.85,0,0,0-.85-.85h-.128a1.672,1.672,0,0,1-1.513-.944l-.153-.289a.868.868,0,0,0-.621-.459.835.835,0,0,0-.731.238l-.476.468a3.362,3.362,0,0,1-2.4.986h-.782a.85.85,0,0,0-.85.85v2.551a4.211,4.211,0,0,0,1.7,3.376v.876a5.969,5.969,0,0,0-2.551.578,1.732,1.732,0,0,1,.187-.74,3.5,3.5,0,0,0,0-3.078,1.626,1.626,0,0,1-.187-.774V23.257a4.251,4.251,0,0,1,4.251-4.251h1.7a4.251,4.251,0,0,1,4.251,4.251v4.4a.842.842,0,0,1-.247.6,2.556,2.556,0,0,0-.468,2.95Zm-2.109,1.377a3.4,3.4,0,0,1-4.557,0,1.707,1.707,0,0,0,1.428-1.675v-.085a4.294,4.294,0,0,0,1.7,0v.085A1.707,1.707,0,0,0,43.391,32.584Zm-2.279-3.376a2.558,2.558,0,0,1-2.551-2.551v-1.7a5.1,5.1,0,0,0,3.231-1.207,3.352,3.352,0,0,0,1.871,1.131v1.777a2.558,2.558,0,0,1-2.551,2.551Zm-6.437-.774a1.766,1.766,0,0,1,0,1.547,3.445,3.445,0,0,0-.366,1.539V32.7a5.91,5.91,0,0,0-1.633,3.308h-.918a.85.85,0,0,1-.85-.85V18.155a.85.85,0,0,1,.85-.85h8.5a5.959,5.959,0,0,0-5.952,5.952V26.9a3.445,3.445,0,0,0,.366,1.539Zm.952,14.285a.772.772,0,0,0,.383.094.875.875,0,0,0,.51-.17l2.041-1.53v5.952a.85.85,0,0,1-.85.85H17.3a.85.85,0,0,1-.85-.85V37.711l2.041,1.53a.875.875,0,0,0,.51.17.772.772,0,0,0,.383-.094.831.831,0,0,0,.468-.757V34.31h3.4a2.558,2.558,0,0,0,2.551-2.551V14.754A2.558,2.558,0,0,0,23.257,12.2h-6.8V7.952a.85.85,0,0,1,.85-.85h4.4a.858.858,0,0,1,.6.247l.723.723a2.579,2.579,0,0,0,1.794.731H30.2a2.585,2.585,0,0,0,1.8-.74l.706-.706a.865.865,0,0,1,.6-.255h4.4a.85.85,0,0,1,.85.85V15.6h-6.8a2.558,2.558,0,0,0-2.551,2.551V35.161a2.558,2.558,0,0,0,2.551,2.551h3.4v4.251A.831.831,0,0,0,35.628,42.719ZM23.257,13.9a.85.85,0,0,1,.85.85V31.759a.85.85,0,0,1-.85.85h-.918a5.952,5.952,0,0,0-5.884-5.1v-.876a4.211,4.211,0,0,0,1.7-3.376V22.4l.842.009h.009a.822.822,0,0,0,.6-.247.85.85,0,0,0,.255-.6v-3.4a3.4,3.4,0,0,0-3.4-3.4H15.6a1.663,1.663,0,0,0-.578.111,2.512,2.512,0,0,0-1.973-.961ZM16.183,29.183a3.4,3.4,0,0,1-4.557,0,1.707,1.707,0,0,0,1.428-1.675v-.085a4.294,4.294,0,0,0,1.7,0v.085A1.707,1.707,0,0,0,16.183,29.183ZM13.9,25.808a2.558,2.558,0,0,1-2.551-2.551v-1.7h.068a3.368,3.368,0,0,0,1.879-.57l1.19-.782a3.548,3.548,0,0,0,1.964,1.25v1.8A2.558,2.558,0,0,1,13.9,25.808Zm-.85-10.2a.85.85,0,0,1,.85.85.85.85,0,0,0,1.7,0h.85a1.706,1.706,0,0,1,1.7,1.7V20.7a.845.845,0,0,0-.85-.842A1.883,1.883,0,0,1,15.6,18.8l-.094-.179a.871.871,0,0,0-.536-.442.858.858,0,0,0-.689.119l-1.922,1.275a1.775,1.775,0,0,1-.944.281H10.5a.85.85,0,0,0-.85.85V18.155A2.558,2.558,0,0,1,12.2,15.6ZM5.469,32.61H4.551a.85.85,0,0,1-.85-.85V14.754a.85.85,0,0,1,.85-.85H12.2a4.251,4.251,0,0,0-4.251,4.251v3.4a.85.85,0,0,0,.85.85h.85v.85a4.211,4.211,0,0,0,1.7,3.376v.876a5.952,5.952,0,0,0-5.884,5.1Zm6.734,0H7.2A4.284,4.284,0,0,1,9.7,29.54a5.085,5.085,0,0,0,8.4,0,4.284,4.284,0,0,1,2.508,3.069H19.005a.85.85,0,0,0-.85.85v3.4L12.713,32.78A.837.837,0,0,0,12.2,32.61ZM41.963,48.765a2.558,2.558,0,0,1-2.551,2.551H15.6a2.558,2.558,0,0,1-2.551-2.551v-13.6l1.7,1.275V47.064A2.558,2.558,0,0,0,17.3,49.615H37.711a2.558,2.558,0,0,0,2.551-2.551V39.837l1.7-1.275Zm.85-12.754a.837.837,0,0,0-.51.17l-5.442,4.081v-3.4a.85.85,0,0,0-.85-.85H34.4a4.268,4.268,0,0,1,2.508-3.069,5.085,5.085,0,0,0,8.4,0,4.268,4.268,0,0,1,2.508,3.069Zm8.5-.85a.85.85,0,0,1-.85.85h-.918A5.91,5.91,0,0,0,47.915,32.7v-.238a2.513,2.513,0,0,0-.748-1.8.857.857,0,0,1,0-1.207,2.513,2.513,0,0,0,.748-1.8v-4.4A5.959,5.959,0,0,0,41.963,17.3h8.5a.85.85,0,0,1,.85.85Z" fill="#231f20"/>
    </g>
  </g>
</svg>
