<svg xmlns="http://www.w3.org/2000/svg" xmlns:xlink="http://www.w3.org/1999/xlink" width="108" height="108" viewBox="0 0 108 108">
  <defs>
    <filter id="Fondo" x="0" y="0" width="108" height="108" filterUnits="userSpaceOnUse">
      <feOffset dy="3" input="SourceAlpha"/>
      <feGaussianBlur stdDeviation="3" result="blur"/>
      <feFlood flood-opacity="0.161"/>
      <feComposite operator="in" in2="blur"/>
      <feComposite in="SourceGraphic"/>
    </filter>
  </defs>
  <g id="Group_1143729" data-name="Group 1143729" transform="translate(-617.534 -8309.539)">
    <g transform="matrix(1, 0, 0, 1, 617.53, 8309.54)" filter="url(#Fondo)">
      <g id="Fondo-2" data-name="Fondo" transform="translate(9 6)" fill="#fef8e9">
        <path d="M 44.99994277954102 88.49989318847656 C 39.1268310546875 88.49989318847656 33.43019104003906 87.34996795654297 28.06826782226562 85.08206939697266 C 22.88850593566895 82.89120483398438 18.23629188537598 79.75449371337891 14.24084281921387 75.75904083251953 C 10.24540519714355 71.76360321044922 7.108680248260498 67.11138153076172 4.917830467224121 61.93161773681641 C 2.649930238723755 56.56969451904297 1.50000524520874 50.87305450439453 1.50000524520874 44.99994277954102 C 1.50000524520874 39.1268310546875 2.649930238723755 33.43019104003906 4.917830467224121 28.06826782226562 C 7.108680248260498 22.88850593566895 10.24540519714355 18.23629188537598 14.24084281921387 14.24084281921387 C 18.23629188537598 10.24540519714355 22.88850593566895 7.108680248260498 28.06826782226562 4.917830467224121 C 33.43019104003906 2.649930238723755 39.1268310546875 1.50000524520874 44.99994277954102 1.50000524520874 C 50.87305450439453 1.50000524520874 56.56969451904297 2.649930238723755 61.93161773681641 4.917830467224121 C 67.11138153076172 7.108680248260498 71.76360321044922 10.24540519714355 75.75904083251953 14.24084281921387 C 79.75449371337891 18.23629188537598 82.89120483398438 22.88850593566895 85.08206939697266 28.06826782226562 C 87.34996795654297 33.43019104003906 88.49989318847656 39.1268310546875 88.49989318847656 44.99994277954102 C 88.49989318847656 50.87305450439453 87.34996795654297 56.56969451904297 85.08206939697266 61.93161773681641 C 82.89120483398438 67.11138153076172 79.75449371337891 71.76360321044922 75.75904083251953 75.75904083251953 C 71.76360321044922 79.75449371337891 67.11138153076172 82.89120483398438 61.93161773681641 85.08206939697266 C 56.56969451904297 87.34996795654297 50.87305450439453 88.49989318847656 44.99994277954102 88.49989318847656 Z" stroke="none"/>
        <path d="M 44.99994277954102 3 C 39.32865524291992 3 33.82861328125 4.110054016113281 28.65258407592773 6.299331665039062 C 23.65162658691406 8.414558410644531 19.15966796875 11.44332885742188 15.30149841308594 15.30149841308594 C 11.44332885742188 19.15966796875 8.414558410644531 23.65162658691406 6.299331665039062 28.65258407592773 C 4.110054016113281 33.82861328125 3 39.32865524291992 3 44.99994277954102 C 3 50.67121505737305 4.110054016113281 56.17125701904297 6.299331665039062 61.34728622436523 C 8.414558410644531 66.34825897216797 11.44332885742188 70.8402099609375 15.30149841308594 74.69838714599609 C 19.15966796875 78.55655670166016 23.65162658691406 81.5853271484375 28.65258407592773 83.70055389404297 C 33.82861328125 85.88983154296875 39.32867050170898 86.99988555908203 44.99994277954102 86.99988555908203 C 50.67121505737305 86.99988555908203 56.17125701904297 85.88983154296875 61.34728622436523 83.70055389404297 C 66.34825897216797 81.5853271484375 70.8402099609375 78.55655670166016 74.69838714599609 74.69838714599609 C 78.55655670166016 70.8402099609375 81.5853271484375 66.34825897216797 83.70055389404297 61.34728622436523 C 85.88983154296875 56.17125701904297 86.99988555908203 50.67121505737305 86.99988555908203 44.99994277954102 C 86.99988555908203 39.32867050170898 85.88983154296875 33.82861328125 83.70055389404297 28.65258407592773 C 81.5853271484375 23.65162658691406 78.55655670166016 19.15966796875 74.69838714599609 15.30149841308594 C 70.8402099609375 11.44332885742188 66.34825897216797 8.414558410644531 61.34728622436523 6.299331665039062 C 56.17125701904297 4.110054016113281 50.67121505737305 3 44.99994277954102 3 M 44.99994277954102 0 C 69.85271453857422 0 89.99988555908203 20.14715576171875 89.99988555908203 44.99994277954102 C 89.99988555908203 69.85271453857422 69.85271453857422 89.99988555908203 44.99994277954102 89.99988555908203 C 20.14715576171875 89.99988555908203 0 69.85271453857422 0 44.99994277954102 C 0 20.14715576171875 20.14715576171875 0 44.99994277954102 0 Z" stroke="none" fill="#f5c038"/>
      </g>
    </g>
    <g id="online-marketing_7257772" transform="translate(316.729 8005.733)">
      <g id="Icon" transform="translate(323 323)">
        <g id="Group_1143710" data-name="Group 1143710" transform="translate(1.097 9.871)">
          <g id="Group_1143707" data-name="Group 1143707">
            <path id="Path_905352" data-name="Path 905352" d="M385.418,328.387A4.387,4.387,0,0,0,381.031,324H328.387A4.387,4.387,0,0,0,324,328.387v35.1a4.387,4.387,0,0,0,4.387,4.387h52.644a4.387,4.387,0,0,0,4.387-4.387Z" transform="translate(-324 -324)" fill="#4d5a6a" fill-rule="evenodd"/>
          </g>
          <g id="Group_1143708" data-name="Group 1143708" transform="translate(4.387 4.387)">
            <path id="Path_905353" data-name="Path 905353" d="M380.644,330.194A2.194,2.194,0,0,0,378.451,328H330.194A2.194,2.194,0,0,0,328,330.194V360.9a2.194,2.194,0,0,0,2.194,2.194h48.257a2.194,2.194,0,0,0,2.194-2.194Z" transform="translate(-328 -328)" fill="#f0f0f0" fill-rule="evenodd"/>
          </g>
          <g id="Group_1143709" data-name="Group 1143709" transform="translate(17.548 48.257)">
            <path id="Path_905354" data-name="Path 905354" d="M366.322,370.194A2.194,2.194,0,0,0,364.129,368H342.194a2.193,2.193,0,0,0,0,4.387h21.935a2.194,2.194,0,0,0,2.194-2.193Z" transform="translate(-340 -368)" fill="#4d5a6a" fill-rule="evenodd"/>
          </g>
        </g>
        <path id="Path_905355" data-name="Path 905355" d="M357.166,372h-8.774A4.389,4.389,0,0,1,344,376.387h17.548A4.389,4.389,0,0,1,357.166,372Z" transform="translate(-320.973 -318.259)" fill="#2d3a4a" fill-rule="evenodd"/>
        <g id="Group_1143711" data-name="Group 1143711" transform="translate(36.193 27.419)">
          <path id="Path_905356" data-name="Path 905356" d="M364.387,94.194a2.193,2.193,0,1,0-4.387,0v13.161a2.193,2.193,0,1,0,4.387,0Z" transform="translate(-360 -92)" fill="#ff6c5c" fill-rule="evenodd"/>
        </g>
        <g id="Group_1143712" data-name="Group 1143712" transform="translate(23.032 29.612)">
          <path id="Path_905357" data-name="Path 905357" d="M357.161,94a3.968,3.968,0,0,1-3.549,2.194h-7.418A2.194,2.194,0,0,0,344,98.387v4.387a2.194,2.194,0,0,0,2.194,2.194h7.418a3.968,3.968,0,0,1,3.549,2.194Z" transform="translate(-344 -94)" fill="#ffce4b" fill-rule="evenodd"/>
        </g>
        <g id="Group_1143713" data-name="Group 1143713" transform="translate(23.032 31.806)">
          <path id="Path_905358" data-name="Path 905358" d="M348.387,96h-2.193A2.193,2.193,0,0,0,344,98.194v4.387a2.193,2.193,0,0,0,2.194,2.194h2.193Z" transform="translate(-344 -96)" fill="#ff6c5c" fill-rule="evenodd"/>
        </g>
        <g id="Group_1143714" data-name="Group 1143714" transform="translate(44.759 27.298)">
          <circle id="Ellipse_11572" data-name="Ellipse 11572" cx="8.731" cy="8.731" r="8.731" transform="translate(0 0)" fill="#ff6c5c"/>
        </g>
        <g id="Group_1143715" data-name="Group 1143715" transform="translate(51.548 32.949)">
          <path id="Path_905359" data-name="Path 905359" d="M374.938,117.381a1.314,1.314,0,0,0,0-2.189l-2.891-1.928A1.316,1.316,0,0,0,370,114.358v3.856a1.316,1.316,0,0,0,2.047,1.095Z" transform="translate(-370 -113.042)" fill="#f0f0f0" fill-rule="evenodd"/>
        </g>
        <g id="Group_1143716" data-name="Group 1143716" transform="translate(1.097 27.419)">
          <path id="Path_905360" data-name="Path 905360" d="M341.548,100.387A4.387,4.387,0,0,0,337.161,96h-8.774A4.387,4.387,0,0,0,324,100.387v8.774a4.387,4.387,0,0,0,4.387,4.387h8.774a4.387,4.387,0,0,0,4.387-4.387Z" transform="translate(-324 -96)" fill="#23a7f1" fill-rule="evenodd"/>
        </g>
        <g id="Group_1143717" data-name="Group 1143717" transform="translate(6.16 31.893)">
          <ellipse id="Ellipse_11573" data-name="Ellipse 11573" cx="1.838" cy="2.298" rx="1.838" ry="2.298" transform="translate(0 0)" fill="#ffce4b"/>
        </g>
        <g id="Group_1143718" data-name="Group 1143718" transform="translate(5.484 37.101)">
          <path id="Path_905361" data-name="Path 905361" d="M341.161,108.307l-2.836-2.836a2.192,2.192,0,0,0-3.1,0L328,112.694h8.774A4.387,4.387,0,0,0,341.161,108.307Z" transform="translate(-328 -104.828)" fill="#3ddc80" fill-rule="evenodd"/>
        </g>
        <g id="Group_1143719" data-name="Group 1143719" transform="translate(36.193 5.484)">
          <path id="Path_905362" data-name="Path 905362" d="M345.935,78.194A2.194,2.194,0,0,0,343.742,76H326.194A2.194,2.194,0,0,0,324,78.194V91.355a2.194,2.194,0,0,0,2.193,2.194h17.548a2.194,2.194,0,0,0,2.194-2.194Z" transform="translate(-324 -76)" fill="#f9b32f" fill-rule="evenodd"/>
        </g>
        <g id="Group_1143720" data-name="Group 1143720" transform="translate(36.193 12.065)">
          <path id="Path_905363" data-name="Path 905363" d="M326.194-75.032a2.193,2.193,0,0,1-2.081-1.5,2.191,2.191,0,0,1,.764-2.448l8.774-6.581a2.195,2.195,0,0,1,2.632,0l8.774,6.581a2.191,2.191,0,0,1,.764,2.448,2.193,2.193,0,0,1-2.081,1.5Z" transform="translate(-324 86)" fill="#f9bf3a" fill-rule="evenodd"/>
        </g>
        <g id="Group_1143721" data-name="Group 1143721" transform="translate(36.193 5.484)">
          <path id="Path_905364" data-name="Path 905364" d="M326.194,76a2.194,2.194,0,0,0-1.316,3.948l8.774,6.581a2.195,2.195,0,0,0,2.632,0l8.774-6.581A2.194,2.194,0,0,0,343.742,76Z" transform="translate(-324 -76)" fill="#ffce4b" fill-rule="evenodd"/>
        </g>
        <g id="Group_1143722" data-name="Group 1143722" transform="translate(5.484 1.108)">
          <path id="Path_905365" data-name="Path 905365" d="M364.774,89.161l2.637,3.493a2.193,2.193,0,0,0,3.5,0l2.637-3.493h6.581a2.194,2.194,0,0,0,2.193-2.194V78.194A2.194,2.194,0,0,0,380.129,76H358.194A2.194,2.194,0,0,0,356,78.194v8.774a2.194,2.194,0,0,0,2.193,2.194Z" transform="translate(-356 -76)" fill="#3ddc80" fill-rule="evenodd"/>
        </g>
        <g id="Group_1143723" data-name="Group 1143723" transform="translate(8.774 4.387)">
          <path id="Path_905366" data-name="Path 905366" d="M360.1,81.194h4.387a1.1,1.1,0,1,0,0-2.194H360.1a1.1,1.1,0,0,0,0,2.194Z" transform="translate(-359 -79)" fill-rule="evenodd"/>
        </g>
        <g id="Group_1143724" data-name="Group 1143724" transform="translate(17.548 4.387)">
          <path id="Path_905367" data-name="Path 905367" d="M368.1,81.194h8.774a1.1,1.1,0,0,0,0-2.194H368.1a1.1,1.1,0,1,0,0,2.194Z" transform="translate(-367 -79)" fill-rule="evenodd"/>
        </g>
        <g id="Group_1143725" data-name="Group 1143725" transform="translate(8.774 8.763)">
          <path id="Path_905368" data-name="Path 905368" d="M360.1,85.184h17.548a1.1,1.1,0,0,0,0-2.194H360.1a1.1,1.1,0,0,0,0,2.194Z" transform="translate(-359 -82.99)" fill-rule="evenodd"/>
        </g>
        <g id="Group_1143726" data-name="Group 1143726" transform="translate(50.451 31.853)">
          <path id="Path_905369" data-name="Path 905369" d="M375.643,118.391a2.413,2.413,0,0,0,0-4.016l-2.892-1.927A2.413,2.413,0,0,0,369,114.455v3.856a2.413,2.413,0,0,0,3.751,2.007Zm-1.216-1.826-2.892,1.928a.219.219,0,0,1-.341-.182v-3.856a.219.219,0,0,1,.341-.182l2.892,1.928a.219.219,0,0,1,0,.364Z" transform="translate(-369 -112.043)" fill-rule="evenodd"/>
        </g>
        <g id="Group_1143727" data-name="Group 1143727" transform="translate(4.387 30.709)">
          <path id="Path_905370" data-name="Path 905370" d="M658.29,199a3.29,3.29,0,1,0,3.29,3.29A3.291,3.291,0,0,0,658.29,199Zm0,2.194a1.1,1.1,0,1,1-1.1,1.1A1.1,1.1,0,0,1,658.29,201.194Z" transform="translate(-655 -199)" fill-rule="evenodd"/>
        </g>
        <path id="Path_905371" data-name="Path 905371" d="M327.387,331.884V326.29a3.291,3.291,0,0,1,3.29-3.29h21.935a3.292,3.292,0,0,1,3.29,3.29v5.484H358.1v-1.1a3.291,3.291,0,0,1,3.29-3.29h17.548a3.291,3.291,0,0,1,3.29,3.29v1.206a5.486,5.486,0,0,1,4.387,5.374v35.1a5.484,5.484,0,0,1-5.484,5.484h-20.65a3.291,3.291,0,0,0,3.1,2.193h2.194a3.29,3.29,0,0,1,0,6.581H343.838a3.29,3.29,0,0,1,0-6.581h2.194a3.291,3.291,0,0,0,3.1-2.193h-20.65A5.484,5.484,0,0,1,323,372.354v-35.1A5.486,5.486,0,0,1,327.387,331.884Zm39.483,51.438a1.1,1.1,0,0,0-1.1-1.1H343.838a1.1,1.1,0,0,0,0,2.194h21.935a1.1,1.1,0,0,0,1.1-1.1Zm-7.677-3.29a5.481,5.481,0,0,1-.986-2.193h-6.8a5.483,5.483,0,0,1-.986,2.193ZM384.418,365.4a9.96,9.96,0,0,1-2.194,2v2.761a3.291,3.291,0,0,1-3.29,3.29H330.677a3.291,3.291,0,0,1-3.29-3.29v-1.206a5.452,5.452,0,0,1-2.194-.987v4.387a3.29,3.29,0,0,0,3.29,3.29h52.644a3.29,3.29,0,0,0,3.29-3.29Zm-47.707-27.04h-6.034a1.1,1.1,0,0,0-1.1,1.1v9.871h7.677a5.484,5.484,0,0,1,5.484,5.484v8.774a5.484,5.484,0,0,1-5.484,5.484h-7.677v1.1a1.1,1.1,0,0,0,1.1,1.1h48.257a1.1,1.1,0,0,0,1.1-1.1V368.5a9.871,9.871,0,1,1,0-18.616V346.94a3.275,3.275,0,0,1-1.1.189H361.386a3.291,3.291,0,0,1-3.29-3.29v-5.484H346.578l-2.306,3.057a3.291,3.291,0,0,1-5.253,0Zm47.707,20.838a7.677,7.677,0,1,1-7.677-7.677A7.681,7.681,0,0,1,384.418,359.193Zm-43.9,4.814-2.487-2.487a1.1,1.1,0,0,0-1.551,0l-5.351,5.351h6.126A3.291,3.291,0,0,0,340.521,364.007Zm.027-3.074v-6.126a3.29,3.29,0,0,0-3.29-3.29h-8.774a3.29,3.29,0,0,0-3.29,3.29v8.774a3.291,3.291,0,0,0,2.864,3.263l6.874-6.874a3.289,3.289,0,0,1,4.652,0Zm41.677-26.777v16.831a9.933,9.933,0,0,1,2.194,2V337.258A3.292,3.292,0,0,0,382.225,334.155Zm-54.838,0a3.291,3.291,0,0,0-2.194,3.1v13.161a5.451,5.451,0,0,1,2.194-.987v-9.98a3.287,3.287,0,0,1,.838-2.194,3.287,3.287,0,0,1-.838-2.194Zm52.644,9.666a1.1,1.1,0,0,0-.439-.86l-5.776-4.332-1.682,1.261a3.29,3.29,0,0,1-3.948,0l-1.681-1.261-5.777,4.332a1.1,1.1,0,0,0-.439.87v.008a1.1,1.1,0,0,0,1.1,1.1h17.548a1.1,1.1,0,0,0,1.1-1.08Zm-19.742-3.273,4.387-3.29-4.387-3.29Zm19.742,0v-6.581l-4.387,3.29Zm-27.419-4.387h-6.581a1.1,1.1,0,0,0-.875.437l-2.637,3.492a1.1,1.1,0,0,1-1.75,0l-2.637-3.492a1.094,1.094,0,0,0-.875-.437h-6.581a1.1,1.1,0,0,1-1.1-1.1V326.29a1.1,1.1,0,0,1,1.1-1.1h21.935a1.1,1.1,0,0,1,1.1,1.1v8.774a1.1,1.1,0,0,1-1.1,1.1Zm27.419-5.476v-.008a1.1,1.1,0,0,0-1.1-1.1H361.386a1.1,1.1,0,0,0-1.1,1.1v.008a1.1,1.1,0,0,0,.439.87l8.774,6.581a1.1,1.1,0,0,0,1.316,0l8.774-6.581A1.1,1.1,0,0,0,380.031,330.685Zm-24.317,5.476H358.1v-2.194H355.9v1.1A3.275,3.275,0,0,1,355.714,336.161Z" transform="translate(-323 -323)" fill-rule="evenodd"/>
        <g id="Group_1143728" data-name="Group 1143728" transform="translate(21.935 26.322)">
          <path id="Path_905372" data-name="Path 905372" d="M349.387,236.355v1.1a3.29,3.29,0,1,0,6.581,0v-1.085a2.873,2.873,0,0,1,2.208,1.388,3.29,3.29,0,0,0,6.566-.3V224.29a3.29,3.29,0,0,0-6.566-.3,2.872,2.872,0,0,1-2.467,1.4H348.29a3.292,3.292,0,0,0-3.29,3.29v4.387a3.291,3.291,0,0,0,3.29,3.29Zm2.193,0v1.1a1.1,1.1,0,0,0,2.194,0v-1.1Zm9.871-13.161a1.1,1.1,0,0,0-1.1,1.1v13.161a1.1,1.1,0,1,0,2.194,0V224.29A1.1,1.1,0,0,0,361.451,223.194Zm-9.871,10.968h4.128a5.057,5.057,0,0,1,2.452.633v-7.846a5.057,5.057,0,0,1-2.452.633h-4.128Zm-2.193-6.581h-1.1a1.1,1.1,0,0,0-1.1,1.1v4.387a1.1,1.1,0,0,0,1.1,1.1h1.1Z" transform="translate(-345 -221)" fill-rule="evenodd"/>
        </g>
      </g>
    </g>
  </g>
</svg>
