<svg xmlns="http://www.w3.org/2000/svg" xmlns:xlink="http://www.w3.org/1999/xlink" width="432.232" height="273.864" viewBox="0 0 432.232 273.864">
  <defs>
    <clipPath id="clip-path">
      <rect id="top-view-little-kid-playing-with-rubics-cube-yellow-surface" width="432.232" height="273.864" rx="10" transform="translate(3563.884 1704.386)" fill="#0b0a0a"/>
    </clipPath>
    <clipPath id="clip-path-2">
      <rect id="Rectangle_405618" data-name="Rectangle 405618" width="96.867" height="70.321" fill="none" stroke="#c9d2f9" stroke-linecap="round" stroke-linejoin="round" stroke-width="6.463"/>
    </clipPath>
  </defs>
  <g id="Mask_Group_1098700" data-name="Mask Group 1098700" transform="translate(-3563.884 -1704.386)" clip-path="url(#clip-path)">
    <g id="Group_1143923" data-name="Group 1143923">
      <rect id="top-view-little-kid-playing-with-rubics-cube-yellow-surface-2" data-name="top-view-little-kid-playing-with-rubics-cube-yellow-surface" width="432.232" height="273.864" rx="10" transform="translate(3563.884 1704.386)" fill="#f8ecfd"/>
      <g id="Group_1143922" data-name="Group 1143922" transform="translate(3625.498 1684.302)">
        <path id="Path_905800" data-name="Path 905800" d="M60.077,335.831s-18.268-24.548-15.6-56.3c1.873-22.334,20.03-32.27,27.252-53.19s-13.474-57.965-3.488-76.789c19.361-36.495,56.449-42.56,81.186-28.277s28.846,32.126,42.522,24.23,28.635-26.934,63.731-16.067c27.836,8.62,50.714,35.1,45.291,72.591-3.954,27.345-40.284,52.165-21.67,80.724s-8.014,53.076-8.014,53.076Z" transform="translate(-16.491 -35.936)" fill="#f6f6fc"/>
        <path id="Path_905801" data-name="Path 905801" d="M109.238,249.423S83.219,220.67,85.4,184.763c1.446-23.831,10.566-64.792,44.994-77.154,21.275-7.639,47.768,7.379,73.757,2.14s55.725-10.7,69.822-4.245c18.5,8.475,51.995,55.532,9.423,98.1" transform="translate(-31.808 -31.617)" fill="none" stroke="#b0bdfc" stroke-linecap="round" stroke-linejoin="round" stroke-width="3" stroke-dasharray="6 10"/>
        <g id="Group_1143876" data-name="Group 1143876" transform="translate(185.283 35.732)">
          <rect id="Rectangle_405617" data-name="Rectangle 405617" width="96.867" height="70.321" fill="#fff"/>
          <g id="Group_1143873" data-name="Group 1143873">
            <g id="Group_1143872" data-name="Group 1143872" clip-path="url(#clip-path-2)">
              <g id="Group_1143871" data-name="Group 1143871" transform="translate(16.917 11.268)">
                <g id="Group_1143860" data-name="Group 1143860" transform="translate(3.823 47.652)">
                  <path id="Path_905802" data-name="Path 905802" d="M337.47,144.2c-2.633,3.179-8.865,21.575-8.865,21.575l5.414-1.984S347.7,141.381,345.161,140.6,340.1,141.026,337.47,144.2Z" transform="translate(-328.605 -140.37)" fill="#f6b684"/>
                </g>
                <path id="Path_905803" data-name="Path 905803" d="M377.356,152.925c.525,5.287-23.952.245-23.815-4.189a82.139,82.139,0,0,1,2.143-14.491c2.28-8,8.4-1.273,14.245-2.06C371.484,137.044,374.41,139.878,377.356,152.925Z" transform="translate(-334.084 -88.957)" fill="#f6b684"/>
                <path id="Path_905804" data-name="Path 905804" d="M375.875,141.475c-.4-.749-12.408-3.54-12.408-3.54s-8.554,4.69-15.64.159c0,0,.316-.746-5.32,2.186-2.731,1.42-4.964,17.276-5.194,20.326-.238,3.14-4.441,29.576-4.205,40.225,5.426,3.078,40.687-1.446,40.687-1.446s.364-27.075-1.971-44.641c-.033-.246,1.115-.142,1.305-.452C374.453,152.141,376.677,143.361,375.875,141.475Z" transform="translate(-326.458 -91.81)" fill="#465c85"/>
                <path id="Path_905805" data-name="Path 905805" d="M337.371,146.347a46.291,46.291,0,0,0-3.2,6.581l-.779,2.424,6.667,1.3,3.377-15.5A14.622,14.622,0,0,0,337.371,146.347Z" transform="translate(-326.566 -93.01)" fill="#465c85"/>
                <path id="Path_905806" data-name="Path 905806" d="M340.831,154.317l-.954,6.738h.661Z" transform="translate(-328.987 -97.921)" fill="#070707" opacity="0.07"/>
                <g id="Group_1143869" data-name="Group 1143869">
                  <g id="Group_1143867" data-name="Group 1143867">
                    <g id="Group_1143864" data-name="Group 1143864" transform="translate(7.305 6.95)">
                      <g id="Group_1143863" data-name="Group 1143863">
                        <path id="Path_905807" data-name="Path 905807" d="M359.784,75.482a30.4,30.4,0,0,1,7.494,2.83c3.954,2.14,8.138,5.695,8.866,11.311a24.155,24.155,0,0,1-.523,9.281c-1.865,7.051-7.214,12.659-15.944,14.594-6.161,1.366-12.9.729-18.008-2.778s-8.35-11.189-7.319-17.709,3.9-10.056,8.4-13.2S353.162,75.215,359.784,75.482Z" transform="translate(-334.158 -75.451)" fill="#f6b684"/>
                        <g id="Group_1143861" data-name="Group 1143861" transform="translate(13.323 25.606)">
                          <path id="Path_905808" data-name="Path 905808" d="M361.223,116.679a22.747,22.747,0,0,1-4.537-.245c-.779-.191-1.354-.271-1.269.3a3.329,3.329,0,0,0,2.894,2.665,3.709,3.709,0,0,0,3.74-1.676c.505-.673.058-1.039-.828-1.039Z" transform="translate(-355.409 -116.292)" fill="#fff"/>
                        </g>
                        <g id="Group_1143862" data-name="Group 1143862" transform="translate(14.19 18.308)">
                          <path id="Path_905809" data-name="Path 905809" d="M359.069,110.137c-.013,0-.025,0-.038,0a6.084,6.084,0,0,1-.929-.121,1.59,1.59,0,0,1-1.246-.954,1.689,1.689,0,0,1,.418-1.606,4.289,4.289,0,0,0,.517-2.362.419.419,0,0,1,.4-.44h.009a.42.42,0,0,1,.433.4,5.172,5.172,0,0,1-.687,2.915,1.015,1.015,0,0,0-.294.82c.062.177.3.325.658.417a5.451,5.451,0,0,0,.769.1.42.42,0,0,1-.008.84Z" transform="translate(-356.791 -104.653)" fill="#d78a49"/>
                        </g>
                        <path id="Path_905810" data-name="Path 905810" d="M335.987,114.751a4.324,4.324,0,1,0-.719-7.432" transform="translate(-334.572 -87.034)" fill="#e59a53" opacity="0.32"/>
                      </g>
                      <path id="Path_905811" data-name="Path 905811" d="M345.846,104.618c-.032.888.451,1.626,1.078,1.648s1.163-.678,1.2-1.565-.45-1.627-1.079-1.65S345.878,103.729,345.846,104.618Z" transform="translate(-338.518 -85.747)" fill="#443b41"/>
                    </g>
                    <path id="Path_905812" data-name="Path 905812" d="M388.351,111.706a4.611,4.611,0,1,1-4.759-4.457A4.611,4.611,0,0,1,388.351,111.706Z" transform="translate(-343.63 -80.362)" fill="#e59a53" opacity="0.32"/>
                    <g id="Group_1143866" data-name="Group 1143866" transform="translate(44.151 29.192)">
                      <path id="Path_905813" data-name="Path 905813" d="M393.322,116.492a5.427,5.427,0,0,0,1.041.113,2.822,2.822,0,0,0-.184-5.641,3.661,3.661,0,0,0-1.251.041,13.484,13.484,0,0,1,.437,3.582Z" transform="translate(-392.928 -110.928)" fill="#f6b684"/>
                      <g id="Group_1143865" data-name="Group 1143865" transform="translate(0.574 0.926)" opacity="0.37">
                        <path id="Path_905814" data-name="Path 905814" d="M396.026,114.884a.424.424,0,0,1-.43-.342,1.6,1.6,0,0,0-1.371-1.3.422.422,0,0,1,.078-.841,2.434,2.434,0,0,1,2.125,1.974.423.423,0,0,1-.335.5A.431.431,0,0,1,396.026,114.884Z" transform="translate(-393.843 -112.404)" fill="#d78a49"/>
                      </g>
                    </g>
                    <path id="Path_905815" data-name="Path 905815" d="M375.668,107.457c5.94-1.406,9.85-7.144,7.794-11.579s-3.385-13.409-9.376-23.02c-4.256-6.828-16.642-9.64-25.658-8.065-8.6,1.5-15.463,3.189-19.825,19.333s-4.527,14.212-5.892,16.285,4.119,8.328,16.132,7.109l-1.824-1.148s-4.333-2.572-5.593-10.778,3.623-17.161,3.623-17.161,13.793,9.007,24.45,10.275c5.815.692,6.641,8.259,4.708,10.654C360.543,103.9,366.063,109.729,375.668,107.457Z" transform="translate(-322.507 -64.366)" fill="#efd97a"/>
                  </g>
                  <path id="Path_905816" data-name="Path 905816" d="M356.933,136.057s9.645.909,12.649-.476c0,0-3.389,2.488-12.878,1.424Z" transform="translate(-335.264 -90.932)" fill="#070707" opacity="0.07"/>
                  <g id="Group_1143868" data-name="Group 1143868" transform="translate(32.412 25.58)">
                    <path id="Path_905817" data-name="Path 905817" d="M376.813,108.181a.34.34,0,0,1-.158-.039l-2.275-1.218a.335.335,0,0,1,.009-.594l2.275-1.129a.334.334,0,0,1,.3.6l-1.694.841,1.7.912a.334.334,0,0,1-.158.629Z" transform="translate(-374.204 -105.166)" fill="#443b41"/>
                  </g>
                </g>
                <g id="Group_1143870" data-name="Group 1143870" transform="translate(45.696 20.659)">
                  <path id="Path_905818" data-name="Path 905818" d="M399.021,144.77s1.2-1.786,1.471-1.157a2.919,2.919,0,0,1,.263,1.129Z" transform="translate(-396.746 -114.537)" fill="#364968"/>
                  <path id="Path_905819" data-name="Path 905819" d="M395.392,161.217s1.108.058,1.841.187a3.336,3.336,0,0,1-.42,1.275C395.612,163.88,395.46,162.2,395.392,161.217Z" transform="translate(-395.392 -121.154)" fill="#364968"/>
                  <path id="Path_905820" data-name="Path 905820" d="M414.892,97.342a.688.688,0,0,0-.82.439,31.235,31.235,0,0,0-1.2,4.066l-.039-.122a23.808,23.808,0,0,0,.246-3.667.571.571,0,0,0-1.124.088c-.219.838-.655,2.688-1.008,4.134l-.35.78a.493.493,0,0,1-.269-.173c-.514-.535-1.493-1.39-1.97-.851-.3.768.458.957,1.168,2.512a1.825,1.825,0,0,1,.053.777c-.7,3.91-5,22.631-5,22.631a30.512,30.512,0,0,0-6.889-.413,23.97,23.97,0,0,0-2.269,9.845c1.8.32,11.473.813,15.025-1.868,2.211-1.668,3.965-22.771,4.038-27.059a10.937,10.937,0,0,1,1.214-2.764,27.915,27.915,0,0,0,2.163-4.584c.218-.695-.1-1.145-.725-.816-.49.256-1.668,2.835-1.668,2.835s.9-3.2.983-3.7-.006-1.088-.382-1.206c-.567-.053-1.266,1.918-1.661,3.211.259-.93.616-2.27.819-3.29A.693.693,0,0,0,414.892,97.342Z" transform="translate(-395.4 -97.317)" fill="#f6b684"/>
                </g>
              </g>
            </g>
            <rect id="Rectangle_405619" data-name="Rectangle 405619" width="96.867" height="70.321" fill="none" stroke="#c9d2f9" stroke-linecap="round" stroke-linejoin="round" stroke-width="6.463"/>
          </g>
          <g id="Group_1143875" data-name="Group 1143875" transform="translate(2.014 2.018)">
            <rect id="Rectangle_405620" data-name="Rectangle 405620" width="92.837" height="3.377" fill="#2d2429"/>
            <g id="Group_1143874" data-name="Group 1143874" transform="translate(1.337 0.612)">
              <path id="Path_905821" data-name="Path 905821" d="M302.881,51.594a1.007,1.007,0,1,1-1.007-1.006A1.007,1.007,0,0,1,302.881,51.594Z" transform="translate(-300.868 -50.588)" fill="#d3675e"/>
              <path id="Path_905822" data-name="Path 905822" d="M307.959,51.594a1.007,1.007,0,1,1-1.006-1.006A1.007,1.007,0,0,1,307.959,51.594Z" transform="translate(-302.762 -50.588)" fill="#ebbf54"/>
              <path id="Path_905823" data-name="Path 905823" d="M313.038,51.594a1.006,1.006,0,1,1-1.006-1.006A1.006,1.006,0,0,1,313.038,51.594Z" transform="translate(-304.657 -50.588)" fill="#abdbac"/>
            </g>
          </g>
        </g>
        <g id="Group_1143893" data-name="Group 1143893" transform="translate(0 119.689)">
          <g id="Group_1143891" data-name="Group 1143891" transform="translate(58.331)">
            <g id="Group_1143888" data-name="Group 1143888" transform="translate(44.057)">
              <path id="Path_905824" data-name="Path 905824" d="M315.467,319.511a31.048,31.048,0,0,0,.161,6.616c.5,2.129-1.867,6.27-14.581,3.023s-9.561-3.023-9.561-3.023a22.224,22.224,0,0,0,1.313-4.971C292.8,319.668,315.467,319.511,315.467,319.511Z" transform="translate(-210.993 -232.234)" fill="#f6b684"/>
              <path id="Path_905825" data-name="Path 905825" d="M209.629,308.816,186.361,275.8a26.643,26.643,0,0,1-2.779-7.49c.846-3.6,1.28-5.781.118-6.55-1.295-.723-3.228,4.435-3.387,4.505a11.516,11.516,0,0,1-.9-1.427c-1.441-2.612-3.25-5.967-4.116-7.471a1.349,1.349,0,0,0-2.51.637c.082,1.3,1.487,5.144,2.229,7.1l-.031.27a53.338,53.338,0,0,0-4.519-7.192,1.5,1.5,0,0,0-2-.279,1.483,1.483,0,0,0-.349,1.821c.915,1.877,2.317,4.276,3.315,5.932-1.465-2.278-3.907-5.682-5.13-5.166-.771.5-.708,1.721-.285,2.668s3.863,6.636,3.863,6.636-3.777-4.263-4.971-4.417c-1.535-.2-2.019.922-1.219,2.142a48.35,48.35,0,0,0,6.862,7.527,18.906,18.906,0,0,1,3.94,4.6s20.674,38.023,22.9,40.665c3.275,3.882,25.752,7.373,25.752,7.373l1.759-18.415Z" transform="translate(-163.307 -208.798)" fill="#f6b684"/>
              <g id="Group_1143879" data-name="Group 1143879" transform="translate(53.554 93.202)">
                <g id="Group_1143878" data-name="Group 1143878">
                  <g id="Group_1143877" data-name="Group 1143877">
                    <path id="Path_905826" data-name="Path 905826" d="M318.191,411.415l1.5-47.752s8.3-11.265-1.263-23.811a28.573,28.573,0,0,0-19.005-10.867s-8.12,2.684-13.892,2.4c-8.49-.422-9.617-2.421-9.617-2.421a125.165,125.165,0,0,0-25.845,5.779c-1.343,5.958-1.343,21.287-1.343,21.287l12.677,4.149-7.24,51.046" transform="translate(-248.725 -328.961)" fill="#7cc6d3"/>
                  </g>
                  <path id="Path_905827" data-name="Path 905827" d="M339.568,431.761c8.17-8.968,13.239-24.054,14.009-47.45l-1.572,47.75" transform="translate(-282.613 -349.609)" fill="#0d0d0d" opacity="0.05"/>
                  <path id="Path_905828" data-name="Path 905828" d="M269.4,357.112,266.33,370.14l1.639.536Z" transform="translate(-255.292 -339.462)" fill="#0d0d0d" opacity="0.07"/>
                </g>
              </g>
              <g id="Group_1143880" data-name="Group 1143880" transform="translate(66.035 123.975)">
                <path id="Path_905829" data-name="Path 905829" d="M268.913,431.26a11.832,11.832,0,0,1,1.31-.2" transform="translate(-268.737 -397.819)" fill="#ebc397"/>
                <path id="Path_905830" data-name="Path 905830" d="M268.632,412.139c5.85-.333,20.034-5.13,24.305-7.68,5.031-3,11.769-22.71,13.91-26.417,12.591,0,16.193,7.647,16.193,7.647-3.466,7.624-12.7,22.672-23.174,27.933-9.147,4.593-21.633,5.626-29.277,6.061-.577.033-1.183.043-1.78.1" transform="translate(-268.632 -378.043)" fill="#f6b684"/>
              </g>
              <path id="Path_905831" data-name="Path 905831" d="M258.857,439.715c2.548-.538,1.715-6.455.87-7.474s-6.5-1.4-8.727-.56-5.482,1.678-8.838,5.035,0,4.364,0,4.364,14.146-.827,16.695-1.364" transform="translate(-192.167 -273.905)" fill="#f6b684"/>
              <path id="Path_905832" data-name="Path 905832" d="M290.064,328.961s1.127,2,9.617,2.421c5.772.287,13.892-2.4,13.892-2.4s2.8.461,3.541.667c0,0-4.984,5.482-14.5,5.551-7.5.055-12.176-1.641-14.2-3.662a8,8,0,0,1-1.754-2.112C287.537,329.273,290.064,328.961,290.064,328.961Z" transform="translate(-209.323 -235.759)" fill="#6bb7bf"/>
              <path id="Path_905833" data-name="Path 905833" d="M328.648,362.464l-2.619,8.876,1.543.891-.757,1.312-2.627-1.517Z" transform="translate(-223.321 -248.257)" fill="#0d0d0d" opacity="0.07"/>
              <path id="Path_905834" data-name="Path 905834" d="M358.934,384.311l-3,5.052-1.338-.773-.671,1.383,2.158,1.272Z" transform="translate(-234.416 -256.407)" fill="#0d0d0d" opacity="0.07"/>
              <g id="Group_1143887" data-name="Group 1143887" transform="translate(44.651)">
                <g id="Group_1143886" data-name="Group 1143886">
                  <g id="Group_1143885" data-name="Group 1143885">
                    <g id="Group_1143884" data-name="Group 1143884">
                      <path id="Path_905835" data-name="Path 905835" d="M297,207.419a59.645,59.645,0,0,1,14.526,6.028c7.623,4.45,15.609,11.689,16.683,22.758a47.386,47.386,0,0,1-1.618,18.178c-4.1,13.718-14.956,24.384-32.208,27.627-12.175,2.289-25.359.613-35.162-6.59s-15.673-22.485-13.238-35.215,8.287-19.484,17.326-25.373S284.026,206.475,297,207.419Z" transform="translate(-238.595 -190.346)" fill="#f6b684"/>
                      <g id="Group_1143881" data-name="Group 1143881" transform="translate(34.554 52.301)">
                        <path id="Path_905836" data-name="Path 905836" d="M294.017,274.542c-.024,0-.048,0-.073,0a11.82,11.82,0,0,1-1.816-.3,3.121,3.121,0,0,1-2.384-1.951,3.307,3.307,0,0,1,.922-3.126c1.007-1.236,1.182-3.739,1.164-4.6a.825.825,0,0,1,1.65-.036c0,.15.063,3.715-1.534,5.677-.517.635-.746,1.215-.628,1.591.11.35.56.656,1.266.859a10.169,10.169,0,0,0,1.5.238.825.825,0,0,1-.07,1.646Z" transform="translate(-289.638 -263.725)" fill="#d78a49"/>
                      </g>
                      <g id="Group_1143882" data-name="Group 1143882">
                        <path id="Path_905837" data-name="Path 905837" d="M239.709,214.474s-2.769-4.947,0-9.813c3.206-3.206,7.734-1.518,6.883-3.017-1.363-2.4-.678-7.058.551-8.549,2.813-3.413,7.209-2.692,10.252-2.692,0-2.57-.164-5.4,3.718-6.856,3.656-1.374,7.379,1.031,9.6,3.25,0-4.177,7.949-11.529,14.75-1.328,1.547-2.737,14.087-9.66,19.882,4.255,2.558-1.271,12.1-3.008,17.982,4.565,2.091,2.692,2.363,4.86,2.571,8.262,6.058,0,12.852,10.9,8.006,17.346-2.114,2.81-1.433.34,1.574,5.8,1.967,3.57-.313,9.69-3.285,11.894a11.275,11.275,0,0,1-7.721,13.579,4.628,4.628,0,0,1-1.343,5.523,8.433,8.433,0,0,1-5.788,1.648,6.242,6.242,0,0,1-3.972-1.3c-2.119-1.9-1.587-5.314-.652-8a5.058,5.058,0,0,1-2.89-4.065,10.271,10.271,0,0,1,.848-5.1c.349-.883,2.825-1.935-.971-4.184-1.855-1.1-2.193-3.895-1.463-5.923a5.447,5.447,0,0,1,1.569-2.24c-.207-.091-.366-.164-.455-.211a6.073,6.073,0,0,0-2.4-.35,6.313,6.313,0,0,1-5.629-5.793,3.865,3.865,0,0,0-.437-2.283,2.524,2.524,0,0,0-2.379-.789c-7.129,1.319-11.754.331-14.7-6.033-.794,2.964-6.642,5.005-9.687,4.619s-6.49-4.626-6.518-7.694c-1.56,2.805-4.673,10.574-12.807,4.5-7.055,9.452-14.062,20.562-8.922,40.649-4.651-4.13-10.274-14.677-8.979-21.025C230.252,220.688,239.709,214.474,239.709,214.474Z" transform="translate(-234.526 -180.305)" fill="#4e4449"/>
                      </g>
                      <path id="Path_905838" data-name="Path 905838" d="M298.14,287.234s-7.247,1.7-13.12-.6a1.617,1.617,0,0,0-2.154,1.082,2.455,2.455,0,0,0-.07.435c-.1,1.428,1.924,4.189,4.818,5.11s7.968.631,10.187-1.292S299.944,286.918,298.14,287.234Z" transform="translate(-252.531 -219.927)" fill="#fff"/>
                      <circle id="Ellipse_11578" data-name="Ellipse 11578" cx="6.983" cy="6.983" r="6.983" transform="translate(56.731 71.774) rotate(-76.653)" fill="#e59a53" opacity="0.32"/>
                      <path id="Path_905839" data-name="Path 905839" d="M249.828,273.564a6.983,6.983,0,1,1,.894,9.791" transform="translate(-240.234 -214.147)" fill="#e59a53" opacity="0.32"/>
                      <g id="Group_1143883" data-name="Group 1143883" transform="translate(20.791 49.953)">
                        <path id="Path_905840" data-name="Path 905840" d="M324.906,267.4c-.144,1.749.742,3.249,1.979,3.351s2.357-1.233,2.5-2.982-.742-3.25-1.979-3.351S325.05,265.649,324.906,267.4Z" transform="translate(-289.026 -261.633)" fill="#443b41"/>
                        <path id="Path_905841" data-name="Path 905841" d="M267.7,262.967c-.144,1.749.742,3.25,1.979,3.352s2.357-1.233,2.5-2.982-.742-3.25-1.979-3.352S267.847,261.218,267.7,262.967Z" transform="translate(-267.687 -259.979)" fill="#443b41"/>
                      </g>
                    </g>
                    <path id="Path_905842" data-name="Path 905842" d="M292.58,326.572a44.6,44.6,0,0,0,18.324-.22c-1.122.648-7.647,3.907-18.691,1.433Z" transform="translate(-256.045 -234.786)" fill="#0d0d0d" opacity="0.07"/>
                  </g>
                </g>
              </g>
            </g>
            <g id="Group_1143890" data-name="Group 1143890" transform="translate(0 101.922)">
              <path id="Path_905843" data-name="Path 905843" d="M169.475,342.87l16.5,68.72H113.307a6.745,6.745,0,0,1-6.569-5.213L93.153,348.343a4.341,4.341,0,0,1,4.227-5.328Z" transform="translate(-93.038 -342.87)" fill="#465c85"/>
              <g id="Group_1143889" data-name="Group 1143889" transform="translate(73.865 0)">
                <path id="Path_905844" data-name="Path 905844" d="M280.538,411.59H229.867a2.605,2.605,0,0,1-2.523-1.954l-16.408-63.508a2.606,2.606,0,0,1,5.046-1.3l15.9,61.555h48.654a2.606,2.606,0,0,1,0,5.211Z" transform="translate(-210.852 -342.87)" fill="#364e70"/>
              </g>
              <path id="Path_905845" data-name="Path 905845" d="M162.638,392.475c2.046,2.49,2.084,5.841.084,7.485s-5.28.957-7.327-1.533-2.084-5.841-.084-7.485S160.591,389.985,162.638,392.475Z" transform="translate(-115.717 -360.469)" fill="#364e70"/>
            </g>
          </g>
          <rect id="Rectangle_405621" data-name="Rectangle 405621" width="313.482" height="29.567" transform="translate(313.482 200.437) rotate(180)" fill="#b0bdfc"/>
          <g id="Group_1143892" data-name="Group 1143892" transform="translate(247.337 108.387)">
            <path id="Path_905846" data-name="Path 905846" d="M433.064,438.955H410.34a1.95,1.95,0,0,1-1.921-1.613l-3.822-21.81h34.21l-3.822,21.81A1.951,1.951,0,0,1,433.064,438.955Z" transform="translate(-398.267 -376.44)" fill="#efd97a"/>
            <path id="Path_905847" data-name="Path 905847" d="M436.709,420.618H405.265a1.477,1.477,0,0,1-1.456-1.228l-.718-4.189a1.09,1.09,0,0,1,1.075-1.275h33.642a1.09,1.09,0,0,1,1.075,1.275l-.718,4.189A1.477,1.477,0,0,1,436.709,420.618Z" transform="translate(-397.699 -375.841)" fill="#efd97a"/>
            <path id="Path_905848" data-name="Path 905848" d="M438.177,425.892H406.412l-.227-1.292H438.4Z" transform="translate(-398.86 -379.823)" fill="#0d0d0d" opacity="0.07"/>
            <path id="Path_905849" data-name="Path 905849" d="M404.365,392.016s-12.617-12.786-6.779-26.963,20.9-11.637,26.8-1.424-3.094,28.392-3.094,28.392Z" transform="translate(-395.076 -353.931)" fill="#4c9393"/>
            <path id="Path_905850" data-name="Path 905850" d="M432.866,399.938s-4.445-15.242,4.094-21.082c8.564-5.857,14.82.066,15.6,4.7,1.482,8.778-6.739,16.375-6.739,16.375Z" transform="translate(-408.381 -361.847)" fill="#539da5"/>
            <line id="Line_105" data-name="Line 105" y1="1.254" x2="2.172" transform="translate(0 21.607)" fill="none" stroke="#7cc6d3" stroke-linecap="round" stroke-linejoin="round" stroke-width="1"/>
            <line id="Line_106" data-name="Line 106" x2="2.393" y2="0.751" transform="translate(5.859 15.162)" fill="none" stroke="#7cc6d3" stroke-linecap="round" stroke-linejoin="round" stroke-width="1"/>
            <line id="Line_107" data-name="Line 107" y1="1.453" x2="2.044" transform="translate(22.711 9.799)" fill="none" stroke="#7cc6d3" stroke-linecap="round" stroke-linejoin="round" stroke-width="1"/>
            <line id="Line_108" data-name="Line 108" y1="1.238" x2="2.181" transform="translate(16.073 13.792)" fill="none" stroke="#7cc6d3" stroke-linecap="round" stroke-linejoin="round" stroke-width="1"/>
            <line id="Line_109" data-name="Line 109" y1="2.094" x2="1.38" transform="translate(22.021 2.477)" fill="none" stroke="#7cc6d3" stroke-linecap="round" stroke-linejoin="round" stroke-width="1"/>
            <line id="Line_110" data-name="Line 110" y1="1.481" x2="2.024" transform="translate(29.291 11.569)" fill="none" stroke="#7cc6d3" stroke-linecap="round" stroke-linejoin="round" stroke-width="1"/>
            <line id="Line_111" data-name="Line 111" y1="2.477" x2="0.392" transform="translate(34.511 13.172)" fill="none" stroke="#7cc6d3" stroke-linecap="round" stroke-linejoin="round" stroke-width="1"/>
            <line id="Line_112" data-name="Line 112" x1="2.452" y1="0.527" transform="translate(22.209 25.801)" fill="none" stroke="#7cc6d3" stroke-linecap="round" stroke-linejoin="round" stroke-width="1"/>
            <line id="Line_113" data-name="Line 113" x1="1.762" y1="1.784" transform="translate(26.413 17.309)" fill="none" stroke="#7cc6d3" stroke-linecap="round" stroke-linejoin="round" stroke-width="1"/>
            <line id="Line_114" data-name="Line 114" x1="1.762" y1="1.784" transform="translate(31.676 22.522)" fill="none" stroke="#7cc6d3" stroke-linecap="round" stroke-linejoin="round" stroke-width="1"/>
            <line id="Line_115" data-name="Line 115" x1="2.48" y1="0.373" transform="translate(37.94 29.819)" fill="none" stroke="#7cc6d3" stroke-linecap="round" stroke-linejoin="round" stroke-width="1"/>
            <line id="Line_116" data-name="Line 116" y1="1.927" x2="1.605" transform="translate(28.488 28.176)" fill="none" stroke="#7cc6d3" stroke-linecap="round" stroke-linejoin="round" stroke-width="1"/>
            <line id="Line_117" data-name="Line 117" y1="1.344" x2="2.117" transform="translate(38.122 19.768)" fill="none" stroke="#7cc6d3" stroke-linecap="round" stroke-linejoin="round" stroke-width="1"/>
            <line id="Line_118" data-name="Line 118" x2="2.412" y2="0.685" transform="translate(42.841 23.071)" fill="none" stroke="#7cc6d3" stroke-linecap="round" stroke-linejoin="round" stroke-width="1"/>
            <line id="Line_119" data-name="Line 119" y1="1.344" x2="2.117" transform="translate(39.815 15.241)" fill="none" stroke="#7cc6d3" stroke-linecap="round" stroke-linejoin="round" stroke-width="1"/>
            <line id="Line_120" data-name="Line 120" x2="1.575" y2="1.951" transform="translate(34.903 31.341)" fill="none" stroke="#7cc6d3" stroke-linecap="round" stroke-linejoin="round" stroke-width="1"/>
            <line id="Line_121" data-name="Line 121" x2="1.575" y2="1.951" transform="translate(30.527 34.135)" fill="none" stroke="#7cc6d3" stroke-linecap="round" stroke-linejoin="round" stroke-width="1"/>
            <line id="Line_122" data-name="Line 122" x1="2.29" y2="1.022" transform="translate(23.61 34.6)" fill="none" stroke="#7cc6d3" stroke-linecap="round" stroke-linejoin="round" stroke-width="1"/>
            <line id="Line_123" data-name="Line 123" x2="2.156" y2="1.282" transform="translate(40.541 24.736)" fill="none" stroke="#7cc6d3" stroke-linecap="round" stroke-linejoin="round" stroke-width="1"/>
            <line id="Line_124" data-name="Line 124" x2="2.013" y2="1.496" transform="translate(19.836 18.201)" fill="none" stroke="#7cc6d3" stroke-linecap="round" stroke-linejoin="round" stroke-width="1"/>
            <line id="Line_125" data-name="Line 125" x1="1.863" y2="1.679" transform="translate(6.014 29.167)" fill="none" stroke="#7cc6d3" stroke-linecap="round" stroke-linejoin="round" stroke-width="1"/>
            <line id="Line_126" data-name="Line 126" x2="2.455" y2="0.514" transform="translate(18.609 30.006)" fill="none" stroke="#7cc6d3" stroke-linecap="round" stroke-linejoin="round" stroke-width="1"/>
            <line id="Line_127" data-name="Line 127" x1="1.081" y2="2.263" transform="translate(11.774 23.114)" fill="none" stroke="#7cc6d3" stroke-linecap="round" stroke-linejoin="round" stroke-width="1"/>
            <line id="Line_128" data-name="Line 128" x1="0.109" y2="2.505" transform="translate(13.472 32.316)" fill="none" stroke="#7cc6d3" stroke-linecap="round" stroke-linejoin="round" stroke-width="1"/>
            <line id="Line_129" data-name="Line 129" x2="1.345" y2="2.117" transform="translate(12.182 4.49)" fill="none" stroke="#7cc6d3" stroke-linecap="round" stroke-linejoin="round" stroke-width="1"/>
            <line id="Line_130" data-name="Line 130" x2="0.363" y2="2.481" transform="translate(14.295)" fill="none" stroke="#7cc6d3" stroke-linecap="round" stroke-linejoin="round" stroke-width="1"/>
            <line id="Line_131" data-name="Line 131" x2="2.067" y2="1.421" transform="translate(3.041 6.955)" fill="none" stroke="#7cc6d3" stroke-linecap="round" stroke-linejoin="round" stroke-width="1"/>
          </g>
        </g>
        <g id="Group_1143908" data-name="Group 1143908" transform="translate(25.481 57.763)">
          <rect id="Rectangle_405622" data-name="Rectangle 405622" width="96.867" height="70.321" fill="#fff"/>
          <g id="Group_1143905" data-name="Group 1143905">
            <g id="Group_1143904" data-name="Group 1143904" clip-path="url(#clip-path-2)">
              <g id="Group_1143903" data-name="Group 1143903" transform="translate(16.234 11.028)">
                <g id="Group_1143894" data-name="Group 1143894" transform="translate(47.525 47.643)">
                  <path id="Path_905851" data-name="Path 905851" d="M150.342,178.945c2.633,3.179,8.865,21.575,8.865,21.575l-5.414-1.984s-13.684-22.415-11.141-23.2S147.71,175.767,150.342,178.945Z" transform="translate(-142.336 -175.111)" fill="#eac096"/>
                </g>
                <path id="Path_905852" data-name="Path 905852" d="M96.422,176.32c.4-.749,14.4-2.064,14.4-2.064s5.515,3.356,12.6-1.175c0,0,.73-.889,6.366,2.043,2.732,1.421,4.964,17.277,5.2,20.326.238,3.14,4.441,29.575,4.205,40.225-5.426,3.078-40.687-1.446-40.687-1.446s-.364-27.075,1.971-44.641c.033-.246-1.115-.142-1.305-.452C97.844,186.985,95.619,178.206,96.422,176.32Z" transform="translate(-77.62 -126.664)" fill="#88d9e2"/>
                <path id="Path_905853" data-name="Path 905853" d="M154.5,181.088a46.243,46.243,0,0,1,3.2,6.581l.779,2.424-6.667,1.3-3.376-15.5A14.626,14.626,0,0,1,154.5,181.088Z" transform="translate(-97.089 -127.76)" fill="#88d9e2"/>
                <path id="Path_905854" data-name="Path 905854" d="M156.452,189.058l.954,6.738h-.661Z" transform="translate(-100.077 -132.671)" fill="#070707" opacity="0.07"/>
                <g id="Group_1143895" data-name="Group 1143895" transform="translate(0 20.65)">
                  <path id="Path_905855" data-name="Path 905855" d="M69.565,132.083a.688.688,0,0,1,.82.439,31.237,31.237,0,0,1,1.205,4.066l.039-.122a23.809,23.809,0,0,1-.246-3.667.571.571,0,0,1,1.124.088c.219.838.655,2.688,1.008,4.134l.35.781a.491.491,0,0,0,.269-.174c.514-.535,1.493-1.389,1.97-.851.3.769-.458.958-1.169,2.513a1.846,1.846,0,0,0-.053.777c.7,3.91,5.005,22.631,5.005,22.631a30.508,30.508,0,0,1,6.888-.413,23.975,23.975,0,0,1,2.27,9.845c-1.805.32-11.473.813-15.025-1.868-2.211-1.668-3.965-22.771-4.038-27.059a10.936,10.936,0,0,0-1.214-2.764,27.978,27.978,0,0,1-2.162-4.584c-.218-.695.1-1.145.725-.816.49.255,1.668,2.835,1.668,2.835s-.9-3.2-.982-3.7.006-1.088.382-1.206c.567-.053,1.266,1.918,1.661,3.211-.259-.93-.616-2.27-.819-3.29A.694.694,0,0,1,69.565,132.083Z" transform="translate(-66.535 -132.058)" fill="#a4755f"/>
                  <path id="Path_905856" data-name="Path 905856" d="M97.8,179.51s-1.2-1.785-1.471-1.156a2.918,2.918,0,0,0-.263,1.129Z" transform="translate(-77.55 -149.278)" fill="#74cace"/>
                  <path id="Path_905857" data-name="Path 905857" d="M101.361,195.958s-1.108.057-1.841.187a3.339,3.339,0,0,0,.421,1.275C101.142,198.621,101.294,196.94,101.361,195.958Z" transform="translate(-78.84 -155.895)" fill="#97c697"/>
                </g>
                <g id="Group_1143902" data-name="Group 1143902" transform="translate(6.123)">
                  <path id="Path_905858" data-name="Path 905858" d="M120.713,169.488s-.667,2.052-1.221,3.475c0,0,6.724,3.857,12.6-1.175a3.62,3.62,0,0,1-.867-2.093Z" transform="translate(-92.413 -125.371)" fill="#a4755f"/>
                  <g id="Group_1143900" data-name="Group 1143900">
                    <path id="Path_905859" data-name="Path 905859" d="M112.857,113.654a28.814,28.814,0,0,0-7.032,2.87c-3.693,2.128-7.57,5.6-8.12,10.944a22.889,22.889,0,0,0,.73,8.783c1.944,6.636,7.155,11.817,15.477,13.431,5.873,1.139,12.245.367,17-3.085s7.631-10.814,6.491-16.969-3.948-9.433-8.3-12.3S119.126,113.234,112.857,113.654Z" transform="translate(-84.236 -104.513)" fill="#a4755f"/>
                    <g id="Group_1143896" data-name="Group 1143896" transform="translate(37.502 26.212)">
                      <path id="Path_905860" data-name="Path 905860" d="M136.512,146.149a.4.4,0,0,1-.029-.8,4.991,4.991,0,0,0,.727-.11c.342-.1.56-.243.614-.412s-.051-.461-.3-.769a4.909,4.909,0,0,1-.725-2.746.4.4,0,0,1,.8.022,4.065,4.065,0,0,0,.549,2.224,1.6,1.6,0,0,1,.436,1.512,1.505,1.505,0,0,1-1.157.936,5.644,5.644,0,0,1-.878.138Z" transform="translate(-136.117 -140.929)" fill="#865b49"/>
                    </g>
                    <g id="Group_1143897" data-name="Group 1143897" transform="translate(7.635 0.939)">
                      <path id="Path_905861" data-name="Path 905861" d="M135.12,117.226a5.15,5.15,0,0,0,.028-4.739c-1.539-1.557-3.731-.754-3.315-1.476a4.691,4.691,0,0,0-.243-4.13c-1.349-1.656-3.473-1.32-4.944-1.329.008-1.241.094-2.606-1.776-3.321-1.762-.674-3.566.477-4.644,1.542.012-2.017-3.807-5.59-7.119-.682-.74-1.327-6.776-4.7-9.613,2a7.572,7.572,0,0,0-8.7,2.154,6.182,6.182,0,0,0-1.264,3.983c-2.926-.017-6.237,5.229-3.915,8.354,1.013,1.363.692.168-.776,2.8-.959,1.719.125,4.68,1.554,5.753a5.445,5.445,0,0,0,3.691,6.579,2.235,2.235,0,0,0,.633,2.671,4.073,4.073,0,0,0,2.791.812,3.01,3.01,0,0,0,1.922-.619c1.029-.91.782-2.562.337-3.861a2.444,2.444,0,0,0,1.408-1.956,4.956,4.956,0,0,0-.4-2.465c-.165-.428-1.359-.942.481-2.018a2.439,2.439,0,0,0,.723-2.856,2.628,2.628,0,0,0-.752-1.086c.1-.044.177-.078.221-.1a2.928,2.928,0,0,1,1.161-.163,3.049,3.049,0,0,0,2.735-2.782,1.861,1.861,0,0,1,.218-1.1,1.218,1.218,0,0,1,1.151-.374c3.438.657,5.675.192,7.117-2.873.376,1.434,3.194,2.436,4.665,2.258a4.421,4.421,0,0,0,3.169-3.7c.745,1.359,2.227,5.119,6.172,2.209,3.38,4.584,6.733,9.969,4.2,19.655,2.258-1.982,5-7.059,4.395-10.129C139.669,120.253,135.12,117.226,135.12,117.226Z" transform="translate(-88.478 -100.619)" fill="#4e4449"/>
                    </g>
                    <path id="Path_905862" data-name="Path 905862" d="M111.411,150.208a4.189,4.189,0,1,0,4.213-4.165A4.189,4.189,0,0,0,111.411,150.208Z" transform="translate(-89.398 -116.625)" fill="#0d0d0d" opacity="0.07"/>
                    <path id="Path_905863" data-name="Path 905863" d="M155.565,150.994c-.056.223-.327.165-.564.163a4.189,4.189,0,1,1,.048-8.378,3.873,3.873,0,0,1,.94.127A21.272,21.272,0,0,1,155.565,150.994Z" transform="translate(-104.105 -115.407)" fill="#0d0d0d" opacity="0.07"/>
                    <g id="Group_1143898" data-name="Group 1143898" transform="translate(28.122 25.118)">
                      <path id="Path_905864" data-name="Path 905864" d="M123.325,143.033c.065.845-.367,1.567-.965,1.613s-1.135-.6-1.2-1.446.367-1.567.965-1.613S123.26,142.188,123.325,143.033Z" transform="translate(-121.155 -140.079)" fill="#443b41"/>
                      <path id="Path_905865" data-name="Path 905865" d="M149.462,140.634c.065.845-.367,1.567-.965,1.613s-1.135-.6-1.2-1.447.367-1.567.965-1.613S149.4,139.789,149.462,140.634Z" transform="translate(-130.905 -139.184)" fill="#443b41"/>
                    </g>
                    <path id="Path_905866" data-name="Path 905866" d="M133.27,171.241a21.79,21.79,0,0,1-8.917-.145c.54.316,2.783,1.523,9.083.567Z" transform="translate(-94.226 -125.97)" fill="#0d0d0d" opacity="0.07"/>
                    <path id="Path_905867" data-name="Path 905867" d="M133.372,151.824a6.034,6.034,0,0,0,2.411,1.011c1.244.154,2.417-.155,2.806-.828,0,0,.435,2.629-1.342,3.38a2.8,2.8,0,0,1-3.273-.8A3.783,3.783,0,0,1,133.372,151.824Z" transform="translate(-97.572 -118.781)" fill="#f7f5ec"/>
                    <path id="Path_905868" data-name="Path 905868" d="M91.618,102.741s-.472-4.006-5.022-3.589c-3.753.344-4.251,3.744-3.129,5.331,0,0-5.236-1.633-6.681,3.579-1.152,4.157,3.366,4.881,3.366,4.881s-5.008,1.309-3.6,5.6c2.056,6.29,7.88,1.994,7.88,1.994s-1.206,5.517,4.465,4.162,10.668-14.565,10.668-14.565l-.613-5.605S95.359,97.923,91.618,102.741Z" transform="translate(-76.301 -99.121)" fill="#4e4449"/>
                    <g id="Group_1143899" data-name="Group 1143899" transform="translate(7.165 4.874)">
                      <path id="Path_905869" data-name="Path 905869" d="M88.267,124.5a.537.537,0,0,0,.535-.505,17.925,17.925,0,0,1,14.525-16.033.537.537,0,1,0-.228-1.049c-14.4,3.117-15.362,16.881-15.37,17.02a.538.538,0,0,0,.5.567Z" transform="translate(-87.73 -106.895)" fill="#88d9e2"/>
                    </g>
                  </g>
                  <g id="Group_1143901" data-name="Group 1143901" transform="translate(17.534 19.521)">
                    <path id="Path_905870" data-name="Path 905870" d="M123.775,139.375a5.852,5.852,0,1,1-5.231-6.412A5.851,5.851,0,0,1,123.775,139.375Z" transform="translate(-107.189 -131.255)" fill="none" stroke="#fff" stroke-miterlimit="10" stroke-width="1.501"/>
                    <path id="Path_905871" data-name="Path 905871" d="M152.944,136.7a5.852,5.852,0,1,1-5.231-6.413A5.852,5.852,0,0,1,152.944,136.7Z" transform="translate(-118.07 -130.257)" fill="none" stroke="#fff" stroke-miterlimit="10" stroke-width="1.501"/>
                    <path id="Path_905872" data-name="Path 905872" d="M130.721,141.611s2.588-5.129,6.711-1.206" transform="translate(-114.135 -133.491)" fill="none" stroke="#fff" stroke-miterlimit="10" stroke-width="1.501"/>
                    <line id="Line_132" data-name="Line 132" x1="4.659" y2="0.945" transform="translate(0 8.347)" fill="none" stroke="#fff" stroke-linecap="round" stroke-linejoin="round" stroke-width="1.501"/>
                  </g>
                </g>
              </g>
            </g>
            <rect id="Rectangle_405624" data-name="Rectangle 405624" width="96.867" height="70.321" fill="none" stroke="#c9d2f9" stroke-linecap="round" stroke-linejoin="round" stroke-width="6.463"/>
          </g>
          <g id="Group_1143907" data-name="Group 1143907" transform="translate(2.014 2.018)">
            <rect id="Rectangle_405625" data-name="Rectangle 405625" width="92.837" height="3.377" fill="#2d2429"/>
            <g id="Group_1143906" data-name="Group 1143906" transform="translate(1.337 0.612)">
              <path id="Path_905873" data-name="Path 905873" d="M48,86.733a1.007,1.007,0,1,1-1.006-1.006A1.006,1.006,0,0,1,48,86.733Z" transform="translate(-45.985 -85.727)" fill="#d3675e"/>
              <path id="Path_905874" data-name="Path 905874" d="M53.077,86.733a1.007,1.007,0,1,1-1.007-1.006A1.006,1.006,0,0,1,53.077,86.733Z" transform="translate(-47.88 -85.727)" fill="#ebbf54"/>
              <path id="Path_905875" data-name="Path 905875" d="M58.155,86.733a1.007,1.007,0,1,1-1.006-1.006A1.006,1.006,0,0,1,58.155,86.733Z" transform="translate(-49.774 -85.727)" fill="#abdbac"/>
            </g>
          </g>
        </g>
        <g id="Group_1143916" data-name="Group 1143916" transform="translate(122.347 31.643)">
          <g id="Group_1143911" data-name="Group 1143911">
            <g id="Group_1143910" data-name="Group 1143910">
              <g id="Group_1143909" data-name="Group 1143909">
                <path id="Path_905876" data-name="Path 905876" d="M206.729,42.433a14.046,14.046,0,0,0-1.471-19.7,17.48,17.48,0,0,0-23.1,0,14.1,14.1,0,0,0,0,21.236,17.075,17.075,0,0,0,11.552,4.362,17.609,17.609,0,0,0,7.8-1.8l5.707,2.137a.786.786,0,0,0,1.031-.952Zm-5.411,1.91a.747.747,0,0,0-.608.038,15.178,15.178,0,0,1-7.005,1.693c-7.745,0-14.046-5.707-14.046-12.722s6.3-12.722,14.046-12.722,14.046,5.707,14.046,12.722a11.861,11.861,0,0,1-3.075,7.941.747.747,0,0,0-.158.7l1.136,3.975Z" transform="translate(-177.33 -18.372)" fill="#88d9e2"/>
              </g>
            </g>
          </g>
          <g id="Group_1143915" data-name="Group 1143915" transform="translate(34.845 16.097)">
            <g id="Group_1143914" data-name="Group 1143914">
              <g id="Group_1143913" data-name="Group 1143913">
                <g id="Group_1143912" data-name="Group 1143912">
                  <path id="Path_905877" data-name="Path 905877" d="M234.316,66.491a.6.6,0,0,0,.789.729l4.366-1.634a13.472,13.472,0,0,0,5.963,1.379,13.062,13.062,0,0,0,8.837-3.337,10.786,10.786,0,0,0,0-16.245,13.37,13.37,0,0,0-17.674,0,10.743,10.743,0,0,0-1.126,15.068Z" transform="translate(-232.907 -44.046)" fill="#465c85"/>
                </g>
              </g>
            </g>
          </g>
        </g>
        <g id="Group_1143921" data-name="Group 1143921" transform="translate(32.635 110.555)">
          <g id="Group_1143918" data-name="Group 1143918" transform="translate(78.472)">
            <path id="Path_905878" data-name="Path 905878" d="M216.552,165.736h-36.5a2.841,2.841,0,0,0-2.841,2.841v22.064a2.841,2.841,0,0,0,2.841,2.841h.178v4.543l6.512-4.471-.372-.072h30.178a2.841,2.841,0,0,0,2.841-2.841V168.577A2.841,2.841,0,0,0,216.552,165.736Z" transform="translate(-177.215 -165.736)" fill="#b0bdfc"/>
            <g id="Group_1143917" data-name="Group 1143917" transform="translate(8.067 6.404)">
              <line id="Line_133" data-name="Line 133" x2="26.044" fill="none" stroke="#fff" stroke-linecap="round" stroke-linejoin="round" stroke-width="1.978"/>
              <line id="Line_134" data-name="Line 134" x2="26.044" transform="translate(0 3.77)" fill="none" stroke="#fff" stroke-linecap="round" stroke-linejoin="round" stroke-width="1.978"/>
              <line id="Line_135" data-name="Line 135" x2="26.044" transform="translate(0 7.54)" fill="none" stroke="#fff" stroke-linecap="round" stroke-linejoin="round" stroke-width="1.978"/>
              <line id="Line_136" data-name="Line 136" x2="26.044" transform="translate(0 11.31)" fill="none" stroke="#fff" stroke-linecap="round" stroke-linejoin="round" stroke-width="1.978"/>
              <line id="Line_137" data-name="Line 137" x2="15.295" transform="translate(0 15.079)" fill="none" stroke="#fff" stroke-linecap="round" stroke-linejoin="round" stroke-width="1.978"/>
            </g>
          </g>
          <g id="Group_1143920" data-name="Group 1143920" transform="translate(0 45.536)">
            <path id="Path_905879" data-name="Path 905879" d="M56.6,238.366h50.017a4.547,4.547,0,0,1,4.547,4.547v27.31a4.547,4.547,0,0,1-4.547,4.547h-.285v7.271L95.91,274.885l.6-.115H56.6a4.547,4.547,0,0,1-4.547-4.547v-27.31A4.547,4.547,0,0,1,56.6,238.366Z" transform="translate(-52.053 -238.366)" fill="#efd97a"/>
            <g id="Group_1143919" data-name="Group 1143919" transform="translate(12.484 8.72)">
              <line id="Line_138" data-name="Line 138" x2="34.142" fill="none" stroke="#fff" stroke-linecap="round" stroke-linejoin="round" stroke-width="3.166"/>
              <line id="Line_139" data-name="Line 139" x2="34.142" transform="translate(0 6.033)" fill="none" stroke="#fff" stroke-linecap="round" stroke-linejoin="round" stroke-width="3.166"/>
              <line id="Line_140" data-name="Line 140" x2="34.142" transform="translate(0 12.066)" fill="none" stroke="#fff" stroke-linecap="round" stroke-linejoin="round" stroke-width="3.166"/>
              <line id="Line_141" data-name="Line 141" x2="16.941" transform="translate(0 18.1)" fill="none" stroke="#fff" stroke-linecap="round" stroke-linejoin="round" stroke-width="3.166"/>
            </g>
          </g>
        </g>
      </g>
    </g>
  </g>
</svg>
