<svg xmlns="http://www.w3.org/2000/svg" xmlns:xlink="http://www.w3.org/1999/xlink" width="108" height="108" viewBox="0 0 108 108">
  <defs>
    <filter id="Ellipse_11513" x="0" y="0" width="108" height="108" filterUnits="userSpaceOnUse">
      <feOffset dy="3" input="SourceAlpha"/>
      <feGaussianBlur stdDeviation="3" result="blur"/>
      <feFlood flood-opacity="0.161"/>
      <feComposite operator="in" in2="blur"/>
      <feComposite in="SourceGraphic"/>
    </filter>
  </defs>
  <g id="Group_1143698" data-name="Group 1143698" transform="translate(-747 -5428.5)">
    <g id="Group_1143592" data-name="Group 1143592" transform="translate(1 4864.5)">
      <g id="Group_1143495" data-name="Group 1143495" transform="translate(559 -593)">
        <g transform="matrix(1, 0, 0, 1, 187, 1157)" filter="url(#Ellipse_11513)">
          <g id="Ellipse_11513-2" data-name="Ellipse 11513" transform="translate(9 6)" fill="#fdf2d5" stroke="#f5c038" stroke-width="3">
            <circle cx="45" cy="45" r="45" stroke="none"/>
            <circle cx="45" cy="45" r="43.5" fill="none"/>
          </g>
        </g>
      </g>
    </g>
    <g id="cpu_780528" transform="translate(762.185 5440.999)">
      <g id="Group_1143697" data-name="Group 1143697" transform="translate(1.504 1.504)">
        <circle id="Ellipse_11559" data-name="Ellipse 11559" cx="3.61" cy="3.61" r="3.61" transform="translate(33.388 4.507)" fill="#44c5bd"/>
        <circle id="Ellipse_11560" data-name="Ellipse 11560" cx="3.5" cy="3.5" r="3.5" transform="translate(66.496 8.496)" fill="#44c5bd"/>
        <circle id="Ellipse_11561" data-name="Ellipse 11561" cx="3.61" cy="3.61" r="3.61" transform="translate(62.269 33.388)" fill="#44c5bd"/>
        <circle id="Ellipse_11562" data-name="Ellipse 11562" cx="3.5" cy="3.5" r="3.5" transform="translate(58.496 66.496)" fill="#44c5bd"/>
        <circle id="Ellipse_11563" data-name="Ellipse 11563" cx="3.61" cy="3.61" r="3.61" transform="translate(33.388 62.269)" fill="#44c5bd"/>
        <circle id="Ellipse_11564" data-name="Ellipse 11564" cx="3.5" cy="3.5" r="3.5" transform="translate(0.496 58.496)" fill="#44c5bd"/>
        <circle id="Ellipse_11565" data-name="Ellipse 11565" cx="3.61" cy="3.61" r="3.61" transform="translate(4.507 33.388)" fill="#44c5bd"/>
        <circle id="Ellipse_11566" data-name="Ellipse 11566" cx="3.5" cy="3.5" r="3.5" transform="translate(8.496 0.496)" fill="#44c5bd"/>
      </g>
      <rect id="Rectangle_405563" data-name="Rectangle 405563" width="27" height="27" transform="translate(25 25)" fill="#ffb954"/>
      <rect id="Rectangle_405564" data-name="Rectangle 405564" width="11" height="11" transform="translate(33 33)" fill="#fff"/>
      <path id="Path_905283" data-name="Path 905283" d="M211.5,223.836h10.829a1.5,1.5,0,0,0,1.5-1.5V211.5a1.5,1.5,0,0,0-1.5-1.5H211.5a1.5,1.5,0,0,0-1.5,1.5v10.829A1.5,1.5,0,0,0,211.5,223.836Zm1.5-10.829h7.821v7.821h-7.821Z" transform="translate(-178.417 -178.417)"/>
      <path id="Path_905284" data-name="Path 905284" d="M449.113,54a5.113,5.113,0,1,0,5.113,5.113A5.119,5.119,0,0,0,449.113,54Zm0,7.219a2.106,2.106,0,1,1,2.106-2.106A2.108,2.108,0,0,1,449.113,61.219Z" transform="translate(-377.224 -45.879)"/>
      <path id="Path_905285" data-name="Path 905285" d="M411.024,80.978a1.5,1.5,0,1,0-1.065-.441A1.515,1.515,0,0,0,411.024,80.978Z" transform="translate(-347.93 -66.244)"/>
      <path id="Path_905286" data-name="Path 905286" d="M92.844,33.388A5.122,5.122,0,0,0,87.957,37H78.7V25.267a1.5,1.5,0,0,0-1.5-1.5H74.792V14.734h8.425a1.5,1.5,0,0,0,0-3.008H73.288a1.5,1.5,0,0,0-1.5,1.5V23.763H65.467V14.508a5.113,5.113,0,1,0-3.008,0v9.254H50.728a1.5,1.5,0,0,0-1.5,1.5v2.406H40.2V10a5.113,5.113,0,1,0-3.008,0V29.177a1.5,1.5,0,0,0,1.5,1.5H49.224V37H39.97a5.113,5.113,0,1,0,0,3.008h9.254V51.736a1.5,1.5,0,0,0,1.5,1.5h2.406v9.028H44.709a1.5,1.5,0,1,0,0,3.008h9.929a1.5,1.5,0,0,0,1.5-1.5V53.24h6.317v9.254a5.113,5.113,0,1,0,3.008,0V53.24H77.2a1.5,1.5,0,0,0,1.5-1.5V49.33h9.028V67a5.113,5.113,0,1,0,3.008,0V47.826a1.5,1.5,0,0,0-1.5-1.5H78.7V40.005h9.254a5.114,5.114,0,1,0,4.887-6.617ZM63.963,7.515a2.106,2.106,0,1,1-2.106,2.106A2.108,2.108,0,0,1,63.963,7.515ZM38.7,3.008a2.106,2.106,0,1,1-2.106,2.106A2.108,2.108,0,0,1,38.7,3.008Zm-3.614,37.6A2.106,2.106,0,1,1,37.188,38.5,2.108,2.108,0,0,1,35.082,40.607ZM63.963,69.488a2.106,2.106,0,1,1,2.106-2.106A2.108,2.108,0,0,1,63.963,69.488ZM89.23,74a2.106,2.106,0,1,1,2.106-2.106A2.108,2.108,0,0,1,89.23,74ZM75.694,50.232H52.232V26.771H75.694Zm17.15-9.625A2.106,2.106,0,1,1,94.95,38.5,2.108,2.108,0,0,1,92.844,40.607Z" transform="translate(-25.462)"/>
      <path id="Path_905287" data-name="Path 905287" d="M5.113,390a5.113,5.113,0,1,0,5.113,5.113A5.119,5.119,0,0,0,5.113,390Zm0,7.219a2.106,2.106,0,1,1,2.106-2.106A2.108,2.108,0,0,1,5.113,397.219Z" transform="translate(0 -331.345)"/>
      <path id="Path_905288" data-name="Path 905288" d="M84,414.03a1.5,1.5,0,1,0,1.063.441A1.515,1.515,0,0,0,84,414.03Z" transform="translate(-70.092 -351.761)"/>
    </g>
  </g>
</svg>
