<svg xmlns="http://www.w3.org/2000/svg" xmlns:xlink="http://www.w3.org/1999/xlink" width="432.232" height="273.864" viewBox="0 0 432.232 273.864">
  <defs>
    <clipPath id="clip-path">
      <rect id="top-view-little-kid-playing-with-rubics-cube-yellow-surface" width="432.232" height="273.864" rx="10" transform="translate(2175.768 1197.068)" fill="#0b0a0a" opacity="0.42"/>
    </clipPath>
  </defs>
  <g id="Mask_Group_1098698" data-name="Mask Group 1098698" transform="translate(-2175.768 -1197.068)" clip-path="url(#clip-path)">
    <g id="Group_1143858" data-name="Group 1143858" transform="translate(7 -10)">
      <path id="Path_905644" data-name="Path 905644" d="M0,0H432V432H0Z" transform="translate(2169 1157)" fill="#fcfcfd"/>
      <g id="Group_1143857" data-name="Group 1143857" transform="translate(-368.043 361)">
        <g id="Group_1143856" data-name="Group 1143856" transform="translate(2554 851.005)">
          <g id="Group_1143855" data-name="Group 1143855" transform="translate(0 0)">
            <g id="Group_1143854" data-name="Group 1143854" transform="translate(0)">
              <g id="Group_1143853" data-name="Group 1143853" transform="translate(0)">
                <g id="Group_1143762" data-name="Group 1143762" transform="translate(0 190.309)">
                  <g id="Group_1143760" data-name="Group 1143760" transform="translate(0 16.114)">
                    <path id="Path_905479" data-name="Path 905479" d="M214.456,1416.481v4.427l71.087-3.159,23.4-16.346v-18.648L286.434,1398.1l-71.978.446Z" transform="translate(-214.456 -1382.754)" fill="#2c4e69"/>
                    <path id="Path_905480" data-name="Path 905480" d="M214.456,1398.547h71.178l23.311-15.793-74.381,2.409Z" transform="translate(-214.456 -1382.754)" fill="#3f8a7e"/>
                    <path id="Path_905481" data-name="Path 905481" d="M316.88,1395.117l12.365-10.237-59.876,1.939-10.23,6.809Z" transform="translate(-249.261 -1384.41)" fill="#4aaf8b"/>
                    <path id="Path_905482" data-name="Path 905482" d="M221.432,1413.977v15.079l69.754-2.319,21.946-16.417V1398.9l-21.946,15.079Z" transform="translate(-219.89 -1395.329)" fill="#dbd9e7"/>
                    <path id="Path_905483" data-name="Path 905483" d="M221.432,1478.26l65.128-4.283v-6.442l-65.128-.429Z" transform="translate(-219.89 -1448.459)" fill="#fff"/>
                    <path id="Path_905484" data-name="Path 905484" d="M542.76,1417.979v7.572l18.649-12.135v-8.25Z" transform="translate(-470.182 -1400.212)" fill="#fff"/>
                  </g>
                  <g id="Group_1143761" data-name="Group 1143761" transform="translate(3.565)">
                    <path id="Path_905485" data-name="Path 905485" d="M230.581,1337.725v3.657l58.459-2.61,19.244-13.5v-15.405l-18.512,12.678-59.191.369Z" transform="translate(-230.581 -1309.863)" fill="#b7256b"/>
                    <path id="Path_905486" data-name="Path 905486" d="M230.581,1322.91h58.533l19.17-13.047-61.167,1.99Z" transform="translate(-230.581 -1309.863)" fill="#d83273"/>
                    <path id="Path_905487" data-name="Path 905487" d="M314.809,1320.076l10.168-8.457-49.239,1.6-8.412,5.625Z" transform="translate(-259.203 -1311.231)" fill="#fb5d82"/>
                    <path id="Path_905488" data-name="Path 905488" d="M236.318,1335.657v12.457l57.362-1.916,18.048-13.563V1323.2l-18.048,12.457Z" transform="translate(-235.049 -1320.252)" fill="#dbd9e7"/>
                    <path id="Path_905489" data-name="Path 905489" d="M236.318,1388.762l53.558-3.538V1379.9l-53.558-.354Z" transform="translate(-235.049 -1364.143)" fill="#fff"/>
                    <path id="Path_905490" data-name="Path 905490" d="M500.56,1338.963v6.256l15.335-10.025v-6.816Z" transform="translate(-440.876 -1324.285)" fill="#fff"/>
                  </g>
                </g>
                <g id="Group_1143768" data-name="Group 1143768" transform="translate(28.663 161.109)">
                  <g id="Group_1143766" data-name="Group 1143766" transform="translate(0 10.283)">
                    <g id="Group_1143765" data-name="Group 1143765" transform="translate(25.304 6.179)">
                      <g id="Group_1143764" data-name="Group 1143764">
                        <path id="Path_905491" data-name="Path 905491" d="M470.861,1287.424c0-.025.007-.05.011-.075C470.868,1287.374,470.864,1287.4,470.861,1287.424Z" transform="translate(-468.145 -1279.587)" fill="#e91a24"/>
                        <path id="Path_905492" data-name="Path 905492" d="M469.969,1292.765v0Z" transform="translate(-467.45 -1283.803)" fill="#e91a24"/>
                        <path id="Path_905493" data-name="Path 905493" d="M471.152,1284.717c0-.037.008-.074.012-.111C471.16,1284.643,471.156,1284.68,471.152,1284.717Z" transform="translate(-468.372 -1277.45)" fill="#e91a24"/>
                        <path id="Path_905494" data-name="Path 905494" d="M470.468,1290.107c0-.012,0-.024.007-.036C470.473,1290.083,470.47,1290.095,470.468,1290.107Z" transform="translate(-467.839 -1281.707)" fill="#e91a24"/>
                        <path id="Path_905495" data-name="Path 905495" d="M471.344,1281.982c0-.045.006-.088.008-.133C471.35,1281.894,471.346,1281.938,471.344,1281.982Z" transform="translate(-468.521 -1275.303)" fill="#e91a24"/>
                        <g id="Group_1143763" data-name="Group 1143763">
                          <path id="Path_905496" data-name="Path 905496" d="M468.823,1253.335c-2.847-2.766-7.4.569-7.4.569v3.742a12.566,12.566,0,0,1,3.579-2.522c1.627-.569,5.532,1.272,2.685,6.072a4.692,4.692,0,0,1-7.076,1.713h0a14.159,14.159,0,0,1-2.032,3.789h0c.9.265,2.844-1.079,3.657-.916a11.6,11.6,0,0,0,6.1-1.383C471.182,1263.016,471.671,1256.1,468.823,1253.335Z" transform="translate(-458.576 -1252.237)" fill="#aab2e8"/>
                        </g>
                        <path id="Path_905497" data-name="Path 905497" d="M471.2,1282.928c.013-.158.023-.317.031-.476C471.227,1282.611,471.217,1282.77,471.2,1282.928Z" transform="translate(-468.412 -1275.772)" fill="#e91a24"/>
                        <path id="Path_905498" data-name="Path 905498" d="M467.768,1294.486h0a14.032,14.032,0,0,0,.487-1.709A14.122,14.122,0,0,1,467.768,1294.486Z" transform="translate(-465.736 -1283.815)" fill="#e91a24"/>
                        <path id="Path_905499" data-name="Path 905499" d="M469.973,1290.794q.06-.277.109-.559C470.049,1290.423,470.013,1290.609,469.973,1290.794Z" transform="translate(-467.453 -1281.835)" fill="#e91a24"/>
                        <path id="Path_905500" data-name="Path 905500" d="M470.91,1285.6c.021-.164.038-.33.053-.5C470.948,1285.274,470.931,1285.439,470.91,1285.6Z" transform="translate(-468.183 -1277.841)" fill="#e91a24"/>
                        <path id="Path_905501" data-name="Path 905501" d="M471.382,1279.7q.013-.3.013-.611Q471.4,1279.393,471.382,1279.7Z" transform="translate(-468.551 -1273.151)" fill="#e91a24"/>
                        <path id="Path_905502" data-name="Path 905502" d="M470.5,1288.214c.03-.175.057-.351.08-.527C470.554,1287.863,470.528,1288.039,470.5,1288.214Z" transform="translate(-467.862 -1279.849)" fill="#e91a24"/>
                      </g>
                    </g>
                    <path id="Rectangle_405602" data-name="Rectangle 405602" d="M0,0H28.4a0,0,0,0,1,0,0V8.663a14.2,14.2,0,0,1-14.2,14.2h0A14.2,14.2,0,0,1,0,8.663V0A0,0,0,0,1,0,0Z" transform="translate(0.076 3.451)" fill="#aab2e8"/>
                    <path id="Path_905503" data-name="Path 905503" d="M382.866,1239.9H357.35c-.3,1.169,1.172.931,1.172,1.5,0,2.238,16.29,6.966,20.032,5.99s.325,6.346-4.393,10.576-14.205,1.809-14.205,1.809a14.132,14.132,0,0,0,8.712,2.991h0a14.2,14.2,0,0,0,14.2-14.2Z" transform="translate(-354.392 -1236.446)" fill="#231f20" opacity="0.05"/>
                    <ellipse id="Ellipse_11575" data-name="Ellipse 11575" cx="14.237" cy="3.251" rx="14.237" ry="3.251" fill="#7f9ce5"/>
                    <ellipse id="Ellipse_11576" data-name="Ellipse 11576" cx="11.782" cy="2.137" rx="11.782" ry="2.137" transform="translate(2.455 0.672)" fill="#192b4f"/>
                    <path id="Path_905504" data-name="Path 905504" d="M367,1228.09c5.789,0,10.6.758,11.591,1.756a.555.555,0,0,0,.191-.382c0-1.181-5.275-2.138-11.782-2.138s-11.782.957-11.782,2.138a.554.554,0,0,0,.191.382C356.4,1228.848,361.211,1228.09,367,1228.09Z" transform="translate(-352.763 -1226.655)" fill="#aab2e8"/>
                  </g>
                  <g id="Group_1143767" data-name="Group 1143767" transform="translate(5.78)">
                    <path id="Path_905505" data-name="Path 905505" d="M379.776,1190.264a.438.438,0,0,1-.438-.438v-2.857a.737.737,0,0,0-.8-.578l-6.716,0h0a1.538,1.538,0,0,1-1.025-.448,2.084,2.084,0,0,1-.537-1.535,1.734,1.734,0,0,1,.55-1.38,1.9,1.9,0,0,1,1.392-.4l18.13-.01a1.878,1.878,0,0,0,1.043-2,1.957,1.957,0,0,0-1.309-1.97H379a.438.438,0,0,1,0-.876l11.214.01a2.821,2.821,0,0,1,2.034,2.806,2.717,2.717,0,0,1-1.727,2.89l-.117.016-18.261.01-.031,0a1.06,1.06,0,0,0-.733.188.914.914,0,0,0-.245.715c0,1.031.579,1.1.695,1.107l6.68,0a1.631,1.631,0,0,1,1.7,1.312l.009.088v2.91A.438.438,0,0,1,379.776,1190.264Z" transform="translate(-370.259 -1177.774)" fill="#f1f0f7"/>
                  </g>
                </g>
                <g id="Group_1143774" data-name="Group 1143774" transform="translate(78.547 92.698)">
                  <path id="Rectangle_405603" data-name="Rectangle 405603" d="M12,0H199.969a9,9,0,0,1,9,9V125.76a0,0,0,0,1,0,0H0a0,0,0,0,1,0,0V12A12,12,0,0,1,12,0Z" transform="translate(25.304 0)" fill="#afc3fe"/>
                  <path id="Path_905506" data-name="Path 905506" d="M685.454,879.041a9.484,9.484,0,0,1,9.484-9.484h190a9.444,9.444,0,0,1,6.06,2.19,9.463,9.463,0,0,0-7.293-3.424h-190a9.484,9.484,0,0,0-9.484,9.484V994.083h1.233Z" transform="translate(-658.917 -868.323)" fill="#7f9ce5"/>
                  <path id="Path_905507" data-name="Path 905507" d="M569.76,1468.186H828.972l-24.79-30.232H595.088Z" transform="translate(-569.76 -1312.026)" fill="#d2ddfc"/>
                  <path id="Path_905508" data-name="Path 905508" d="M569.76,1574.708l2.425,7.491H826.278l2.694-7.491Z" transform="translate(-569.76 -1418.548)" fill="#afc3fe"/>
                  <g id="Group_1143771" data-name="Group 1143771" transform="translate(20.546 128.469)">
                    <g id="Group_1143770" data-name="Group 1143770">
                      <g id="Group_1143769" data-name="Group 1143769" transform="translate(8.177)">
                        <path id="Path_905509" data-name="Path 905509" d="M699.771,1452.594h12.7a.086.086,0,0,0,.076-.045l1.593-2.974a.085.085,0,0,0-.075-.125H702.193a.086.086,0,0,0-.067.031l-2.422,2.974A.085.085,0,0,0,699.771,1452.594Z" transform="translate(-699.685 -1449.45)" fill="#7f9ce5"/>
                      </g>
                      <path id="Path_905510" data-name="Path 905510" d="M766.224,1452.594h11.62l1.566-3.144H768.043Z" transform="translate(-743.338 -1449.45)" fill="#7f9ce5"/>
                      <path id="Path_905511" data-name="Path 905511" d="M826.235,1452.594h10.74a.375.375,0,0,0,.336-.207l1.2-2.4a.372.372,0,0,0-.336-.537H827.623a.375.375,0,0,0-.325.187l-1.388,2.4A.372.372,0,0,0,826.235,1452.594Z" transform="translate(-789.789 -1449.45)" fill="#7f9ce5"/>
                      <path id="Path_905512" data-name="Path 905512" d="M786.037,1471.2h11.079a.389.389,0,0,0,.347-.207l1.233-2.4a.373.373,0,0,0-.347-.537H787.469a.39.39,0,0,0-.335.187l-1.432,2.4A.373.373,0,0,0,786.037,1471.2Z" transform="translate(-758.469 -1463.944)" fill="#7f9ce5"/>
                      <path id="Path_905513" data-name="Path 905513" d="M805.919,1488.564H817a.388.388,0,0,0,.347-.207l1.233-2.4a.373.373,0,0,0-.347-.537h-10.88a.389.389,0,0,0-.335.187l-1.432,2.4A.372.372,0,0,0,805.919,1488.564Z" transform="translate(-773.956 -1477.469)" fill="#7f9ce5"/>
                      <path id="Path_905514" data-name="Path 905514" d="M729.977,1508.23H741.27a.4.4,0,0,0,.353-.207l1.257-2.4a.374.374,0,0,0-.354-.537h-11.09a.4.4,0,0,0-.342.187l-1.459,2.4A.373.373,0,0,0,729.977,1508.23Z" transform="translate(-714.796 -1492.787)" fill="#7f9ce5"/>
                      <path id="Path_905515" data-name="Path 905515" d="M663.092,1508.23h11.293a.4.4,0,0,0,.353-.207l1.257-2.4a.374.374,0,0,0-.354-.537h-11.09a.4.4,0,0,0-.342.187l-1.46,2.4A.373.373,0,0,0,663.092,1508.23Z" transform="translate(-662.697 -1492.787)" fill="#7f9ce5"/>
                      <path id="Path_905516" data-name="Path 905516" d="M795.344,1508.23h11.464a.4.4,0,0,0,.359-.207l1.276-2.4a.374.374,0,0,0-.359-.537H796.826a.406.406,0,0,0-.347.187l-1.482,2.4A.373.373,0,0,0,795.344,1508.23Z" transform="translate(-765.708 -1492.787)" fill="#7f9ce5"/>
                      <path id="Path_905517" data-name="Path 905517" d="M888.021,1452.594h10.945a.287.287,0,0,0,.258-.159l1.282-2.573a.286.286,0,0,0-.258-.412H889.51a.288.288,0,0,0-.249.143l-1.489,2.573A.286.286,0,0,0,888.021,1452.594Z" transform="translate(-837.985 -1449.45)" fill="#7f9ce5"/>
                      <path id="Path_905518" data-name="Path 905518" d="M950.515,1449.741l-.742,2.308a.419.419,0,0,0,.4.545H960.82a.42.42,0,0,0,.413-.339l.445-2.308a.419.419,0,0,0-.413-.5H950.917A.421.421,0,0,0,950.515,1449.741Z" transform="translate(-886.294 -1449.45)" fill="#7f9ce5"/>
                      <path id="Path_905519" data-name="Path 905519" d="M848.638,1468.349l-.8,2.308a.426.426,0,0,0,.435.545h11.55a.448.448,0,0,0,.448-.34l.483-2.307a.43.43,0,0,0-.449-.5H849.073A.454.454,0,0,0,848.638,1468.349Z" transform="translate(-806.888 -1463.944)" fill="#7f9ce5"/>
                      <path id="Path_905520" data-name="Path 905520" d="M871.491,1485.712l-.8,2.307a.426.426,0,0,0,.435.545h11.55a.448.448,0,0,0,.449-.339l.483-2.308a.43.43,0,0,0-.449-.5H871.927A.455.455,0,0,0,871.491,1485.712Z" transform="translate(-824.69 -1477.469)" fill="#7f9ce5"/>
                      <path id="Path_905521" data-name="Path 905521" d="M860.065,1505.378l-.8,2.308a.426.426,0,0,0,.435.545h11.55a.448.448,0,0,0,.449-.339l.483-2.308a.43.43,0,0,0-.449-.5H860.5A.454.454,0,0,0,860.065,1505.378Z" transform="translate(-815.789 -1492.787)" fill="#7f9ce5"/>
                      <path id="Path_905522" data-name="Path 905522" d="M1010.923,1449.825l-.582,2.129a.508.508,0,0,0,.493.64H1021.4a.51.51,0,0,0,.5-.427l.342-2.13a.508.508,0,0,0-.5-.587h-10.328A.51.51,0,0,0,1010.923,1449.825Z" transform="translate(-933.474 -1449.45)" fill="#7f9ce5"/>
                      <path id="Path_905523" data-name="Path 905523" d="M911.515,1468.432l-.609,2.13a.513.513,0,0,0,.516.64h11.064a.527.527,0,0,0,.528-.427l.358-2.13a.516.516,0,0,0-.528-.587H912.032A.531.531,0,0,0,911.515,1468.432Z" transform="translate(-856.02 -1463.944)" fill="#7f9ce5"/>
                      <path id="Path_905524" data-name="Path 905524" d="M999.29,1485.8l-.626,2.13a.517.517,0,0,0,.53.64h11.366a.537.537,0,0,0,.542-.427l.368-2.129a.521.521,0,0,0-.542-.587H999.82A.544.544,0,0,0,999.29,1485.8Z" transform="translate(-924.377 -1477.469)" fill="#7f9ce5"/>
                      <path id="Path_905525" data-name="Path 905525" d="M935.3,1485.8l-.623,2.13a.517.517,0,0,0,.528.64h11.321a.536.536,0,0,0,.54-.427l.367-2.129a.521.521,0,0,0-.54-.587H935.825A.542.542,0,0,0,935.3,1485.8Z" transform="translate(-874.533 -1477.469)" fill="#7f9ce5"/>
                      <path id="Path_905526" data-name="Path 905526" d="M1072.462,1449.893v2.257a.445.445,0,0,0,.446.443h10.93a.445.445,0,0,0,.446-.443v-2.257a.445.445,0,0,0-.446-.443h-10.93A.445.445,0,0,0,1072.462,1449.893Z" transform="translate(-981.876 -1449.45)" fill="#7f9ce5"/>
                      <path id="Path_905527" data-name="Path 905527" d="M973.963,1468.5v2.257a.45.45,0,0,0,.456.443h11.163a.45.45,0,0,0,.456-.443V1468.5a.45.45,0,0,0-.456-.443H974.419A.45.45,0,0,0,973.963,1468.5Z" transform="translate(-905.152 -1463.944)" fill="#7f9ce5"/>
                      <path id="Path_905528" data-name="Path 905528" d="M1064.006,1485.864v2.257a.453.453,0,0,0,.462.443h11.3a.452.452,0,0,0,.461-.443v-2.257a.452.452,0,0,0-.461-.443h-11.3A.453.453,0,0,0,1064.006,1485.864Z" transform="translate(-975.289 -1477.469)" fill="#7f9ce5"/>
                      <path id="Path_905529" data-name="Path 905529" d="M1133.024,1449.943v2.157a.5.5,0,0,0,.5.494H1144.1a.5.5,0,0,0,.5-.494v-2.157a.5.5,0,0,0-.5-.493h-10.576A.5.5,0,0,0,1133.024,1449.943Z" transform="translate(-1029.049 -1449.45)" fill="#7f9ce5"/>
                      <path id="Path_905530" data-name="Path 905530" d="M1192.9,1449.968v2.107a.52.52,0,0,0,.522.518h10.728a.52.52,0,0,0,.522-.518v-2.107a.52.52,0,0,0-.522-.518h-10.728A.52.52,0,0,0,1192.9,1449.968Z" transform="translate(-1075.689 -1449.45)" fill="#7f9ce5"/>
                      <path id="Path_905531" data-name="Path 905531" d="M1036.124,1468.576v2.107a.533.533,0,0,0,.547.518H1047.9a.533.533,0,0,0,.547-.518v-2.107a.533.533,0,0,0-.547-.518h-11.234A.533.533,0,0,0,1036.124,1468.576Z" transform="translate(-953.571 -1463.944)" fill="#7f9ce5"/>
                      <path id="Path_905532" data-name="Path 905532" d="M1128.148,1485.939v2.107a.533.533,0,0,0,.547.518h11.234a.533.533,0,0,0,.547-.518v-2.107a.533.533,0,0,0-.547-.518h-11.234A.533.533,0,0,0,1128.148,1485.939Z" transform="translate(-1025.251 -1477.469)" fill="#7f9ce5"/>
                      <path id="Path_905533" data-name="Path 905533" d="M1101.257,1468.576v2.107a.52.52,0,0,0,.522.518h10.727a.52.52,0,0,0,.522-.518v-2.107a.52.52,0,0,0-.522-.518h-10.727A.52.52,0,0,0,1101.257,1468.576Z" transform="translate(-1004.305 -1463.944)" fill="#7f9ce5"/>
                      <path id="Path_905534" data-name="Path 905534" d="M1192.9,1485.939v2.107a.534.534,0,0,0,.549.518h11.28a.534.534,0,0,0,.549-.518v-2.107a.534.534,0,0,0-.549-.518h-11.28A.534.534,0,0,0,1192.9,1485.939Z" transform="translate(-1075.689 -1477.469)" fill="#7f9ce5"/>
                      <path id="Path_905535" data-name="Path 905535" d="M1253.462,1450.019v2.007a.571.571,0,0,0,.573.569H1264.6a.57.57,0,0,0,.57-.623l-.193-2.007a.572.572,0,0,0-.57-.514h-10.375A.571.571,0,0,0,1253.462,1450.019Z" transform="translate(-1122.862 -1449.45)" fill="#7f9ce5"/>
                      <path id="Path_905536" data-name="Path 905536" d="M1163.419,1467.563v2.007a.57.57,0,0,0,.573.568h10.569a.57.57,0,0,0,.57-.623l-.193-2.007a.571.571,0,0,0-.57-.514h-10.376A.57.57,0,0,0,1163.419,1467.563Z" transform="translate(-1052.725 -1463.115)" fill="#7f9ce5"/>
                      <path id="Path_905537" data-name="Path 905537" d="M1255.976,1485.989V1488a.588.588,0,0,0,.6.568h11.168a.584.584,0,0,0,.6-.623l-.2-2.007a.592.592,0,0,0-.6-.514h-10.963A.588.588,0,0,0,1255.976,1485.989Z" transform="translate(-1124.82 -1477.469)" fill="#7f9ce5"/>
                      <path id="Path_905538" data-name="Path 905538" d="M1313.107,1449.986l.209,2.165a.492.492,0,0,0,.491.443h10.838a.491.491,0,0,0,.485-.574l-.383-2.165a.492.492,0,0,0-.485-.405H1313.6A.491.491,0,0,0,1313.107,1449.986Z" transform="translate(-1169.319 -1449.45)" fill="#7f9ce5"/>
                      <path id="Path_905539" data-name="Path 905539" d="M1285.893,1467.53l.214,2.165a.5.5,0,0,0,.5.443h11.108a.494.494,0,0,0,.5-.574l-.392-2.165a.5.5,0,0,0-.5-.4H1286.4A.5.5,0,0,0,1285.893,1467.53Z" transform="translate(-1148.121 -1463.115)" fill="#7f9ce5"/>
                      <path id="Path_905540" data-name="Path 905540" d="M1319.525,1485.957l.22,2.165a.509.509,0,0,0,.517.443h11.419a.5.5,0,0,0,.512-.574l-.4-2.165a.512.512,0,0,0-.512-.4h-11.236A.5.5,0,0,0,1319.525,1485.957Z" transform="translate(-1174.318 -1477.469)" fill="#7f9ce5"/>
                      <path id="Path_905541" data-name="Path 905541" d="M1329.58,1505.042l.22,2.165a.508.508,0,0,0,.517.443h11.419a.5.5,0,0,0,.511-.574l-.4-2.165a.512.512,0,0,0-.511-.405H1330.1A.5.5,0,0,0,1329.58,1505.042Z" transform="translate(-1182.151 -1492.335)" fill="#7f9ce5"/>
                      <path id="Path_905542" data-name="Path 905542" d="M1224.173,1467.53l.214,2.165a.5.5,0,0,0,.5.443H1236a.494.494,0,0,0,.5-.574l-.392-2.165a.5.5,0,0,0-.5-.4h-10.93A.5.5,0,0,0,1224.173,1467.53Z" transform="translate(-1100.046 -1463.115)" fill="#7f9ce5"/>
                      <path id="Path_905543" data-name="Path 905543" d="M1375.322,1450.351l.314,1.627a.762.762,0,0,0,.75.616h10.071a.76.76,0,0,0,.743-.935l-.393-1.627a.763.763,0,0,0-.742-.582h-9.993A.76.76,0,0,0,1375.322,1450.351Z" transform="translate(-1217.772 -1449.45)" fill="#7f9ce5"/>
                      <path id="Path_905544" data-name="Path 905544" d="M1348.378,1467.895l.314,1.627a.762.762,0,0,0,.75.615h10.072a.759.759,0,0,0,.743-.934l-.392-1.627a.762.762,0,0,0-.743-.582h-9.993A.76.76,0,0,0,1348.378,1467.895Z" transform="translate(-1196.784 -1463.115)" fill="#7f9ce5"/>
                      <path id="Path_905545" data-name="Path 905545" d="M1382.642,1486.322l.338,1.627a.808.808,0,0,0,.807.615h10.841a.775.775,0,0,0,.8-.934l-.422-1.627a.812.812,0,0,0-.8-.582H1383.45A.778.778,0,0,0,1382.642,1486.322Z" transform="translate(-1223.473 -1477.469)" fill="#7f9ce5"/>
                      <path id="Path_905546" data-name="Path 905546" d="M1395.592,1505.407l.338,1.627a.808.808,0,0,0,.807.615h10.841a.775.775,0,0,0,.8-.935l-.422-1.627a.812.812,0,0,0-.8-.582H1396.4A.778.778,0,0,0,1395.592,1505.407Z" transform="translate(-1233.56 -1492.335)" fill="#7f9ce5"/>
                      <path id="Path_905547" data-name="Path 905547" d="M1436.532,1450.142l.487,2.022a.564.564,0,0,0,.549.43h10.377a.562.562,0,0,0,.533-.747l-.715-2.022a.565.565,0,0,0-.533-.375h-10.15A.562.562,0,0,0,1436.532,1450.142Z" transform="translate(-1265.448 -1449.45)" fill="#7f9ce5"/>
                      <path id="Path_905548" data-name="Path 905548" d="M1511.264,1485.229l.534,2.022a.609.609,0,0,0,.6.43h11.365a.571.571,0,0,0,.584-.747l-.783-2.022a.617.617,0,0,0-.584-.375h-11.115A.577.577,0,0,0,1511.264,1485.229Z" transform="translate(-1323.659 -1476.78)" fill="#7f9ce5"/>
                      <path id="Path_905549" data-name="Path 905549" d="M1411.393,1467.685l.487,2.022a.564.564,0,0,0,.549.43h10.377a.561.561,0,0,0,.533-.747l-.715-2.022a.565.565,0,0,0-.533-.375h-10.15A.562.562,0,0,0,1411.393,1467.685Z" transform="translate(-1245.867 -1463.115)" fill="#7f9ce5"/>
                      <path id="Path_905550" data-name="Path 905550" d="M1447.959,1485.229l.513,2.022a.589.589,0,0,0,.579.43h10.928a.566.566,0,0,0,.561-.747l-.753-2.022a.593.593,0,0,0-.561-.375h-10.688A.57.57,0,0,0,1447.959,1485.229Z" transform="translate(-1274.349 -1476.78)" fill="#7f9ce5"/>
                      <path id="Path_905551" data-name="Path 905551" d="M1460.609,1505.2l.541,2.022a.617.617,0,0,0,.609.43h11.512a.573.573,0,0,0,.591-.747l-.793-2.022a.626.626,0,0,0-.591-.375h-11.26A.579.579,0,0,0,1460.609,1505.2Z" transform="translate(-1284.201 -1492.335)" fill="#7f9ce5"/>
                      <path id="Path_905552" data-name="Path 905552" d="M1525.513,1505.2l.862,2.022a.611.611,0,0,0,.6.43h11.066a.571.571,0,0,0,.585-.747l-.785-2.022a.62.62,0,0,0-.585-.375h-11.143A.577.577,0,0,0,1525.513,1505.2Z" transform="translate(-1334.757 -1492.335)" fill="#7f9ce5"/>
                      <path id="Path_905553" data-name="Path 905553" d="M1577.539,1486.112l.53,2.022a.605.605,0,0,0,.6.43l11.584.178a.57.57,0,0,0,.579-.747l-1.56-2.2a.613.613,0,0,0-.579-.375h-10.554A.575.575,0,0,0,1577.539,1486.112Z" transform="translate(-1375.282 -1477.469)" fill="#7f9ce5"/>
                      <path id="Path_905554" data-name="Path 905554" d="M1589.673,1505.2l1.308,2.022a.605.605,0,0,0,.6.43l11.584.178a.57.57,0,0,0,.579-.746l-1.56-2.2a.613.613,0,0,0-.579-.375H1590C1589.6,1504.506,1589.581,1504.845,1589.673,1505.2Z" transform="translate(-1384.712 -1492.335)" fill="#7f9ce5"/>
                      <path id="Path_905555" data-name="Path 905555" d="M1495.8,1450.148l.741,2.1a.528.528,0,0,0,.5.351h23.71a.524.524,0,0,0,.454-.791l-1.246-2.1a.529.529,0,0,0-.455-.258h-23.2A.525.525,0,0,0,1495.8,1450.148Z" transform="translate(-1311.606 -1449.45)" fill="#7f9ce5"/>
                      <path id="Path_905556" data-name="Path 905556" d="M1479.389,1470.055l30.221-.242a.423.423,0,0,0,.341-.672l-1.556-2.12a.428.428,0,0,0-.344-.174h-29.78a.423.423,0,0,0-.386.6l1.115,2.362A.426.426,0,0,0,1479.389,1470.055Z" transform="translate(-1297.64 -1463.001)" fill="#7f9ce5"/>
                      <path id="Path_905557" data-name="Path 905557" d="M688.191,1471.2h19.326a.215.215,0,0,0,.191-.117l1.4-2.716a.214.214,0,0,0-.191-.311H689.981a.216.216,0,0,0-.18.1l-1.79,2.716A.214.214,0,0,0,688.191,1471.2Z" transform="translate(-682.388 -1463.944)" fill="#7f9ce5"/>
                      <path id="Path_905558" data-name="Path 905558" d="M675.461,1488.5h25.358a.3.3,0,0,0,.251-.116l1.833-2.716c.1-.142-.041-.311-.252-.311l-25.029-.048a.314.314,0,0,0-.236.1l-2.162,2.765C675.1,1488.314,675.236,1488.5,675.461,1488.5Z" transform="translate(-672.419 -1477.383)" fill="#7f9ce5"/>
                      <path id="Path_905559" data-name="Path 905559" d="M926.2,1508.1l86.3.127a.319.319,0,0,0,.314-.388l-.566-2.506a.321.321,0,0,0-.313-.249H927.316a.321.321,0,0,0-.291.184l-1.116,2.379A.319.319,0,0,0,926.2,1508.1Z" transform="translate(-867.698 -1492.787)" fill="#7f9ce5"/>
                    </g>
                  </g>
                  <path id="Path_905560" data-name="Path 905560" d="M1094.339,1535.408h-47.722a1.136,1.136,0,0,1-.956-1.711l2.535-4.417a1.1,1.1,0,0,1,.957-.56H1091.8a1.1,1.1,0,0,1,.957.56l2.536,4.417A1.136,1.136,0,0,1,1094.339,1535.408Z" transform="translate(-940.333 -1382.727)" fill="#afc3fe"/>
                  <g id="Group_1143773" data-name="Group 1143773" transform="translate(35.553 9.4)">
                    <path id="Rectangle_405604" data-name="Rectangle 405604" d="M13.469,0H175.431A13.469,13.469,0,0,1,188.9,13.469v99.856a0,0,0,0,1,0,0H0a0,0,0,0,1,0,0V13.469A13.469,13.469,0,0,1,13.469,0Z" transform="translate(0 0)" fill="#f1f0f7"/>
                    <g id="Group_1143772" data-name="Group 1143772" transform="translate(6.87 9.147)">
                      <rect id="Rectangle_405605" data-name="Rectangle 405605" width="43.731" height="99.463" rx="0.497" fill="#c5d4f9"/>
                      <rect id="Rectangle_405606" data-name="Rectangle 405606" width="38.088" height="46.814" rx="19.044" transform="translate(2.821 47.392)" fill="#dce0f9"/>
                      <rect id="Rectangle_405607" data-name="Rectangle 405607" width="36.075" height="44.339" rx="18.038" transform="translate(3.828 48.629)" fill="#fffffd"/>
                      <rect id="Rectangle_405608" data-name="Rectangle 405608" width="33.146" height="5.194" rx="2.597" transform="translate(4.943 6.458)" fill="#fffffd"/>
                      <rect id="Rectangle_405609" data-name="Rectangle 405609" width="33.146" height="5.194" rx="2.597" transform="translate(4.943 17.437)" fill="#fffffd"/>
                      <rect id="Rectangle_405610" data-name="Rectangle 405610" width="14.776" height="5.194" rx="2.597" transform="translate(4.943 27.943)" fill="#dce0f9"/>
                      <rect id="Rectangle_405611" data-name="Rectangle 405611" width="14.776" height="5.194" rx="2.597" transform="translate(4.943 38.449)" fill="#fffffd"/>
                    </g>
                    <path id="Path_905561" data-name="Path 905561" d="M860.488,1024.168h36.629l75.059-113.324H935.547Z" transform="translate(-831.77 -910.844)" fill="#fff" opacity="0.17"/>
                    <path id="Path_905562" data-name="Path 905562" d="M1106.163,1024.168h14.932l75.059-113.324h-14.932Z" transform="translate(-1023.134 -910.844)" fill="#fff" opacity="0.17"/>
                  </g>
                </g>
                <g id="Group_1143798" data-name="Group 1143798" transform="translate(165.904 40.362)">
                  <path id="Path_905563" data-name="Path 905563" d="M1135.7,723.257a22.464,22.464,0,0,1-14.2-7.151s-8.778-10.782-3.168-22.453c5.23-10.881,7.705-32.238,10.3-39.371q.107-.259.216-.517c.213-.5.448-.988.7-1.468.427-.827.906-1.794,1.414-2.84,5.749-10.3,15.14-17.518,24.313-17.867,2.159-.082,4.613.458,5.411,2.943,4.925.149,9.456,3.255,12.1,8.291,5.508,10.5,2.511,27.066,8.377,37.2,3.362,5.809,9.435,9.1,10.609,16.486.649,4.084-.428,8.67-2.226,12.57a60,60,0,0,1-6.714,10.538,20.625,20.625,0,0,0,1.324-8.591c-2.348,5.9-5.2,12.4-9.891,14.707-4.036,1.984-8.26.2-12.388,1.526,2.625-.705,5.1-3.281,6.279-6.544a19.657,19.657,0,0,1-14.574,2.07,27.663,27.663,0,0,1-21.817-4.675A12.591,12.591,0,0,0,1135.7,723.257Z" transform="translate(-1082.954 -631.581)" fill="#3f3c51"/>
                  <path id="Path_905564" data-name="Path 905564" d="M1173.126,1310.177a53.8,53.8,0,0,0-1.319-9.664c-2.1-8-7.245-16.625-10.982-22.189l-.034.007c-4.7,1.011-12.553,4.1-17.37,4.244a100.744,100.744,0,0,1-13.869-.487c-.574-.062-1.107-.13-1.61-.2a20.178,20.178,0,0,1-6.422-1.526c-.873-.262-1.817-.545-2.908-.853a4,4,0,0,1-1.8-1.527c-5.769,7.177-10.7,19.068-11.78,23.632-.259,1.088-.223,4.2.007,8.566Z" transform="translate(-1073.92 -1135.08)" fill="#253a55"/>
                  <path id="Path_905565" data-name="Path 905565" d="M1348.519,1311.287c-.056-.854-.121-1.678-.194-2.475-.011-.116-.021-.233-.032-.348-.069-.718-.148-1.4-.234-2.065-.021-.166-.04-.339-.063-.5-.083-.6-.176-1.17-.273-1.724-.03-.17-.056-.356-.088-.522q-.186-.978-.406-1.833c-.007-.029-.013-.063-.02-.091a.016.016,0,0,0,0,0c-.252-.961-.552-1.931-.885-2.9-.029-.088-.061-.176-.091-.264-.006-.018-.014-.036-.02-.054q-.478-1.368-1.04-2.735c-.022-.055-.043-.11-.066-.165-.4-.961-.826-1.918-1.272-2.864-.032-.07-.066-.139-.1-.209-.341-.719-.7-1.424-1.06-2.127-.1-.186-.184-.379-.281-.564-.039-.073-.076-.146-.114-.219-.484-.92-.977-1.825-1.475-2.7l-.041-.071q-.745-1.311-1.493-2.542l-.094-.156c-1.023-1.683-2.027-3.238-2.946-4.606v0l-.034.007-.039.01c-.521.113-1.087.256-1.676.412-.2.053-.4.109-.606.166-.446.123-.9.253-1.377.391-.217.063-.428.124-.648.189l-1.348.4-.459.138c3.582,5.529,7.956,13.252,9.851,20.474a53.712,53.712,0,0,1,1.32,9.664h7.317Z" transform="translate(-1249.321 -1136.295)" fill="#1d3249"/>
                  <g id="Group_1143775" data-name="Group 1143775" transform="translate(22.309 67.769)">
                    <path id="Path_905566" data-name="Path 905566" d="M1065.83,992.582c.444-.808.772-1.431.93-1.776,1.079-2.349,7.826-36.209,9.6-42.2s14.122-10.472,14.122-10.472l-4.6,18.4,1.764,29.129-7.16,9.232Z" transform="translate(-1065.83 -938.133)" fill="#49b4fc"/>
                    <path id="Path_905567" data-name="Path 905567" d="M1082.147,1038.594c2.113-3.4,3.733-5.873,3.733-5.873l3.759-20.143c-.746-4.379,1.638-12.272,2.937-16.106-.958,4.73-1.256,14.98-1.256,14.98l-3.129,19.8,1.985,8.605Z" transform="translate(-1078.54 -983.575)" fill="#231f20" opacity="0.15"/>
                  </g>
                  <path id="Path_905568" data-name="Path 905568" d="M1138.05,989.063s-.91-23.16-2.023-27.32-8.963-36.167,2.887-45.845a45.8,45.8,0,0,1,14.333-7.526c.718-.261,1.359-.46,1.933-.612v0a12.788,12.788,0,0,1,2.941-.476.042.042,0,0,1,.024,0c.1,0,.176,0,.235,0a.24.24,0,0,0,.053,0,.354.354,0,0,1,.068,0l16.225-.546s3.306.568,6.994,1.624c3.895,1.112,14.4,6.259,15.658,8.374.9,1.516-.372,3.429-2.481,15.3-3.619,20.383-12.457,51.565-12.1,57.281C1182.8,989.324,1158.556,1003.61,1138.05,989.063Z" transform="translate(-1095.412 -845.914)" fill="#49b4fc"/>
                  <g id="Group_1143776" data-name="Group 1143776" transform="translate(63.253 45.812)">
                    <path id="Path_905569" data-name="Path 905569" d="M1262.633,859.6l7.431-1.918c.152-1.826-.6-2.86-.914-9.514-.237-5.043-.6-9.353-.6-9.353l-17.5,3.983a28.937,28.937,0,0,1,1.943,11.715q0,.123-.005.244A6,6,0,0,0,1262.633,859.6Z" transform="translate(-1251.043 -838.811)" fill="#fcc2b4"/>
                    <path id="Path_905570" data-name="Path 905570" d="M1251.043,842.794a28.937,28.937,0,0,1,1.943,11.715c.519.238,1.026.461,1.5.651,1.915.761,9.793-3.742,14.66-7-.046-4.8-.6-9.353-.6-9.353Z" transform="translate(-1251.043 -838.811)" fill="#fba896"/>
                  </g>
                  <path id="Path_905571" data-name="Path 905571" d="M1257.983,1121.26l4.508-27,9.941-9.119c-4.083,18.368-9.5,38.643-9.215,43.141a49.015,49.015,0,0,1-8.948,3.815l-18.578,1.592Z" transform="translate(-1175.831 -984.873)" fill="#231f20" opacity="0.15"/>
                  <g id="Group_1143778" data-name="Group 1143778" transform="translate(56.593 60.409)">
                    <g id="Group_1143777" data-name="Group 1143777">
                      <path id="Path_905572" data-name="Path 905572" d="M1246.138,904.839s-9.245,7.654-11.652,7.346-4.961-6.787-4.961-6.787-5.674,2.153-6.676,3.379-3.053,9.417-1.164,11.268,9.908-5.235,11.237-4.266,8.09,8.8,9.295,8.628,8.623-11.7,7.963-15.169A5.942,5.942,0,0,0,1246.138,904.839Z" transform="translate(-1220.914 -904.839)" fill="#fff0e7"/>
                    </g>
                  </g>
                  <g id="Group_1143788" data-name="Group 1143788" transform="translate(44.155 2.084)">
                    <path id="Path_905573" data-name="Path 905573" d="M1168.721,748.318s-6.419-7.139-3.135-14.207c0,0,3.159-1.491,3.137,1.992S1168.721,748.318,1168.721,748.318Z" transform="translate(-1164.651 -713.282)" fill="#312f3d"/>
                    <g id="Group_1143780" data-name="Group 1143780" transform="translate(2.226 6.685)">
                      <g id="Group_1143779" data-name="Group 1143779">
                        <path id="Path_905574" data-name="Path 905574" d="M1193.729,671.271c-9.688.325-20.092,3.63-18.918,18.365,0,0,2.582,15.072,3.383,18.354s8.893,14.75,16.431,14.5c8.088-.271,17.12-12.312,17.681-15.639s1.891-18.031,1.891-18.031C1214.342,674.035,1203.417,670.947,1193.729,671.271Z" transform="translate(-1174.72 -671.249)" fill="#fcc2b4"/>
                      </g>
                    </g>
                    <g id="Group_1143784" data-name="Group 1143784" transform="translate(4.175 26.663)">
                      <path id="Path_905575" data-name="Path 905575" d="M1223.223,803.113a12.841,12.841,0,0,1-2.162,2.338.635.635,0,0,0-.112.864c.788,1.266,2.817,2.364,4.051,2.944.18.085.3-.149.142-.285a10.324,10.324,0,0,1-2.163-2.448.837.837,0,0,1-.072-.707c.19-.5.567-1.524.805-2.374C1223.795,803.151,1223.41,802.891,1223.223,803.113Z" transform="translate(-1212.588 -793.875)" fill="#fb9988"/>
                      <path id="Path_905576" data-name="Path 905576" d="M1230.624,845.09a.526.526,0,0,0-.515-.811,34.081,34.081,0,0,1-9.487.667.533.533,0,0,0-.41.876,6.345,6.345,0,0,0,5.387,2.538A6.468,6.468,0,0,0,1230.624,845.09Z" transform="translate(-1212.009 -825.997)" fill="#fff"/>
                      <g id="Group_1143783" data-name="Group 1143783">
                        <g id="Group_1143781" data-name="Group 1143781" transform="translate(16.099 1.047)">
                          <path id="Path_905577" data-name="Path 905577" d="M1256.376,768.309c-.1-.133.266-.638,1.118-1.135a6.561,6.561,0,0,1,7.276.625,3.873,3.873,0,0,1,.786.854c.145.233.182.392.123.456s-.222.023-.46-.087l-.941-.46a8.6,8.6,0,0,0-6.427-.552C1257.015,768.243,1256.484,768.462,1256.376,768.309Z" transform="translate(-1256.36 -766.356)" fill="#342d2b"/>
                        </g>
                        <g id="Group_1143782" data-name="Group 1143782">
                          <path id="Path_905578" data-name="Path 905578" d="M1192.374,764.373c-.125.132-.587-.175-1.329-.547a7.788,7.788,0,0,0-6.1-.556l-.954.291c-.24.067-.4.083-.444.007s.016-.224.188-.428a3.715,3.715,0,0,1,.872-.707,5.879,5.879,0,0,1,3.554-.789,6,6,0,0,1,3.347,1.419C1192.228,763.7,1192.488,764.258,1192.374,764.373Z" transform="translate(-1183.537 -761.618)" fill="#342d2b"/>
                        </g>
                        <path id="Path_905579" data-name="Path 905579" d="M1264.776,794.147c-.05,1.4.73,2.562,1.743,2.6s1.873-1.069,1.923-2.468-.73-2.562-1.742-2.6S1264.826,792.748,1264.776,794.147Z" transform="translate(-1246.815 -785.033)" fill="#342d2b"/>
                        <path id="Path_905580" data-name="Path 905580" d="M1195.6,786.254c-.05,1.4.722,2.562,1.723,2.6s1.854-1.069,1.9-2.468-.722-2.562-1.724-2.6S1195.651,784.855,1195.6,786.254Z" transform="translate(-1192.932 -778.885)" fill="#342d2b"/>
                      </g>
                    </g>
                    <path id="Path_905581" data-name="Path 905581" d="M1171.02,651.2a19.822,19.822,0,0,0-3.161,8.725c-.372,2.656-.425,5.343-.57,8.021a36,36,0,0,0,16.687-10.988c1.5,5.568,6,9.926,10.639,13.633,4.858,3.884,10.534,3.517,16.314,5.988.972-4.37,1.843-5.7,2.006-10.161.2-5.493-.691-11.143-3.483-15.929s-7.667-8.6-13.279-9.357c-5.155-.7-10.779,1.565-13.465,5.82a10.128,10.128,0,0,0-9.541,1.905A12.5,12.5,0,0,0,1171.02,651.2Z" transform="translate(-1166.706 -641.008)" fill="#3f3c51"/>
                    <path id="Path_905582" data-name="Path 905582" d="M1183.88,699.494c1.777,11.083,16.132,20.348,16.132,20.348a46.841,46.841,0,0,1-5.4-3.694c-4.637-3.707-9.136-8.065-10.639-13.633a35.994,35.994,0,0,1-16.687,10.989q.027-.489.05-.978C1175.31,709.8,1180.369,706.894,1183.88,699.494Z" transform="translate(-1166.706 -686.565)" fill="#312f3d"/>
                    <path id="Path_905583" data-name="Path 905583" d="M1289.818,641.019a13.932,13.932,0,0,1,1.8.122c5.612.759,10.487,4.572,13.279,9.357s3.684,10.436,3.483,15.929a73.536,73.536,0,0,1-1.983,13.232s-.043-11.374-.4-16.977C1305.162,653.305,1299.663,643.218,1289.818,641.019Z" transform="translate(-1262.148 -641.017)" fill="#3f3c51"/>
                    <path id="Path_905584" data-name="Path 905584" d="M1183.905,656.843a12.5,12.5,0,0,1,2.148-2.343,10.128,10.128,0,0,1,9.541-1.905,12.361,12.361,0,0,1,4.9-4.344c-2.61,2.112-4.055,3.75-4.432,6.958-4.895-3.928-9.771-.447-12.229,1.743C1183.856,656.916,1183.88,656.878,1183.905,656.843Z" transform="translate(-1179.591 -646.65)" fill="#312f3d"/>
                    <g id="Group_1143785" data-name="Group 1143785" transform="translate(21.646 6.326)">
                      <path id="Path_905585" data-name="Path 905585" d="M1262.565,669.622c1.048,9.821,4.841,17.412,14.065,22.245C1267.141,686.067,1264.14,677.928,1262.565,669.622Z" transform="translate(-1262.565 -669.622)" fill="#312f3d"/>
                      <path id="Path_905586" data-name="Path 905586" d="M1307.311,724.2a22.58,22.58,0,0,1-12.812-9.02A16.888,16.888,0,0,0,1307.311,724.2Z" transform="translate(-1287.439 -705.108)" fill="#312f3d"/>
                    </g>
                    <g id="Group_1143787" data-name="Group 1143787" transform="translate(37.172 32.597)">
                      <path id="Path_905587" data-name="Path 905587" d="M1334.228,799.907a8.437,8.437,0,0,0,5.865-3.04,6.361,6.361,0,0,0,.591-.831c.8-1.371,1.094-6.16-.914-7.3-1.407-.8-2.453.318-2.954,1.06v0a4.477,4.477,0,0,0-.328.562Z" transform="translate(-1333.912 -788.461)" fill="#ffdaba"/>
                      <path id="Path_905588" data-name="Path 905588" d="M1332.8,801.618a9.322,9.322,0,0,0,6.182-3.173q.142-.2.249-.383c.8-1.372,1.094-6.16-.914-7.3a1.975,1.975,0,0,0-2.611.611v0a4.48,4.48,0,0,0-.328.562Z" transform="translate(-1332.797 -790.039)" fill="#fcc2b4"/>
                      <path id="Path_905589" data-name="Path 905589" d="M1348.021,803.883a2,2,0,0,1-.108,1.16c-.574,1.6-2.246,2.805-3.847,3.924a3.937,3.937,0,0,0,.59-2.51,8.831,8.831,0,0,1-.092-.9C1344.569,804.355,1347.453,801.61,1348.021,803.883Z" transform="translate(-1341.575 -799.793)" fill="#fba896"/>
                      <g id="Group_1143786" data-name="Group 1143786" transform="translate(1.689 3.189)">
                        <path id="Path_905590" data-name="Path 905590" d="M1340.439,809.316l.091-.048c.057-.033.151-.076.256-.144a3.539,3.539,0,0,0,.791-.675,3.062,3.062,0,0,0,.661-1.269,2.6,2.6,0,0,0-.177-1.691,1.5,1.5,0,0,0-.113-.213l-.031-.051c-.007-.013,0-.005,0-.006h0s0,0,0-.008l.026-.046.055-.091c.038-.059.074-.119.113-.177a7.28,7.28,0,0,1,.487-.656c.169-.2.344-.39.517-.561a4.473,4.473,0,0,1,.507-.446,1.131,1.131,0,0,1,.516-.214.851.851,0,0,1,.436.076.414.414,0,0,1,.192.174.283.283,0,0,1,.026.081.184.184,0,0,0,0-.085.376.376,0,0,0-.16-.221.906.906,0,0,0-.5-.16,1.434,1.434,0,0,0-.682.18,4.457,4.457,0,0,0-.623.42,6.571,6.571,0,0,0-.616.546,5.835,5.835,0,0,0-.573.671c-.044.061-.087.123-.13.185l-.062.1-.082.135-.057.1c.014.032.035.063.053.1l.079.138a1.3,1.3,0,0,1,.1.185,2.744,2.744,0,0,1,.236,1.5,3.135,3.135,0,0,1-.435,1.213,3.6,3.6,0,0,1-.608.734c-.087.081-.164.136-.212.178Z" transform="translate(-1340.439 -802.884)" fill="#fd7d6f"/>
                      </g>
                    </g>
                  </g>
                  <g id="Group_1143791" data-name="Group 1143791" transform="translate(0 94.81)">
                    <g id="Group_1143790" data-name="Group 1143790">
                      <g id="Group_1143789" data-name="Group 1143789">
                        <path id="Path_905591" data-name="Path 905591" d="M994.314,1113.766l35.568-3.97c.885-.1,1.3-1.49.77-2.551l-23.007-45.628a1.809,1.809,0,0,0-1.71-1.159l-34.24,3.821c-1.327.148-1.957,2.236-1.155,3.827l22.633,44.887A1.206,1.206,0,0,0,994.314,1113.766Z" transform="translate(-969.021 -1060.451)" fill="#dadada"/>
                        <path id="Path_905592" data-name="Path 905592" d="M989.046,1114.354l35.568-3.969c.885-.1,1.3-1.491.77-2.551l-23.007-45.628a1.808,1.808,0,0,0-1.709-1.159l-34.24,3.822c-1.327.148-1.957,2.236-1.155,3.827l22.633,44.887A1.205,1.205,0,0,0,989.046,1114.354Z" transform="translate(-964.918 -1060.909)" fill="#abb0ba"/>
                        <path id="Path_905593" data-name="Path 905593" d="M1048.347,1187.868a44.517,44.517,0,0,1-34.156-14.215l13.357,26.49,34.732-3.876-5.267-10.447A22.326,22.326,0,0,1,1048.347,1187.868Z" transform="translate(-1003.298 -1148.627)" fill="#989da6"/>
                      </g>
                    </g>
                  </g>
                  <g id="Group_1143793" data-name="Group 1143793" transform="translate(9.776 127.923)">
                    <g id="Group_1143792" data-name="Group 1143792">
                      <path id="Path_905594" data-name="Path 905594" d="M1009.4,1211.891a3.165,3.165,0,0,0,1.638,1.366c.781.3,1.57.633,2.374.861l.24.066a7.239,7.239,0,0,0,1.133.212c.138.013.275.022.41.024a4.048,4.048,0,0,0,1.348-.181.994.994,0,0,0,.316-1.684,6.986,6.986,0,0,0-2.579-1.67,11.722,11.722,0,0,0-3.905-.636C1009.38,1210.324,1008.763,1210.742,1009.4,1211.891Z" transform="translate(-1009.139 -1210.236)" fill="#fcc2b4"/>
                      <path id="Path_905595" data-name="Path 905595" d="M1018.408,1229.3a3.168,3.168,0,0,0,1.634,1.367c.505.193,1.015.4,1.533.585.2.075.408.144.612.2a8.054,8.054,0,0,0,1.606.35c.107.01.213.016.319.021a4.147,4.147,0,0,0,1.438-.178.992.992,0,0,0,.312-1.682,6.812,6.812,0,0,0-2.579-1.67,10.567,10.567,0,0,0-1.074-.315,14.3,14.3,0,0,0-1.492-.269c-.1-.013-.2-.025-.292-.033C1018.915,1227.537,1017.569,1227.786,1018.408,1229.3Z" transform="translate(-1016.158 -1223.795)" fill="#fcc2b4"/>
                      <path id="Path_905596" data-name="Path 905596" d="M1022.285,1245.3a3.164,3.164,0,0,0,1.633,1.366c.632.245,1.279.507,1.93.721.2.066.406.129.608.179a6.841,6.841,0,0,0,1.214.238,5.125,5.125,0,0,0,.728.02,3.908,3.908,0,0,0,1.03-.177.992.992,0,0,0,.311-1.682,6.818,6.818,0,0,0-2.579-1.67c-.011,0-.017-.007-.028-.009a13.024,13.024,0,0,0-2.2-.531c-.109-.015-.224-.034-.335-.043C1022.975,1243.515,1021.391,1243.692,1022.285,1245.3Z" transform="translate(-1019.178 -1236.263)" fill="#fcc2b4"/>
                      <path id="Path_905597" data-name="Path 905597" d="M1030.892,1262.2a3.144,3.144,0,0,0,1.634,1.366c.1.043.2.08.309.122a13.222,13.222,0,0,0,3.443,1.016,4.311,4.311,0,0,0,1.758-.157.992.992,0,0,0,.312-1.682,6.871,6.871,0,0,0-2.58-1.67,5.847,5.847,0,0,0-.663-.206,13.231,13.231,0,0,0-2.24-.413c-.107-.01-.209-.017-.31-.024C1031.2,1260.486,1030.121,1260.8,1030.892,1262.2Z" transform="translate(-1025.882 -1249.422)" fill="#fcc2b4"/>
                    </g>
                    <path id="Path_905598" data-name="Path 905598" d="M1009.4,1211.938a3.165,3.165,0,0,0,1.638,1.366c.781.3,1.57.633,2.374.861-1.511-.14-2.857.108-2.018,1.621a3.168,3.168,0,0,0,1.634,1.367c.505.193,1.015.4,1.533.585-1.62-.2-3.2-.025-2.31,1.588a3.162,3.162,0,0,0,1.634,1.366c.632.245,1.279.507,1.93.721-1.353-.065-2.433.254-1.662,1.648a3.143,3.143,0,0,0,1.634,1.366c.1.042.2.081.309.122-.036-.064-.069-.123-.1-.188a3.01,3.01,0,0,1-.406-1.554,1.333,1.333,0,0,1,.834-1.215l.032-.008-.329-.147a3.387,3.387,0,0,1-1.723-1.429c-.389-.805.082-2.034.945-1.969l-.174-.1c-.091-.049-.184-.1-.277-.16a3.922,3.922,0,0,1-1.552-1.4,1.734,1.734,0,0,1,.309-2.148c.018-.009.034-.024.052-.033a1.265,1.265,0,0,1,.182-.09,6.474,6.474,0,0,1-3.046-2.632,10.693,10.693,0,0,1-.465-1.179C1009.38,1210.372,1008.763,1210.79,1009.4,1211.938Z" transform="translate(-1009.139 -1210.283)" fill="#fba896"/>
                  </g>
                  <path id="Path_905599" data-name="Path 905599" d="M1385.765,1011.476c-1.932,2.243-15.245,4.94-17.473-2.531-2.466-16.5-3.668-38.585-6.107-54.925-.509-3.41,6.429-13.286,7.393-14.346,1.276-1.4,11.934,4.805,12.766,8.523a236.136,236.136,0,0,1,5.528,45.125C1387.95,1000.773,1387.7,1009.233,1385.765,1011.476Z" transform="translate(-1274.341 -871.405)" fill="#49b4fc"/>
                  <g id="Group_1143797" data-name="Group 1143797" transform="translate(95.95 51.124)">
                    <path id="Path_905600" data-name="Path 905600" d="M1431.907,1005.9c-.3,1.206-7.275,1.906-8.658.644a25.443,25.443,0,0,1-2.619-3.14c-10.49,27.108-17.282,37.666-21.046,46.759-4.46,15.954,15.641,18.935,20.971.821,1.221-4.151,10.306-39.946,12.6-49C1432.568,1003.807,1432.046,1005.346,1431.907,1005.9Z" transform="translate(-1398.944 -971.224)" fill="#fcc2b4"/>
                    <g id="Group_1143796" data-name="Group 1143796" transform="translate(16.514)">
                      <g id="Group_1143795" data-name="Group 1143795">
                        <path id="Path_905601" data-name="Path 905601" d="M1493.689,886.367s4.117-19.119,4.61-21.619,3.376-2.624,2.963.106-2.184,19.959-2.368,22.158S1493.521,889.122,1493.689,886.367Z" transform="translate(-1489.255 -862.84)" fill="#fcc2b4"/>
                        <path id="Path_905602" data-name="Path 905602" d="M1486.7,967.533a52.577,52.577,0,0,1-5.732-7.671c-1.469-2.346-.162-7.7,4.926-7.94s13.244,1.241,12.555,4.595-2.791,9.167-3.091,10.372S1488.083,968.795,1486.7,967.533Z" transform="translate(-1478.908 -932.21)" fill="#fcc2b4"/>
                        <g id="Group_1143794" data-name="Group 1143794" transform="translate(0 15.201)">
                          <path id="Path_905603" data-name="Path 905603" d="M1475.885,944.395s-1.11-1.991-1.994-3.443c-.431-.707-.217-1.223.047-4.05s.644-4.672.644-4.672,7.251-.568,8.5-.628,1.287,3.487-2.385,4.277l-1.922.645a9.942,9.942,0,0,1,2.088,5.54C1480.834,945,1477.257,946.534,1475.885,944.395Z" transform="translate(-1473.645 -931.6)" fill="#fcc2b4"/>
                        </g>
                        <path id="Path_905604" data-name="Path 905604" d="M1522.319,915.047a3.116,3.116,0,0,0-3.468-.151c-.875.492-1.01,8.635-1.2,11.074-.246,2.008,3.132,3.214,3.588.055S1523.017,915.6,1522.319,915.047Z" transform="translate(-1507.91 -903.034)" fill="#fba896"/>
                        <path id="Path_905605" data-name="Path 905605" d="M1537.605,922.938c-.341-1.134-2.835-1.029-3.469-.152-.539.745-1.368,9.477-1.681,11.492-.13,1.078,2.739,2.583,3.195-.576S1537.84,923.717,1537.605,922.938Z" transform="translate(-1519.451 -909.006)" fill="#fba896"/>
                        <path id="Path_905606" data-name="Path 905606" d="M1552.266,934.327a1.816,1.816,0,0,0-2.98-.47c-.526.632-1.762,7.266-1.842,9.179-.253,1.1,1.57,2.544,2.487-.294S1552.5,935,1552.266,934.327Z" transform="translate(-1531.111 -917.708)" fill="#fba896"/>
                      </g>
                      <path id="Path_905607" data-name="Path 905607" d="M1498.749,949.122a.191.191,0,0,0-.239-.108l-3,.975.139.189c3.088,4.219,1.759,6.78,1.745,6.805a.17.17,0,0,0,.082.236.2.2,0,0,0,.085.02.188.188,0,0,0,.166-.1c.06-.108,1.417-2.68-1.631-6.973l2.536-.825A.174.174,0,0,0,1498.749,949.122Z" transform="translate(-1490.678 -929.957)" fill="#ba6549"/>
                    </g>
                  </g>
                </g>
                <g id="Group_1143803" data-name="Group 1143803" transform="translate(270.216 19.838)">
                  <g id="Group_1143800" data-name="Group 1143800">
                    <rect id="Rectangle_405612" data-name="Rectangle 405612" width="77.103" height="58.698" transform="translate(0 0)" fill="#dce1f8"/>
                    <path id="Path_905608" data-name="Path 905608" d="M1509.315,538.742h-67.985a4.559,4.559,0,0,0-4.558,4.559v3.148h77.1V543.3A4.559,4.559,0,0,0,1509.315,538.742Z" transform="translate(-1436.771 -538.742)" fill="#aab2e8"/>
                    <g id="Group_1143799" data-name="Group 1143799" transform="translate(61.433 2.578)">
                      <path id="Path_905609" data-name="Path 905609" d="M1716.858,551.5a1.1,1.1,0,1,1-1.1-1.1A1.1,1.1,0,0,1,1716.858,551.5Z" transform="translate(-1714.66 -550.403)" fill="#fff"/>
                      <path id="Path_905610" data-name="Path 905610" d="M1732.6,551.5a1.1,1.1,0,1,1-1.1-1.1A1.1,1.1,0,0,1,1732.6,551.5Z" transform="translate(-1726.924 -550.403)" fill="#fff"/>
                      <path id="Path_905611" data-name="Path 905611" d="M1748.346,551.5a1.1,1.1,0,1,1-1.1-1.1A1.1,1.1,0,0,1,1748.346,551.5Z" transform="translate(-1739.187 -550.403)" fill="#fff"/>
                    </g>
                  </g>
                  <g id="Group_1143801" data-name="Group 1143801" transform="translate(23.755 13.204)">
                    <circle id="Ellipse_11577" data-name="Ellipse 11577" cx="11.325" cy="11.325" r="11.325" transform="translate(0 8.668) rotate(-22.5)" fill="#aab2e8"/>
                    <path id="Path_905612" data-name="Path 905612" d="M1594.823,637.632v12.279l10.438-6.14Z" transform="translate(-1583.637 -628.975)" fill="#fff"/>
                  </g>
                  <g id="Group_1143802" data-name="Group 1143802" transform="translate(10.989 45.396)">
                    <rect id="Rectangle_405613" data-name="Rectangle 405613" width="55.363" height="1.477" transform="translate(0 1.174)" fill="#f1f0f7"/>
                    <rect id="Rectangle_405614" data-name="Rectangle 405614" width="1.236" height="3.825" transform="translate(12.469)" fill="#f1f0f7"/>
                  </g>
                </g>
                <g id="Group_1143846" data-name="Group 1143846" transform="translate(56.936 23.473)">
                  <g id="Group_1143805" data-name="Group 1143805" transform="translate(0 0)">
                    <rect id="Rectangle_405615" data-name="Rectangle 405615" width="73.797" height="45.589" transform="translate(73.797 55.191) rotate(180)" fill="#f1f0f7"/>
                    <path id="Rectangle_405616" data-name="Rectangle 405616" d="M0,0H73.8a0,0,0,0,1,0,0V0A10.722,10.722,0,0,1,63.075,10.722H10.722A10.722,10.722,0,0,1,0,0V0A0,0,0,0,1,0,0Z" transform="translate(73.797 10.722) rotate(180)" fill="#aab2e8"/>
                    <g id="Group_1143804" data-name="Group 1143804" transform="translate(5.894 4.947)">
                      <path id="Path_905613" data-name="Path 905613" d="M532.915,578.638a1.073,1.073,0,1,0,1.073-1.073A1.073,1.073,0,0,0,532.915,578.638Z" transform="translate(-525.344 -577.565)" fill="#fff"/>
                      <path id="Path_905614" data-name="Path 905614" d="M515.791,578.638a1.073,1.073,0,1,0,1.073-1.073A1.073,1.073,0,0,0,515.791,578.638Z" transform="translate(-512.005 -577.565)" fill="#fff"/>
                      <path id="Path_905615" data-name="Path 905615" d="M498.666,578.638a1.073,1.073,0,1,0,1.074-1.073A1.073,1.073,0,0,0,498.666,578.638Z" transform="translate(-498.666 -577.565)" fill="#fff"/>
                    </g>
                  </g>
                  <g id="Group_1143845" data-name="Group 1143845" transform="translate(12.202 16.757)" opacity="0.75">
                    <g id="Group_1143818" data-name="Group 1143818" transform="translate(22.857 4.66)">
                      <g id="Group_1143817" data-name="Group 1143817">
                        <g id="Group_1143813" data-name="Group 1143813">
                          <g id="Group_1143807" data-name="Group 1143807" transform="translate(1.161 0)">
                            <g id="Group_1143806" data-name="Group 1143806">
                              <path id="Path_905616" data-name="Path 905616" d="M658.315,664.96a9.6,9.6,0,0,0-.53-3.367l2.462-2.183-1.613-2.6L655.6,658.04a9.607,9.607,0,0,0-2.792-2l.2-3.27-2.979-.7-1.282,3.033a9.589,9.589,0,0,0-3.357.571l-2.2-2.483-2.6,1.613,1.262,3.11a9.609,9.609,0,0,0-1.919,2.724l-3.385-.2-.7,2.98,3.16,1.337a9.608,9.608,0,0,0,.547,3.213l-2.584,2.292,1.613,2.6,3.215-1.3a9.6,9.6,0,0,0,2.623,1.884l-.209,3.465,2.979.7,1.344-3.181a9.6,9.6,0,0,0,3.221-.507l2.273,2.566,2.6-1.613-1.274-3.141a9.6,9.6,0,0,0,1.967-2.692l3.349.2.7-2.98Zm-7.1,3.907a4.835,4.835,0,1,1,1.558-6.657A4.832,4.832,0,0,1,651.211,668.867Z" transform="translate(-635.847 -652.067)" fill="#afc3fe"/>
                            </g>
                          </g>
                          <g id="Group_1143809" data-name="Group 1143809" transform="translate(0 0.603)">
                            <g id="Group_1143808" data-name="Group 1143808">
                              <path id="Path_905617" data-name="Path 905617" d="M653.061,667.688a9.606,9.606,0,0,0-.53-3.367l2.462-2.183-1.613-2.6-3.034,1.231a9.6,9.6,0,0,0-2.792-2l.2-3.271-2.979-.7-1.282,3.033a9.59,9.59,0,0,0-3.357.571l-2.2-2.483-2.6,1.613,1.261,3.11a9.6,9.6,0,0,0-1.919,2.725l-3.385-.2-.7,2.98,3.16,1.337a9.6,9.6,0,0,0,.547,3.213l-2.584,2.291,1.613,2.6,3.215-1.3a9.6,9.6,0,0,0,2.623,1.884l-.209,3.465,2.979.7,1.344-3.181a9.592,9.592,0,0,0,3.221-.507l2.274,2.566,2.6-1.613L650.1,674.45a9.591,9.591,0,0,0,1.967-2.692l3.349.2.7-2.98Zm-7.1,3.907a4.834,4.834,0,1,1,1.558-6.657A4.833,4.833,0,0,1,645.956,671.6Z" transform="translate(-630.593 -654.796)" fill="#d2ddfc"/>
                            </g>
                          </g>
                          <g id="Group_1143810" data-name="Group 1143810" transform="translate(0.698 8.366)">
                            <path id="Path_905618" data-name="Path 905618" d="M633.748,690.514l1.006.061.156-.664Z" transform="translate(-633.748 -689.911)" fill="#afc3fe"/>
                          </g>
                          <g id="Group_1143811" data-name="Group 1143811" transform="translate(14.178)">
                            <path id="Path_905619" data-name="Path 905619" d="M694.727,652.67l1.162-.6-.337.8Z" transform="translate(-694.727 -652.067)" fill="#afc3fe"/>
                          </g>
                          <g id="Group_1143812" data-name="Group 1143812" transform="translate(7.339 1.122)">
                            <path id="Path_905620" data-name="Path 905620" d="M663.793,657.745l1.162-.6-1.094.679Z" transform="translate(-663.793 -657.142)" fill="#afc3fe"/>
                          </g>
                        </g>
                        <g id="Group_1143814" data-name="Group 1143814" transform="translate(11.344 25.337)">
                          <path id="Path_905621" data-name="Path 905621" d="M681.905,767.473l1.162-.6-.825-.193Z" transform="translate(-681.905 -766.677)" fill="#afc3fe"/>
                        </g>
                        <g id="Group_1143815" data-name="Group 1143815" transform="translate(24.824 17.103)">
                          <path id="Path_905622" data-name="Path 905622" d="M742.884,730.1l1.162-.6-1.006-.061Z" transform="translate(-742.884 -729.433)" fill="#afc3fe"/>
                        </g>
                        <g id="Group_1143816" data-name="Group 1143816" transform="translate(18.182 24.332)">
                          <path id="Path_905623" data-name="Path 905623" d="M712.84,762.811l1.162-.6-.067-.076Z" transform="translate(-712.84 -762.132)" fill="#afc3fe"/>
                        </g>
                      </g>
                    </g>
                    <g id="Group_1143831" data-name="Group 1143831" transform="translate(6.462)">
                      <g id="Group_1143830" data-name="Group 1143830">
                        <g id="Group_1143826" data-name="Group 1143826">
                          <g id="Group_1143820" data-name="Group 1143820" transform="translate(0.798 0)">
                            <g id="Group_1143819" data-name="Group 1143819">
                              <path id="Path_905624" data-name="Path 905624" d="M575.483,639.847a6.6,6.6,0,0,0-.365-2.314l1.692-1.5-1.108-1.787-2.085.846a6.6,6.6,0,0,0-1.919-1.378l.135-2.247-2.047-.48-.881,2.084a6.59,6.59,0,0,0-2.307.393l-1.512-1.706-1.787,1.109.867,2.138a6.6,6.6,0,0,0-1.318,1.872l-2.326-.14-.479,2.048,2.172.919a6.594,6.594,0,0,0,.376,2.208l-1.776,1.575,1.108,1.787,2.209-.9a6.593,6.593,0,0,0,1.8,1.294l-.143,2.381,2.047.48.924-2.186a6.589,6.589,0,0,0,2.214-.348l1.563,1.763,1.786-1.109-.875-2.158a6.6,6.6,0,0,0,1.352-1.85l2.3.139.479-2.048Zm-4.883,2.685a3.322,3.322,0,1,1,1.071-4.575A3.321,3.321,0,0,1,570.6,642.532Z" transform="translate(-560.042 -630.987)" fill="#afc3fe"/>
                            </g>
                          </g>
                          <g id="Group_1143822" data-name="Group 1143822" transform="translate(0 0.415)">
                            <g id="Group_1143821" data-name="Group 1143821">
                              <path id="Path_905625" data-name="Path 905625" d="M571.872,641.722a6.6,6.6,0,0,0-.365-2.314l1.692-1.5-1.109-1.787-2.085.846a6.6,6.6,0,0,0-1.919-1.378l.135-2.247-2.047-.48-.881,2.084a6.585,6.585,0,0,0-2.307.393l-1.512-1.706-1.787,1.109.867,2.138a6.6,6.6,0,0,0-1.319,1.872l-2.326-.14-.479,2.048,2.172.919a6.607,6.607,0,0,0,.376,2.208l-1.776,1.575,1.108,1.787,2.209-.9a6.6,6.6,0,0,0,1.8,1.294l-.143,2.381,2.047.48.924-2.186a6.589,6.589,0,0,0,2.213-.348l1.563,1.763,1.787-1.109-.876-2.158a6.6,6.6,0,0,0,1.352-1.85l2.3.139.479-2.048Zm-4.883,2.685a3.322,3.322,0,1,1,1.071-4.575A3.321,3.321,0,0,1,566.989,644.407Z" transform="translate(-556.431 -632.862)" fill="#d2ddfc"/>
                            </g>
                          </g>
                          <g id="Group_1143823" data-name="Group 1143823" transform="translate(0.479 5.749)">
                            <path id="Path_905626" data-name="Path 905626" d="M558.6,657.408l.692.042.107-.456Z" transform="translate(-558.599 -656.994)" fill="#afc3fe"/>
                          </g>
                          <g id="Group_1143824" data-name="Group 1143824" transform="translate(9.744)">
                            <path id="Path_905627" data-name="Path 905627" d="M600.506,631.4l.8-.415-.231.547Z" transform="translate(-600.506 -630.987)" fill="#afc3fe"/>
                          </g>
                          <g id="Group_1143825" data-name="Group 1143825" transform="translate(5.044 0.771)">
                            <path id="Path_905628" data-name="Path 905628" d="M579.247,634.889l.8-.414-.752.467Z" transform="translate(-579.247 -634.475)" fill="#afc3fe"/>
                          </g>
                        </g>
                        <g id="Group_1143827" data-name="Group 1143827" transform="translate(7.796 17.412)">
                          <path id="Path_905629" data-name="Path 905629" d="M591.694,710.3l.8-.414-.567-.133Z" transform="translate(-591.694 -709.749)" fill="#afc3fe"/>
                        </g>
                        <g id="Group_1143828" data-name="Group 1143828" transform="translate(17.06 11.754)">
                          <path id="Path_905630" data-name="Path 905630" d="M633.6,684.611l.8-.415-.692-.042Z" transform="translate(-633.6 -684.154)" fill="#afc3fe"/>
                        </g>
                        <g id="Group_1143829" data-name="Group 1143829" transform="translate(12.495 16.722)">
                          <path id="Path_905631" data-name="Path 905631" d="M612.953,707.093l.8-.415-.046-.052Z" transform="translate(-612.953 -706.626)" fill="#afc3fe"/>
                        </g>
                      </g>
                    </g>
                    <g id="Group_1143844" data-name="Group 1143844" transform="translate(0 16.48)">
                      <g id="Group_1143843" data-name="Group 1143843">
                        <g id="Group_1143839" data-name="Group 1143839">
                          <g id="Group_1143833" data-name="Group 1143833" transform="translate(0.66)">
                            <g id="Group_1143832" data-name="Group 1143832">
                              <path id="Path_905632" data-name="Path 905632" d="M542.96,712.862a5.466,5.466,0,0,0-.3-1.914l1.4-1.241-.917-1.478-1.725.7a5.457,5.457,0,0,0-1.587-1.14l.112-1.859-1.693-.4-.729,1.724a5.456,5.456,0,0,0-1.908.325l-1.251-1.411-1.478.917.717,1.768a5.463,5.463,0,0,0-1.091,1.549l-1.924-.116-.4,1.694,1.8.76a5.461,5.461,0,0,0,.311,1.826l-1.469,1.3.917,1.478,1.827-.741a5.459,5.459,0,0,0,1.491,1.071l-.118,1.97,1.693.4.764-1.808a5.449,5.449,0,0,0,1.831-.288l1.292,1.459L542,718.49l-.724-1.785a5.454,5.454,0,0,0,1.118-1.53l1.9.115.4-1.694Zm-4.039,2.221a2.748,2.748,0,1,1,.886-3.784A2.746,2.746,0,0,1,538.921,715.082Z" transform="translate(-530.188 -705.533)" fill="#afc3fe"/>
                            </g>
                          </g>
                          <g id="Group_1143835" data-name="Group 1143835" transform="translate(0 0.343)">
                            <g id="Group_1143834" data-name="Group 1143834">
                              <path id="Path_905633" data-name="Path 905633" d="M539.973,714.413a5.465,5.465,0,0,0-.3-1.914l1.4-1.241-.917-1.478-1.725.7a5.459,5.459,0,0,0-1.587-1.14l.112-1.859-1.693-.4-.729,1.724a5.446,5.446,0,0,0-1.908.325l-1.251-1.411-1.478.917.717,1.768a5.459,5.459,0,0,0-1.091,1.549l-1.924-.116-.4,1.694,1.8.76a5.456,5.456,0,0,0,.311,1.826l-1.469,1.3.917,1.479,1.827-.742a5.448,5.448,0,0,0,1.491,1.071l-.119,1.97,1.693.4.764-1.808a5.452,5.452,0,0,0,1.831-.288l1.293,1.458,1.478-.917-.724-1.785a5.458,5.458,0,0,0,1.118-1.53l1.9.115.4-1.694Zm-4.039,2.221a2.748,2.748,0,1,1,.886-3.784A2.747,2.747,0,0,1,535.934,716.634Z" transform="translate(-527.201 -707.084)" fill="#d2ddfc"/>
                            </g>
                          </g>
                          <g id="Group_1143836" data-name="Group 1143836" transform="translate(0.397 4.756)">
                            <path id="Path_905634" data-name="Path 905634" d="M529,727.387l.572.035.088-.377Z" transform="translate(-528.995 -727.045)" fill="#afc3fe"/>
                          </g>
                          <g id="Group_1143837" data-name="Group 1143837" transform="translate(8.059 0)">
                            <path id="Path_905635" data-name="Path 905635" d="M563.658,705.876l.66-.343-.191.453Z" transform="translate(-563.658 -705.533)" fill="#afc3fe"/>
                          </g>
                          <g id="Group_1143838" data-name="Group 1143838" transform="translate(4.172 0.638)">
                            <path id="Path_905636" data-name="Path 905636" d="M546.073,708.761l.66-.343-.622.386Z" transform="translate(-546.073 -708.418)" fill="#afc3fe"/>
                          </g>
                        </g>
                        <g id="Group_1143840" data-name="Group 1143840" transform="translate(6.448 14.402)">
                          <path id="Path_905637" data-name="Path 905637" d="M556.369,771.134l.66-.343-.469-.11Z" transform="translate(-556.369 -770.681)" fill="#afc3fe"/>
                        </g>
                        <g id="Group_1143841" data-name="Group 1143841" transform="translate(14.111 9.722)">
                          <path id="Path_905638" data-name="Path 905638" d="M591.031,749.888l.66-.343-.572-.034Z" transform="translate(-591.031 -749.51)" fill="#afc3fe"/>
                        </g>
                        <g id="Group_1143842" data-name="Group 1143842" transform="translate(10.336 13.831)">
                          <path id="Path_905639" data-name="Path 905639" d="M573.954,768.484l.66-.343-.038-.043Z" transform="translate(-573.954 -768.098)" fill="#afc3fe"/>
                        </g>
                      </g>
                    </g>
                  </g>
                </g>
                <g id="Group_1143852" data-name="Group 1143852" transform="translate(161.255)">
                  <g id="Group_1143848" data-name="Group 1143848">
                    <g id="Group_1143847" data-name="Group 1143847">
                      <path id="Path_905640" data-name="Path 905640" d="M1000.056,482.01l-4.63-9.067a14.378,14.378,0,0,0,3.146-9.011v-.678a14.1,14.1,0,0,0-13.948-14.249H957.835a14.1,14.1,0,0,0-13.947,14.249v.678a14.1,14.1,0,0,0,13.947,14.249h26.789a13.635,13.635,0,0,0,5.613-1.211Z" transform="translate(-943.887 -449.005)" fill="#d2ddfc"/>
                    </g>
                  </g>
                  <g id="Group_1143849" data-name="Group 1143849" transform="translate(8.852 9.506)" style="mix-blend-mode: screen;isolation: isolate">
                    <path id="Path_905641" data-name="Path 905641" d="M1020.669,494.661H985.228a1.313,1.313,0,0,1-1.3-1.328h0a1.314,1.314,0,0,1,1.3-1.327h35.441a1.314,1.314,0,0,1,1.3,1.327h0A1.314,1.314,0,0,1,1020.669,494.661Z" transform="translate(-983.929 -492.006)" fill="#595959"/>
                  </g>
                  <g id="Group_1143850" data-name="Group 1143850" transform="translate(8.852 14.425)" style="mix-blend-mode: screen;isolation: isolate">
                    <path id="Path_905642" data-name="Path 905642" d="M1017.538,516.91h-32.31a1.314,1.314,0,0,1-1.3-1.328h0a1.314,1.314,0,0,1,1.3-1.328h32.31a1.314,1.314,0,0,1,1.3,1.328h0A1.314,1.314,0,0,1,1017.538,516.91Z" transform="translate(-983.929 -514.254)" fill="#595959"/>
                  </g>
                  <g id="Group_1143851" data-name="Group 1143851" transform="translate(8.852 19.253)" style="mix-blend-mode: screen;isolation: isolate">
                    <path id="Path_905643" data-name="Path 905643" d="M1008.383,538.751H985.228a1.314,1.314,0,0,1-1.3-1.328h0a1.314,1.314,0,0,1,1.3-1.327h23.155a1.314,1.314,0,0,1,1.3,1.327h0A1.314,1.314,0,0,1,1008.383,538.751Z" transform="translate(-983.929 -536.096)" fill="#595959"/>
                  </g>
                </g>
              </g>
            </g>
          </g>
        </g>
      </g>
    </g>
  </g>
</svg>
