<svg xmlns="http://www.w3.org/2000/svg" width="41.118" height="37.142" viewBox="0 0 41.118 37.142">
  <g id="people_878820" transform="translate(0 -24.753)">
    <g id="Group_1143651" data-name="Group 1143651" transform="translate(0 24.753)">
      <path id="Path_905202" data-name="Path 905202" d="M35.789,37.12a7.184,7.184,0,0,0-.119-10.461.612.612,0,0,0-.83.9,5.966,5.966,0,0,1-6.573,9.79A.46.46,0,0,1,28,36.962a7.191,7.191,0,0,0-2.939-5.317.463.463,0,0,1-.188-.43,5.975,5.975,0,0,1,8.091-4.825.612.612,0,1,0,.446-1.14,7.2,7.2,0,0,0-9.691,5.419.153.153,0,0,1-.209.112,7.185,7.185,0,0,0-5.378,0,.152.152,0,0,1-.208-.111,7.2,7.2,0,0,0-7.075-5.911h0a7.193,7.193,0,0,0-6.8,4.854.612.612,0,1,0,1.158.4,5.967,5.967,0,0,1,11.565,1.2.462.462,0,0,1-.185.429,7.192,7.192,0,0,0-2.937,5.318.461.461,0,0,1-.262.387,5.965,5.965,0,0,1-8.5-5.153.612.612,0,1,0-1.223.05,7.151,7.151,0,0,0,2.1,4.787A6.929,6.929,0,0,0,0,43.854V53.976a2.418,2.418,0,0,0,2.418,2.418H9.973v3.082a2.419,2.419,0,0,0,2.419,2.419H28.782a2.432,2.432,0,0,0,2.363-2.418V56.394H38.7a2.419,2.419,0,0,0,2.419-2.419V43.854A6.932,6.932,0,0,0,35.789,37.12ZM18.038,32.174a5.975,5.975,0,0,1,8.731,4.762h0a5.891,5.891,0,0,1-.021,1.223h0A5.967,5.967,0,0,1,24.1,42.435h0v0a5.951,5.951,0,0,1-4.126.914v0s0,0,0,0a5.967,5.967,0,0,1-1.927-11.177Zm10.7,28.5H12.392A1.2,1.2,0,0,1,11.2,59.476V49.354a5.638,5.638,0,0,1,1.2-3.492.612.612,0,0,0-.967-.752,6.854,6.854,0,0,0-1.453,4.244V55.17H2.418a1.194,1.194,0,0,1-1.194-1.194V43.854A5.694,5.694,0,0,1,6.918,38.16h.308a7.2,7.2,0,0,0,5.991.579.462.462,0,0,1,.6.335,7.174,7.174,0,0,0,1.416,2.895A.461.461,0,0,1,15,42.7a6.873,6.873,0,0,0-1.559.659.612.612,0,1,0,.612,1.061,5.693,5.693,0,0,1,3.044-.758.463.463,0,0,1,.22.061,7.179,7.179,0,0,0,7,.01.462.462,0,0,1,.253-.061,5.7,5.7,0,0,1,5.349,5.684c0,2.043,0,8.079,0,10.122A1.2,1.2,0,0,1,28.738,60.671Zm11.155-6.694A1.2,1.2,0,0,1,38.7,55.17H31.144V49.354a6.93,6.93,0,0,0-5.33-6.734,7.174,7.174,0,0,0,2.118-4.078,7.177,7.177,0,0,0,6.476-.378,5.7,5.7,0,0,1,5.485,5.69Z" transform="translate(0 -24.753)" fill="#6a2c83"/>
    </g>
  </g>
</svg>
