<svg xmlns="http://www.w3.org/2000/svg" xmlns:xlink="http://www.w3.org/1999/xlink" width="108" height="108" viewBox="0 0 108 108">
  <defs>
    <filter id="Ellipse_11513" x="0" y="0" width="108" height="108" filterUnits="userSpaceOnUse">
      <feOffset dy="3" input="SourceAlpha"/>
      <feGaussianBlur stdDeviation="3" result="blur"/>
      <feFlood flood-opacity="0.161"/>
      <feComposite operator="in" in2="blur"/>
      <feComposite in="SourceGraphic"/>
    </filter>
  </defs>
  <g id="Group_1143694" data-name="Group 1143694" transform="translate(-327 -5428.5)">
    <g id="Group_1143593" data-name="Group 1143593" transform="translate(1 4864.5)">
      <g id="Group_1143497" data-name="Group 1143497" transform="translate(139 -593)">
        <g transform="matrix(1, 0, 0, 1, 187, 1157)" filter="url(#Ellipse_11513)">
          <g id="Ellipse_11513-2" data-name="Ellipse 11513" transform="translate(9 6)" fill="#fdf2d5" stroke="#f5c038" stroke-width="3">
            <circle cx="45" cy="45" r="45" stroke="none"/>
            <circle cx="45" cy="45" r="43.5" fill="none"/>
          </g>
        </g>
      </g>
    </g>
    <g id="_x32_84-Clock_x2C__Ecommerce_x2C__Limited_x2C__Sale_x2C__Time" transform="translate(327.855 5430.073)">
      <path id="Path_905226" data-name="Path 905226" d="M98.488,96.69a26.8,26.8,0,1,0,26.8,26.8A26.8,26.8,0,0,0,98.488,96.69Z" transform="translate(-44.399 -69.309)" fill="#757d8c"/>
      <g id="Group_1143693" data-name="Group 1143693" transform="translate(34.104 17.975)">
        <path id="Path_905227" data-name="Path 905227" d="M442.116,410A2.116,2.116,0,1,1,440,412.116,2.116,2.116,0,0,1,442.116,410Z" transform="translate(-394.866 -356.404)" fill="#3256c1"/>
        <path id="Path_905228" data-name="Path 905228" d="M352.116,40A2.116,2.116,0,1,1,350,42.116,2.116,2.116,0,0,1,352.116,40Z" transform="translate(-317.56 -38.59)" fill="#3256c1"/>
        <path id="Path_905229" data-name="Path 905229" d="M122.116,30A2.116,2.116,0,1,1,120,32.116,2.116,2.116,0,0,1,122.116,30Z" transform="translate(-120 -30)" fill="#3256c1"/>
      </g>
      <path id="Path_905230" data-name="Path 905230" d="M394.524,87.971a6.736,6.736,0,0,1,0,9.518,6.149,6.149,0,0,1-.88.748,19.7,19.7,0,0,0-2.886-4.436c-.07-.082-.142-.164-.214-.245q-.37-.417-.77-.817-.459-.455-.941-.873l-.07-.063a19.889,19.889,0,0,0-4.5-2.951,7.238,7.238,0,0,1,.748-.88A6.736,6.736,0,0,1,394.524,87.971Z" transform="translate(-312.883 -60.129)" fill="#d94556"/>
      <path id="Path_905231" data-name="Path 905231" d="M222.283,26a2.821,2.821,0,0,1,0,5.642h-8.463a2.821,2.821,0,0,1,0-5.642Z" transform="translate(-164.061 -8.59)" fill="#d94556"/>
      <path id="Path_905232" data-name="Path 905232" d="M62.489,87.971a7.238,7.238,0,0,1,.748.88,19.92,19.92,0,0,0-4.5,2.951c-.344.3-.683.611-1.011.937q-.4.4-.77.817c-.052.058-.1.117-.152.175a19.755,19.755,0,0,0-2.948,4.506,6.148,6.148,0,0,1-.88-.748,6.73,6.73,0,0,1,9.518-9.518Z" transform="translate(-26.63 -60.129)" fill="#d94556"/>
      <path id="Path_905233" data-name="Path 905233" d="M132.846,179A21.156,21.156,0,1,1,154,157.842,21.157,21.157,0,0,1,132.846,179Z" transform="translate(-78.758 -103.663)" fill="#e1ebef"/>
      <path id="Path_905234" data-name="Path 905234" d="M244.511,266.69a2.821,2.821,0,1,1-2.821,2.821A2.82,2.82,0,0,1,244.511,266.69Z" transform="translate(-190.422 -215.332)" fill="#d94556"/>
      <path id="Path_905235" data-name="Path 905235" d="M471.41,350a1.41,1.41,0,1,1-1.41,1.41A1.411,1.411,0,0,1,471.41,350Z" transform="translate(-386.531 -286.892)"/>
      <path id="Path_905236" data-name="Path 905236" d="M461.41,200a1.41,1.41,0,1,1-1.41,1.41A1.411,1.411,0,0,1,461.41,200Z" transform="translate(-377.941 -158.048)"/>
      <path id="Path_905237" data-name="Path 905237" d="M431.41,40A1.41,1.41,0,1,1,430,41.41,1.411,1.411,0,0,1,431.41,40Z" transform="translate(-352.172 -20.615)"/>
      <path id="Path_905238" data-name="Path 905238" d="M91.41,430A1.41,1.41,0,1,1,90,431.41,1.411,1.411,0,0,1,91.41,430Z" transform="translate(-60.127 -355.608)"/>
      <path id="Path_905239" data-name="Path 905239" d="M61.41,40A1.41,1.41,0,1,1,60,41.41,1.411,1.411,0,0,1,61.41,40Z" transform="translate(-34.358 -20.615)"/>
      <path id="Path_905240" data-name="Path 905240" d="M41.41,200A1.41,1.41,0,1,1,40,201.41,1.411,1.411,0,0,1,41.41,200Z" transform="translate(-17.179 -158.048)"/>
      <path id="Path_905241" data-name="Path 905241" d="M41.41,370A1.41,1.41,0,1,1,40,371.41,1.411,1.411,0,0,1,41.41,370Z" transform="translate(-17.179 -304.071)"/>
      <path id="Path_905242" data-name="Path 905242" d="M45.307,91.057a1.41,1.41,0,0,1-.8-.246A7.5,7.5,0,0,1,43.43,89.9,8.14,8.14,0,0,1,54.942,78.384a8.653,8.653,0,0,1,.894,1.052,1.41,1.41,0,0,1-.539,2.1,18.554,18.554,0,0,0-4.185,2.742c-.333.289-.65.583-.942.872-.241.241-.481.5-.709.752-.032.035-.055.062-.078.09l-.068.079a18.382,18.382,0,0,0-2.734,4.182,1.41,1.41,0,0,1-1.274.8Zm3.878-12.234a5.281,5.281,0,0,0-3.761,1.555,5.344,5.344,0,0,0-.488,6.962,21.086,21.086,0,0,1,2.254-3.127l.053-.062c.038-.044.076-.088.116-.132.257-.289.535-.585.82-.869.34-.337.7-.673,1.083-1a21.576,21.576,0,0,1,3.125-2.255A5.283,5.283,0,0,0,49.185,78.823Z" transform="translate(-18.086 -51.539)"/>
      <path id="Path_905243" data-name="Path 905243" d="M385.055,91.057a1.41,1.41,0,0,1-1.274-.806,18.326,18.326,0,0,0-2.679-4.119c-.068-.079-.137-.157-.206-.236-.222-.25-.462-.5-.708-.75-.267-.265-.562-.538-.871-.807l-.076-.069a18.488,18.488,0,0,0-4.175-2.734,1.41,1.41,0,0,1-.539-2.1,8.658,8.658,0,0,1,.894-1.052A8.14,8.14,0,1,1,386.933,89.9a7.5,7.5,0,0,1-1.082.915,1.41,1.41,0,0,1-.8.246Zm-7.081-11.165a21.493,21.493,0,0,1,3.124,2.255l.076.069c.35.306.689.62,1,.931.29.29.568.585.832.882.08.091.155.176.228.261a21.035,21.035,0,0,1,2.188,3.05,5.345,5.345,0,0,0-.491-6.964,5.329,5.329,0,0,0-6.961-.484Z" transform="translate(-304.294 -51.539)"/>
      <path id="Path_905244" data-name="Path 905244" d="M213.694,24.463h-8.463a4.231,4.231,0,0,1,0-8.463h8.463a4.231,4.231,0,0,1,0,8.463Zm-8.463-5.642a1.41,1.41,0,0,0,0,2.821h8.463a1.41,1.41,0,0,0,0-2.821Z" transform="translate(-155.471)"/>
      <path id="Path_905245" data-name="Path 905245" d="M252.411,131.952h-.057A1.41,1.41,0,0,1,251,130.485l.1-2.441a1.41,1.41,0,1,1,2.819.112l-.1,2.441A1.411,1.411,0,0,1,252.411,131.952Z" transform="translate(-198.419 -95.077)"/>
      <path id="Path_905246" data-name="Path 905246" d="M252.41,415.078a1.411,1.411,0,0,1-1.41-1.41V411.41a1.41,1.41,0,0,1,2.821,0v2.257A1.411,1.411,0,0,1,252.41,415.078Z" transform="translate(-198.419 -338.429)"/>
      <path id="Path_905247" data-name="Path 905247" d="M347.16,175.171a1.41,1.41,0,0,1-1.027-2.377l1.684-1.79a1.41,1.41,0,0,1,2.055,1.933l-1.684,1.79A1.407,1.407,0,0,1,347.16,175.171Z" transform="translate(-279.805 -132.76)"/>
      <path id="Path_905248" data-name="Path 905248" d="M147.76,375.755a1.411,1.411,0,0,1-1-2.408l1.6-1.6a1.41,1.41,0,0,1,1.995,1.995l-1.6,1.6A1.406,1.406,0,0,1,147.76,375.755Z" transform="translate(-108.529 -305.221)"/>
      <path id="Path_905249" data-name="Path 905249" d="M388.763,280.821H386.41a1.41,1.41,0,0,1,0-2.821h2.353a1.41,1.41,0,0,1,0,2.821Z" transform="translate(-313.519 -225.047)"/>
      <path id="Path_905250" data-name="Path 905250" d="M105.55,280.821h-2.44a1.41,1.41,0,0,1,0-2.821h2.44a1.41,1.41,0,0,1,0,2.821Z" transform="translate(-70.177 -225.047)"/>
      <path id="Path_905251" data-name="Path 905251" d="M348.712,377.122a1.406,1.406,0,0,1-1-.413l-1.551-1.551a1.411,1.411,0,0,1,1.995-1.995l1.551,1.551a1.41,1.41,0,0,1-1,2.408Z" transform="translate(-279.805 -306.433)"/>
      <path id="Path_905252" data-name="Path 905252" d="M147.878,176.288a1.406,1.406,0,0,1-1-.413l-1.838-1.838a1.411,1.411,0,0,1,1.995-1.995l1.838,1.838a1.41,1.41,0,0,1-1,2.408Z" transform="translate(-107.052 -133.679)"/>
      <path id="Path_905253" data-name="Path 905253" d="M252.8,63.149a1.411,1.411,0,0,1-1.41-1.394l-.049-4.329A1.411,1.411,0,0,1,252.733,56h.016a1.41,1.41,0,0,1,1.41,1.394l.05,4.329a1.411,1.411,0,0,1-1.394,1.427Z" transform="translate(-198.71 -34.358)"/>
      <path id="Path_905254" data-name="Path 905254" d="M235.921,265.153a4.231,4.231,0,1,1,4.231-4.231A4.236,4.236,0,0,1,235.921,265.153Zm0-5.642a1.41,1.41,0,1,0,1.41,1.41A1.412,1.412,0,0,0,235.921,259.511Z" transform="translate(-181.833 -206.742)"/>
      <path id="Path_905255" data-name="Path 905255" d="M89.9,143.107A28.209,28.209,0,1,1,118.107,114.9,28.241,28.241,0,0,1,89.9,143.107Zm0-53.6A25.388,25.388,0,1,0,115.286,114.9,25.417,25.417,0,0,0,89.9,89.511Z" transform="translate(-35.81 -60.72)"/>
      <path id="Path_905256" data-name="Path 905256" d="M124.257,171.823a22.566,22.566,0,0,1-22.565-22.36c0-.069,0-.138,0-.207a22.567,22.567,0,0,1,45.134,0c0,.07,0,.138,0,.207a22.567,22.567,0,0,1-22.565,22.36Zm0-42.313a19.747,19.747,0,0,0-19.746,19.746c0,.051,0,.1,0,.152,0,.007,0,.014,0,.021a19.745,19.745,0,0,0,39.489,0v-.023c0-.05,0-.1,0-.15a19.746,19.746,0,0,0-19.746-19.746Z" transform="translate(-70.168 -95.077)"/>
      <path id="Path_905257" data-name="Path 905257" d="M184.384,290.794A12.708,12.708,0,0,1,171.69,278.1a1.41,1.41,0,1,1,2.821,0,9.873,9.873,0,0,0,19.746,0,1.41,1.41,0,1,1,2.821,0A12.708,12.708,0,0,1,184.384,290.794Z" transform="translate(-130.295 -223.921)"/>
      <path id="Path_905258" data-name="Path 905258" d="M253.1,193.637a1.41,1.41,0,0,1-1.41-1.41V181.41a1.41,1.41,0,1,1,2.821,0v10.817A1.41,1.41,0,0,1,253.1,193.637Z" transform="translate(-199.012 -140.869)"/>
      <path id="Path_905259" data-name="Path 905259" d="M193.723,472.821H151.41a1.41,1.41,0,1,1,0-2.821h42.313a1.41,1.41,0,1,1,0,2.821Z" transform="translate(-111.664 -389.966)"/>
      <path id="Path_905260" data-name="Path 905260" d="M27.052,432.821H21.41a1.41,1.41,0,1,1,0-2.821h5.642a1.41,1.41,0,1,1,0,2.821Z" transform="translate(0 -355.608)"/>
      <path id="Path_905261" data-name="Path 905261" d="M433.526,407.052a3.526,3.526,0,1,1,3.526-3.526A3.53,3.53,0,0,1,433.526,407.052Zm0-4.231a.705.705,0,1,0,.705.705A.706.706,0,0,0,433.526,402.821Z" transform="translate(-352.172 -329.839)"/>
      <path id="Path_905262" data-name="Path 905262" d="M113.526,27.052a3.526,3.526,0,1,1,3.526-3.526A3.53,3.53,0,0,1,113.526,27.052Zm0-4.231a.705.705,0,1,0,.705.705A.706.706,0,0,0,113.526,22.821Z" transform="translate(-77.306 -3.436)"/>
      <path id="Path_905263" data-name="Path 905263" d="M343.526,37.052a3.526,3.526,0,1,1,3.526-3.526A3.53,3.53,0,0,1,343.526,37.052Zm0-4.231a.705.705,0,1,0,.705.705A.706.706,0,0,0,343.526,32.821Z" transform="translate(-274.866 -12.025)"/>
    </g>
  </g>
</svg>
