<svg xmlns="http://www.w3.org/2000/svg" xmlns:xlink="http://www.w3.org/1999/xlink" width="432.232" height="273.864" viewBox="0 0 432.232 273.864">
  <defs>
    <clipPath id="clip-path">
      <rect id="top-view-little-kid-playing-with-rubics-cube-yellow-surface" width="432.232" height="273.864" rx="10" transform="translate(3705.95 1633.886)" fill="#0b0a0a" opacity="0.48"/>
    </clipPath>
    <linearGradient id="linear-gradient" x1="6.513" y1="-8.102" x2="9.391" y2="-8.356" gradientUnits="objectBoundingBox">
      <stop offset="0" stop-color="#167b60"/>
      <stop offset="1" stop-color="#12926f"/>
    </linearGradient>
    <linearGradient id="linear-gradient-2" x1="5.35" y1="-150.578" x2="5.411" y2="-139.284" gradientUnits="objectBoundingBox">
      <stop offset="0" stop-color="#fdbe47"/>
      <stop offset="1" stop-color="#ffda7d"/>
    </linearGradient>
    <linearGradient id="linear-gradient-3" x1="8.07" y1="-19.923" x2="7.574" y2="-16.896" gradientUnits="objectBoundingBox">
      <stop offset="0" stop-color="#f7e8c9"/>
      <stop offset="1" stop-color="#f1ece3"/>
    </linearGradient>
    <linearGradient id="linear-gradient-4" x1="1.957" y1="1.625" x2="2.666" y2="3.557" gradientUnits="objectBoundingBox">
      <stop offset="0" stop-color="#0b0f55"/>
      <stop offset="1" stop-color="#3b379d"/>
    </linearGradient>
  </defs>
  <g id="Mask_Group_1098699" data-name="Mask Group 1098699" transform="translate(-3705.95 -1633.886)" clip-path="url(#clip-path)">
    <g id="Group_1143859" data-name="Group 1143859" transform="translate(-264.05 980.438)">
      <path id="Path_905645" data-name="Path 905645" d="M0,0H432.232V432.232H0Z" transform="translate(3970 531)" fill="#f8ecfd"/>
      <path id="Path_905646" data-name="Path 905646" d="M521.285,1795.7l.916.64c-.657,3.406-2.334,6.622-2.956,10.045l-1.245.035Z" transform="translate(3541.558 -954.237)" fill="#0e2373"/>
      <path id="Path_905647" data-name="Path 905647" d="M435.943,1790.5l.19.052,5.308,11.6h-1.279l-4.962-10.737A1.46,1.46,0,0,1,435.943,1790.5Z" transform="translate(3610.043 -949.936)" fill="#0e2373"/>
      <path id="Path_905648" data-name="Path 905648" d="M1892.469,1810.16a29.441,29.441,0,0,1,4.461-.138l9.025.173c2.991.052,6.017-.208,8.973-.052l.173.225-.709.069-8.109.64-8.817.19a23.988,23.988,0,0,1-4.167,0,1.588,1.588,0,0,1-.9-.484Z" transform="translate(2404.782 -966.069)" fill="#babdf8"/>
      <path id="Path_905649" data-name="Path 905649" d="M1426.524,350.167c.069-.968-.173-3.475.259-4.167l.553.069.017,25.45-.242.363-.571-.069-.052-.259a43.4,43.4,0,0,1-.017-6Z" transform="translate(2790.246 244.821)" fill="#0e2373"/>
      <path id="Path_905650" data-name="Path 905650" d="M1890.55,1793.838c1.227-.415,3.752-.121,5.118-.121,6.587,0,12.9.173,19.45.813a28.123,28.123,0,0,1,4.2.38,3.224,3.224,0,0,0,.622.156l.277.052a6.527,6.527,0,0,1-1.539.052c-3.337-.225-6.795-.035-10.131.052l-12.189.121c-2.438.017-5.343.329-7.711-.173a1.284,1.284,0,0,1,.156-1.089Z" transform="translate(2407.928 -952.513)" fill="#babdf8"/>
      <path id="Path_905651" data-name="Path 905651" d="M1775.418,1147.334c2.663-.19,28.424-.277,29.184.121a1.86,1.86,0,0,1-.259,1.452l-19.036-.035c-3.13,0-6.466.225-9.578-.069a1.178,1.178,0,0,1-.778-.329l-.052-.726Z" transform="translate(2501.967 -417.836)" fill="#6197f5"/>
      <path id="Path_905652" data-name="Path 905652" d="M1775.757,1093.442c2.386-.277,28.1-.294,28.8.121l.035,1.141-.519.26H1777.8a5.075,5.075,0,0,1-2.7-.38v-.726Z" transform="translate(2501.802 -373.228)" fill="#6197f5"/>
      <path id="Path_905653" data-name="Path 905653" d="M1774.471,1038.576a50.715,50.715,0,0,1,7.071-.087l15.042-.017h4.409a10.338,10.338,0,0,1,2.2.017,1.045,1.045,0,0,1,.415.208l-.017,1.158-.709.19-21.439.1-4.824.017a7.632,7.632,0,0,1-2.178-.1,2.254,2.254,0,0,1-.536-.363v-.571Z" transform="translate(2502.794 -327.871)" fill="#6197f5"/>
      <path id="Path_905654" data-name="Path 905654" d="M501.8,1711.262a18.709,18.709,0,0,1-4.616-5.066,15.9,15.9,0,0,1-2.369-12.4c2.265,3.613,3.907,7.59,6.12,11.255a8.281,8.281,0,0,0,1.141,1.781c.432.726.674.951.484,1.8Z" transform="translate(3561.064 -869.954)" fill="#56cc98"/>
      <path id="Path_905655" data-name="Path 905655" d="M676.566,1355.549a2.384,2.384,0,0,1,.986.121c.709,1.228.311,5.325.311,6.916l6.432.017a1.751,1.751,0,0,1,.553,1.28l-.277.363c-2.023.5-4.616.207-6.726.225v5.74a1.509,1.509,0,0,1-.726,1.279,1.246,1.246,0,0,1-1.106-.467c-.519-1.85-.173-4.478-.173-6.414a3.411,3.411,0,0,0-1.573-.121c-1.279,0-4.34.363-5.394-.4a1.444,1.444,0,0,1,0-1.107,2.86,2.86,0,0,1,.64-.57c.346-.173,5.636.017,6.38.017l.121-6.449Z" transform="translate(3416.862 -590.175)" fill="#f477ae"/>
      <path id="Path_905656" data-name="Path 905656" d="M1436.347,684.3l1.314,2.766c1.228,2.282,3.614,3.026,5.948,3.683-1.591.778-3.6,1.556-4.807,2.853a12.433,12.433,0,0,0-2.161,4.063,14.282,14.282,0,0,1-1.3-2.3c-1.5-2.784-3.008-3.216-5.844-4.391.45-.449,1.9-.674,2.542-.934C1434.531,689.037,1435.344,686.565,1436.347,684.3Z" transform="translate(2802.813 -15.262)" fill="#fad76f"/>
      <path id="Path_905657" data-name="Path 905657" d="M1937.821,1773.78l-.208.276a9.928,9.928,0,0,1-3.06.156l-7.625.017-35.962-.017c-.484-.38-.38-.8-.467-1.4l.26-.294,7.521-.017Z" transform="translate(2406.354 -935.048)" fill="#babdf8"/>
      <path id="Path_905658" data-name="Path 905658" d="M2109.731,1529.335l2.438-.034v5.861c1.158,0,5.169-.328,5.878.294l.034,1.8c-.726.692-4.686.328-5.878.328l-.087,5.792-.709.156-1.366-.017c-.726-.726-.4-4.582-.4-5.775l-6.345-.017.052-2.576,6.328-.035Z" transform="translate(2230.345 -733.895)" fill="#f477ae"/>
      <path id="Path_905659" data-name="Path 905659" d="M544.649,1772.561l15.232-.761c-2.161,2.922-4.876,5.342-8.576,5.965a10.577,10.577,0,0,1-5.671-.553,7.7,7.7,0,0,0-2.334-.761Z" transform="translate(3520.633 -934.469)" fill="#56cc98"/>
      <path id="Path_905660" data-name="Path 905660" d="M1416.172,493.6a2.817,2.817,0,0,1,2.075,1,1.82,1.82,0,0,1,.449.934,20.844,20.844,0,0,1,.1,3.752,37.533,37.533,0,0,1-.052,5.031,2.755,2.755,0,0,1-1.124,2.04,3.245,3.245,0,0,1-2.559.467,3.026,3.026,0,0,1-1.988-1.539,7.58,7.58,0,0,1-.207-2.8v-5.031a6.814,6.814,0,0,1,.19-2.369,2.353,2.353,0,0,1,1.262-1.314,3.542,3.542,0,0,1,.968-.138l.052.259.571.069Z" transform="translate(2801.428 122.74)" fill="#3752a1"/>
      <path id="Path_905661" data-name="Path 905661" d="M1896.064,1759.663l-.259-.19-.207.035a8.038,8.038,0,0,1-1.729-.173l-4.219-.017a5.809,5.809,0,0,1-1.228,0,4.619,4.619,0,0,1-.622-.38c.83-.553,7.711-.207,9.181-.207a4.961,4.961,0,0,0,2.334-.207l7.192-.1a51.222,51.222,0,0,0,5.152,0c1.158-.121,2.334.017,3.475-.1a19.051,19.051,0,0,1,4.858,0,37.3,37.3,0,0,0,8.333,0c2.541-.225,5.308,0,7.867,0l.536-1.158.328-.156c-.363,1.124-.9,2.057-1.176,3.216a4.009,4.009,0,0,1-.276.761Z" transform="translate(2408.587 -922.227)" fill="#fbe5b5"/>
      <path id="Path_905662" data-name="Path 905662" d="M964.944,569.752a7.7,7.7,0,0,1,3.959.311,4.505,4.505,0,0,1,2.507,2.732,4.785,4.785,0,0,1-.138,4.011,5.087,5.087,0,0,1-3.043,2.593,6.866,6.866,0,0,1-2.784.1,5.116,5.116,0,0,1-3.268-2.421,4.8,4.8,0,0,1-.415-3.8A5.7,5.7,0,0,1,964.944,569.752Z" transform="translate(3174.698 59.849)" fill="#56cc98"/>
      <path id="Path_905663" data-name="Path 905663" d="M1045.3,432.5a7.43,7.43,0,0,1,.882,1.781,11.943,11.943,0,0,1,.052,2.49v5.1a14.554,14.554,0,0,1-.1,3.579,3.161,3.161,0,0,1-1.608,1.8,3.074,3.074,0,0,1-2.317-.069,3.491,3.491,0,0,1-1.8-2.006c-.38-1.176-.363-9.544-.087-10.892a6.578,6.578,0,0,1,.622-1.435A9.006,9.006,0,0,0,1045.3,432.5Z" transform="translate(3109.708 173.276)" fill="#2e79ed"/>
      <path id="Path_905664" data-name="Path 905664" d="M1773.979,929.839c1.452-.38,3.527-.1,5.083-.1l12.517-.017,29.2-.035,16.373.035c.311.45.173.657.121,1.176a20.463,20.463,0,0,1-3.855.1h-35.754l-16.407.035c-2.248,0-5.291.38-7.417-.121C1773.668,930.392,1773.737,930.358,1773.979,929.839Z" transform="translate(2502.923 -237.91)" fill="#6197f5"/>
      <path id="Path_905665" data-name="Path 905665" d="M1774.983,983.463l44.157-.086,12.172-.052a35.06,35.06,0,0,1,5.723.086,1.431,1.431,0,0,1-.121,1.158l-.778.086c-6.76.017-60.824.657-62.38-.173l-.156-.5.259-.363Z" transform="translate(2503.043 -282.25)" fill="#6197f5"/>
      <path id="Path_905666" data-name="Path 905666" d="M2132.221,460.145a6.224,6.224,0,0,1,2.524.156,5.817,5.817,0,0,1,3.492,3.492,5.051,5.051,0,0,1-.242,3.942c-.83,1.729-2.109,2.265-3.8,2.87a5.108,5.108,0,0,1-2.109-.069,6.31,6.31,0,0,1-3.544-3.095,4.037,4.037,0,0,1-.19-3.717A6.254,6.254,0,0,1,2132.221,460.145Z" transform="translate(2209.931 150.454)" fill="#f9934f"/>
      <path id="Path_905667" data-name="Path 905667" d="M225.181,1223.861a7.48,7.48,0,0,1,2.974.035,4.994,4.994,0,0,1,3.077,2.714,6.07,6.07,0,0,1,.207,4.634,5.426,5.426,0,0,1-3.32,2.87,9.157,9.157,0,0,1-2.835-.052l-.225-.069a5.065,5.065,0,0,1-2.956-2.455,6.283,6.283,0,0,1-.328-4.616C222.467,1225.21,223.591,1224.553,225.181,1223.861Z" transform="translate(3786.814 -481.154)" fill="#f69072"/>
      <path id="Path_905668" data-name="Path 905668" d="M2278.106,1618.67a8.7,8.7,0,0,1,2.507.086,5.164,5.164,0,0,1,3.475,2.593,5.532,5.532,0,0,1,.4,4.1c-.588,1.937-2.057,2.835-3.752,3.7a7.432,7.432,0,0,1-2.317-.087,5.257,5.257,0,0,1-3.527-2.749,5.149,5.149,0,0,1-.225-4.391A5.615,5.615,0,0,1,2278.106,1618.67Z" transform="translate(2088.925 -807.774)" fill="#fbbe56"/>
      <path id="Path_905669" data-name="Path 905669" d="M1776.118,1201.922l15.007.034,34.164-.121c1.833,0,11.9-.415,12.95.19l-.017,1.037-.467.225-62.259-.017c-.363-.484-.277-.536-.225-1.141Z" transform="translate(2501.7 -462.932)" fill="#6197f5"/>
      <path id="Path_905670" data-name="Path 905670" d="M1858.636,1566.6a6.622,6.622,0,0,1,2.853.761,5.982,5.982,0,0,1,2.749,3.821,5.278,5.278,0,0,1-.778,3.8,5.111,5.111,0,0,1-7.279,1.625,5.613,5.613,0,0,1-2.4-3.544,5.083,5.083,0,0,1,.709-3.873A5.9,5.9,0,0,1,1858.636,1566.6Z" transform="translate(2436.817 -764.746)" fill="#56cc98"/>
      <path id="Path_905671" data-name="Path 905671" d="M230.607,716.255a7.028,7.028,0,0,1,3.06.156,5.867,5.867,0,0,1,3.441,3.406,5.45,5.45,0,0,1-.156,4.011,5.725,5.725,0,0,1-3.838,3.095,8.337,8.337,0,0,1-2.853-.242,5.428,5.428,0,0,1-3.32-2.939,5.28,5.28,0,0,1-.156-3.976A6.2,6.2,0,0,1,230.607,716.255Z" transform="translate(3779.109 -27.795)" fill="#56cc98"/>
      <path id="Path_905672" data-name="Path 905672" d="M1832.517,1256.032c1.141-.017,3.959-.38,4.841.138.017.674.19,1.072-.259,1.591l-57.988.017c-1.279.017-3.3.225-4.5-.259-.311-.121-.294-.38-.415-.657l.363-.467a28.931,28.931,0,0,1,6-.207l11.1-.017Z" transform="translate(2502.546 -507.758)" fill="#6197f5"/>
      <path id="Path_905673" data-name="Path 905673" d="M418.6,1661.052c.017-4.219.605-8.385.83-12.586l.156-4.53a8.164,8.164,0,0,1,.138-2.835l2.3,3.717a5.267,5.267,0,0,1,1.643-.173c.415-.1.864-.156,1.279-.225l.173.173.242,5.9c.035,4.426.571,9.388-1.279,13.52-.467,1.055-1.176,1.937-1.677,2.957l-.19-.052a4.746,4.746,0,0,0-.657-1.193C420.692,1664.112,419.6,1662.556,418.6,1661.052Z" transform="translate(3623.773 -826.366)" fill="url(#linear-gradient)"/>
      <path id="Path_905674" data-name="Path 905674" d="M438.4,1661.773a5.27,5.27,0,0,1,1.643-.173,20.035,20.035,0,0,1,.173,3.8Z" transform="translate(3607.396 -843.321)" fill="#faf9fd"/>
      <path id="Path_905675" data-name="Path 905675" d="M449.362,1660.3l.173.173.242,5.9-.277-.605-.242-.087a1.937,1.937,0,0,1-.986-1.349,20.029,20.029,0,0,0-.173-3.8A7.115,7.115,0,0,1,449.362,1660.3Z" transform="translate(3599.373 -842.246)" fill="#249dc4"/>
      <path id="Path_905676" data-name="Path 905676" d="M771.01,239.8a23.86,23.86,0,0,1,1.037,2.23c2.006,4.357,4.772,5.55,9.008,7.123-1.124.674-2.351,1.072-3.527,1.66-3.527,1.781-4.755,4.858-6.224,8.282l-.415.069a20.535,20.535,0,0,1-1.833-3.579c-1.867-3.683-4.53-4.391-7.867-6.207,0-.1-.052-.225,0-.294a5.078,5.078,0,0,1,1.228-.605,25.876,25.876,0,0,0,3.6-1.608C768.762,245.16,769.713,242.6,771.01,239.8Z" transform="translate(3340.433 332.66)" fill="#fbbe56"/>
      <path id="Path_905677" data-name="Path 905677" d="M1041.1,263.916l36.861-13.416a6.524,6.524,0,0,1-.052,4.219l-.121.277a13.685,13.685,0,0,1-5.222,5.463c-2.282,1.452-4.841,2.2-7.158,3.51l-16.39.138C1046.563,264.124,1043.5,264.435,1041.1,263.916Z" transform="translate(3108.898 323.81)" fill="#7dbbf7"/>
      <path id="Path_905678" data-name="Path 905678" d="M1036.809,328.1c2.386.519,5.463.207,7.936.207l16.39-.138,47.476-.017a2.891,2.891,0,0,1-1.245,2.248,4.709,4.709,0,0,1-2.9.9l-.086-.035-.553-.069c-.432.692-.19,3.181-.259,4.167l-.035-4.132-5.014-.035a42.409,42.409,0,0,0-5.135.069l-40.37.017a17.143,17.143,0,0,0-5.792,0l-.311.017a43.876,43.876,0,0,0-6.743-.138l.035,13.641a4.677,4.677,0,0,1,1.625,1.331,8.565,8.565,0,0,1-4.34.311,3.116,3.116,0,0,1,1.694-1.625V331.385a6.377,6.377,0,0,1-1.885-.536,2.912,2.912,0,0,1-1.279-1.833c-.121-.432-.173-.363.069-.778Z" transform="translate(3113.19 259.626)" fill="#2c55e2"/>
      <path id="Path_905679" data-name="Path 905679" d="M1046.819,359.092l-.052-12.95.346-.242.242.138.069,13.244.19.277a4.676,4.676,0,0,1,1.625,1.331,8.565,8.565,0,0,1-4.34.311,3.116,3.116,0,0,1,1.694-1.625Z" transform="translate(3105.756 244.904)" fill="#0e2373"/>
      <path id="Path_905680" data-name="Path 905680" d="M1194.352,250.5a24.99,24.99,0,0,1,4.271,1.487l7.694,2.87,19.485,6.968a23.551,23.551,0,0,1,3.216,1.141c.138.086.173.242.259.38v.64L1181.8,264c2.317-1.314,4.876-2.057,7.158-3.51a13.908,13.908,0,0,0,5.221-5.463l.121-.277A6.749,6.749,0,0,0,1194.352,250.5Z" transform="translate(2992.524 323.81)" fill="#6197f5"/>
      <path id="Path_905681" data-name="Path 905681" d="M2203.564,953.794a14.906,14.906,0,0,0,4.875-.294l.121,7.417.052,62.639a10.609,10.609,0,0,0-1.815-.017l-5-.156a4.644,4.644,0,0,0,2.248-.207Z" transform="translate(2148.875 -257.647)" fill="#fad76f"/>
      <path id="Path_905682" data-name="Path 905682" d="M1785.177,800.351l-43.759.017h-13.209a48.234,48.234,0,0,1-6.328-.086,9.745,9.745,0,0,1-5.083-2.23c-1.9-1.712-4.028-4.357-4.115-7.037a7.811,7.811,0,0,1,2.438-5.809c2.507-2.507,6.051-1.954,9.267-1.954l-.294.277a9.639,9.639,0,0,1-.934.726,6.781,6.781,0,0,0-3.078,4.409,5.619,5.619,0,0,0,1.141,4.841,5.377,5.377,0,0,0,3.389,2.248l.259.052a32.505,32.505,0,0,0,5.809.138h11.532l42.255-.017A20.046,20.046,0,0,0,1785.177,800.351Z" transform="translate(2553.431 -116.79)" fill="#fbbe56"/>
      <path id="Path_905683" data-name="Path 905683" d="M577.483,1006.217c.052,1.885-.069,3.613-1.331,5.118a6.562,6.562,0,0,1-4.5,2.472c-3.181.208-6.466.017-9.647.017l-19.935-.052-10.339.069a34.322,34.322,0,0,1-5.5-.086,7.259,7.259,0,0,1-3.821-1.833,7.1,7.1,0,0,1-2.282-4.91L520.1,988.34l.017-7.884a26.813,26.813,0,0,1,.225-5,6.425,6.425,0,0,1,1.573-2.991c2.144-2.3,4.357-2.334,7.313-2.369l-1.781,1.539a5.945,5.945,0,0,0-2.628,4.063c-.45,3.925-.086,8.264-.086,12.241l.069,11.878a38.982,38.982,0,0,0,.225,5.325,5.179,5.179,0,0,0,1.245,2.611,5.07,5.07,0,0,0,3.25,1.9c2.265.173,4.651.017,6.933,0l12.344-.017,13.624.035c3.216.035,6.518.156,9.717-.086a6.69,6.69,0,0,0,2.7-.743l.225-.1A8.217,8.217,0,0,0,577.483,1006.217Z" transform="translate(3539.822 -271.377)" fill="#fbbe56"/>
      <path id="Path_905684" data-name="Path 905684" d="M1975.631,1025.256l.622-.156a16.3,16.3,0,0,1,3.216,2.248l9.976,7.331a26.43,26.43,0,0,0,5.464-3.233l7-4.582a2.414,2.414,0,0,1,1.694.4c.778,1.366.311,13.019.294,15.439.017,1.591.363,4.772-.38,6.1-.242.432-.311.571-.8.657a18.487,18.487,0,0,1-3.527.121l-6.432.052-10.27.052c-1.988,0-4.046.121-6.017-.052a1.941,1.941,0,0,1-1.106-.38,2.729,2.729,0,0,1-.363-1.262c-.121-2.282.069-4.668.086-6.95.017-1.954-.294-14.644.052-15.249A3.56,3.56,0,0,1,1975.631,1025.256Z" transform="translate(2336.489 -316.868)" fill="#56cc98"/>
      <path id="Path_905685" data-name="Path 905685" d="M745.129,1424.325a24.909,24.909,0,0,1-3.129-.916l6.656-21.335c2.7-8.2,5.584-16.183,9.976-23.652,5.377-9.146,13.814-14.886,23.289-19.139a64.994,64.994,0,0,1,9.855-3.683,1.591,1.591,0,0,1-.156.484,12.8,12.8,0,0,1-2.542,1.625l-6.933,4.962a56.423,56.423,0,0,0-10.166,11.29c-9.319,13.157-14.246,29.081-18.206,44.572l-1.677,7.625Z" transform="translate(3356.287 -590.227)" fill="#0f9976"/>
      <path id="Path_905686" data-name="Path 905686" d="M1813.1,1737.873l4.409-23.773,42.29.017,12.085.052c1.988.017,4.063-.1,6.034.069a1.669,1.669,0,0,1,1.383.519,2.211,2.211,0,0,1,.605,1.712c0,.294-.017.225-.156.536a2.271,2.271,0,0,1-1.383,1.262,11,11,0,0,1-3.2.208l-6.069.017c-3.371,0-40.543-.328-41.529.1a9.737,9.737,0,0,0-3.458,3.406l-.328.657a8.206,8.206,0,0,0-.242,5.671l.087.294a8.089,8.089,0,0,0,4.011,4.893,9.539,9.539,0,0,0,4.08.536l6.362.052,29.357.035h7.193a17.147,17.147,0,0,1,3.648.1,1.419,1.419,0,0,1,1.106,1.158,1.641,1.641,0,0,1-.225,1.591,2.733,2.733,0,0,1-1.539.813Z" transform="translate(2470.372 -886.744)" fill="#2e79ed"/>
      <path id="Path_905687" data-name="Path 905687" d="M1865.206,1734.386a4.151,4.151,0,0,1-2.006-.363,6.073,6.073,0,0,1,1.591-3.164,8,8,0,0,1,3.734-2.317,29.159,29.159,0,0,1,5.36-.156h9.3l37.673-.086.346.432a2.271,2.271,0,0,1-1.383,1.262,11,11,0,0,1-3.2.208l-6.068.017c-3.371,0-40.543-.328-41.529.1a9.736,9.736,0,0,0-3.458,3.406Z" transform="translate(2428.934 -898.49)" fill="#2c55e2"/>
      <path id="Path_905688" data-name="Path 905688" d="M1759.058,782.525l64.99-.225a40.568,40.568,0,0,0-3.129,4.53l-.9,2.2a17.257,17.257,0,0,0-.882,6.155l-42.255.017h-11.532a32.516,32.516,0,0,1-5.809-.138l-.259-.052a5.377,5.377,0,0,1-3.389-2.248,5.632,5.632,0,0,1-1.141-4.841,6.842,6.842,0,0,1,3.078-4.409,6.168,6.168,0,0,0,.934-.726Z" transform="translate(2518.743 -116.046)" fill="#fad76f"/>
      <path id="Path_905689" data-name="Path 905689" d="M2012.225,810.522l-16.909-.138a52.035,52.035,0,0,1-7.348-.086,1.385,1.385,0,0,1-.968-.484,1.742,1.742,0,0,1,.571-1.314,62.583,62.583,0,0,1,8.454-.173l17.082-.017Z" transform="translate(2326.538 -137.525)" fill="#faf9fd"/>
      <path id="Path_905690" data-name="Path 905690" d="M518.17,1569.876a55.531,55.531,0,0,1,6.068-1.02,3.849,3.849,0,0,1,2.3.087l.086.225a37.626,37.626,0,0,1,1.02,8.783v1.21l-.069,5.654a7.9,7.9,0,0,1-.311,2.472l-.052.311a33.4,33.4,0,0,1-1.885,8.576l-.363.847a22.142,22.142,0,0,1-2.645,5.688l-.847,1.159-15.232.761-1.349,3.89-.19.121-.916-.64.017-.156.743-2.61c.19-.865-.052-1.089-.484-1.8a7.662,7.662,0,0,1-1.141-1.781c-2.213-3.665-3.856-7.642-6.12-11.255l.259-1.21a30.854,30.854,0,0,1,4.08-8.074l.692-.9a65.355,65.355,0,0,1,7.365-6.622l.8-.588,6.9-2.732A9.841,9.841,0,0,0,518.17,1569.876Z" transform="translate(3559.093 -766.501)" fill="#0f9976"/>
      <path id="Path_905691" data-name="Path 905691" d="M620.4,1569.876a55.529,55.529,0,0,1,6.069-1.02,3.849,3.849,0,0,1,2.3.087c-.553,0-1.141-.173-1.573.259l-5.93,7.936Z" transform="translate(3456.863 -766.501)" fill="#56cc98"/>
      <path id="Path_905692" data-name="Path 905692" d="M632.99,1571.2a37.635,37.635,0,0,1,1.02,8.783c-2.9.138-5.74.951-8.61,1.3C627.544,1577.649,630.621,1574.675,632.99,1571.2Z" transform="translate(3452.727 -768.551)" fill="#56cc98"/>
      <path id="Path_905693" data-name="Path 905693" d="M579.816,1575.78a5.842,5.842,0,0,0,1.3-.38l.847,7.262-1.107,1.089-4.979,8.679a36.861,36.861,0,0,1-.847-4.2l-2.127-9.7Z" transform="translate(3496.15 -772.025)" fill="#56cc98"/>
      <path id="Path_905694" data-name="Path 905694" d="M612.9,1575.78a5.841,5.841,0,0,0,1.3-.38l.847,7.262-1.107,1.089Z" transform="translate(3463.066 -772.025)" fill="#36bb8e"/>
      <path id="Path_905695" data-name="Path 905695" d="M598.915,1623.3c2.887-.346,5.705-1.158,8.61-1.3v1.21l-.069,5.654a7.9,7.9,0,0,1-.311,2.472l-.38-.4-13.365,1.452,3.752-6.535c.536-.864.622-1.314,1.677-1.556Z" transform="translate(3479.195 -810.568)" fill="#56cc98"/>
      <path id="Path_905696" data-name="Path 905696" d="M624.886,1623.3c2.887-.346,5.705-1.158,8.61-1.3v1.21l-8.7,1.072Z" transform="translate(3453.223 -810.568)" fill="#36bb8e"/>
      <path id="Path_905697" data-name="Path 905697" d="M500.857,1640.2l6.829,15.75a48.32,48.32,0,0,1-2.956,6.449l-.277.052-.1.311-.363-.225-.225-.017a7.671,7.671,0,0,1-1.141-1.781c-2.213-3.666-3.856-7.642-6.12-11.255l.259-1.21A30.12,30.12,0,0,1,500.857,1640.2Z" transform="translate(3559.341 -825.621)" fill="#56cc98"/>
      <path id="Path_905698" data-name="Path 905698" d="M496.859,1686.8a9.23,9.23,0,0,1,1.21,1.5c1.366,2.248,2.421,4.72,3.683,7.037l2.23,3.942a6.747,6.747,0,0,1,.847,1.642l-.277.052-.1.311-.363-.225-.225-.017a7.673,7.673,0,0,1-1.141-1.781c-2.213-3.666-3.855-7.642-6.12-11.255Z" transform="translate(3559.259 -864.165)" fill="#36bb8e"/>
      <path id="Path_905699" data-name="Path 905699" d="M574.725,1675.152l13.365-1.452.38.4-.052.311a33.4,33.4,0,0,1-1.885,8.575c-1.625-.83-13.174-.086-15.491.138l-.242-.242,3.164-6.4A8.515,8.515,0,0,1,574.725,1675.152Z" transform="translate(3497.887 -853.329)" fill="#56cc98"/>
      <path id="Path_905700" data-name="Path 905700" d="M589.861,1675.152l13.365-1.452.38.4-.052.311-10.616,1.47c-1.245.207-2.611.294-3.838.605A8.524,8.524,0,0,1,589.861,1675.152Z" transform="translate(3482.751 -853.329)" fill="#36bb8e"/>
      <path id="Path_905701" data-name="Path 905701" d="M554.9,1725.606c2.317-.225,13.849-.968,15.491-.138l-.363.847a22.141,22.141,0,0,1-2.645,5.688l-.847,1.158-15.232.761.363-1.037,2.455-6.138.588-.311Z" transform="translate(3514.016 -895.83)" fill="#56cc98"/>
      <path id="Path_905702" data-name="Path 905702" d="M568.3,1725.606c2.317-.225,13.849-.968,15.491-.138l-.363.847-15.923.415.588-.311Z" transform="translate(3500.617 -895.83)" fill="#36bb8e"/>
      <path id="Path_905703" data-name="Path 905703" d="M551.646,1765.334c4.063-.086,8.247-.657,12.344-.864a9.3,9.3,0,0,1,3.389,0l-.847,1.158-15.232.761Z" transform="translate(3514.016 -928.263)" fill="#36bb8e"/>
      <path id="Path_905704" data-name="Path 905704" d="M533.861,1593.3l2.127,9.7a37.621,37.621,0,0,0,.847,4.2l-.934,1.072c.138,1.176-2.68,5.982-3.354,7.382l-6.708-14.921-.138-.225a65.353,65.353,0,0,1,7.365-6.622Z" transform="translate(3535.19 -786.83)" fill="#56cc98"/>
      <path id="Path_905705" data-name="Path 905705" d="M569.1,1593.3l2.126,9.7a37.663,37.663,0,0,0,.847,4.2l-.934,1.072-2.835-14.385Z" transform="translate(3499.955 -786.83)" fill="#36bb8e"/>
      <path id="Path_905706" data-name="Path 905706" d="M358.34,1857.418l.242.017c4.685.4,9.6.086,14.315.086a32.764,32.764,0,0,1,4.513,0,4.037,4.037,0,0,1,1.954,1.4,3.622,3.622,0,0,1,.674.968,11.02,11.02,0,0,1,.035,2.006,36.268,36.268,0,0,1,.017,5.308,3.326,3.326,0,0,1-1.418,2.248c-1.141.761-3.181.588-4.5.5l-.277,3.527-38.209.035-5.913.035-.208-3.6c-1.573.1-3.406.173-4.7-.9a3.243,3.243,0,0,1-1.262-2.23c-.086-2.2-.536-6.587,1.055-8.2a3.276,3.276,0,0,1,1.763-1.02,39.849,39.849,0,0,1,6.743-.121l14.592-.035h1.279a69.579,69.579,0,0,0,8.057-.017Z" transform="translate(3702.446 -1005.27)" fill="#fbbe56"/>
      <path id="Path_905707" data-name="Path 905707" d="M358.7,1930h44.606l-.277,3.527-38.209.034-5.913.035Z" transform="translate(3673.316 -1065.317)" fill="#f9934f"/>
      <path id="Path_905708" data-name="Path 905708" d="M2132.622,759.744c4.219-3.475,8.212-5.187,13.78-4.634a9.571,9.571,0,0,1,2.282.553,16.422,16.422,0,0,1,9.785,8.109,18.426,18.426,0,0,1,.9,13.952c-1.331,3.942-4.029,6.812-7.037,9.561l-5.083,2.092v7.365l-.121-7.417a14.906,14.906,0,0,1-4.875.294,22.023,22.023,0,0,1-6.155-2.127c-4.357-2.455-6.328-5.792-7.676-10.477a22.125,22.125,0,0,1-.726-4.409,17.65,17.65,0,0,1,.882-6.155l.9-2.2A41.227,41.227,0,0,1,2132.622,759.744Z" transform="translate(2210.169 -93.473)" fill="#56cc98"/>
      <path id="Path_905709" data-name="Path 905709" d="M2180.969,806.888a2.9,2.9,0,0,1,.865-.121,2.025,2.025,0,0,1,1.365.761,1.85,1.85,0,0,1,.346,1.262c-.208,1.072-10.2,11.411-11.584,12.708a14.712,14.712,0,0,1-2.593,2.023,27.99,27.99,0,0,1-4.6-3.873,7.381,7.381,0,0,1-2.369-2.8,2.067,2.067,0,0,1,.467-1.5,2.636,2.636,0,0,1,1.867-.83c1.573.4,3.25,2.663,4.357,3.8,3.043-2.282,5.809-5.619,8.506-8.334A17.845,17.845,0,0,1,2180.969,806.888Z" transform="translate(2181.463 -136.277)" fill="#faf9fd"/>
      <path id="Path_905710" data-name="Path 905710" d="M1099.811,345.409a17.145,17.145,0,0,1,5.792,0l40.37-.017a42.463,42.463,0,0,1,5.135-.069,24.331,24.331,0,0,1-2.178,2.248c-.259.225-1.3.657-1.4.916a7.1,7.1,0,0,0-.086,1.5l-.138,16.563a67.862,67.862,0,0,1-7.711.865,115.948,115.948,0,0,1-14.9.346c-5.757-.277-14.782-1.072-18.845-5.74-3.06-3.492-2.957-8.852-2.732-13.244l.017-.363c-.26-.346-.1-.225-.484-.415a13.258,13.258,0,0,1-3.147-2.576Z" transform="translate(3060.596 245.516)" fill="#7dbbf7"/>
      <path id="Path_905711" data-name="Path 905711" d="M1099.729,345.409a17.145,17.145,0,0,1,5.792,0,25.531,25.531,0,0,0,5.982,6.138,23.875,23.875,0,0,0,31.76-3.112c.951-.968,1.677-2.127,2.645-3.043a42.463,42.463,0,0,1,5.135-.069,24.347,24.347,0,0,1-2.178,2.248c-.259.225-1.3.657-1.4.916a7.117,7.117,0,0,0-.086,1.5,39.08,39.08,0,0,0-4.08,3.562,27.759,27.759,0,0,1-14.506,6.345c-7.521.916-15.509-1.9-21.231-6.743-1.556-1.314-2.766-3.008-4.391-4.236l-.156-.1.017-.363c-.26-.346-.1-.225-.484-.415a13.25,13.25,0,0,1-3.147-2.576Z" transform="translate(3060.678 245.516)" fill="#2e79ed"/>
      <path id="Path_905712" data-name="Path 905712" d="M1099.5,346.617l.311-.017,3.579.1-.1,2.835-.138.086c-.259-.346-.1-.225-.484-.415A12.754,12.754,0,0,1,1099.5,346.617Z" transform="translate(3060.596 244.325)" fill="#6197f5"/>
      <path id="Path_905713" data-name="Path 905713" d="M1134.8,346.417l40.37-.017c-.968.916-1.694,2.075-2.645,3.043a23.874,23.874,0,0,1-31.76,3.112A26.122,26.122,0,0,1,1134.8,346.417Z" transform="translate(3031.399 244.49)" fill="#7dbbf7"/>
      <path id="Path_905714" data-name="Path 905714" d="M1131.839,1187.5l.277.328c.9,1.072,1.349,2.49,2.3,3.613,4.305,5.066,11.463,8.437,18.015,9.146l5.654.069.1,1.919c.294,2.749-.035,6.812,1.141,9.3a7.8,7.8,0,0,0,1.712,1.988,7.131,7.131,0,0,1,1.124,6.414,26.644,26.644,0,0,1-8.991,14.108c-1.331,1.055-3.2,1.9-4.271,3.2l-.069-.052c-.8-1.02-2.766-1.521-3.942-2.161a29.289,29.289,0,0,1-3.717-2.438c-8.178-6.276-11.013-14.834-12.275-24.689a13.187,13.187,0,0,1,3.25-1.158c.19-3.147.017-6.363-.034-9.509-.017-1.106.19-2.939-.259-3.942Z" transform="translate(3036.279 -451.19)" fill="#fbac65"/>
      <path id="Path_905715" data-name="Path 905715" d="M1145.9,1187.5l.277.328c.9,1.072,1.349,2.49,2.3,3.613,4.3,5.066,11.463,8.437,18.015,9.146l5.654.069.1,1.919-.225.744a22.783,22.783,0,0,1-4.478.311,29.1,29.1,0,0,1-16.321-4.461c.069,2.836.744,6.518-1.383,8.731a9.687,9.687,0,0,1-3.631,2.092l.017-2.922c.19-3.147.017-6.363-.035-9.509-.017-1.107.19-2.939-.259-3.942Z" transform="translate(3022.218 -451.19)" fill="#f9934f"/>
      <path id="Path_905716" data-name="Path 905716" d="M1591.212,565.3l1.331.017c.467.8.225,2.3.225,3.25l.035,3.717,5.221-.017a7.524,7.524,0,0,1,2.334.156,1.88,1.88,0,0,1,1.124,1.193c.57,1.366.017,3.406-.467,4.72a15.16,15.16,0,0,1-2.939.086l-5.394-.017-20.246.017-42.964.052-12.223.017a55.875,55.875,0,0,1-6.812-.121c-.311-.225-.467-.294-.64-.64-.519-.985-.259-4.167.086-5.187a4.315,4.315,0,0,1,2.351-.277h5.636l.017-6.57.277-.346,1.608.035,16.943.086,29.859.017,16.252.017C1585.489,565.473,1588.584,565.767,1591.212,565.3Z" transform="translate(2721.479 63.436)" fill="#3752a1"/>
      <path id="Path_905717" data-name="Path 905717" d="M1631.324,565.3l1.331.017c.467.8.225,2.3.225,3.25l.034,3.717L1558,572.25l.017-6.57.277-.346,1.608.035,16.943.086,29.859.017,16.252.017C1625.6,565.473,1628.7,565.767,1631.324,565.3Z" transform="translate(2681.367 63.436)" fill="#fbbe56"/>
      <path id="Path_905718" data-name="Path 905718" d="M1631.324,565.3l1.331.017c.467.8.225,2.3.225,3.25l-74.638-.035a10.662,10.662,0,0,0-.156-2.576l-.086-.294.276-.346,1.608.035,16.944.086,29.859.017,16.252.017C1625.6,565.473,1628.7,565.767,1631.324,565.3Z" transform="translate(2681.367 63.436)" fill="#f9934f"/>
      <path id="Path_905719" data-name="Path 905719" d="M365.813,1950.434l38.209-.034-2.386,22.528-.743,6.051a17.171,17.171,0,0,1-.363,2.7l-.121,1.66-37.673.035-2.835-32.9Z" transform="translate(3672.324 -1082.19)" fill="#fbbe56"/>
      <path id="Path_905720" data-name="Path 905720" d="M359.9,1950.634l5.913-.035c.086,4.616.19,9.233.692,13.831.588,5.377,1.124,10.028,5.221,13.953a11.768,11.768,0,0,0,5.118,2.87c4.115,1.089,8.973.743,13.226.726l10.132-.1.328-.035-.121,1.66-37.673.035Z" transform="translate(3672.324 -1082.355)" fill="#fbac65"/>
      <path id="Path_905721" data-name="Path 905721" d="M1794.076,1851.186l64.524-.086,1.3,1.3c.4.432.83.726.813,1.366-.017.605-.311.726-.743,1.055h-1.833l-3.959,6.95c.069,1.418-.156,3.233.277,4.547l.086.311a24.433,24.433,0,0,0,2.213,5.394,5.683,5.683,0,0,1,2.49.259l.726.242a2.782,2.782,0,0,1,.087,1.8c-.657.709-.692.726-1.694.778-2.732.138-5.6-.26-8.3.156a61.5,61.5,0,0,1-7.573.242h-10.892c-3.423,0-7.348.38-10.685-.173.415-.138.225-.017.536-.363-.069-.138-.069-.328-.19-.415a6.033,6.033,0,0,0-1.331-.294,9.361,9.361,0,0,1-4.807-2.23l-25.018.069,1.867-8.783,1.746-10.131Z" transform="translate(2489.396 -1000.058)" fill="#f9934f"/>
      <path id="Path_905722" data-name="Path 905722" d="M1811.363,1851.186l64.524-.086,1.3,1.3-66.183.761Z" transform="translate(2472.108 -1000.058)" fill="url(#linear-gradient-2)"/>
      <path id="Path_905723" data-name="Path 905723" d="M1791.867,1911.863c4.6-.674,9.8-2.732,14.454-1.833a33.118,33.118,0,0,1,6.207,2.2,10.483,10.483,0,0,0,2.49,8.351l-25.018.069Z" transform="translate(2489.478 -1048.615)" fill="#ee6967"/>
      <path id="Path_905724" data-name="Path 905724" d="M1971.56,1889.356l-.484.017-27.334-.121-7.676-.034a19.6,19.6,0,0,1-4.028-.156,7.348,7.348,0,0,1-3.631-2.161,8.4,8.4,0,0,1-2.507-5.671,9.243,9.243,0,0,1,2.68-6.656,9.873,9.873,0,0,1,4.72-2.714,18.458,18.458,0,0,1,3.527-.052h6.224l27.386.1-3.959,6.95c.069,1.418-.156,3.233.276,4.547l.087.311a24.438,24.438,0,0,0,2.213,5.394A5.487,5.487,0,0,1,1971.56,1889.356Z" transform="translate(2377.075 -1017.135)" fill="url(#linear-gradient-3)"/>
      <path id="Path_905725" data-name="Path 905725" d="M1983.6,1908.335l30.567-.035.035.761Z" transform="translate(2329.35 -1047.369)" fill="#fbe5b5"/>
      <path id="Path_905726" data-name="Path 905726" d="M1952.215,1917.343a18.115,18.115,0,0,1,4.443-.121l12.742.5a46.978,46.978,0,0,1,8.091.934c-3.181.259-24.153.726-25.657-.156l-.034-.744Z" transform="translate(2355.652 -1054.683)" fill="#babdf8"/>
      <path id="Path_905727" data-name="Path 905727" d="M1738.3,869.987a42.25,42.25,0,0,0-.173,6.449l-.017,10.979.017,45.989v13.261a51.769,51.769,0,0,1-.052,6.553,5.812,5.812,0,0,1-1.02,2.455,6.151,6.151,0,0,1-3.89,2.42,44.685,44.685,0,0,1-5.048.052l-10.08.017-32.469.1-35.322.017-11.359.017c-1.988,0-4.08.138-6.051-.017a5.935,5.935,0,0,1-3.51-1.314,5.752,5.752,0,0,1-2.144-3.51c-.138-1.919-.017-3.942-.034-5.878l-.017-11.653V899.656l.017-27.334.017-8.161a40.837,40.837,0,0,1,.035-4.115,5.321,5.321,0,0,1,1.539-3.216c2.092-2.2,4.513-1.8,7.244-1.815l5.775-.017-.035,4.737-5.757-.035a9.367,9.367,0,0,0-2.611.138,1.989,1.989,0,0,0-.778.519,2.609,2.609,0,0,0-.605,1.763l-.121,17.445.052,31.536-.035,27.352c0,4.08-.311,8.42.017,12.483a2.454,2.454,0,0,0,1.072,1.885,2.666,2.666,0,0,0,1.781.38l51.609-.035,23.185.035c3.579,0,7.261.156,10.823-.035l-.121-.173a8.732,8.732,0,0,1,.5-4.772c2.126-4.391,6.743-4.685,10.771-6.172a10.617,10.617,0,0,1,1.815.017l-.052-62.639v-7.365Z" transform="translate(2624.204 -176.174)" fill="#3752a1"/>
      <path id="Path_905728" data-name="Path 905728" d="M2176,1358.319a10.612,10.612,0,0,1,1.815.017l-.017,5.654a17.561,17.561,0,0,1-.017,2.7,3.779,3.779,0,0,1-1,1.591,5.381,5.381,0,0,1-1.262,1.02,9.367,9.367,0,0,1-2.109.069l-8.558.069-.121-.173a8.731,8.731,0,0,1,.5-4.772C2167.352,1360.1,2171.968,1359.823,2176,1358.319Z" transform="translate(2179.675 -592.444)" fill="#fbbe56"/>
      <path id="Path_905729" data-name="Path 905729" d="M143.242,1518.237l-.242-.709.19-.328h1.435a84.082,84.082,0,0,1,18.206,2.49,18.81,18.81,0,0,1,3.8,1.089l.415.069,3.389,1.141,9.717,4.859c.519.45,1.763,1.314,1.971,1.936l.934.8,1.3.83c2.559,2.455,5.688,5.083,7.434,8.212a8.164,8.164,0,0,0-.138,2.835l-.156,4.53c-.225,4.2-.813,8.368-.83,12.587a54.953,54.953,0,0,1,2.974,4.685,5.771,5.771,0,0,1,.657,1.193,1.531,1.531,0,0,0-.743.9l-.052-.052a26.453,26.453,0,0,1-3.613,2.023,20.853,20.853,0,0,1-12.379.484,23.876,23.876,0,0,1-5.463-2.127,7.536,7.536,0,0,1-1.366-.657,43.412,43.412,0,0,1-11.273-8.87l-.968-1.227a57.828,57.828,0,0,1-6.9-10.045l-.692-1.418c-1.089-.917-3.665-9.146-4.236-11.031l-.45-1.262a14.267,14.267,0,0,0-.726-2.87Z" transform="translate(3851.724 -723.887)" fill="#127e63"/>
      <path id="Path_905730" data-name="Path 905730" d="M144.4,1523.2l16.114,12.258-13.244.674a14.261,14.261,0,0,0-.726-2.87Z" transform="translate(3850.566 -728.85)" fill="#56cc98"/>
      <path id="Path_905731" data-name="Path 905731" d="M310.8,1776.592a3.031,3.031,0,0,1,.743-.294l18.24-4.1a15.732,15.732,0,0,1,2.455,4.011,26.428,26.428,0,0,1-3.613,2.023,20.854,20.854,0,0,1-12.379.484A24.9,24.9,0,0,1,310.8,1776.592Z" transform="translate(3712.935 -934.799)" fill="#0f9976"/>
      <path id="Path_905732" data-name="Path 905732" d="M374.6,1588.7l1.3.83c2.559,2.455,5.688,5.083,7.434,8.212a8.165,8.165,0,0,0-.138,2.835l-.156,4.53c-.225,4.2-.813,8.368-.83,12.587l-6.726-7.763C374.669,1609.188,374.7,1591.069,374.6,1588.7Z" transform="translate(3660.166 -783.025)" fill="#36bb8e"/>
      <path id="Path_905733" data-name="Path 905733" d="M152.3,1517.2a84.082,84.082,0,0,1,18.206,2.49,18.81,18.81,0,0,1,3.8,1.089l-.467.1c-.277.726.674,3.25.882,4.028,1.176,4.392,2.213,8.766,3.7,13.071l-18.966-15.2-4.772-3.475A8.228,8.228,0,0,1,152.3,1517.2Z" transform="translate(3844.031 -723.887)" fill="#56cc98"/>
      <path id="Path_905734" data-name="Path 905734" d="M163.6,1602.391l10.858-.449a17.861,17.861,0,0,1,3.458-.086c.951.173,9.561,7.953,11.221,9.319l-21.3,2.247C166.764,1612.505,164.188,1604.275,163.6,1602.391Z" transform="translate(3834.685 -793.846)" fill="#56cc98"/>
      <path id="Path_905735" data-name="Path 905735" d="M237.7,1725.61l24.188-3.51,6.484,7.417-12.189,2.835a43.351,43.351,0,0,0-7.227,2.127A43.916,43.916,0,0,1,237.7,1725.61Z" transform="translate(3773.397 -893.361)" fill="#56cc98"/>
      <path id="Path_905736" data-name="Path 905736" d="M282,1538.3l3.389,1.141,9.717,4.858c.519.449,1.764,1.314,1.971,1.936-.571,1.954-.346,4.34-.346,6.363l.242,13.589-5.826-5.723a27.764,27.764,0,0,1-3.06-3.164,18.006,18.006,0,0,1-1.9-5.083c-1.279-4.409-2.144-9.492-4.08-13.641Z" transform="translate(3736.756 -741.339)" fill="#56cc98"/>
      <path id="Path_905737" data-name="Path 905737" d="M192.1,1666.1l12.69-1.331c2.956-.38,6.518-1.158,9.475-.985l8.766,9.008-24.015,3.371A59.709,59.709,0,0,1,192.1,1666.1Z" transform="translate(3811.113 -845.106)" fill="#56cc98"/>
      <path id="Path_905738" data-name="Path 905738" d="M1663.717,882.19l-.1,60.564.052,11.722c0,2.005-.363,4.841.415,6.674l.1.259a4.44,4.44,0,0,0,2.576,2.265c1.833.64,4.6.346,6.535.346l11,.017,41.753.259,15.37.035c2.3,0,4.772-.173,7.054.035l5,.156c-4.028,1.487-8.645,1.781-10.771,6.172a8.577,8.577,0,0,0-.5,4.772l.121.173c-3.562.19-7.244.035-10.823.035l-23.185-.035-51.574.017a2.77,2.77,0,0,1-1.781-.38,2.454,2.454,0,0,1-1.072-1.885c-.328-4.046-.017-8.4-.017-12.483l.035-27.352-.052-31.536.121-17.445a2.7,2.7,0,0,1,.605-1.763,1.819,1.819,0,0,1,.778-.519,10.892,10.892,0,0,1,2.611-.138Z" transform="translate(2602.189 -198.63)" fill="#fbac65"/>
      <path id="Path_905739" data-name="Path 905739" d="M1931.168,1368.509a3.889,3.889,0,0,1,1.262-.087,3.08,3.08,0,0,1,2.178,1.349,3.3,3.3,0,0,1,.64,2.645c-.242,1.366-1.245,2.023-2.351,2.7a5.63,5.63,0,0,1-1.867-.052,3.161,3.161,0,0,1-1.9-1.521,3.844,3.844,0,0,1-.1-3.06A3.7,3.7,0,0,1,1931.168,1368.509Z" transform="translate(2374.71 -600.819)" fill="#0e2373"/>
      <path id="Path_905740" data-name="Path 905740" d="M1788.154,1972a9.1,9.1,0,0,0,4.807,2.23,7.5,7.5,0,0,1,1.331.294c.121.086.121.276.19.415-.311.346-.121.242-.536.363,3.337.553,7.244.173,10.685.173h10.892a58.243,58.243,0,0,0,7.573-.242l.208.605.363.26a2.243,2.243,0,0,1-.4,1.642,3.948,3.948,0,0,0,2.213.311l3.959.1a13.457,13.457,0,0,1,2.507.052c2.853.6,4.115,4.063,4.772,6.535l.087.346a17.017,17.017,0,0,1-1.452,12.085,7.763,7.763,0,0,1-4.668,3.648,38.978,38.978,0,0,1-6.034.138l-11-.017-42.514-.207-13.641.121a10.461,10.461,0,0,0,3.285-3.977,10.114,10.114,0,0,0,.346-4.755c-.571-.64-.968-.6-1.781-.778a32.424,32.424,0,0,1,1.643-7.815l.692-4.132a19.692,19.692,0,0,0,.5-2.853l.363-1.936.57-2.559Z" transform="translate(2516.359 -1100.056)" fill="#56cc98"/>
      <path id="Path_905741" data-name="Path 905741" d="M1965.956,1990.8l.277.087c3.337.553,7.244.173,10.685.173h10.892a58.243,58.243,0,0,0,7.573-.242l.208.605c-2.04.605-4.7.294-6.847.311l-14.177.1a57,57,0,0,0-8.766.294A6.843,6.843,0,0,1,1965.956,1990.8Z" transform="translate(2344.073 -1115.605)" fill="#0f9976"/>
      <path id="Path_905742" data-name="Path 905742" d="M1784.98,1987.3l30.758.069a1.78,1.78,0,0,1,.346.536,8.561,8.561,0,0,0-.173,1.314H1784.6Z" transform="translate(2493.945 -1112.71)" fill="#0e2373"/>
      <path id="Path_905743" data-name="Path 905743" d="M1812.388,1972a9.1,9.1,0,0,0,4.807,2.23,7.509,7.509,0,0,1,1.331.294c.121.086.121.276.19.415-.311.346-.121.242-.536.363l-.277-.086a1.586,1.586,0,0,0-.346-.536l-30.758-.069.571-2.559Z" transform="translate(2492.125 -1100.056)" fill="#f12c43"/>
      <path id="Path_905744" data-name="Path 905744" d="M1761.784,2013.439a87.219,87.219,0,0,1,12.932-.173,6.473,6.473,0,0,1,4.72,1.8,12.52,12.52,0,0,1,3.32,9.717,10.382,10.382,0,0,1-2.714,6.6l-4.046,2.68-.277-.069a1.758,1.758,0,0,0-1.5.311,3.68,3.68,0,0,0,.865.086,7.147,7.147,0,0,1,1.487.086l-3.7.086a13.186,13.186,0,0,0-1.625.242l-13.641.121a10.458,10.458,0,0,0,3.285-3.976,10.11,10.11,0,0,0,.346-4.755c-.57-.64-.968-.605-1.781-.778a32.431,32.431,0,0,1,1.642-7.815Z" transform="translate(2516.276 -1134.06)" fill="#0f9976"/>
      <path id="Path_905745" data-name="Path 905745" d="M1847.75,2014a6.472,6.472,0,0,1,4.72,1.8,12.52,12.52,0,0,1,3.32,9.716,10.379,10.379,0,0,1-2.715,6.6l-4.046,2.68-.277-.069a1.757,1.757,0,0,0-1.5.311,3.678,3.678,0,0,0,.865.086,7.158,7.158,0,0,1,1.487.086l-3.7.086,2.178-1.02c2.057-1.228,3.665-4.115,4.305-6.363a13.256,13.256,0,0,0-.83-9.924l-.208-.346A11.325,11.325,0,0,0,1847.75,2014Z" transform="translate(2443.243 -1134.794)" fill="#36bb8e"/>
      <path id="Path_905746" data-name="Path 905746" d="M1770.025,2037.893c1.712-.277,3.008-.449,4.53.605a6.025,6.025,0,0,1,2.334,3.769,7.926,7.926,0,0,1-1.141,6.016c-1.418,1.971-3.648,2.559-5.913,2.957a10.109,10.109,0,0,0,.346-4.754c-.57-.64-.968-.605-1.781-.778A30.234,30.234,0,0,1,1770.025,2037.893Z" transform="translate(2507.343 -1154.382)" fill="#faf9fd"/>
      <path id="Path_905747" data-name="Path 905747" d="M1883.9,2023.1l31.726-.121,11.428-.086a45.424,45.424,0,0,1,6.691.121,4.818,4.818,0,0,1,2.628,1.349,8.158,8.158,0,0,1,2.161,4.772l.052.328a12.432,12.432,0,0,1-.259,5.048l-.087.328a6.7,6.7,0,0,1-2.732,4.167,3.885,3.885,0,0,1-1.867.467c-2.42.121-4.945-.121-7.383-.121l-19.364.069-15.422.052a55.335,55.335,0,0,1-6.985-.052,10.215,10.215,0,0,0,2.714-6.6A12.444,12.444,0,0,0,1883.9,2023.1Z" transform="translate(2411.813 -1142.1)" fill="#fbe5b5"/>
      <path id="Path_905748" data-name="Path 905748" d="M1938.9,2060.2l12.9-.138c2.213,0,4.979-.294,7.089.311-1.971,1.556-13.8,1.158-16.805,1.141l-19.71-.277-.173-.294c.933-.571,3.7-.329,4.945-.363Z" transform="translate(2380.134 -1172.83)" fill="#bfc9c0"/>
      <path id="Path_905749" data-name="Path 905749" d="M550.7,970l29.392.017,9.111.035a28.844,28.844,0,0,1,4.409.086,6.757,6.757,0,0,1,3.458,1.712c1.608,1.5,1.9,3.406,1.919,5.481L599,997.179a81.121,81.121,0,0,1-.017,8.939,7.981,7.981,0,0,1-2.421,2.507l-.225.1a6.693,6.693,0,0,1-2.7.743c-3.216.242-6.5.1-9.716.086l-13.624-.035-12.344.017c-2.282.017-4.668.173-6.933,0a5.113,5.113,0,0,1-3.25-1.9,5.253,5.253,0,0,1-1.245-2.611,39.08,39.08,0,0,1-.225-5.325l-.069-11.878c0-3.977-.363-8.3.086-12.241a5.945,5.945,0,0,1,2.628-4.063Z" transform="translate(3518.318 -271.294)" fill="#fad76f"/>
      <path id="Path_905750" data-name="Path 905750" d="M575.685,1114.769a2.54,2.54,0,0,1,.57-.069l29.236.156h7.832a11.98,11.98,0,0,1,2.49,0c.156.052.225.225.346.329l-.035,1.158-.4.329-.207.034a35.545,35.545,0,0,1-4.7.052H601.5l-16.356-.034-8.506-.052a1.855,1.855,0,0,1-1.383-.4C575.2,1115.461,575.149,1115.461,575.685,1114.769Z" transform="translate(3494.23 -390.976)" fill="#fbbe56"/>
      <path id="Path_905751" data-name="Path 905751" d="M576.754,1153.618a50.631,50.631,0,0,1,5.844-.069h12.95l13.33.035c2.317,0,4.772-.138,7.071.086.536.052.484.069.83.484.035.778.086.761-.415,1.349a14.09,14.09,0,0,1-3.2.1h-7.071l-29.357-.017c-.363-.277-.657-.415-.64-.934S576.408,1153.947,576.754,1153.618Z" transform="translate(3493.507 -423.065)" fill="#fbbe56"/>
      <path id="Path_905752" data-name="Path 905752" d="M573.936,1075.107a8,8,0,0,1,2.49-.173l5.273.017,17.808.087,9.25.017a35.248,35.248,0,0,1,5.412.138c.657.588.588.588.64,1.418l-.536.38a12.189,12.189,0,0,1-3.077.121h-6.933l-30.2-.225c-.605-.484-.553-.449-.657-1.227Z" transform="translate(3495.737 -358.074)" fill="#fbbe56"/>
      <path id="Path_905753" data-name="Path 905753" d="M574.167,1036.007a11.58,11.58,0,0,1,2.991-.207l5.792.017,17.86.052h9.077a32.656,32.656,0,0,1,4.115.017c.588.086.622.156.951.605a1.731,1.731,0,0,1-.208,1.4l-.605.121a33.639,33.639,0,0,1-4.945.069l-10.183-.017-16.044-.035c-2.559,0-5.221.156-7.763-.035a1.946,1.946,0,0,1-1.193-.467c-.38-.294-.277-.571-.311-1.02Z" transform="translate(3495.489 -325.718)" fill="#fbbe56"/>
      <path id="Path_905754" data-name="Path 905754" d="M322.561,1238.332l.432-.432c.5.156.294.017.657.4,2.369,1.245,4.409,3.458,6.276,5.325a26.369,26.369,0,0,1,3.977,4.582l1.072,1.227a38.967,38.967,0,0,1,6.656,10.028l.64,1.279c2.4,3.423,3.786,8.178,4.876,12.189l.242,1.3a34.559,34.559,0,0,1,1.158,10.062,16.178,16.178,0,0,1-.346,4.184l-.432,1.833a23.984,23.984,0,0,1-9.786,15.785,32.512,32.512,0,0,1-6.57,3.424,19.619,19.619,0,0,0-3.008,1.072c-.138.121-.121.346-.19.519l-.173-.173a10.386,10.386,0,0,0-1.279.225,5.152,5.152,0,0,0-1.642.173l-2.3-3.717c-1.729-3.147-4.858-5.757-7.434-8.213l-1.3-.83-.934-.8c-.207-.622-1.452-1.487-1.971-1.936l-9.717-4.859a60.468,60.468,0,0,1,.916-11.843l.242-1.452a78.136,78.136,0,0,1,4.167-13.78l.484-1.158a61.962,61.962,0,0,1,5.2-10.719l.726-1.331C315.973,1246.475,318.774,1241.7,322.561,1238.332Z" transform="translate(3720.659 -492.876)" fill="#6197f5"/>
      <path id="Path_905755" data-name="Path 905755" d="M382.1,1593.5l11.169,5.654.225,6.1a5.152,5.152,0,0,0-1.642.173l-2.3-3.717C387.788,1598.583,384.659,1595.972,382.1,1593.5Z" transform="translate(3653.962 -786.995)" fill="#7dbbf7"/>
      <path id="Path_905756" data-name="Path 905756" d="M429.9,1240.2c2.369,1.245,4.409,3.458,6.276,5.325a26.372,26.372,0,0,1,3.977,4.582l-8.835,9.042Z" transform="translate(3614.427 -494.778)" fill="#7dbbf7"/>
      <path id="Path_905757" data-name="Path 905757" d="M378.754,1240.4,380,1259.436l-7.227-4.564c-.882-.536-2.749-1.366-3.371-2.109C372.166,1248.543,374.967,1243.771,378.754,1240.4Z" transform="translate(3664.467 -494.944)" fill="#7dbbf7"/>
      <path id="Path_905758" data-name="Path 905758" d="M454.159,1561.709a41.688,41.688,0,0,0-.259-5.861l19.969-14.748a23.984,23.984,0,0,1-9.786,15.785,32.511,32.511,0,0,1-6.57,3.423,19.614,19.614,0,0,0-3.008,1.072c-.138.121-.121.346-.19.519Z" transform="translate(3594.576 -743.655)" fill="#7dbbf7"/>
      <path id="Path_905759" data-name="Path 905759" d="M448.668,1304.7a38.967,38.967,0,0,1,6.656,10.028,61.647,61.647,0,0,0-4.737,4.288l-10.719,10.3-.968-14.886Z" transform="translate(3606.983 -548.127)" fill="#7dbbf7"/>
      <path id="Path_905760" data-name="Path 905760" d="M335.1,1330.219a61.96,61.96,0,0,1,5.2-10.72c2.213,1.193,10.46,5.775,11.532,7.538l.692,14.35Z" transform="translate(3692.836 -560.368)" fill="#7dbbf7"/>
      <path id="Path_905761" data-name="Path 905761" d="M469.446,1448a34.561,34.561,0,0,1,1.158,10.062,16.178,16.178,0,0,1-.346,4.184,51.055,51.055,0,0,0-6.726,4.7l-13.78,10.01-.571-9.544a12.954,12.954,0,0,1-.121-2.092,11.552,11.552,0,0,1,2.006-1.867l9.941-8.333c1.331-1.072,7.884-5.861,8.351-6.916Z" transform="translate(3598.602 -666.651)" fill="#7dbbf7"/>
      <path id="Path_905762" data-name="Path 905762" d="M460.331,1370c2.4,3.423,3.786,8.178,4.876,12.189l-20.28,16.822-.726-13.762Z" transform="translate(3602.599 -602.137)" fill="#7dbbf7"/>
      <path id="Path_905763" data-name="Path 905763" d="M301.568,1488.243a60.465,60.465,0,0,1,.916-11.843l23.306,12.293.64,11.636-9.941-4.789a44.656,44.656,0,0,0-5.2-2.455Z" transform="translate(3720.577 -690.141)" fill="#7dbbf7"/>
      <path id="Path_905764" data-name="Path 905764" d="M312.467,1388.3l.121.225c.813,1.107,2.887,2.092,4.08,2.835,1.694,1.055,13.416,8.178,13.8,8.887a12.924,12.924,0,0,1,.173,2.645c.242,3.752.553,7.59.536,11.342L308.3,1402.062A76.528,76.528,0,0,1,312.467,1388.3Z" transform="translate(3715.003 -617.273)" fill="#7dbbf7"/>
      <path id="Path_905765" data-name="Path 905765" d="M952.671,871.447c-7.849-2.749-13.313-8.126-17.013-15.491a36.044,36.044,0,0,1-2.334-27.836,13.279,13.279,0,0,1-6.259.5,8.764,8.764,0,0,0-2.49-.622,14.289,14.289,0,0,1-3.095.363,8.079,8.079,0,0,1-5.6-3.32c-2.265-2.818-4.046-7.5-3.562-11.134l.242-1.694a2.336,2.336,0,0,1,1.21-1.746l.328.311a9.478,9.478,0,0,0-.968,4.962c.329,3.821,1.954,8.109,5.083,10.495a5.831,5.831,0,0,0,4.685,1.228l.207-.311a16.554,16.554,0,0,1-3.907-4.443,14.492,14.492,0,0,1-1.452-10.65l.1-.329a19.629,19.629,0,0,1,7.331-10.7,14.617,14.617,0,0,1,11.117-2.265l.259.052.605.121a10.326,10.326,0,0,1,5.965,4.5c2.057,3.492,1.521,8,.657,11.774,4.945-5.792,10.667-11.013,17.652-14.246a31.383,31.383,0,0,1,24.43-.986c8.4,3.181,15.785,9.094,19.571,17.358l-.277.294c-.726.761-1.193,1.729-1.9,2.524-3.319,3.648-7.728,4.893-12.517,5.083-11.221.432-22.8-1.867-33.783-3.907l-.19.415.259.605c.5,4.167,1.867,8.385-1,12.033a12.4,12.4,0,0,1-4.616,3.544l.086,9.042c-1.193-1.435-2.749-3.752-4.755-3.994a5.314,5.314,0,0,0-3.994,1.176,7.045,7.045,0,0,0-2.282,3.441l-.1.329a9.816,9.816,0,0,0,.985,7.4,8.6,8.6,0,0,0,5,4.219,6.255,6.255,0,0,0,5.221-1.02l.207-.121.9,6.881Z" transform="translate(3215.481 -128.999)" fill="url(#linear-gradient-4)"/>
      <path id="Path_905766" data-name="Path 905766" d="M1220.772,829.822h0a28.423,28.423,0,0,1,18.655,4.3,26.327,26.327,0,0,1,6.674,5.584,3.979,3.979,0,0,1,.882,1.608c.052.363-.38.709-.605.986-.743-.277-1.452-1.349-1.988-1.936l-2.023-1.833a32.588,32.588,0,0,0-17.825-7.089,52.616,52.616,0,0,0-8.247.38l-.294-.4.1-.207C1216.916,830.116,1219.475,829.96,1220.772,829.822Z" transform="translate(2964.238 -155.217)" fill="#2c55e2"/>
      <path id="Path_905767" data-name="Path 905767" d="M1089.6,915.214l-.259-.605.19-.415c10.979,2.023,22.563,4.34,33.783,3.907,4.789-.19,9.2-1.418,12.517-5.083.726-.8,1.176-1.763,1.9-2.524l.277-.294a12.608,12.608,0,0,1,.5,6.311,45.121,45.121,0,0,0,5.066-5.533,34.044,34.044,0,0,1-8.818,25.467l-2.386,2.507-.121.207c-.519,1.21-.259,4.271-.38,5.671-.812,9.423-3.181,20.125-12.517,24.655a18.661,18.661,0,0,1-7.9,1.8l-5.654-.069c-6.553-.726-13.71-4.1-18.015-9.146-.951-1.124-1.383-2.542-2.3-3.613l-.277-.329-.9-6.881-.208.121a6.316,6.316,0,0,1-5.221,1.02,8.611,8.611,0,0,1-5-4.219,9.738,9.738,0,0,1-.985-7.4l.1-.328A7.164,7.164,0,0,1,1075.28,937a5.293,5.293,0,0,1,3.994-1.176c2.006.242,3.562,2.559,4.754,3.994l-.086-9.042a12.54,12.54,0,0,0,4.616-3.544C1091.463,923.6,1090.1,919.381,1089.6,915.214Z" transform="translate(3082.896 -221.833)" fill="#fbac65"/>
      <path id="Path_905768" data-name="Path 905768" d="M1224.956,1121.563a6.513,6.513,0,0,1,2.006-.156,4.533,4.533,0,0,1,3.371,1.521,2.25,2.25,0,0,1,.138,1.539c-.19.865-.865,1.245-1.59,1.66a7.778,7.778,0,0,1-1.677.138c-1.055-.069-2.887-.45-3.544-1.383a2.146,2.146,0,0,1-.346-1.591C1223.486,1122.444,1224.247,1121.995,1224.956,1121.563Z" transform="translate(2958.221 -396.508)" fill="#f477ae"/>
      <path id="Path_905769" data-name="Path 905769" d="M1350.362,1121.752a13.755,13.755,0,0,1,3.372.1,3.592,3.592,0,0,1,2.541,1.556,2.485,2.485,0,0,1-.121,1.331,3.453,3.453,0,0,1-2.248,1.591,7.188,7.188,0,0,1-3.873-.034,3.044,3.044,0,0,1-1.764-1.5,1.839,1.839,0,0,1,.069-1.418A3.193,3.193,0,0,1,1350.362,1121.752Z" transform="translate(2854.927 -396.766)" fill="#f477ae"/>
      <path id="Path_905770" data-name="Path 905770" d="M1310.172,1070.4c.692,2.023.986,4.15,1.694,6.172.449,1.279,1.418,2.922,1.5,4.253a4.01,4.01,0,0,1-1.158,2.991,2.36,2.36,0,0,1-1.815,0,8.858,8.858,0,0,1,.744-1.452,1.675,1.675,0,0,0,.173-1.279c-.5-1.106-2.542-1.643-3.613-2.092Z" transform="translate(2888.392 -354.336)" fill="#ee6967"/>
      <path id="Path_905771" data-name="Path 905771" d="M1343.814,1020.528a14.371,14.371,0,0,1,3.838.277c1.677.4,3.7,1.245,4.564,2.853a1.885,1.885,0,0,1,.173,1.712c-.329.6-.6.64-1.227.8a30.683,30.683,0,0,1-3.233-1.556,7.742,7.742,0,0,0-2.87-.519,4.415,4.415,0,0,1-2.334-.571,1.691,1.691,0,0,1-.311-1.643C1342.6,1021.133,1343.209,1020.891,1343.814,1020.528Z" transform="translate(2859.746 -313.073)" fill="#0e2373"/>
      <path id="Path_905772" data-name="Path 905772" d="M1354.728,1063.8a3.333,3.333,0,0,1,1.418.259,3.553,3.553,0,0,1,1.833,2.161,4.212,4.212,0,0,1-.277,2.974,3.854,3.854,0,0,1-2.49,2.23,2.689,2.689,0,0,1-1.47-.173,3.906,3.906,0,0,1-1.746-2.559,4.225,4.225,0,0,1,.363-3.233A3.41,3.41,0,0,1,1354.728,1063.8Z" transform="translate(2851.893 -348.877)" fill="#0e2373"/>
      <path id="Path_905773" data-name="Path 905773" d="M1359.161,1077.217l.484-.017c.432.311.709.4.709.968a1.675,1.675,0,0,1-.761,1.331l-.4.035c-.432-.311-.8-.45-.8-1.055C1358.417,1077.805,1358.711,1077.615,1359.161,1077.217Z" transform="translate(2846.458 -359.96)" fill="#faf9fd"/>
      <path id="Path_905774" data-name="Path 905774" d="M1209.645,1019.583l.4-.035a2.806,2.806,0,0,1,2.23.657,1.868,1.868,0,0,1,.553,1.5c-.985,2.507-2.783,1.262-4.789,1.66a9.832,9.832,0,0,0-3.492,1.712l-.692.38a1.077,1.077,0,0,1-1.055-.207,2.112,2.112,0,0,1-.934-1.418,1.431,1.431,0,0,1,.294-1.3C1203.818,1020.343,1207.1,1019.859,1209.645,1019.583Z" transform="translate(2975.97 -312.267)" fill="#0e2373"/>
      <path id="Path_905775" data-name="Path 905775" d="M1229.129,1063.458a3.387,3.387,0,0,1,1.383,0,3.475,3.475,0,0,1,1.988,1.781,5.069,5.069,0,0,1,.156,3.734,4.006,4.006,0,0,1-2.282,2.369,3.578,3.578,0,0,1-1.764-.1,3.881,3.881,0,0,1-1.954-2.006,5.2,5.2,0,0,1,.156-3.648A3.812,3.812,0,0,1,1229.129,1063.458Z" transform="translate(2955.639 -348.535)" fill="#0e2373"/>
      <path id="Path_905776" data-name="Path 905776" d="M1244.454,1077.036l.259-.052c.726-.035.882.207,1.366.64.052.761.034.726-.45,1.331a7.189,7.189,0,0,1-.847.052l-.657-.657C1244.039,1077.572,1243.987,1077.624,1244.454,1077.036Z" transform="translate(2941.022 -359.779)" fill="#faf9fd"/>
      <path id="Path_905777" data-name="Path 905777" d="M1095.387,1080.262a4.02,4.02,0,0,1,1.573-.087c1.037.19,2.006,1.435,2.559,2.248l.571.865.1.19a3.486,3.486,0,0,1,.311.553,2.919,2.919,0,0,1-.138,2.127,3.161,3.161,0,0,1-2.023,1.452,3.654,3.654,0,0,1-1.729-.017,4.289,4.289,0,0,1-2.68-1.9,4.426,4.426,0,0,1-.5-3.406A3.617,3.617,0,0,1,1095.387,1080.262Z" transform="translate(3065.729 -362.383)" fill="#ee6967"/>
      <path id="Path_905778" data-name="Path 905778" d="M1105.23,1091.9l.415.017a5.033,5.033,0,0,1,2.057,3.043l-.449.571-.207.052a2.017,2.017,0,0,1-1.781-.484,1.8,1.8,0,0,1-.674-1.418A2.031,2.031,0,0,1,1105.23,1091.9Z" transform="translate(3056.387 -372.118)" fill="#f69072"/>
      <path id="Path_905779" data-name="Path 905779" d="M1261.131,1161.635c2.144.035,4.236.5,6.362.674a33.142,33.142,0,0,0,8.956-.709c-.242,2.732-.4,5.239-1.9,7.642a7.872,7.872,0,0,1-3.8,2.3,8.422,8.422,0,0,1-6.241-.761,6.948,6.948,0,0,1-2.957-4.409l-.086-.363A16.132,16.132,0,0,1,1261.131,1161.635Z" transform="translate(2926.921 -429.768)" fill="#faf9fd"/>
      <path id="Path_905780" data-name="Path 905780" d="M1169.959,915.214l-.26-.605.19-.415c10.979,2.023,22.562,4.34,33.783,3.907,4.789-.19,9.2-1.418,12.517-5.083.726-.8,1.176-1.763,1.9-2.524l.277-.294a12.608,12.608,0,0,1,.5,6.311,45.121,45.121,0,0,0,5.066-5.533,34.044,34.044,0,0,1-8.818,25.467l-2.386,2.507a30.2,30.2,0,0,1-.052-4.149,58.823,58.823,0,0,0-.536-8.714,12.26,12.26,0,0,0-.484-2.542,41.528,41.528,0,0,1-14.177.277A80,80,0,0,1,1169.959,915.214Z" transform="translate(3002.533 -221.833)" fill="#0e2373"/>
      <path id="Path_905781" data-name="Path 905781" d="M1597.961,296.452c2.455-.709,6.086-.519,8.627-.242,9.25,1.02,18.551,5.325,24.5,12.656,5.878,7.244,8.385,15.578,8.455,24.81l.121,8.852c-2.611.467-5.723.173-8.385.173l-16.252-.017-29.859-.017-16.943-.086c.64-.329.1-3.579.035-4.409-.813-10.235,1.106-20.125,7.469-28.406A33.486,33.486,0,0,1,1597.961,296.452Z" transform="translate(2673.028 286.209)" fill="#fad76f"/>
      <path id="Path_905782" data-name="Path 905782" d="M1737.11,393.4a8.658,8.658,0,0,1,5.066,1.21,7.963,7.963,0,0,1,3.631,5.239,8.319,8.319,0,0,1-1.21,6.483,8.606,8.606,0,0,1-11.688,1.936,8.171,8.171,0,0,1-3.458-5.325,8.529,8.529,0,0,1,1.539-6.414A8.671,8.671,0,0,1,1737.11,393.4Z" transform="translate(2539.636 205.632)" fill="#ee6967"/>
      <path id="Path_905783" data-name="Path 905783" d="M1753.34,407.792a5.7,5.7,0,0,1,3.078.5,4.464,4.464,0,0,1,2.265,2.732,6.155,6.155,0,0,1-.329,4.634,4.656,4.656,0,0,1-3.25,2.04,7.054,7.054,0,0,1-2.818-.311l-.277-.121-.467-.207a4.768,4.768,0,0,1-2.213-2.887,5.463,5.463,0,0,1,.605-4.184A5.068,5.068,0,0,1,1753.34,407.792Z" transform="translate(2523.268 193.731)" fill="#f69072"/>
      <path id="Path_905784" data-name="Path 905784" d="M1568.123,344.928c.64-.328.1-3.579.035-4.409-.813-10.235,1.107-20.125,7.469-28.406a33.46,33.46,0,0,1,22.234-13.313l-.208.19a10.7,10.7,0,0,1-2.524,1.124,37.73,37.73,0,0,0-4.253,2.161,32.178,32.178,0,0,0-13.762,15.266,70.81,70.81,0,0,0-2.438,8.2,102.775,102.775,0,0,0,16.909,5.809c3.181.847,6.38,1.729,9.63,2.334a153.974,153.974,0,0,0,28.32,2.317,85.984,85.984,0,0,0,9.907-.173l.121,8.852c-2.611.467-5.723.173-8.385.173l-16.252-.017-29.859-.017Z" transform="translate(2673.111 283.86)" fill="#fbbe56"/>
      <path id="Path_905785" data-name="Path 905785" d="M585.432,560.156a2.474,2.474,0,0,1,2.23.225,2.606,2.606,0,0,1,.916,1.9,3.085,3.085,0,0,1-1.141,2.524c-4.046,4.322-8.506,8.316-12.829,12.4a73.352,73.352,0,0,1-5.55,5.342,2.424,2.424,0,0,1-1.729.553c-2.386.017-6.587-5.014-8.23-6.622-.865-.778-2.438-2.057-2.628-3.233a2.145,2.145,0,0,1,.467-1.66,2.36,2.36,0,0,1,1.729-.882c1.245-.017,2.472,1.452,3.32,2.248l5.239,4.806a67.322,67.322,0,0,0,6.933-6.76l6.795-6.656C582.354,562.94,583.807,561.142,585.432,560.156Z" transform="translate(3509.76 67.819)" fill="#faf9fd"/>
      <path id="Path_905786" data-name="Path 905786" d="M715.95,1753.1l6.968,1.833,2.092.519,21.975,6.12c.83.242,2.7.5,3.043,1.3l.086.277,2.109,16.84,34.924,8.281c1.383.45,3.25.778,4.184,1.919-1.643,1.625-2.749,3.907-3.925,5.861a148.2,148.2,0,0,0-8.161,15.128l-21.37-.052a104.737,104.737,0,0,1-11.653-.173c-2.127-.674-5.221-.588-7.5-.813-8.057-.778-17.445-1.867-24.464-6.138a15.463,15.463,0,0,1-7.071-9.319l-.086-.363a14.523,14.523,0,0,1-.242-5.256,126.785,126.785,0,0,1,2.974-12.656Z" transform="translate(3385.466 -919.002)" fill="#fad76f"/>
      <path id="Path_905787" data-name="Path 905787" d="M823.293,1884.609a17.239,17.239,0,0,0-3.786-.156,68.42,68.42,0,0,0-9.6.57l-4.893.9-.484-.432-.035-.951.328-.38a9.246,9.246,0,0,1,3.319-1.521c5.221-1.573,10.27-1.487,15.664-1.47l.259.363Z" transform="translate(3304.592 -1024.922)" fill="#fbac65"/>
      <path id="Path_905788" data-name="Path 905788" d="M917.747,1802.2c.83.242,2.7.5,3.043,1.3l.086.277,2.109,16.839-9.786-1.3.761-3.095Z" transform="translate(3214.686 -959.613)" fill="#faf9fd"/>
      <path id="Path_905789" data-name="Path 905789" d="M715.785,1753.1l6.968,1.833,2.092.519-7.192,30a11.969,11.969,0,0,0,.242,5.014,10.145,10.145,0,0,0,4.253,6.259c2.455,1.539,5.6,2.23,8.385,2.853,5.515,1.228,11.1,2.006,16.7,2.714a232,232,0,0,0,23.946,2.178c2.4-2.956,4.616-6.12,7.3-8.835,2.662-2.7,5.671-4.858,8.472-7.382,1.383.449,3.25.778,4.184,1.919-1.643,1.625-2.749,3.907-3.925,5.861a148.191,148.191,0,0,0-8.161,15.128l-21.37-.052a104.739,104.739,0,0,1-11.653-.173c-2.127-.674-5.221-.588-7.5-.813-8.057-.778-17.445-1.867-24.464-6.138a15.464,15.464,0,0,1-7.071-9.319l-.086-.363a14.523,14.523,0,0,1-.242-5.256,126.828,126.828,0,0,1,2.974-12.656Z" transform="translate(3385.631 -919.002)" fill="#fbac65"/>
      <path id="Path_905790" data-name="Path 905790" d="M471.045,2138.5l42.514.208,11,.017a39.059,39.059,0,0,0,6.034-.138l.225.069a14.493,14.493,0,0,0,4.409.294l6.968-.052c4.426-.017,8.835-.225,11.342,4.2a8.816,8.816,0,0,1,1.02,6.933,8.531,8.531,0,0,1-3.942,4.893l-1.591.674-.346.138a10.718,10.718,0,0,1-3.786.311l-5.757-.017-16.338-.017H462.158l-204.912.052-43.327-.035H200.295c-2.2,0-4.547.173-6.726-.035a8.857,8.857,0,0,1-3.441-.986,8.567,8.567,0,0,1-4.2-5.135,8.8,8.8,0,0,1,.83-6.674,9.072,9.072,0,0,1,5.36-4.08c2.455-.588,5.74-.225,8.264-.225l18.188.035,37.673-.035c1.712-.173,3.527-.052,5.239-.052h9.907l32.971-.035,9.025.035a36.809,36.809,0,0,0,6.017-.208l46.214.069,59.008.138H444c3.06,0,6.328.207,9.371-.087a20.816,20.816,0,0,0,4.011-.207Z" transform="translate(3816.473 -1237.769)" fill="#babdf8"/>
      <path id="Path_905791" data-name="Path 905791" d="M840,1346.419a60.709,60.709,0,0,1,6.328-1.919c-.743,8.731,2.9,19.52,8.593,26.193.709.83,2.2,2.68,3.181,3.043l.968-.138a72,72,0,0,0,14.073-4.461l3.907-1.746.069.052,1.815.882a96.753,96.753,0,0,0,17.065,5.5,5.932,5.932,0,0,1,.83-1.193c.813-1.124,1.608-2.265,2.317-3.458a25.285,25.285,0,0,0,2.127-4.737c2.161-6.224,2.576-12.051-.363-18.067a15.859,15.859,0,0,1,4.634,1.228,50.515,50.515,0,0,1,19.329,11.7c10.806,10.7,16.027,26.141,19.157,40.647l-8.9.035h-13.8l-38.659.052a5.222,5.222,0,0,0-3.752,2.109c-1.314,1.764-.8,4.046-1.452,5.965a28.721,28.721,0,0,1-.432,3.216l-5.273,32.037c-.449,3.008-.657,6.466-1.556,9.353l-1.487-.484c-.934-1.141-2.818-1.47-4.184-1.919l-34.924-8.281-2.109-16.84-.086-.277c-.346-.8-2.213-1.037-3.043-1.3l-21.975-6.12-2.092-.519,1.677-7.625c3.977-15.491,8.9-31.415,18.24-44.555a55.9,55.9,0,0,1,10.166-11.29l6.933-4.962a12.807,12.807,0,0,0,2.541-1.625A2.39,2.39,0,0,0,840,1346.419Z" transform="translate(3308.066 -581.046)" fill="#36bb8e"/>
      <path id="Path_905792" data-name="Path 905792" d="M1498.049,1535.113l1.625-.138a39.179,39.179,0,0,0,.173-7.8c-.121-2.887-.225-5.74-.605-8.61L1497.6,1507.9c1.625,2.7,2.507,6.224,3.44,9.233l5.567,17.877,5.256.069Z" transform="translate(2731.324 -716.195)" fill="#0f9976"/>
      <path id="Path_905793" data-name="Path 905793" d="M1158.016,1476.9l.069.052,1.815.882a96.739,96.739,0,0,0,17.065,5.5l-1.4,2.057a58.749,58.749,0,0,1-10.425-2.524c-1.764-.588-3.492-1.314-5.273-1.815.207-.346.519-.674.45-1.072l-.052-.294a4.444,4.444,0,0,0-.64-1.4l-.156.38a2.579,2.579,0,0,0-.156,1.141l-.259.052a12.6,12.6,0,0,0-2.887,1.158,5.429,5.429,0,0,1-1.936.882l-.121-.311a4.843,4.843,0,0,0-.415.622,30.364,30.364,0,0,1-9.233,2.8,4.288,4.288,0,0,1-1.746.086,6.221,6.221,0,0,1-2.714-2.04,72.009,72.009,0,0,0,14.074-4.461Z" transform="translate(3027.097 -690.555)" fill="#0f9976"/>
      <path id="Path_905794" data-name="Path 905794" d="M957.7,1591.934l.242-.467,1.124.069a6.932,6.932,0,0,0,.778-2.2l1.158-3.907,6.846-23.427c1.487-5.291,2.784-10.806,4.789-15.906l-1.452,10.546c-1.383,12.742-1.763,28.873,6.708,39.35a28.393,28.393,0,0,0,4.219,4.184,49.657,49.657,0,0,0,19.848,9.924c-.449,3.008-.657,6.466-1.556,9.354l-1.487-.484c-.934-1.141-2.818-1.47-4.184-1.919l-34.924-8.281Z" transform="translate(3177.879 -747.791)" fill="#0f9976"/>
      <path id="Path_905795" data-name="Path 905795" d="M1055.052,1665.1h22.424l6.726.017a23.265,23.265,0,0,1,3.8.121,4.319,4.319,0,0,1,2.386,1.314,4.024,4.024,0,0,1,1.106,3.423l-.622,3.6-4.409,23.773-.38,1.971-1.746,10.131-1.867,8.783-.571,2.559-.363,1.937a19.66,19.66,0,0,1-.5,2.853l-.691,4.132a30.845,30.845,0,0,0-1.642,7.815c.83.173,1.227.121,1.781.778a10.111,10.111,0,0,1-.346,4.755,10.329,10.329,0,0,1-3.285,3.976,23.8,23.8,0,0,1-4.011.208c-3.043.311-6.311.087-9.371.087h-19.381l-59.008-.138-46.214-.069a8.125,8.125,0,0,1-2.611-1.9c-1.833-2.023-1.8-4.5-1.625-7.054a113.778,113.778,0,0,0,11.653.173l21.37.052a153.616,153.616,0,0,1,8.161-15.128c1.176-1.971,2.282-4.236,3.925-5.861l1.487.484c.9-2.887,1.089-6.345,1.556-9.353l5.273-32.037a28.21,28.21,0,0,0,.432-3.216c.657-1.919.138-4.219,1.452-5.965a5.221,5.221,0,0,1,3.752-2.109l38.659-.052h13.8Z" transform="translate(3197.022 -846.214)" fill="#3752a1"/>
      <path id="Path_905796" data-name="Path 905796" d="M1504.088,1870.18a8.331,8.331,0,0,1,3.51.363,6.114,6.114,0,0,1,3.406,3.319,6.4,6.4,0,0,1,.035,5.049,7.114,7.114,0,0,1-4.374,4.028,7.19,7.19,0,0,1-4.046-.415,6.2,6.2,0,0,1-3.026-3.423,7.228,7.228,0,0,1,.208-5.688A6.673,6.673,0,0,1,1504.088,1870.18Z" transform="translate(2730.075 -1015.819)" fill="#faf9fd"/>
      <path id="Path_905797" data-name="Path 905797" d="M1054.97,1665.1h22.424l6.726.017a23.265,23.265,0,0,1,3.8.121,4.319,4.319,0,0,1,2.386,1.314,4.025,4.025,0,0,1,1.107,3.423,12.052,12.052,0,0,0-1.885-1.228,5.668,5.668,0,0,0-1.331-.035l-4.046-.035H993.109l-11.376,68.794,66.979-.017,20.28.035c3.129,0,6.536-.259,9.613.052.83.173,1.227.121,1.781.778a10.113,10.113,0,0,1-.346,4.755,10.334,10.334,0,0,1-3.285,3.977,23.827,23.827,0,0,1-4.011.207c-3.043.311-6.311.087-9.371.087h-19.381l-59.008-.138-46.214-.069a8.125,8.125,0,0,1-2.611-1.9c-1.833-2.023-1.8-4.5-1.625-7.054a113.778,113.778,0,0,0,11.653.173l21.37.052a153.619,153.619,0,0,1,8.161-15.128c1.176-1.971,2.282-4.236,3.925-5.861l1.487.484c.9-2.887,1.089-6.345,1.556-9.354l5.291-32.054a28.183,28.183,0,0,0,.432-3.216c.657-1.919.138-4.219,1.452-5.965a5.221,5.221,0,0,1,3.752-2.109l38.659-.052h13.8Z" transform="translate(3197.104 -846.214)" fill="#0e2373"/>
      <path id="Path_905798" data-name="Path 905798" d="M1138.185,1967.6l1.487.484-3.475,20.574-10.1-.069a153.623,153.623,0,0,1,8.161-15.128A29.41,29.41,0,0,1,1138.185,1967.6Z" transform="translate(3038.594 -1096.416)" fill="#fabfbc"/>
      <path id="Path_905799" data-name="Path 905799" d="M1226.766,2108.334a9.149,9.149,0,0,1,.346-3.424l.087-.242a7.517,7.517,0,0,1,2.23-2.663c3.078-.5,6.535-.207,9.665-.19l18.327.121,61.169.017a16.371,16.371,0,0,1-3.475,5.273c-.415.432-.812.519-.605,1.124-3.043.311-6.311.086-9.371.086h-19.381Z" transform="translate(2955.339 -1207.343)" fill="#3752a1"/>
    </g>
  </g>
</svg>
