<svg xmlns="http://www.w3.org/2000/svg" xmlns:xlink="http://www.w3.org/1999/xlink" width="108" height="108" viewBox="0 0 108 108">
  <defs>
    <filter id="Ellipse_11513" x="0" y="0" width="108" height="108" filterUnits="userSpaceOnUse">
      <feOffset dy="3" input="SourceAlpha"/>
      <feGaussianBlur stdDeviation="3" result="blur"/>
      <feFlood flood-opacity="0.161"/>
      <feComposite operator="in" in2="blur"/>
      <feComposite in="SourceGraphic"/>
    </filter>
  </defs>
  <g id="Group_1143699" data-name="Group 1143699" transform="translate(-1167 -5428.5)">
    <g id="Group_1143594" data-name="Group 1143594" transform="translate(1 4864.5)">
      <g id="Group_1143499" data-name="Group 1143499" transform="translate(979 -593)">
        <g transform="matrix(1, 0, 0, 1, 187, 1157)" filter="url(#Ellipse_11513)">
          <g id="Ellipse_11513-2" data-name="Ellipse 11513" transform="translate(9 6)" fill="#fdf2d5" stroke="#f5c038" stroke-width="3">
            <circle cx="45" cy="45" r="45" stroke="none"/>
            <circle cx="45" cy="45" r="43.5" fill="none"/>
          </g>
        </g>
      </g>
    </g>
    <g id="computer_888952" transform="translate(1184.962 5393.276)">
      <path id="Path_905264" data-name="Path 905264" d="M14.818,64H57.674a6.818,6.818,0,0,1,6.818,6.818v31.168a6.818,6.818,0,0,1-6.818,6.818H14.818A6.818,6.818,0,0,1,8,101.986V70.818A6.818,6.818,0,0,1,14.818,64Z" transform="translate(-7.026 -7.026)" fill="#e6e6e6"/>
      <path id="Path_905265" data-name="Path 905265" d="M50.922,104H91.83a2.922,2.922,0,0,1,2.922,2.922v26.3a2.922,2.922,0,0,1-2.922,2.922H50.922A2.922,2.922,0,0,1,48,133.22v-26.3A2.922,2.922,0,0,1,50.922,104Z" transform="translate(-42.156 -42.156)" fill="#29abe2"/>
      <path id="Path_905266" data-name="Path 905266" d="M136,439.792,137.948,432h11.688v7.792Z" transform="translate(-119.442 -330.222)" fill="#b3b3b3"/>
      <path id="Path_905267" data-name="Path 905267" d="M65.324,499.9H41.948a1.948,1.948,0,0,1,0-3.9H65.324Z" transform="translate(-35.13 -386.43)" fill="#ccc"/>
      <path id="Path_905268" data-name="Path 905268" d="M256.908,249.116V218.922A2.922,2.922,0,0,0,253.986,216H218.922A2.922,2.922,0,0,0,216,218.922v30.194Z" transform="translate(-189.702 -140.52)" fill="#0071bc"/>
      <g id="Group_1143695" data-name="Group 1143695" transform="translate(26.298 75.48)">
        <path id="Path_905269" data-name="Path 905269" d="M443.688,216H432v33.116h14.61V218.922A2.922,2.922,0,0,0,443.688,216Z" transform="translate(-405.702 -216)" fill="#ccc"/>
        <path id="Path_905270" data-name="Path 905270" d="M216,368h40.908v7.792H216Z" transform="translate(-216 -349.494)" fill="#ccc"/>
      </g>
      <path id="Path_905271" data-name="Path 905271" d="M216,432h40.908v5.844H216Z" transform="translate(-189.702 -330.222)" fill="#999"/>
      <path id="Path_905272" data-name="Path 905272" d="M272.908,265.116V234.922A2.922,2.922,0,0,0,269.986,232H234.922A2.922,2.922,0,0,0,232,234.922v30.194Z" transform="translate(-203.754 -154.572)" fill="#e6e6e6"/>
      <path id="Path_905273" data-name="Path 905273" d="M264,264h33.116v20.454H264Z" transform="translate(-231.858 -182.676)" fill="#29abe2"/>
      <path id="Path_905274" data-name="Path 905274" d="M260.8,480v2.922a2.922,2.922,0,0,1-2.922,2.922h-38.96A2.922,2.922,0,0,1,216,482.922h0V480h13.636l1.948,1.948H245.22L247.168,480Z" transform="translate(-189.702 -372.378)" fill="#ccc"/>
      <path id="Path_905275" data-name="Path 905275" d="M201.948,496.974V496H200v.974a2.922,2.922,0,0,0,2.922,2.922h1.948a2.922,2.922,0,0,1-2.922-2.922Z" transform="translate(-175.65 -386.43)" fill="#999"/>
      <path id="Path_905276" data-name="Path 905276" d="M392,456h1.948v1.948H392Z" transform="translate(-344.274 -351.3)"/>
      <path id="Path_905277" data-name="Path 905277" d="M71.1,106.648h-.974V80.35a3.9,3.9,0,0,0-3.9-3.9H58.44V63.792A7.8,7.8,0,0,0,50.648,56H7.792A7.8,7.8,0,0,0,0,63.792V94.96a7.8,7.8,0,0,0,7.792,7.792h9.466L15.8,108.6H6.818a2.922,2.922,0,1,0,0,5.844H68.18a3.9,3.9,0,0,0,3.9-3.9v-2.922A.974.974,0,0,0,71.1,106.648ZM68.18,80.35v26.3H57.466a.974.974,0,0,0-.689.285L55.114,108.6H42.285l-1.663-1.663a.974.974,0,0,0-.689-.285H29.22V80.35A1.948,1.948,0,0,1,31.168,78.4H66.232A1.948,1.948,0,0,1,68.18,80.35Zm-16.6-3.9H31.168a3.9,3.9,0,0,0-3.9,3.9V93.012H8.766a1.948,1.948,0,0,1-1.948-1.948v-26.3a1.948,1.948,0,0,1,1.948-1.948H49.632a1.948,1.948,0,0,1,1.948,1.948ZM1.948,94.96V63.792a5.85,5.85,0,0,1,5.844-5.844H50.648a5.85,5.85,0,0,1,5.844,5.844V76.454H53.528V64.766a3.9,3.9,0,0,0-3.9-3.9H8.766a3.9,3.9,0,0,0-3.9,3.9v26.3a3.9,3.9,0,0,0,3.9,3.9H27.272V100.8H7.792A5.85,5.85,0,0,1,1.948,94.96Zm17.319,7.792h8.005v3.9H26.3a.974.974,0,0,0-.974.974v.974H17.806ZM5.844,111.518a.974.974,0,0,1,.974-.974H25.324a3.856,3.856,0,0,0,.542,1.948H6.818A.974.974,0,0,1,5.844,111.518Zm64.284-.974a1.948,1.948,0,0,1-1.948,1.948H29.22a1.948,1.948,0,0,1-1.948-1.948V108.6H39.53l1.663,1.663a.974.974,0,0,0,.689.285H55.518a.974.974,0,0,0,.689-.285l1.663-1.663H70.128Z"/>
      <path id="Path_905278" data-name="Path 905278" d="M256,277.428a.974.974,0,0,0,.974.974H290.09a.974.974,0,0,0,.974-.974V256.974a.974.974,0,0,0-.974-.974H256.974a.974.974,0,0,0-.974.974Zm1.948-19.48h31.168v18.506H257.948Z" transform="translate(-224.832 -175.65)"/>
      <path id="Path_905279" data-name="Path 905279" d="M80,137.966v5.826h1.948l.018-5.844H96.558V136H81.966A1.968,1.968,0,0,0,80,137.966Z" transform="translate(-70.26 -70.26)"/>
      <path id="Path_905280" data-name="Path 905280" d="M232,136h1.948v1.948H232Z" transform="translate(-203.754 -70.26)"/>
      <path id="Path_905281" data-name="Path 905281" d="M288,289.966v4.852h1.948l.017-4.87h6.8V288h-6.8A1.968,1.968,0,0,0,288,289.966Z" transform="translate(-252.936 -203.754)"/>
      <path id="Path_905282" data-name="Path 905282" d="M376,288h1.948v1.948H376Z" transform="translate(-330.222 -203.754)"/>
    </g>
  </g>
</svg>
