<svg xmlns="http://www.w3.org/2000/svg" xmlns:xlink="http://www.w3.org/1999/xlink" width="432.232" height="273.864" viewBox="0 0 432.232 273.864">
  <defs>
    <clipPath id="clip-path">
      <path id="Path_905829" data-name="Path 905829" d="M517.452,67.242v72.775a83.27,83.27,0,0,0-54.111,0V67.242a64.805,64.805,0,0,1,54.111,0Z" transform="translate(-463.341 -61.324)" fill="none"/>
    </clipPath>
    <clipPath id="clip-path-2">
      <rect id="Rectangle_405608" data-name="Rectangle 405608" width="298.985" height="209.079" fill="none"/>
    </clipPath>
    <clipPath id="clip-path-3">
      <path id="Path_905844" data-name="Path 905844" d="M271.442,261.977l-25.342,13.4-19.793-58.133-9.542,1.255L227.5,286.551a13.143,13.143,0,0,0,5.288,8.609h0a13.146,13.146,0,0,0,13.3,1.234l6.175-2.911,26.854-13.023Z" transform="translate(-216.766 -217.246)" fill="none"/>
    </clipPath>
    <clipPath id="clip-path-4">
      <path id="Path_905850" data-name="Path 905850" d="M300.638,279.115l-27.775,17.516a36.947,36.947,0,0,0,3.169,11.484c3.547,7.693,8.474,8.945,11.46,11.14,11.871-4.431,23.574-11.359,35.445-15.789Z" transform="translate(-272.863 -279.115)" fill="none"/>
    </clipPath>
    <clipPath id="clip-path-5">
      <path id="Path_905855" data-name="Path 905855" d="M421.568,261.977l25.342,13.4L466.7,217.246l9.542,1.255-10.734,68.051a13.143,13.143,0,0,1-5.288,8.609h0a13.146,13.146,0,0,1-13.3,1.234l-6.175-2.911L413.891,280.46Z" transform="translate(-413.891 -217.246)" fill="none"/>
    </clipPath>
    <clipPath id="clip-path-6">
      <path id="Path_905859" data-name="Path 905859" d="M400.364,279.115l27.775,17.516a36.96,36.96,0,0,1-3.168,11.484c-3.548,7.693-8.475,8.945-11.461,11.14-11.871-4.431-23.574-11.359-35.445-15.789Z" transform="translate(-378.065 -279.115)" fill="none"/>
    </clipPath>
    <clipPath id="clip-path-7">
      <path id="Path_905872" data-name="Path 905872" d="M370.861,224.2c0,2.556-1.608,4.628-3.593,4.628s-3.593-2.072-3.593-4.628,1.609-2.78,3.593-2.78S370.861,221.641,370.861,224.2Z" transform="translate(-363.675 -221.417)" fill="none"/>
    </clipPath>
    <clipPath id="clip-path-8">
      <path id="Path_905878" data-name="Path 905878" d="M377.435,320.615c-.266-17.275-2.931-18.074-5.28-41.147-.51-5.009-24.359-2.181-24.359-2.181h-5.83s-3.9.061-5.194,0c-10.488-.5-19.122-1.16-23.763.794-8.616,3.629-5.61,25.259-5.876,42.534-.11,7.15-.507,69.758-2.888,72.457h76.078C377.943,390.373,377.546,327.765,377.435,320.615Z" transform="translate(-304.246 -276.492)" fill="none"/>
    </clipPath>
  </defs>
  <g id="Group_1143975" data-name="Group 1143975" transform="translate(-3477.95 -3157.753)">
    <rect id="top-view-little-kid-playing-with-rubics-cube-yellow-surface" width="432.232" height="273.864" rx="10" transform="translate(3477.95 3157.753)" fill="#f8ecfd"/>
    <g id="Group_1143957" data-name="Group 1143957" transform="translate(-232.106 -426.92)">
      <g id="Group_1143956" data-name="Group 1143956" transform="translate(3735 3607)">
        <path id="Path_905823" data-name="Path 905823" d="M439.255,250.906a189.451,189.451,0,0,1-8.178,55.24H68.268a189.45,189.45,0,0,1-8.178-55.24c0-104.7,84.881-189.582,189.582-189.582S439.255,146.2,439.255,250.906Z" transform="translate(-57.769 -54.608)" fill="#eff3fe"/>
        <g id="Group_1143955" data-name="Group 1143955" transform="translate(0 0)">
          <g id="Group_1143918" data-name="Group 1143918" transform="translate(240.88 6.715)">
            <path id="Path_905824" data-name="Path 905824" d="M571,78.264a71.639,71.639,0,0,0-57.268,1.115,71.645,71.645,0,0,0-57.277-1.112,4.121,4.121,0,0,0-2.554,3.81v72.186a4.111,4.111,0,0,0,5.214,3.965,92.054,92.054,0,0,1,52.041.777,8.65,8.65,0,0,0,5.141,0,92.053,92.053,0,0,1,52.039-.784,4.115,4.115,0,0,0,5.226-3.962V82.077A4.125,4.125,0,0,0,571,78.264Z" transform="translate(-453.899 -65.862)" fill="#48466d"/>
            <path id="Path_905825" data-name="Path 905825" d="M543.378,74.8a64.99,64.99,0,0,0-25.926,5.908,64.805,64.805,0,0,0-54.111,0v64.617l2.359,4.14a4.133,4.133,0,0,0,4.592,1.967,83.222,83.222,0,0,1,45.222,1.413,6.433,6.433,0,0,0,3.884,0,83.216,83.216,0,0,1,45.2-1.413,4.139,4.139,0,0,0,4.6-1.965l2.359-4.14V80.71A65.076,65.076,0,0,0,543.378,74.8Z" transform="translate(-457.621 -66.633)" fill="#46cdcf"/>
            <path id="Path_905826" data-name="Path 905826" d="M606.778,69.831v70.185a83.268,83.268,0,0,0-54.111,0V67.242a64.79,64.79,0,0,1,51.656-1.064A3.944,3.944,0,0,1,606.778,69.831Z" transform="translate(-492.836 -61.324)" fill="#ccf2e7"/>
            <g id="Group_1143917" data-name="Group 1143917" transform="translate(5.72)">
              <g id="Group_1143916" data-name="Group 1143916" clip-path="url(#clip-path)">
                <path id="Path_905827" data-name="Path 905827" d="M517.452,67.242v72.775a83.27,83.27,0,0,0-54.111,0V69.831a3.942,3.942,0,0,1,2.447-3.652,64.8,64.8,0,0,1,51.664,1.063Z" transform="translate(-463.341 -61.324)" fill="#ccf2e7"/>
                <path id="Path_905828" data-name="Path 905828" d="M536.416,71.093v72.775H511.446Z" transform="translate(-482.305 -65.175)" fill="#46cdcf"/>
              </g>
            </g>
          </g>
          <g id="Group_1143922" data-name="Group 1143922" transform="translate(290.008 134.881)">
            <g id="Group_1143919" data-name="Group 1143919" transform="translate(21.933 22.749)">
              <rect id="Rectangle_405591" data-name="Rectangle 405591" width="8.087" height="42.447" transform="translate(7.69 47.531) rotate(-161.978)" fill="#e23e57"/>
              <path id="Path_905830" data-name="Path 905830" d="M572.615,393.525l6.347-6.439-7.69-2.5Z" transform="translate(-571.232 -339.677)" fill="#02243e"/>
              <path id="Path_905831" data-name="Path 905831" d="M598.59,310.652h0a4.044,4.044,0,0,1,2.594,5.1l-.609,1.871-7.69-2.5.609-1.87A4.043,4.043,0,0,1,598.59,310.652Z" transform="translate(-579.753 -310.453)" fill="#02243e"/>
            </g>
            <g id="Group_1143920" data-name="Group 1143920" transform="translate(6.663)">
              <path id="Rectangle_405592" data-name="Rectangle 405592" d="M1.726,0H13.389a1.726,1.726,0,0,1,1.726,1.726v54a0,0,0,0,1,0,0H0a0,0,0,0,1,0,0v-54A1.726,1.726,0,0,1,1.726,0Z" fill="#46cdcf"/>
              <line id="Line_170" data-name="Line 170" x2="4.038" transform="translate(0 4.24)" fill="none" stroke="#02243e" stroke-miterlimit="10" stroke-width="1"/>
              <line id="Line_171" data-name="Line 171" x2="4.038" transform="translate(0 6.512)" fill="none" stroke="#02243e" stroke-miterlimit="10" stroke-width="1"/>
              <line id="Line_172" data-name="Line 172" x2="4.038" transform="translate(0 8.784)" fill="none" stroke="#02243e" stroke-miterlimit="10" stroke-width="1"/>
              <line id="Line_173" data-name="Line 173" x2="4.038" transform="translate(0 11.055)" fill="none" stroke="#02243e" stroke-miterlimit="10" stroke-width="1"/>
              <line id="Line_174" data-name="Line 174" x2="4.038" transform="translate(0 13.327)" fill="none" stroke="#02243e" stroke-miterlimit="10" stroke-width="1"/>
              <line id="Line_175" data-name="Line 175" x2="4.038" transform="translate(0 15.599)" fill="none" stroke="#02243e" stroke-miterlimit="10" stroke-width="1"/>
              <line id="Line_176" data-name="Line 176" x2="4.038" transform="translate(0 17.87)" fill="none" stroke="#02243e" stroke-miterlimit="10" stroke-width="1"/>
              <line id="Line_177" data-name="Line 177" x2="4.038" transform="translate(0 20.142)" fill="none" stroke="#02243e" stroke-miterlimit="10" stroke-width="1"/>
              <line id="Line_178" data-name="Line 178" x2="4.038" transform="translate(0 22.414)" fill="none" stroke="#02243e" stroke-miterlimit="10" stroke-width="1"/>
              <line id="Line_179" data-name="Line 179" x2="4.038" transform="translate(0 24.685)" fill="none" stroke="#02243e" stroke-miterlimit="10" stroke-width="1"/>
              <line id="Line_180" data-name="Line 180" x2="4.038" transform="translate(0 26.957)" fill="none" stroke="#02243e" stroke-miterlimit="10" stroke-width="1"/>
              <line id="Line_181" data-name="Line 181" x2="4.038" transform="translate(0 29.229)" fill="none" stroke="#02243e" stroke-miterlimit="10" stroke-width="1"/>
              <line id="Line_182" data-name="Line 182" x2="4.038" transform="translate(0 31.5)" fill="none" stroke="#02243e" stroke-miterlimit="10" stroke-width="1"/>
              <line id="Line_183" data-name="Line 183" x2="4.038" transform="translate(0 33.772)" fill="none" stroke="#02243e" stroke-miterlimit="10" stroke-width="1"/>
              <line id="Line_184" data-name="Line 184" x2="4.038" transform="translate(0 36.043)" fill="none" stroke="#02243e" stroke-miterlimit="10" stroke-width="1"/>
              <line id="Line_185" data-name="Line 185" x2="4.038" transform="translate(0 38.315)" fill="none" stroke="#02243e" stroke-miterlimit="10" stroke-width="1"/>
              <line id="Line_186" data-name="Line 186" x2="4.038" transform="translate(0 40.587)" fill="none" stroke="#02243e" stroke-miterlimit="10" stroke-width="1"/>
              <line id="Line_187" data-name="Line 187" x2="4.038" transform="translate(0 42.858)" fill="none" stroke="#02243e" stroke-miterlimit="10" stroke-width="1"/>
              <line id="Line_188" data-name="Line 188" x2="4.038" transform="translate(0 45.13)" fill="none" stroke="#02243e" stroke-miterlimit="10" stroke-width="1"/>
              <line id="Line_189" data-name="Line 189" x2="4.038" transform="translate(0 47.402)" fill="none" stroke="#02243e" stroke-miterlimit="10" stroke-width="1"/>
              <line id="Line_190" data-name="Line 190" x2="4.038" transform="translate(0 49.673)" fill="none" stroke="#02243e" stroke-miterlimit="10" stroke-width="1"/>
              <line id="Line_191" data-name="Line 191" x2="4.038" transform="translate(0 51.945)" fill="none" stroke="#02243e" stroke-miterlimit="10" stroke-width="1"/>
              <line id="Line_192" data-name="Line 192" x2="4.038" transform="translate(0 54.217)" fill="none" stroke="#02243e" stroke-miterlimit="10" stroke-width="1"/>
            </g>
            <g id="Group_1143921" data-name="Group 1143921" transform="translate(17.365 43.32)">
              <path id="Rectangle_405593" data-name="Rectangle 405593" d="M0,0H13.023a0,0,0,0,1,0,0V11.516A4.083,4.083,0,0,1,8.941,15.6H4.083A4.083,4.083,0,0,1,0,11.516V0A0,0,0,0,1,0,0Z" transform="translate(0 4.082)" fill="#3d84a8"/>
              <path id="Path_905832" data-name="Path 905832" d="M575.1,344.41h-9.85A1.587,1.587,0,0,0,563.667,346v2.5h13.024V346A1.587,1.587,0,0,0,575.1,344.41Z" transform="translate(-563.667 -344.41)" fill="#ccf2e7"/>
            </g>
            <rect id="Rectangle_405594" data-name="Rectangle 405594" width="43.558" height="54.728" rx="6.286" transform="translate(0 55.731)" fill="#48466d"/>
            <path id="Path_905833" data-name="Path 905833" d="M539.137,365.275l1.431,54.5h31.8Z" transform="translate(-536.631 -309.316)" fill="#48466d" opacity="0.6" style="mix-blend-mode: multiply;isolation: isolate"/>
          </g>
          <g id="Group_1143923" data-name="Group 1143923" transform="translate(117.323)">
            <rect id="Rectangle_405595" data-name="Rectangle 405595" width="78.934" height="60.931" rx="7.835" fill="#3d84a8"/>
            <path id="Path_905834" data-name="Path 905834" d="M328.867,65.143V112.3a4.746,4.746,0,0,1-4.746,4.746H254.679a4.746,4.746,0,0,1-4.746-4.746V65.143Z" transform="translate(-249.933 -56.114)" fill="#1fb3db"/>
            <path id="Path_905835" data-name="Path 905835" d="M370.686,56.881a1.634,1.634,0,1,1-1.634-1.634A1.634,1.634,0,0,1,370.686,56.881Z" transform="translate(-296.248 -52.213)" fill="#fff"/>
            <path id="Path_905836" data-name="Path 905836" d="M362.232,56.881a1.634,1.634,0,1,1-1.634-1.634A1.634,1.634,0,0,1,362.232,56.881Z" transform="translate(-292.916 -52.213)" fill="#fff"/>
            <path id="Path_905837" data-name="Path 905837" d="M353.779,56.881a1.634,1.634,0,1,1-1.634-1.634A1.634,1.634,0,0,1,353.779,56.881Z" transform="translate(-289.583 -52.213)" fill="#fff"/>
            <rect id="Rectangle_405596" data-name="Rectangle 405596" width="69.189" height="39.196" transform="translate(5.249 14.287)" fill="#3d84a8"/>
          </g>
          <g id="Group_1143924" data-name="Group 1143924" transform="translate(17.839 19.37)">
            <rect id="Rectangle_405597" data-name="Rectangle 405597" width="138.951" height="176.928" rx="13.792" transform="translate(0)" fill="#46cdcf"/>
            <path id="Path_905838" data-name="Path 905838" d="M224.657,108.451v152.68a8.354,8.354,0,0,1-8.355,8.355H94.061a8.354,8.354,0,0,1-8.355-8.355V108.451Z" transform="translate(-85.706 -92.558)" fill="#ccf2e7"/>
            <path id="Path_905839" data-name="Path 905839" d="M298.272,93.909a2.877,2.877,0,1,1-2.877-2.877A2.878,2.878,0,0,1,298.272,93.909Z" transform="translate(-167.237 -85.691)" fill="#fff"/>
            <path id="Path_905840" data-name="Path 905840" d="M283.391,93.909a2.877,2.877,0,1,1-2.877-2.877A2.878,2.878,0,0,1,283.391,93.909Z" transform="translate(-161.371 -85.691)" fill="#fff"/>
            <circle id="Ellipse_11583" data-name="Ellipse 11583" cx="2.877" cy="2.877" r="2.877" transform="translate(107.252 5.341)" fill="#fff"/>
            <rect id="Rectangle_405598" data-name="Rectangle 405598" width="121.796" height="68.998" transform="translate(9.239 25.149)" fill="#fff"/>
            <line id="Line_193" data-name="Line 193" x2="121.796" transform="translate(9.239 106.484)" fill="none" stroke="#fff" stroke-miterlimit="10" stroke-width="5"/>
            <line id="Line_194" data-name="Line 194" x2="121.796" transform="translate(9.239 116.397)" fill="none" stroke="#fff" stroke-miterlimit="10" stroke-width="5"/>
            <line id="Line_195" data-name="Line 195" x2="23.783" transform="translate(107.252 126.309)" fill="none" stroke="#fff" stroke-miterlimit="10" stroke-width="5"/>
            <line id="Line_196" data-name="Line 196" x2="90.577" transform="translate(9.239 126.309)" fill="none" stroke="#fff" stroke-miterlimit="10" stroke-width="5"/>
            <line id="Line_197" data-name="Line 197" x2="121.796" transform="translate(9.239 136.222)" fill="none" stroke="#fff" stroke-miterlimit="10" stroke-width="5"/>
            <line id="Line_198" data-name="Line 198" x2="55.815" transform="translate(75.22 146.134)" fill="none" stroke="#fff" stroke-miterlimit="10" stroke-width="5"/>
            <line id="Line_199" data-name="Line 199" x2="52.847" transform="translate(9.239 146.134)" fill="none" stroke="#fff" stroke-miterlimit="10" stroke-width="5"/>
            <line id="Line_200" data-name="Line 200" x2="40.279" transform="translate(9.239 156.047)" fill="none" stroke="#fff" stroke-miterlimit="10" stroke-width="5"/>
          </g>
          <g id="Group_1143951" data-name="Group 1143951" transform="translate(39.916 13.719)">
            <g id="Group_1143925" data-name="Group 1143925" transform="translate(17.539 94.941)">
              <path id="Rectangle_405599" data-name="Rectangle 405599" d="M0,0H257.947a0,0,0,0,1,0,0V3.459a8.45,8.45,0,0,1-8.45,8.45H8.45A8.45,8.45,0,0,1,0,3.459V0A0,0,0,0,1,0,0Z" transform="translate(0 125.795)" fill="#48466d"/>
              <path id="Rectangle_405600" data-name="Rectangle 405600" d="M7.762,0H204.838A7.762,7.762,0,0,1,212.6,7.762V120.535a0,0,0,0,1,0,0H0a0,0,0,0,1,0,0V7.762A7.762,7.762,0,0,1,7.762,0Z" transform="translate(22.673)" fill="#3d84a8"/>
              <rect id="Rectangle_405601" data-name="Rectangle 405601" width="197.648" height="107.742" transform="translate(30.149 6.396)" fill="#02243e"/>
              <rect id="Rectangle_405602" data-name="Rectangle 405602" width="257.947" height="5.26" transform="translate(0 120.535)" fill="#46cdcf"/>
            </g>
            <g id="Group_1143948" data-name="Group 1143948">
              <g id="Group_1143947" data-name="Group 1143947" clip-path="url(#clip-path-2)">
                <g id="Group_1143946" data-name="Group 1143946" transform="translate(27.62 12.313)">
                  <g id="Group_1143930" data-name="Group 1143930" transform="translate(0 51.588)">
                    <path id="Path_905841" data-name="Path 905841" d="M293.391,309.57l-26.855,13.023a9.446,9.446,0,0,1-12.225-3.646h0a9.445,9.445,0,0,1,3.687-13.2l27.715-14.657Z" transform="translate(-201.342 -222.807)" fill="#f7d4b5"/>
                    <path id="Path_905842" data-name="Path 905842" d="M216.766,218.5,227.5,286.551a13.143,13.143,0,0,0,5.288,8.609h0a13.146,13.146,0,0,0,13.3,1.234l6.175-2.911-25.957-76.237Z" transform="translate(-187.071 -193.697)" fill="#f7d4b5"/>
                    <g id="Group_1143927" data-name="Group 1143927" transform="translate(29.695 23.549)">
                      <g id="Group_1143926" data-name="Group 1143926" clip-path="url(#clip-path-3)">
                        <path id="Path_905843" data-name="Path 905843" d="M260.642,307.453s-.056,12.615.651,15.786l-17.778,10.723,18.616,4.17,11.468-16.68L262.473,306.8Z" transform="translate(-227.311 -252.551)" fill="#e0a6a2"/>
                      </g>
                    </g>
                    <path id="Path_905845" data-name="Path 905845" d="M300.638,279.115l-27.775,17.516a36.947,36.947,0,0,0,3.169,11.484c3.547,7.693,8.474,8.945,11.46,11.14,11.871-4.431,23.574-11.359,35.445-15.789Z" transform="translate(-209.186 -218.088)" fill="#e23e57"/>
                    <path id="Path_905846" data-name="Path 905846" d="M217.4,191.486s-3.443-10.494-6.843-10.894c-3.2-.376-.085,8.536-.085,8.536Z" transform="translate(-184.053 -179.243)" fill="#e0a6a2"/>
                    <path id="Path_905847" data-name="Path 905847" d="M188.613,186.833c-.177-.584-8.511-7.834-11.908-8.43-2.036-.357-1.448,2.459.265,4.192S188.613,186.833,188.613,186.833Z" transform="translate(-170.768 -178.372)" fill="#e0a6a2"/>
                    <path id="Path_905848" data-name="Path 905848" d="M197.441,203.5s-3.632-3.985-12.327-8.976-19.914-11.8-16.853-14.982c1.9-1.972,9.772,4.938,16.787,6.039s10.357,1.64,13.779,3.51c5,2.73,8.155,13.154,8.155,13.154Z" transform="translate(-167.745 -178.693)" fill="#f7d4b5"/>
                    <g id="Group_1143929" data-name="Group 1143929" transform="translate(63.677 61.027)">
                      <g id="Group_1143928" data-name="Group 1143928" clip-path="url(#clip-path-4)">
                        <path id="Path_905849" data-name="Path 905849" d="M303.007,309.269l-25.647,17.673,21.248,10.524,6.553-14.1Z" transform="translate(-274.636 -291.002)" fill="#ae3e57" opacity="0.6" style="mix-blend-mode: multiply;isolation: isolate"/>
                      </g>
                    </g>
                  </g>
                  <g id="Group_1143936" data-name="Group 1143936" transform="translate(127.406 0)">
                    <g id="Group_1143931" data-name="Group 1143931" transform="translate(58.425)">
                      <rect id="Rectangle_405603" data-name="Rectangle 405603" width="41.452" height="56.197" rx="3.646" transform="translate(15.839 59.78) rotate(-112.464)" fill="#48466d"/>
                      <path id="Path_905851" data-name="Path 905851" d="M481.442,120.646l13.943,33.72c.422,1.02.33-1.543,1.35-1.965l43.29-17.9c1.02-.422,2.765,1.457,2.343.437l-13.942-33.72a2,2,0,0,0-2.611-1.083l-43.29,17.9A2,2,0,0,0,481.442,120.646Z" transform="translate(-477.184 -95.882)" fill="#fff"/>
                      <rect id="Rectangle_405604" data-name="Rectangle 405604" width="41.452" height="56.197" rx="3.646" transform="matrix(-0.382, -0.924, 0.924, -0.382, 19.435, 68.477)" fill="#3d84a8"/>
                      <rect id="Rectangle_405605" data-name="Rectangle 405605" width="1.685" height="50.871" transform="translate(6.07 29.146) rotate(-112.463)" fill="#d3deea" opacity="0.6"/>
                      <rect id="Rectangle_405606" data-name="Rectangle 405606" width="1.685" height="50.871" transform="translate(4.783 26.033) rotate(-112.465)" fill="#d3deea" opacity="0.6"/>
                      <rect id="Rectangle_405607" data-name="Rectangle 405607" width="30.519" height="16.844" transform="matrix(-0.382, -0.924, 0.924, -0.382, 46.461, 51.386)" fill="#fff"/>
                    </g>
                    <path id="Path_905852" data-name="Path 905852" d="M413.891,309.57l26.855,13.023a9.446,9.446,0,0,0,12.225-3.646h0a9.445,9.445,0,0,0-3.687-13.2l-27.715-14.657Z" transform="translate(-392.189 -171.22)" fill="#f7d4b5"/>
                    <path id="Path_905853" data-name="Path 905853" d="M493.721,218.5l-10.734,68.051a13.143,13.143,0,0,1-5.288,8.609h0a13.146,13.146,0,0,1-13.3,1.234l-6.175-2.911,25.957-76.237Z" transform="translate(-409.665 -142.11)" fill="#f7d4b5"/>
                    <g id="Group_1143933" data-name="Group 1143933" transform="translate(21.702 75.136)">
                      <g id="Group_1143932" data-name="Group 1143932" transform="translate(0 0)" clip-path="url(#clip-path-5)">
                        <path id="Path_905854" data-name="Path 905854" d="M453.369,307.453s.056,12.615-.651,15.786L470.5,333.962l-18.616,4.17-11.468-16.68,11.126-14.65Z" transform="translate(-424.346 -252.551)" fill="#e0a6a2"/>
                      </g>
                    </g>
                    <path id="Path_905856" data-name="Path 905856" d="M400.364,279.115l27.775,17.516a36.96,36.96,0,0,1-3.168,11.484c-3.548,7.693-8.475,8.945-11.461,11.14-11.871-4.431-23.574-11.359-35.445-15.789Z" transform="translate(-378.065 -166.5)" fill="#e23e57"/>
                    <path id="Path_905857" data-name="Path 905857" d="M510.614,203.5s3.632-3.985,12.327-8.976,19.914-11.8,16.853-14.982c-1.9-1.972-9.772,4.938-16.787,6.039s-10.357,1.64-13.779,3.51c-5,2.73-8.156,13.154-8.156,13.154Z" transform="translate(-426.558 -127.106)" fill="#f7d4b5"/>
                    <g id="Group_1143935" data-name="Group 1143935" transform="translate(0 112.615)">
                      <g id="Group_1143934" data-name="Group 1143934" clip-path="url(#clip-path-6)">
                        <path id="Path_905858" data-name="Path 905858" d="M412.49,309.269l25.647,17.673-21.248,10.524-6.553-14.1Z" transform="translate(-390.787 -291.002)" fill="#ae3e57" opacity="0.6" style="mix-blend-mode: multiply;isolation: isolate"/>
                      </g>
                    </g>
                  </g>
                  <g id="Group_1143945" data-name="Group 1143945" transform="translate(82.688 19.083)">
                    <path id="Path_905860" data-name="Path 905860" d="M377.435,320.615c-.266-17.275-2.931-18.074-5.28-41.147-.51-5.009-24.359-2.181-24.359-2.181h-5.83s-3.9.061-5.194,0c-10.488-.5-19.122-1.16-23.763.794-8.616,3.629-5.61,25.259-5.876,42.534-.11,7.15-.507,69.758-2.888,72.457h76.078C377.943,390.373,377.546,327.765,377.435,320.615Z" transform="translate(-304.246 -184.549)" fill="#e23e57"/>
                    <g id="Group_1143942" data-name="Group 1143942" transform="translate(4.785 7.421)">
                      <g id="Group_1143941" data-name="Group 1143941">
                        <path id="Path_905861" data-name="Path 905861" d="M367.548,251.727a52.4,52.4,0,0,0,1.624,9.287,12.5,12.5,0,0,1-14.3,0A36.256,36.256,0,0,0,357.53,248.9a35.671,35.671,0,0,0-.036-3.775,36.566,36.566,0,0,0-2.618-11.479h14.3c-.078.291-.157.592-.233.9a52.729,52.729,0,0,0-1.539,14.8Q367.447,250.57,367.548,251.727Z" transform="translate(-328.991 -175.079)" fill="#f7d4b5"/>
                        <path id="Path_905862" data-name="Path 905862" d="M367.4,249.349q.046,1.221.148,2.378a23.145,23.145,0,0,1-10.054-6.6,36.566,36.566,0,0,0-2.618-11.479h12.766c.373.253.81.559,1.3.9A52.729,52.729,0,0,0,367.4,249.349Z" transform="translate(-328.991 -175.079)" fill="#e0a6a2"/>
                        <g id="Group_1143940" data-name="Group 1143940">
                          <path id="Path_905863" data-name="Path 905863" d="M403.7,193.537c-.077,3.653-.679,6.6,2.173,6.663s8.079-2.793,8.155-6.447-2.173-6.663-5.025-6.723S403.778,189.884,403.7,193.537Z" transform="translate(-348.198 -156.701)" fill="#f7d4b5"/>
                          <path id="Path_905864" data-name="Path 905864" d="M378.68,168.6c-.4,19.2-14.865,38.167-27.945,37.892-10.805-.227-26.733-19.833-26.33-39.032s12.8-30.808,27.789-30.493S379.083,149.4,378.68,168.6Z" transform="translate(-316.976 -136.964)" fill="#f7d4b5"/>
                          <path id="Path_905865" data-name="Path 905865" d="M322.474,191.83c-.076,3.653.4,6.627-2.451,6.567s-7.953-3.13-7.877-6.783,2.451-6.566,5.3-6.506S322.551,188.177,322.474,191.83Z" transform="translate(-312.146 -155.943)" fill="#f7d4b5"/>
                          <g id="Group_1143939" data-name="Group 1143939" transform="translate(18.051 24.614)">
                            <path id="Path_905866" data-name="Path 905866" d="M369.935,197.02s-.8,2.111.1,3.366c0,0,3.693-.9,4.306,1.623s-1.6,4.854-3.84,5.1" transform="translate(-352.85 -185.253)" fill="none" stroke="#21282b" stroke-linecap="round" stroke-linejoin="round" stroke-width="2.636"/>
                            <path id="Path_905867" data-name="Path 905867" d="M341.944,181.507s3.507-6.4,9.691-2.828Z" transform="translate(-341.944 -177.596)" fill="#21282b"/>
                            <path id="Path_905868" data-name="Path 905868" d="M390.46,181.507s-3.507-6.4-9.691-2.828Z" transform="translate(-357.25 -177.596)" fill="#21282b"/>
                            <path id="Path_905869" data-name="Path 905869" d="M390.493,192.11a3.31,3.31,0,1,0-6.619,0" transform="translate(-358.474 -182.013)" fill="none" stroke="#21282b" stroke-linecap="round" stroke-linejoin="round" stroke-width="2.636"/>
                            <path id="Path_905870" data-name="Path 905870" d="M353.633,192.11a3.31,3.31,0,1,0-6.619,0" transform="translate(-343.943 -182.013)" fill="none" stroke="#21282b" stroke-linecap="round" stroke-linejoin="round" stroke-width="2.636"/>
                            <g id="Group_1143938" data-name="Group 1143938" transform="translate(13.164 26.546)">
                              <g id="Group_1143937" data-name="Group 1143937" clip-path="url(#clip-path-7)">
                                <path id="Path_905871" data-name="Path 905871" d="M370.861,224.2c0,2.556-1.608,4.628-3.593,4.628s-3.593-2.072-3.593-4.628,1.609-2.78,3.593-2.78S370.861,221.641,370.861,224.2Z" transform="translate(-363.675 -221.417)" fill="#e23e57"/>
                                <ellipse id="Ellipse_11584" data-name="Ellipse 11584" cx="6.762" cy="3.078" rx="6.762" ry="3.078" transform="translate(-3.169 -3.525)" fill="#fff"/>
                              </g>
                            </g>
                          </g>
                        </g>
                      </g>
                    </g>
                    <path id="Path_905873" data-name="Path 905873" d="M324.148,166.7c.394,2.4,1.765,8.251,2.472,11.215a3.108,3.108,0,0,0,2.2,2.276l2.181.6a.842.842,0,0,0,1.039-1.039,58.048,58.048,0,0,1-1.961-18.941s7.782-2.059,7.762-11.482c0,0,12.485,8.787,22.329,9.383s13.418-.745,13.418-.745.781,11.71-.455,19.807a.758.758,0,0,0,1.143.766l1.882-1.147a2.683,2.683,0,0,0,1.27-1.969c.279-2.29.842-7,1.006-8.9a29.56,29.56,0,0,0-1.866-14.516c-2.382-5.66-9.085-16.979-25.318-16.979S321.182,148.617,324.148,166.7Z" transform="translate(-311.933 -128.785)" fill="#02243e"/>
                    <path id="Path_905874" data-name="Path 905874" d="M374.419,152.117s3.828-.6,5.687-5.758-5.217-21.645-26.189-21.645c-22.836,0-22.787,9.532-22.787,9.532s-8.885,3.376-11.691,7.744-3.2,13.63,3.748,14.758L337.17,141.99l22.554,2.383Z" transform="translate(-309.488 -124.714)" fill="#02243e"/>
                    <path id="Path_905875" data-name="Path 905875" d="M353.411,282.716a14.249,14.249,0,0,0,8.34,2.88,10,10,0,0,0,7.347-2.88s-1.588,5.461-7.347,5.461S353.411,282.716,353.411,282.716Z" transform="translate(-323.628 -187.003)" fill="#ae3e57" opacity="0.6" style="mix-blend-mode: multiply;isolation: isolate"/>
                    <g id="Group_1143944" data-name="Group 1143944" transform="translate(0 91.943)">
                      <g id="Group_1143943" data-name="Group 1143943" clip-path="url(#clip-path-8)">
                        <path id="Path_905876" data-name="Path 905876" d="M297.737,294.747a377.459,377.459,0,0,0,29.86,111.46H281.13Z" transform="translate(-295.133 -283.688)" fill="#ae3e57" opacity="0.6" style="mix-blend-mode: multiply;isolation: isolate"/>
                        <path id="Path_905877" data-name="Path 905877" d="M335.71,354.834s3.277,24.127,36.042,25.02C371.752,379.854,358.158,373.651,335.71,354.834Z" transform="translate(-316.65 -307.376)" fill="#ae3e57" opacity="0.6" style="mix-blend-mode: multiply;isolation: isolate"/>
                      </g>
                    </g>
                  </g>
                  <line id="Line_201" data-name="Line 201" x2="8.641" y2="20.898" transform="translate(217.221 28.879)" fill="none" stroke="#46cdcf" stroke-miterlimit="10" stroke-width="3"/>
                </g>
              </g>
            </g>
            <g id="Group_1143949" data-name="Group 1143949" transform="translate(3.471 26.929)">
              <path id="Path_905879" data-name="Path 905879" d="M206.517,124.563H130.264a2.384,2.384,0,0,1-2.383-2.383h0a2.383,2.383,0,0,1,2.383-2.383h76.253a2.383,2.383,0,0,1,2.383,2.383h0A2.383,2.383,0,0,1,206.517,124.563Z" transform="translate(-127.881 -118.308)" fill="#02243e"/>
              <path id="Path_905880" data-name="Path 905880" d="M202.954,147.2a137.828,137.828,0,0,1-51.034,0,66.539,66.539,0,0,1-1.092-11.4,30.171,30.171,0,0,1,1.092-8.142h51.034a36.66,36.66,0,0,1,.894,8.142A79.9,79.9,0,0,1,202.954,147.2Z" transform="translate(-136.927 -121.41)" fill="#02243e"/>
              <path id="Path_905881" data-name="Path 905881" d="M195.942,118.828c0,.823-1.734,1.49-3.872,1.49s-3.872-.667-3.872-1.49,1.734-1.489,3.872-1.489S195.942,118.005,195.942,118.828Z" transform="translate(-151.66 -117.339)" fill="#02243e"/>
              <rect id="Rectangle_405609" data-name="Rectangle 405609" width="1.787" height="23.829" transform="translate(74.267 6.255)" fill="#ffc795"/>
              <path id="Path_905882" data-name="Path 905882" d="M252.58,167.805a1.787,1.787,0,0,1-3.575,0c0,8.225.8-1.787,1.788-1.787A1.787,1.787,0,0,1,252.58,167.805Z" transform="translate(-175.631 -136.53)" fill="#e29d95"/>
              <path id="Path_905883" data-name="Path 905883" d="M248.984,168.968c-2.522,0-4.568,3.882-4.568,6.4a2.322,2.322,0,0,0,2.069,2.542,9.663,9.663,0,0,1,.065-2.766l.73,2.888c.526.053,1.1.065,1.7.065,2.522,0,4.567-.208,4.567-2.73S251.506,168.968,248.984,168.968Z" transform="translate(-173.822 -137.693)" fill="#ffc795"/>
            </g>
            <g id="Group_1143950" data-name="Group 1143950" transform="translate(47.688 199.442)">
              <line id="Line_202" data-name="Line 202" x2="140.789" transform="translate(56.859 2.397)" fill="none" stroke="#fff" stroke-miterlimit="10" stroke-width="3"/>
              <line id="Line_203" data-name="Line 203" x2="56.859" transform="translate(0 2.397)" fill="none" stroke="#e23e57" stroke-miterlimit="10" stroke-width="3"/>
              <path id="Path_905884" data-name="Path 905884" d="M294.939,404.518a2.4,2.4,0,1,1-2.4-2.4A2.4,2.4,0,0,1,294.939,404.518Z" transform="translate(-236.066 -402.121)" fill="#e23e57"/>
            </g>
          </g>
          <g id="Group_1143953" data-name="Group 1143953" transform="translate(320.397 213.209)">
            <path id="Rectangle_405610" data-name="Rectangle 405610" d="M4.963,0H38.435A4.963,4.963,0,0,1,43.4,4.963v5.469a21.7,21.7,0,0,1-21.7,21.7h0A21.7,21.7,0,0,1,0,10.432V4.963A4.963,4.963,0,0,1,4.963,0Z" fill="#3d84a8"/>
            <path id="Path_905885" data-name="Path 905885" d="M652.164,413.395l2.811,3.74v-4.076Z" transform="translate(-611.578 -406.481)" fill="#3d84a8" opacity="0.6" style="mix-blend-mode: multiply;isolation: isolate"/>
            <g id="Group_1143952" data-name="Group 1143952" transform="translate(35.486 4.372)">
              <path id="Path_905886" data-name="Path 905886" d="M651.658,421.214c-4.437,0-7.912-2.59-7.912-5.9s3.475-5.9,7.912-5.9,7.912,2.59,7.912,5.9S656.095,421.214,651.658,421.214Zm0-8.919c-2.682,0-5.035,1.411-5.035,3.021s2.352,3.021,5.035,3.021,5.035-1.411,5.035-3.021S654.34,412.295,651.658,412.295Z" transform="translate(-643.746 -409.418)" fill="#3d84a8"/>
            </g>
            <path id="Path_905887" data-name="Path 905887" d="M594.445,412.632v-5.468a4.963,4.963,0,0,1,4.963-4.963h-9.279a4.963,4.963,0,0,0-4.963,4.963v5.468a21.7,21.7,0,0,0,21.7,21.7h0a21.762,21.762,0,0,0,4.64-.5A21.7,21.7,0,0,1,594.445,412.632Z" transform="translate(-585.166 -402.201)" fill="#3d84a8" opacity="0.6" style="mix-blend-mode: multiply;isolation: isolate"/>
          </g>
          <rect id="Rectangle_405611" data-name="Rectangle 405611" width="382.344" height="6.197" transform="translate(0 245.34)" fill="#02243e"/>
          <g id="Group_1143954" data-name="Group 1143954" transform="translate(0 172.375)">
            <rect id="Rectangle_405612" data-name="Rectangle 405612" width="8.83" height="46.346" transform="translate(39.312 38.375) rotate(139.422)" fill="#3d84a8"/>
            <path id="Path_905888" data-name="Path 905888" d="M119.031,407.545l-2.39-9.578-6.706,5.744Z" transform="translate(-77.419 -359.698)" fill="#02243e"/>
            <path id="Path_905889" data-name="Path 905889" d="M57.8,335.855h0a4.414,4.414,0,0,1,6.225.482l1.4,1.631-6.707,5.744-1.4-1.631A4.415,4.415,0,0,1,57.8,335.855Z" transform="translate(-56.259 -334.793)" fill="#02243e"/>
          </g>
          <path id="Path_905890" data-name="Path 905890" d="M630.978,284.49l1.831,4.855a1.067,1.067,0,0,0,.621.622l4.855,1.831a1.066,1.066,0,0,1,0,1.995l-4.855,1.831a1.067,1.067,0,0,0-.621.622l-1.831,4.855a1.066,1.066,0,0,1-1.994,0l-1.831-4.855a1.065,1.065,0,0,0-.621-.622l-4.855-1.831a1.066,1.066,0,0,1,0-1.995l4.855-1.831a1.065,1.065,0,0,0,.621-.622l1.831-4.855A1.066,1.066,0,0,1,630.978,284.49Z" transform="translate(-278.89 -142.315)" fill="#e23e57"/>
          <path id="Path_905891" data-name="Path 905891" d="M594.78,243.279l1.01,2.678a.585.585,0,0,0,.342.342l2.678,1.01a.588.588,0,0,1,0,1.1l-2.678,1.01a.588.588,0,0,0-.342.343l-1.01,2.677a.588.588,0,0,1-1.1,0l-1.01-2.677a.588.588,0,0,0-.342-.343l-2.678-1.01a.588.588,0,0,1,0-1.1l2.678-1.01a.585.585,0,0,0,.342-.342l1.01-2.678A.588.588,0,0,1,594.78,243.279Z" transform="translate(-266.386 -126.19)" fill="#46cdcf"/>
        </g>
      </g>
    </g>
  </g>
</svg>
