<svg xmlns="http://www.w3.org/2000/svg" width="36.307" height="37.384" viewBox="0 0 36.307 37.384">
  <path id="project-management_9402549" d="M26.041,24.346a.528.528,0,0,1-.015.746l-.865.831v2.856a.528.528,0,0,1-.528.528H19.764a.528.528,0,0,1-.528-.528V23.91a.528.528,0,0,1,.528-.528h4.869a.528.528,0,1,1,0,1.055H20.292v3.814h3.814V26.937l-.882.847a.528.528,0,0,1-.739-.007l-1.4-1.4a.528.528,0,0,1,.746-.746l1.038,1.038,2.43-2.334a.528.528,0,0,1,.746.015ZM25.3,32.411l-2.43,2.334-1.038-1.037a.528.528,0,0,0-.746.747l1.4,1.4a.528.528,0,0,0,.738.007l.882-.847v1.317H20.292V32.52h4.341a.528.528,0,1,0,0-1.055H19.764a.528.528,0,0,0-.528.528v4.869a.528.528,0,0,0,.528.528h4.869a.528.528,0,0,0,.528-.528V34l.865-.831a.528.528,0,0,0-.731-.761Zm0-16.163-2.43,2.334-1.038-1.037a.528.528,0,1,0-.746.747l1.4,1.4a.528.528,0,0,0,.738.007l.882-.847v1.315H20.292V16.356h4.341a.528.528,0,1,0,0-1.055H19.764a.528.528,0,0,0-.528.528V20.7a.528.528,0,0,0,.528.528h4.869a.528.528,0,0,0,.528-.528V17.841l.865-.831a.528.528,0,0,0-.731-.761Zm3.8,1.408H33.8a.528.528,0,0,0,0-1.055H29.094a.528.528,0,0,0,0,1.055Zm0,2.267h8.439a.528.528,0,0,0,0-1.055H29.094a.528.528,0,0,0,0,1.055ZM30.7,27.478a.528.528,0,0,0-.528-.528H29.094a.528.528,0,0,0,0,1.055h1.083A.528.528,0,0,0,30.7,27.478Zm-1.611-1.739h3.26a.528.528,0,0,0,0-1.055h-3.26a.528.528,0,0,0,0,1.055ZM51.45,34.922a10.456,10.456,0,0,1-17,8.159H15.671a.528.528,0,0,1-.528-.528V13.189a.528.528,0,0,1,.155-.373l4.662-4.662A.528.528,0,0,1,20.332,8h21.3a.528.528,0,0,1,.528.528V20.951H43a1.094,1.094,0,0,1,1.092,1.094v1.07A1.094,1.094,0,0,1,43,24.209h-.705v.331A10.478,10.478,0,0,1,51.45,34.922ZM41.236,24.209h-.5v.253c.082,0,.165,0,.248,0s.166,0,.248,0Zm1.76-2.2H38.982a.04.04,0,0,0-.039.039v1.07a.04.04,0,0,0,.039.039H43a.039.039,0,0,0,.036-.039v-1.07A.039.039,0,0,0,43,22.007ZM16.944,12.662H19.8V9.8ZM16.2,42.026H33.315a10.456,10.456,0,0,1,6.37-17.485v-.331h-.7a1.1,1.1,0,0,1-1.094-1.094v-1.07a1.1,1.1,0,0,1,1.094-1.094H41.1V9.055H20.86v4.134a.528.528,0,0,1-.528.528H16.2Zm34.2-7.1a9.407,9.407,0,1,0-9.407,9.407A9.418,9.418,0,0,0,50.4,34.922Zm-1.1,0a8.3,8.3,0,1,1-8.3-8.3A8.311,8.311,0,0,1,49.29,34.922Zm-1.075.528h-.951a.528.528,0,0,1,0-1.055h.951a7.257,7.257,0,0,0-6.7-6.7v.949a.528.528,0,0,1-1.055,0V27.7a7.256,7.256,0,0,0-6.7,6.7h.949a.528.528,0,0,1,0,1.055h-.949a7.256,7.256,0,0,0,6.7,6.7V41.2a.528.528,0,1,1,1.055,0v.949a7.257,7.257,0,0,0,6.7-6.7Zm-4.44,1.514a.528.528,0,1,1-.746.746l-1.352-1.352A1.592,1.592,0,1,1,40.46,33.42V30.674a.528.528,0,0,1,1.055,0V33.42a1.587,1.587,0,0,1,.907,2.191Zm-2.787-1.5a.539.539,0,1,0-.539-.539A.539.539,0,0,0,40.988,35.46Z" transform="translate(-15.143 -8)" fill="#6a2c83"/>
</svg>
