<svg xmlns="http://www.w3.org/2000/svg" xmlns:xlink="http://www.w3.org/1999/xlink" width="86" height="86" viewBox="0 0 86 86">
  <defs>
    <filter id="Ellipse_11513" x="0" y="0" width="86" height="86" filterUnits="userSpaceOnUse">
      <feOffset dy="3" input="SourceAlpha"/>
      <feGaussianBlur stdDeviation="3" result="blur"/>
      <feFlood flood-opacity="0.161"/>
      <feComposite operator="in" in2="blur"/>
      <feComposite in="SourceGraphic"/>
    </filter>
  </defs>
  <g id="Group_1143703" data-name="Group 1143703" transform="translate(-817 -450)">
    <g id="Group_1143465" data-name="Group 1143465" transform="translate(630 -707)">
      <g transform="matrix(1, 0, 0, 1, 187, 1157)" filter="url(#Ellipse_11513)">
        <g id="Ellipse_11513-2" data-name="Ellipse 11513" transform="translate(9 6)" fill="#f8ecfd" stroke="#6a2c83" stroke-width="3">
          <circle cx="34" cy="34" r="34" stroke="none"/>
          <circle cx="34" cy="34" r="32.5" fill="none"/>
        </g>
      </g>
    </g>
    <g id="video_13017616" transform="translate(838 463.122)">
      <path id="Path_905315" data-name="Path 905315" d="M7,10H35.382V45.06H7Z" transform="translate(-0.165 -1.487)" fill="#c7e2fb"/>
      <path id="Path_905316" data-name="Path 905316" d="M35.382,10H7V20.017A25.254,25.254,0,0,0,32.46,45.06h2.922Z" transform="translate(-0.165 -1.487)" fill="#ebf7fe"/>
      <circle id="Ellipse_11567" data-name="Ellipse 11567" cx="11" cy="11" r="11" transform="translate(10 12)" fill="#fff"/>
      <path id="Path_905317" data-name="Path 905317" d="M7,56.174a4.174,4.174,0,0,0,4.174,4.174H31.208a4.174,4.174,0,0,0,4.174-4.174V52H7Z" transform="translate(-0.165 -8.427)" fill="#666e77"/>
      <path id="Path_905318" data-name="Path 905318" d="M35.39,56.174V52H7.05c.439,4.645,8.089,8.348,17.488,8.348h6.678a4.174,4.174,0,0,0,4.174-4.174Z" transform="translate(-0.173 -8.427)" fill="#88929f"/>
      <path id="Path_905319" data-name="Path 905319" d="M31.208,2H11.174A4.174,4.174,0,0,0,7,6.174v2.5H35.382v-2.5A4.174,4.174,0,0,0,31.208,2Z" transform="translate(-0.165 -0.165)" fill="#666e77"/>
      <path id="Path_905320" data-name="Path 905320" d="M35.6,6.174A4.174,4.174,0,0,0,31.427,2H11.393A4.15,4.15,0,0,0,8.38,3.3a1.709,1.709,0,0,0-.056.372c0,2.766,6.666,5.009,14.891,5.009H35.6Z" transform="translate(-0.384 -0.165)" fill="#88929f"/>
      <path id="Path_905321" data-name="Path 905321" d="M31,20.521V10.5A2.5,2.5,0,0,1,33.5,8H50.2a2.5,2.5,0,0,1,2.5,2.5V20.521a2.5,2.5,0,0,1-2.5,2.5H46.026l-3.339,2.5v-2.5H33.5A2.5,2.5,0,0,1,31,20.521Z" transform="translate(-4.131 -1.157)" fill="#c7e2fb"/>
      <path id="Path_905322" data-name="Path 905322" d="M50.226,8h-16.7a2.5,2.5,0,0,0-2.372,1.735c.906,6.555,6.847,11.622,14.058,11.622a14.756,14.756,0,0,0,7.513-2.04V10.5A2.5,2.5,0,0,0,50.226,8Z" transform="translate(-4.157 -1.157)" fill="#ebf7fe"/>
      <path id="Path_905323" data-name="Path 905323" d="M38,13h6.678v6.678H38Z" transform="translate(-5.288 -1.983)" fill="#88929f"/>
      <path id="Path_905324" data-name="Path 905324" d="M46,13.67v5.009l3.339,1.67V12Z" transform="translate(-6.609 -1.818)" fill="#a0a8b2"/>
      <rect id="Rectangle_405568" data-name="Rectangle 405568" width="6" height="3" rx="1.5" transform="translate(18 46)" fill="#b3b9c1"/>
      <path id="Path_905325" data-name="Path 905325" d="M19.339,19l-2.453,2.453a3.023,3.023,0,0,0,0,4.276l5.742,5.742a3.023,3.023,0,0,0,4.276,0l2.453-2.453-3.339-3.339-1.67,1.67-3.339-3.339,1.67-1.67Z" transform="translate(-1.652 -2.974)" fill="#78b761"/>
      <ellipse id="Ellipse_11568" data-name="Ellipse 11568" cx="1.5" cy="2" rx="1.5" ry="2" transform="translate(13 37)" fill="#f5b95b"/>
      <path id="Path_905326" data-name="Path 905326" d="M15.835,44a1.646,1.646,0,0,0-.815.221,1.881,1.881,0,0,0-.02.2A2.087,2.087,0,0,0,17.087,46.5a1.88,1.88,0,0,0,.2-.02,1.646,1.646,0,0,0,.221-.815A1.67,1.67,0,0,0,15.835,44Z" transform="translate(-1.487 -7.105)" fill="#f9d18f"/>
      <ellipse id="Ellipse_11569" data-name="Ellipse 11569" cx="1" cy="2" rx="1" ry="2" transform="translate(20 37)" fill="#669e54"/>
      <path id="Path_905327" data-name="Path 905327" d="M23.835,44a1.646,1.646,0,0,0-.815.221,1.879,1.879,0,0,0-.02.2A2.087,2.087,0,0,0,25.087,46.5a1.88,1.88,0,0,0,.2-.02,1.646,1.646,0,0,0,.221-.815A1.67,1.67,0,0,0,23.835,44Z" transform="translate(-2.809 -7.105)" fill="#78b761"/>
      <ellipse id="Ellipse_11570" data-name="Ellipse 11570" cx="1.5" cy="2" rx="1.5" ry="2" transform="translate(26 37)" fill="#f5b95b"/>
      <path id="Path_905328" data-name="Path 905328" d="M31.835,44a1.646,1.646,0,0,0-.815.221,1.88,1.88,0,0,0-.02.2A2.087,2.087,0,0,0,33.087,46.5a1.879,1.879,0,0,0,.2-.02,1.646,1.646,0,0,0,.221-.815A1.67,1.67,0,0,0,31.835,44Z" transform="translate(-4.131 -7.105)" fill="#f9d18f"/>
      <path id="Path_905329" data-name="Path 905329" d="M21,5h5.008V6.67H21Z" transform="translate(-2.479 -0.661)"/>
      <path id="Path_905330" data-name="Path 905330" d="M26.442,24.923a.835.835,0,0,0-1.18,0L24.182,26l-2.159-2.159L23.1,22.764a.835.835,0,0,0,0-1.18l-3.339-3.339a.835.835,0,0,0-1.18,0L16.13,20.7a3.857,3.857,0,0,0,0,5.456L21.872,31.9a3.857,3.857,0,0,0,5.456,0l2.453-2.453a.835.835,0,0,0,0-1.18Zm-.295,5.792a2.241,2.241,0,0,1-3.1,0l-5.742-5.742a2.189,2.189,0,0,1,0-3.1l1.863-1.863,2.159,2.159-1.079,1.079a.835.835,0,0,0,0,1.18l3.339,3.339a.835.835,0,0,0,1.18,0l1.079-1.079,2.159,2.159Z" transform="translate(-1.487 -2.809)"/>
      <path id="Path_905331" data-name="Path 905331" d="M46.069,6.009H36.051A5.014,5.014,0,0,0,31.043,1H11.009A5.014,5.014,0,0,0,6,6.009V47.747a5.014,5.014,0,0,0,5.009,5.009H31.043a5.014,5.014,0,0,0,5.009-5.009V22.7h1.67v1.67a.835.835,0,0,0,1.336.668L42.173,22.7h3.9a3.339,3.339,0,0,0,3.339-3.339V9.348A3.339,3.339,0,0,0,46.069,6.009ZM11.009,2.67H31.043a3.339,3.339,0,0,1,3.339,3.339H29.373A3.328,3.328,0,0,0,26.5,7.678H7.67V6.009A3.339,3.339,0,0,1,11.009,2.67ZM31.043,22.7a10.03,10.03,0,1,1-5.009-8.67v5.331A3.339,3.339,0,0,0,29.373,22.7Zm0,28.382H11.009A3.339,3.339,0,0,1,7.67,47.747V44.408H34.382v3.339A3.339,3.339,0,0,1,31.043,51.086Zm3.339-8.348H7.67V9.348H26.034v2.8A11.687,11.687,0,1,0,32.712,22.7h1.67ZM47.738,19.365a1.67,1.67,0,0,1-1.67,1.67H41.895a.835.835,0,0,0-.5.167l-2,1.5v-.835a.835.835,0,0,0-.835-.835H29.373a1.67,1.67,0,0,1-1.67-1.67V9.348a1.67,1.67,0,0,1,1.67-1.67h16.7a1.67,1.67,0,0,1,1.67,1.67Z" transform="translate(0)"/>
      <path id="Path_905332" data-name="Path 905332" d="M48.291,11.124a.835.835,0,0,0-.812-.037L45.2,12.226a.82.82,0,0,0-.69-.392H37.835a.835.835,0,0,0-.835.835v6.678a.835.835,0,0,0,.835.835h6.678a.82.82,0,0,0,.69-.392l2.276,1.143a.835.835,0,0,0,1.208-.751V11.835A.835.835,0,0,0,48.291,11.124Zm-4.613,7.388H38.67V13.5h5.009Zm3.339.319L45.348,18V14.02l1.67-.835Z" transform="translate(-5.122 -1.652)"/>
      <path id="Path_905333" data-name="Path 905333" d="M23.5,43a2.5,2.5,0,1,0,2.5,2.5A2.5,2.5,0,0,0,23.5,43Zm0,3.339a.835.835,0,1,1,.835-.835A.835.835,0,0,1,23.5,46.339Z" transform="translate(-2.479 -6.94)"/>
      <path id="Path_905334" data-name="Path 905334" d="M31.5,43a2.5,2.5,0,1,0,2.5,2.5A2.5,2.5,0,0,0,31.5,43Zm0,3.339a.835.835,0,1,1,.835-.835A.835.835,0,0,1,31.5,46.339Z" transform="translate(-3.8 -6.94)"/>
      <path id="Path_905335" data-name="Path 905335" d="M15.5,43a2.5,2.5,0,1,0,2.5,2.5A2.5,2.5,0,0,0,15.5,43Zm0,3.339a.835.835,0,1,1,.835-.835A.835.835,0,0,1,15.5,46.339Z" transform="translate(-1.157 -6.94)"/>
      <path id="Path_905336" data-name="Path 905336" d="M24.843,59.009H21.5A2.5,2.5,0,1,1,21.5,54h3.339a2.5,2.5,0,1,1,0,5.009ZM21.5,55.67a.835.835,0,1,0,0,1.67h3.339a.835.835,0,1,0,0-1.67Z" transform="translate(-2.148 -8.758)"/>
    </g>
  </g>
</svg>
