<svg xmlns="http://www.w3.org/2000/svg" xmlns:xlink="http://www.w3.org/1999/xlink" width="108" height="108" viewBox="0 0 108 108">
  <defs>
    <filter id="Ellipse_11495" x="0" y="0" width="108" height="108" filterUnits="userSpaceOnUse">
      <feOffset dy="3" input="SourceAlpha"/>
      <feGaussianBlur stdDeviation="3" result="blur"/>
      <feFlood flood-opacity="0.161"/>
      <feComposite operator="in" in2="blur"/>
      <feComposite in="SourceGraphic"/>
    </filter>
  </defs>
  <g id="Group_1143743" data-name="Group 1143743" transform="translate(-208 -370.5)">
    <g id="Group_1143684" data-name="Group 1143684" transform="translate(9.898 -10405.5)">
      <g transform="matrix(1, 0, 0, 1, 198.1, 10776)" filter="url(#Ellipse_11495)">
        <g id="Ellipse_11495-2" data-name="Ellipse 11495" transform="translate(9 6)" fill="#ecf4fa" stroke="#7b277e" stroke-width="3">
          <circle cx="45" cy="45" r="45" stroke="none"/>
          <circle cx="45" cy="45" r="43.5" fill="none"/>
        </g>
      </g>
    </g>
    <g id="limite-de-tiempo" transform="translate(221.229 365.564)">
      <g id="Group_1143741" data-name="Group 1143741" transform="translate(1.167 28.795)">
        <g id="Group_1143730" data-name="Group 1143730" transform="translate(12.546)">
          <path id="Path_905373" data-name="Path 905373" d="M155.168,68.43a26.647,26.647,0,0,0-19.206,8.142l2.828,4.9A21.348,21.348,0,0,1,174.364,104.5a14.448,14.448,0,0,1,6.047-.542,26.742,26.742,0,0,0-25.243-35.53Z" transform="translate(-128.552 -68.43)" fill="#fe646f"/>
          <path id="Path_905374" data-name="Path 905374" d="M124.533,272.8a21.353,21.353,0,0,1-30.854-16.6h-5.41a26.747,26.747,0,0,0,35.819,22.658,14.422,14.422,0,0,1,.446-6.057Z" transform="translate(-88.268 -227.024)" fill="#fe646f"/>
        </g>
        <g id="Group_1143733" data-name="Group 1143733" transform="translate(48.071 35.266)">
          <g id="Group_1143731" data-name="Group 1143731">
            <path id="Path_905375" data-name="Path 905375" d="M331.5,295.426a14.56,14.56,0,0,0-4.4.677,21.331,21.331,0,0,1-9.56,9.712,14.572,14.572,0,1,0,13.961-10.39Z" transform="translate(-316.93 -295.426)" fill="#05e39c"/>
          </g>
          <g id="Group_1143732" data-name="Group 1143732" transform="translate(11.313)">
            <path id="Path_905376" data-name="Path 905376" d="M393.007,295.426a14.61,14.61,0,0,0-3.257.366,14.574,14.574,0,0,1,0,28.409,14.572,14.572,0,1,0,3.257-28.775Z" transform="translate(-389.75 -295.426)" fill="#0ed290"/>
          </g>
        </g>
        <g id="Group_1143736" data-name="Group 1143736" transform="translate(17.956 5.383)">
          <g id="Group_1143734" data-name="Group 1143734">
            <path id="Path_905377" data-name="Path 905377" d="M144.3,103.077a21.3,21.3,0,0,0-16.378,7.658l6.538,11.324a3.2,3.2,0,0,1-2.775,4.807h-8.59A21.345,21.345,0,1,0,144.3,103.077Z" transform="translate(-123.093 -103.077)" fill="#fff"/>
          </g>
          <g id="Group_1143735" data-name="Group 1143735" transform="translate(17.945 0)">
            <path id="Path_905378" data-name="Path 905378" d="M241.857,103.077a21.509,21.509,0,0,0-3.261.248,21.349,21.349,0,0,1,0,42.2,21.347,21.347,0,1,0,3.261-42.443Z" transform="translate(-238.596 -103.077)" fill="#f3f0f3"/>
          </g>
        </g>
        <g id="Group_1143737" data-name="Group 1143737" transform="translate(36.563 24.129)">
          <circle id="Ellipse_11574" data-name="Ellipse 11574" cx="2.599" cy="2.599" r="2.599" fill="#fe646f"/>
        </g>
        <g id="Group_1143740" data-name="Group 1143740" transform="translate(0 2.529)">
          <g id="Group_1143738" data-name="Group 1143738" transform="translate(0 0)">
            <path id="Path_905379" data-name="Path 905379" d="M19.561,86.389,7.97,106.467a3.36,3.36,0,0,0,2.91,5.04H34.063a3.36,3.36,0,0,0,2.91-5.04L25.381,86.389a3.36,3.36,0,0,0-5.819,0Z" transform="translate(-7.514 -84.709)" fill="#ffd15b"/>
          </g>
          <g id="Group_1143739" data-name="Group 1143739" transform="translate(11.733)">
            <path id="Path_905380" data-name="Path 905380" d="M100.761,106.467,89.169,86.389a3.36,3.36,0,0,0-5.819,0l-.314.544,11.278,19.534a3.36,3.36,0,0,1-2.91,5.04h6.447A3.36,3.36,0,0,0,100.761,106.467Z" transform="translate(-83.036 -84.709)" fill="#ffc344"/>
          </g>
        </g>
      </g>
      <g id="Group_1143742" data-name="Group 1143742" transform="translate(-0.001 21.505)">
        <path id="Path_905381" data-name="Path 905381" d="M345.663,45.175c.536.262,1.07.544,1.59.836a1.165,1.165,0,1,0,1.143-2.031c-.557-.314-1.132-.616-1.707-.9a1.165,1.165,0,1,0-1.026,2.093Z" transform="translate(-291.409 -39.629)"/>
        <path id="Path_905382" data-name="Path 905382" d="M381.085,67.137c.474.363.943.745,1.4,1.134A1.165,1.165,0,0,0,384,66.5c-.485-.417-.989-.826-1.5-1.216a1.165,1.165,0,1,0-1.418,1.849Z" transform="translate(-321.494 -58.282)"/>
        <path id="Path_905383" data-name="Path 905383" d="M306.6,30.659c.577.151,1.157.32,1.725.5a1.165,1.165,0,0,0,.717-2.217c-.61-.2-1.233-.38-1.853-.542a1.165,1.165,0,0,0-.589,2.255Z" transform="translate(-258.231 -27.3)"/>
        <path id="Path_905384" data-name="Path 905384" d="M436.6,131.158a1.165,1.165,0,0,0,2.084-1.043c-.287-.573-.595-1.146-.914-1.7a1.165,1.165,0,0,0-2.021,1.161c.3.517.584,1.051.851,1.585Z" transform="translate(-367.923 -111.309)"/>
        <path id="Path_905385" data-name="Path 905385" d="M463.163,248.93A1.163,1.163,0,0,0,461.915,250c-.045.6-.107,1.2-.185,1.788a1.165,1.165,0,1,0,2.31.3c.084-.634.151-1.28.2-1.92A1.165,1.165,0,0,0,463.163,248.93Z" transform="translate(-389.987 -213.594)"/>
        <path id="Path_905386" data-name="Path 905386" d="M412.657,97.027a1.165,1.165,0,1,0,1.837-1.434c-.394-.505-.808-1.006-1.23-1.487a1.165,1.165,0,1,0-1.753,1.535c.393.449.779.915,1.146,1.386Z" transform="translate(-347.334 -82.491)"/>
        <path id="Path_905387" data-name="Path 905387" d="M462.993,207.022a1.165,1.165,0,0,0-1.015,1.3c.072.591.129,1.193.168,1.79a1.165,1.165,0,0,0,1.162,1.089l.077,0a1.165,1.165,0,0,0,1.087-1.239c-.042-.64-.1-1.286-.18-1.921a1.165,1.165,0,0,0-1.3-1.015Z" transform="translate(-390.198 -178.193)"/>
        <path id="Path_905388" data-name="Path 905388" d="M452.816,167.633c.189.567.364,1.147.52,1.723a1.165,1.165,0,1,0,2.249-.609c-.168-.619-.355-1.242-.558-1.851a1.165,1.165,0,1,0-2.211.736Z" transform="translate(-382.415 -143.635)"/>
        <path id="Path_905389" data-name="Path 905389" d="M72.789,65.718q.155-.492.294-.985a1.165,1.165,0,1,0-2.244-.63c-.037.132-.078.264-.117.4a15.616,15.616,0,0,0-3.587-1.248,27.93,27.93,0,0,0-4.823-24.9,1.165,1.165,0,1,0-1.836,1.436A25.6,25.6,0,0,1,64.8,62.928c-.328-.021-.659-.032-.992-.032a15.722,15.722,0,0,0-2.269.165A22.508,22.508,0,0,0,24.273,39.75L22.7,37.019a25.554,25.554,0,0,1,34.175-.982,1.165,1.165,0,0,0,1.509-1.776,27.887,27.887,0,0,0-36.881.685l-1.458-2.525a4.62,4.62,0,0,0-.555-.767,31.538,31.538,0,0,1,20.841-7.82,1.165,1.165,0,0,0,0-2.33,33.864,33.864,0,0,0-22.884,8.849,4.581,4.581,0,0,0-1.321-.195A4.479,4.479,0,0,0,12.2,32.422l-4.417,7.65a1.165,1.165,0,1,0,2.018,1.165l4.417-7.65a2.194,2.194,0,0,1,3.8,0L29.616,53.665a2.195,2.195,0,0,1-1.9,3.292H4.532a2.195,2.195,0,0,1-1.9-3.292l4.457-7.719A1.165,1.165,0,1,0,5.069,44.78L.613,52.5a4.525,4.525,0,0,0,3.919,6.787H6.519A34.019,34.019,0,0,0,40.328,89.541a1.165,1.165,0,1,0,0-2.33A31.689,31.689,0,0,1,8.864,59.287H12.69A27.909,27.909,0,0,0,48.48,82.2a15.635,15.635,0,0,0,2.395,5.391,1.165,1.165,0,1,0,1.914-1.329A13.324,13.324,0,0,1,50.4,78.632a13.463,13.463,0,0,1,.379-3.178,22.665,22.665,0,0,0,9.642-9.8,13.406,13.406,0,1,1-4.068,24.118,1.165,1.165,0,0,0-1.3,1.936,15.733,15.733,0,0,0,17.73-25.994ZM48.121,79.874A25.571,25.571,0,0,1,15.043,59.287h3.09A22.512,22.512,0,0,0,48.2,76.611a15.873,15.873,0,0,0-.131,2.021q0,.625.049,1.242ZM40.328,75.7A20.188,20.188,0,0,1,20.5,59.287h7.215A4.525,4.525,0,0,0,31.634,52.5L25.488,41.854A20.179,20.179,0,1,1,40.328,75.7Z" transform="translate(0.001 -21.505)"/>
        <path id="Path_905390" data-name="Path 905390" d="M366.325,361.214h.019a1.165,1.165,0,0,0,.863-.4l8.531-9.873a1.165,1.165,0,0,0-1.763-1.524L366.3,358.3l-4.867-5.272a1.165,1.165,0,1,0-1.712,1.581l5.751,6.231a1.165,1.165,0,0,0,.856.375Z" transform="translate(-303.57 -298.129)"/>
        <path id="Path_905391" data-name="Path 905391" d="M253.249,125.717a1.165,1.165,0,0,0,1.165-1.165v-.928a1.165,1.165,0,0,0-2.33,0v.928A1.165,1.165,0,0,0,253.249,125.717Z" transform="translate(-212.92 -106.774)"/>
        <path id="Path_905392" data-name="Path 905392" d="M253.249,337.506a1.165,1.165,0,0,0-1.165,1.165v.928a1.165,1.165,0,1,0,2.33,0v-.928A1.165,1.165,0,0,0,253.249,337.506Z" transform="translate(-212.92 -288.412)"/>
        <path id="Path_905393" data-name="Path 905393" d="M356.622,234.134a1.165,1.165,0,0,0,1.165,1.165h.928a1.165,1.165,0,0,0,0-2.33h-.928A1.165,1.165,0,0,0,356.622,234.134Z" transform="translate(-301.217 -200.116)"/>
        <path id="Path_905394" data-name="Path 905394" d="M199,137.845a1.165,1.165,0,0,0-2.018,1.165l.464.8a1.165,1.165,0,1,0,2.018-1.165Z" transform="translate(-166.249 -119.278)"/>
        <path id="Path_905395" data-name="Path 905395" d="M306.526,324.082a1.165,1.165,0,1,0-2.018,1.165l.464.8a1.165,1.165,0,0,0,2.018-1.165Z" transform="translate(-257.068 -276.582)"/>
        <path id="Path_905396" data-name="Path 905396" d="M157.764,285.392l-.8.464a1.165,1.165,0,1,0,1.165,2.018l.8-.464a1.165,1.165,0,1,0-1.165-2.018Z" transform="translate(-132.083 -244.262)"/>
        <path id="Path_905397" data-name="Path 905397" d="M342.771,179.925a1.165,1.165,0,0,0,1.592.426l.8-.464A1.165,1.165,0,0,0,344,177.869l-.8.464A1.165,1.165,0,0,0,342.771,179.925Z" transform="translate(-289.386 -153.444)"/>
        <path id="Path_905398" data-name="Path 905398" d="M345.167,285.856l-.8-.464a1.165,1.165,0,0,0-1.165,2.018l.8.464a1.165,1.165,0,1,0,1.165-2.018Z" transform="translate(-289.386 -244.262)"/>
        <path id="Path_905399" data-name="Path 905399" d="M199.039,323.656a1.165,1.165,0,0,0-1.592.426l-.464.8A1.165,1.165,0,1,0,199,326.051l.464-.8A1.165,1.165,0,0,0,199.039,323.656Z" transform="translate(-166.248 -276.582)"/>
        <path id="Path_905400" data-name="Path 905400" d="M304.935,140.241a1.165,1.165,0,0,0,1.592-.427l.464-.8a1.165,1.165,0,1,0-2.018-1.165l-.464.8A1.165,1.165,0,0,0,304.935,140.241Z" transform="translate(-257.068 -119.279)"/>
        <path id="Path_905401" data-name="Path 905401" d="M97.45,132.512a1.165,1.165,0,0,0,1.165-1.165v-8.8a1.165,1.165,0,1,0-2.33,0v8.8A1.165,1.165,0,0,0,97.45,132.512Z" transform="translate(-81.326 -105.863)"/>
        <path id="Path_905402" data-name="Path 905402" d="M96.285,209.856a1.165,1.165,0,1,0,2.33,0v-1.073a1.165,1.165,0,1,0-2.33,0Z" transform="translate(-81.326 -178.703)"/>
        <path id="Path_905403" data-name="Path 905403" d="M248.959,166.368H242.7a3.78,3.78,0,0,0-2.413-2.413v-8.672a1.165,1.165,0,1,0-2.33,0v8.672A3.763,3.763,0,1,0,242.7,168.7h6.259a1.165,1.165,0,0,0,0-2.33Zm-9.837,2.6a1.433,1.433,0,1,1,1.433-1.433A1.435,1.435,0,0,1,239.122,168.967Z" transform="translate(-198.793 -133.515)"/>
      </g>
    </g>
  </g>
</svg>
